<?xml version="1.0" encoding="UTF-8" standalone="no"?>
<!-- Created with Inkscape (http://www.inkscape.org/) -->

<svg
   width="64"
   height="64"
   viewBox="0 0 16.933333 16.933333"
   version="1.1"
   id="svg1"
   inkscape:version="1.4.2 (ebf0e940d0, 2025-05-08)"
   sodipodi:docname="show-reimbursement_closure-logo.svg"
   xml:space="preserve"
   xmlns:inkscape="http://www.inkscape.org/namespaces/inkscape"
   xmlns:sodipodi="http://sodipodi.sourceforge.net/DTD/sodipodi-0.dtd"
   xmlns="http://www.w3.org/2000/svg"
   xmlns:svg="http://www.w3.org/2000/svg"><sodipodi:namedview
     id="namedview1"
     pagecolor="#ffffff"
     bordercolor="#000000"
     borderopacity="0.25"
     inkscape:showpageshadow="false"
     inkscape:pageopacity="0.0"
     inkscape:pagecheckerboard="0"
     inkscape:deskcolor="#d1d1d1"
     inkscape:document-units="px"
     inkscape:zoom="13.280349"
     inkscape:cx="36.105978"
     inkscape:cy="30.571485"
     inkscape:window-width="2520"
     inkscape:window-height="1404"
     inkscape:window-x="2600"
     inkscape:window-y="0"
     inkscape:window-maximized="1"
     inkscape:current-layer="layer1" /><defs
     id="defs1">
	
	

	
		
	

	
	

		
		
		
		
		
		
		
	
			
			
			
			
			
			
			
		
			
			
			
			
			
			
			
			
			
			
			
			
			
			
			
			
			
			
			
			
			
			
		
			
			
			
			
			
			
			
			
		
			
			
			
			
			
			
			
			
			
			
			
			
			
		<filter
   inkscape:collect="always"
   style="color-interpolation-filters:sRGB"
   id="filter65"
   x="-0.027494039"
   y="-0.025858488"
   width="1.0549881"
   height="1.051717"><feGaussianBlur
     inkscape:collect="always"
     stdDeviation="5.3093512"
     id="feGaussianBlur65" /></filter>
	

	
	
	
	
	
</defs><g
     inkscape:label="Livello 1"
     inkscape:groupmode="layer"
     id="layer1"><polygon
       style="fill:#999999;fill-opacity:1;filter:url(#filter65)"
       points="191.369,512 161.011,512 156.662,500.779 118.649,500.779 114.3,512 83.942,512 79.592,500.779 41.58,500.779 37.23,512 21.572,512 21.572,19.224 485.034,19.224 485.034,512 469.377,512 465.028,500.779 427.015,500.779 422.666,512 392.307,512 387.958,500.779 349.945,500.779 345.596,512 315.237,512 310.801,500.779 272.875,500.779 268.439,512 238.168,512 233.732,500.779 195.806,500.779 "
       id="polygon4"
       transform="matrix(0.03203939,0,0,0.03203939,0.47043393,0.09069492)" /><polygon
       style="fill:#ffffff"
       points="268.439,512 238.168,512 233.732,500.779 195.806,500.779 191.369,512 161.011,512 156.662,500.779 118.649,500.779 114.3,512 83.942,512 79.592,500.779 41.58,500.779 37.23,512 21.572,512 21.572,19.224 485.034,19.224 485.034,512 469.377,512 465.028,500.779 427.015,500.779 422.666,512 392.307,512 387.958,500.779 349.945,500.779 345.596,512 315.237,512 310.801,500.779 272.875,500.779 "
       id="polygon1-3"
       transform="matrix(0.03203939,0,0,0.03203939,0.350993,-0.02803293)" /><path
       id="rect9-7"
       style="fill:#999999;stroke-width:0.0320394"
       d="m 2.066606,6.3397961 12.386883,0 v 0.3933796 l -12.386883,0 z"
       sodipodi:nodetypes="ccccc" /><path
       id="rect10"
       style="fill:#999999;stroke-width:0.0320395"
       d="M 2.0666061,7.3471176 H 14.453604 V 7.7404972 H 2.0666061 Z" /><path
       id="rect11"
       style="fill:#999999;stroke-width:0.0320395"
       d="M 2.0666061,8.3544391 H 14.453604 V 8.7478188 H 2.0666061 Z" /><path
       id="rect12"
       style="fill:#999999;stroke-width:0.0320394"
       d="M 2.066606,9.3617606 H 14.453604 V 9.7551402 H 2.066606 Z" /><path
       style="opacity:0.1;fill:#3b3b42;stroke-width:0.0320394"
       d="m 15.891187,16.376135 h -0.501641 l -0.13934,-0.359514 h -1.217913 l -0.139339,0.359514 h -0.972652 l -0.139339,-0.359514 h -1.217914 l -0.139371,0.359514 H 10.451026 L 10.308899,16.016621 H 9.0937736 L 8.9516148,16.376135 H 7.98175 L 7.839624,16.016621 H 6.624498 L 6.482339,16.376135 H 5.509687 L 5.370348,16.016621 H 4.152435 l -0.13934,0.359514 H 3.040443 L 2.901104,16.016621 H 1.683191 L 1.543819,16.376135 H 1.042147 V 15.598539 L 6.986799,9.6539508 7.379762,9.2609873 7.962238,8.6785112 8.3552016,8.285548 15.891187,0.58789235 Z"
       id="path52"
       sodipodi:nodetypes="ccccccccccccccccccccccccccccccccc" /><path
       style="font-size:1.46369px;font-family:'Futura XBlk BT';-inkscape-font-specification:'Futura XBlk BT';text-align:center;letter-spacing:0px;text-anchor:middle;fill:#999999;stroke-width:0.0164665"
       d="m 12.366186,14.050187 q -0.05146,-0.04931 -0.105059,-0.07361 -0.0536,-0.0243 -0.112922,-0.0243 -0.0922,0 -0.148656,0.05718 -0.05575,0.05646 -0.05575,0.1508 0,0.0922 0.0536,0.147227 0.0536,0.05503 0.143653,0.05503 0.05432,0 0.110063,-0.02287 0.05646,-0.02359 0.122927,-0.07433 l -0.01215,0.393795 q -0.06146,0.02501 -0.122927,0.03716 -0.06146,0.01286 -0.122927,0.01286 -0.07647,0 -0.147227,-0.01715 -0.07076,-0.01715 -0.12793,-0.0486 -0.13865,-0.08005 -0.210119,-0.202258 -0.07076,-0.122212 -0.07076,-0.280874 0,-0.11721 0.04002,-0.217267 0.04074,-0.100057 0.117924,-0.176529 0.0779,-0.07719 0.180102,-0.116495 0.102916,-0.04002 0.22227,-0.04002 0.06361,0 0.125071,0.01358 0.06218,0.01286 0.120783,0.03931 z m 0.831902,0.256575 h -0.163664 v -0.245854 h 0.578186 q 0.0014,0.03216 0.0021,0.04788 7.15e-4,0.01572 7.15e-4,0.02787 0,0.09005 -0.01715,0.164379 -0.01715,0.07433 -0.05003,0.131504 -0.08005,0.134362 -0.206547,0.205831 -0.1265,0.07076 -0.287306,0.07076 -0.118639,0 -0.22084,-0.03931 -0.101486,-0.04002 -0.180102,-0.11721 -0.0779,-0.07719 -0.117925,-0.176529 -0.04002,-0.09934 -0.04002,-0.215837 0,-0.11721 0.04002,-0.216552 0.04074,-0.100057 0.117925,-0.175814 0.0779,-0.07647 0.180102,-0.116495 0.102201,-0.04002 0.22084,-0.04002 0.160806,0 0.285877,0.07076 0.125071,0.07004 0.204402,0.205831 l -0.335191,0.124357 q -0.02644,-0.0436 -0.06361,-0.06504 -0.03716,-0.02144 -0.08505,-0.02144 -0.08362,0 -0.133647,0.06361 -0.04931,0.06361 -0.04931,0.170812 0,0.110777 0.05003,0.172241 0.05003,0.06075 0.141509,0.06075 0.05432,0 0.08791,-0.02287 0.0343,-0.02287 0.04074,-0.06361 z m 0.561749,0.374499 v -1.04631 h 0.38236 v 1.04631 z m 0.585333,0 v -1.04631 h 0.376643 v 0.706831 h 0.365922 v 0.339479 z"
       id="text4"
       aria-label="CGIL" /><path
       id="path1"
       style="fill:#999999;stroke-width:0.0320394"
       d="m 2.066606,10.369082 h 12.386998 v 0.39338 H 2.066606 Z" /><path
       id="path2"
       style="fill:#999999;stroke-width:0.0320394"
       d="m 2.066606,11.376404 h 12.386998 v 0.39338 H 2.066606 Z" /><path
       id="SVGCleanerId_0"
       style="fill:#ffb655;stroke-width:0.41341"
       d="M 3.3583591,4.2108299 H 3.2682358 3.0879931 2.75755 2.4270953 2.2468526 2.1567293 c -0.049772,0 -0.090123,0.040351 -0.090123,0.090123 V 5.32234 c 0,0.049772 0.040351,0.090123 0.090123,0.090123 H 2.75755 3.3583591 c 0.049772,0 0.090123,-0.040351 0.090123,-0.090123 V 4.3009532 c 0,-0.049772 -0.040351,-0.090123 -0.090123,-0.090123 z" /><path
       id="SVGCleanerId_0_1_"
       style="fill:#ffad73;stroke-width:0.41341;fill-opacity:1"
       d="M 3.3583591,4.2108299 H 3.2682358 3.0879931 2.75755 2.4270953 2.2468526 2.1567293 c -0.049772,0 -0.090123,0.040351 -0.090123,0.090123 V 5.32234 c 0,0.049772 0.040351,0.090123 0.090123,0.090123 H 2.75755 3.3583591 c 0.049772,0 0.090123,-0.040351 0.090123,-0.090123 V 4.3009532 c 0,-0.049772 -0.040351,-0.090123 -0.090123,-0.090123 z" /><path
       style="fill:#999999;stroke-width:0.41341;fill-opacity:1"
       d="m 2.9075627,4.7138102 c -2.362e-4,-0.00453 -6.97e-4,-0.00901 -0.00133,-0.01343 -5.228e-4,-0.00371 -0.00118,-0.00737 -0.00198,-0.01099 -0.012629,-0.057703 -0.05849,-0.1031188 -0.1164684,-0.1150149 -3.292e-4,-6.59e-5 -6.622e-4,-1.123e-4 -9.991e-4,-1.821e-4 -0.00701,-0.00139 -0.014185,-0.00231 -0.021515,-0.00268 -0.00152,-7.74e-5 -0.00306,-8.52e-5 -0.00459,-1.2e-4 -0.00105,-1.94e-5 -0.00208,-7.75e-5 -0.00313,-7.75e-5 0,0 0,0 -7.7e-6,0 -0.082824,0 -0.1502042,0.067381 -0.1502042,0.1502042 0,0.049037 0.02363,0.092652 0.060081,0.1200805 v 0.1202548 c 0,0.049772 0.040351,0.090123 0.090123,0.090123 7.7e-6,0 7.7e-6,0 7.7e-6,0 0.00218,0 0.00432,-1.743e-4 0.00646,-3.253e-4 9.062e-4,-6.58e-5 0.00184,-4.65e-5 0.00275,-1.394e-4 0.00129,-1.317e-4 0.00255,-3.95e-4 0.00382,-5.809e-4 0.043577,-0.00633 0.077085,-0.043739 0.077085,-0.08907 v -0.120247 c 0.036451,-0.027429 0.060081,-0.071048 0.060081,-0.1200805 3.8e-6,-0.00259 -6.2e-5,-0.00517 -1.898e-4,-0.00773 z"
       id="path1-7" /><path
       style="fill:#adb5bd;stroke-width:0.41341;fill-opacity:1"
       d="m 2.4270992,3.9404562 c 0,-0.1822022 0.1482409,-0.3304431 0.3304469,-0.3304431 0.1822061,0 0.330447,0.1482409 0.330447,0.3304431 V 4.2108299 H 3.2682358 V 3.9404562 c 3.9e-6,-0.2815884 -0.2290936,-0.5106858 -0.5106897,-0.5106858 -0.2815961,0 -0.5106935,0.2290974 -0.5106935,0.5106858 V 4.2108299 H 2.4270953 V 3.9404562 Z"
       id="path2-4" /><path
       style="fill:#333333;stroke-width:0.41341;fill-opacity:1"
       d="m 2.7575539,4.5713192 c 0,0 0,0 -7.8e-6,0 -0.082824,0 -0.1502042,0.067381 -0.1502042,0.1502042 0,0.049037 0.02363,0.092652 0.060081,0.1200805 v 0.120247 c 0,0.049773 0.040351,0.090123 0.090123,0.090123 7.8e-6,0 7.8e-6,0 7.8e-6,0 z"
       id="path3" /><path
       style="fill:#f1cb30;stroke-width:0.41341"
       d="m 2.7667625,5.0515018 c -9.022e-4,8.91e-5 -0.00184,7.75e-5 -0.00275,1.394e-4 9.139e-4,-6.19e-5 0.00184,-4.26e-5 0.00275,-1.394e-4 z"
       id="path4" /><path
       style="fill:#f1cb30;stroke-width:0.41341"
       d="m 2.7705846,5.0509209 c 0.043577,-0.00633 0.077085,-0.043739 0.077085,-0.08907 0,0.045331 -0.033508,0.082743 -0.077085,0.08907 z"
       id="path5" /><path
       style="fill:#f1cb30;stroke-width:0.41341"
       d="m 2.9042535,4.6893899 c 7.939e-4,0.00362 0.00145,0.00728 0.00198,0.01099 -5.228e-4,-0.00371 -0.00118,-0.00737 -0.00198,-0.01099 z"
       id="path6" /><path
       style="fill:#f1cb30;stroke-width:0.41341"
       d="m 2.7606867,4.5713967 c 0.00153,3.1e-5 0.00306,3.48e-5 0.00459,1.2e-4 -0.00153,-7.74e-5 -0.00306,-8.52e-5 -0.00459,-1.2e-4 z"
       id="path7" /><path
       style="fill:#f1cb30;stroke-width:0.41341"
       d="m 2.7867831,4.5741965 c 3.369e-4,6.58e-5 6.66e-4,1.123e-4 9.991e-4,1.82e-4 -3.331e-4,-6.59e-5 -6.622e-4,-1.162e-4 -9.991e-4,-1.82e-4 z"
       id="path8" /><path
       style="fill:#ff851b;stroke-width:0.41341;fill-opacity:1"
       d="M 2.1567293,5.4124597 H 2.75755 V 5.0519704 c 0,0 0,0 -7.7e-6,0 -0.049772,0 -0.090123,-0.040351 -0.090123,-0.090123 v -0.120247 c -0.036451,-0.027429 -0.060081,-0.071048 -0.060081,-0.1200805 0,-0.082824 0.06738,-0.1502042 0.1502042,-0.1502042 7.7e-6,0 7.7e-6,0 7.7e-6,0 V 4.2108261 H 2.4270953 2.2468526 2.1567293 c -0.049772,0 -0.090123,0.040351 -0.090123,0.090123 v 1.021387 c 3.9e-6,0.049772 0.040355,0.090123 0.090123,0.090124 z"
       id="path9" /><path
       style="fill:#999999;stroke-width:0.41341;fill-opacity:1"
       d="m 2.2468526,3.9404639 v 0.270366 h 0.1802427 v -0.270366 c 0,-0.1822099 0.1482409,-0.3304469 0.330447,-0.3304469 V 3.4297704 c -0.2815923,0 -0.5106897,0.2290974 -0.5106897,0.5106935 z"
       id="path10" /><path
       d="m 2.913276,1.900159 q 0,-0.064911 0.033867,-0.1157115 0.036689,-0.0508 0.090311,-0.084667 0.053622,-0.036689 0.1185337,-0.053622 0.064911,-0.019756 0.1241781,-0.019756 0.039511,0 0.0762,0.00847 0.036689,0.00847 0.036689,0.031045 0,0.014111 -0.028222,0.045156 -0.028222,0.028222 -0.093134,0.0508 -0.011289,0.00564 -0.036689,0.019756 -0.0254,0.014111 -0.0508,0.033867 -0.0254,0.016933 -0.045156,0.039511 -0.019756,0.022578 -0.019756,0.042333 0,0.036689 0.079022,0.067734 0.079022,0.031044 0.1919117,0.031044 0.081845,0 0.1693338,-0.019756 0.087489,-0.019756 0.1580449,-0.053622 0.073378,-0.036689 0.1185336,-0.090311 0.047978,-0.053622 0.047978,-0.1213558 0,-0.062089 -0.033867,-0.1044226 -0.033867,-0.042333 -0.087489,-0.070556 -0.053622,-0.028222 -0.1185336,-0.045156 -0.062089,-0.016933 -0.1213559,-0.022578 -0.059267,-0.00847 -0.1044225,-0.00847 -0.045156,-0.00282 -0.059267,-0.00282 -0.1072447,0 -0.2314228,0.022578 Q 3.0064096,1.4994023 2.8850537,1.544558 2.76652,1.5868914 2.656453,1.6518027 2.5463861,1.716714 2.4617192,1.8042031 2.3798745,1.88887 2.3290744,1.9961148 q -0.047978,0.1044225 -0.047978,0.2314229 0,0.1213559 0.045156,0.2173117 0.047978,0.095956 0.1241781,0.1693338 0.0762,0.073378 0.1749783,0.1241781 0.098778,0.0508 0.2032006,0.084667 0.1072447,0.031045 0.2116672,0.047978 0.1044226,0.014111 0.1947339,0.014111 0.208845,0 0.4176901,-0.045156 0.208845,-0.047978 0.4035789,-0.1411115 0.1185336,-0.056445 0.1636893,-0.064911 0.045156,-0.011289 0.045156,0.00282 0,0.031045 -0.033867,0.059267 -0.033867,0.028222 -0.098778,0.070556 -0.2314229,0.1524004 -0.4882458,0.2286006 -0.256823,0.079022 -0.5108237,0.079022 -0.1608671,0 -0.3499565,-0.0508 Q 2.5971862,2.9726064 2.4363191,2.8710061 2.2782742,2.7665836 2.1710295,2.6085387 2.066607,2.4504938 2.066607,2.2360044 q 0,-0.2398896 0.1185336,-0.428979 Q 2.3036743,1.6151137 2.4871192,1.4852911 2.6733864,1.3554686 2.8991648,1.287735 3.1249432,1.2171793 3.342255,1.2171793 q 0.1185336,0 0.2540007,0.0254 0.1382892,0.0254 0.2568229,0.084667 0.1185337,0.059267 0.1975561,0.1580448 0.079022,0.098778 0.079022,0.2455341 0,0.1185336 -0.070556,0.2144895 -0.067734,0.093133 -0.1749783,0.1580448 -0.1072447,0.062089 -0.2342451,0.095956 -0.1270003,0.033867 -0.2427117,0.033867 -0.090311,0 -0.1806228,-0.016933 Q 3.1390544,2.1964931 3.0684986,2.1569819 2.9979429,2.1146485 2.9556094,2.0525594 2.913276,1.9904703 2.913276,1.900159 Z M 4.2199692,1.7082473 q 0,-0.067734 0.036689,-0.093134 0.036689,-0.028222 0.079022,-0.0254 0.042333,0.00282 0.073378,0.031045 0.033867,0.028222 0.0254,0.073378 -0.00564,0.019756 -0.014111,0.098778 -0.00564,0.079023 -0.016933,0.1919117 -0.011289,0.1128892 -0.022578,0.2483562 -0.00847,0.1354671 -0.016933,0.2681119 0.033867,-0.073378 0.073378,-0.1411115 0.042333,-0.070556 0.064911,-0.1016003 0.022578,-0.028222 0.064911,-0.042334 0.042333,-0.016933 0.081845,-0.014111 0.039511,0 0.062089,0.019756 0.0254,0.016933 0.011289,0.056445 -0.00847,0.0254 -0.019756,0.1072447 -0.011289,0.079023 -0.019756,0.1636894 -0.00564,0.084667 -0.00564,0.1524004 0.00282,0.067734 0.016933,0.067734 0.016933,0 0.042333,-0.039511 0.028222,-0.039511 0.056445,-0.093134 0.028222,-0.056445 0.0508,-0.1128892 0.022578,-0.059267 0.033867,-0.095956 0.00847,-0.0254 0.0254,-0.033867 0.019756,-0.00847 0.036689,-0.00564 0.016933,0.00282 0.028222,0.019756 0.011289,0.014111 0.00564,0.039511 -0.00847,0.039511 -0.036689,0.1128892 -0.028222,0.070556 -0.070556,0.146756 -0.039511,0.073378 -0.093134,0.1326448 -0.0508,0.056445 -0.1044225,0.067734 -0.059267,0.011289 -0.095956,-0.011289 -0.036689,-0.022578 -0.056445,-0.064911 -0.019756,-0.042333 -0.028222,-0.098778 -0.00564,-0.056445 -0.00564,-0.1100669 0.00282,-0.053622 0.00847,-0.098778 0.00847,-0.045156 0.016933,-0.067734 -0.014111,0.00564 -0.039511,0.064911 -0.0254,0.056445 -0.053622,0.1298226 -0.0254,0.070556 -0.047978,0.1411115 -0.022578,0.070556 -0.0254,0.1044225 0,0.00847 -0.00282,0.011289 v 0.028222 q 0,0.039511 -0.033867,0.059267 -0.031045,0.022578 -0.070556,0.022578 -0.036689,0.00282 -0.064911,-0.016933 -0.031045,-0.016933 -0.0254,-0.059267 0.00564,-0.070556 0.014111,-0.1806227 0.00847,-0.1128893 0.016933,-0.2398896 0.00847,-0.1270004 0.016933,-0.2568229 0.00847,-0.1326449 0.014111,-0.2455341 0.00564,-0.1128892 0.00847,-0.1947338 0.00564,-0.084667 0.00564,-0.1157115 z m 0.6604012,0.6293573 q 0,-0.067734 0.033867,-0.093134 0.036689,-0.0254 0.079022,-0.019756 0.042333,0.00564 0.073378,0.036689 0.031045,0.031045 0.022578,0.0762 -0.011289,0.0508 -0.022578,0.1270004 -0.00847,0.0762 -0.011289,0.146756 -0.00282,0.070556 0.00282,0.1213558 0.00847,0.0508 0.033867,0.0508 0.016933,0 0.039511,-0.042333 0.0254,-0.045156 0.047978,-0.1044225 0.022578,-0.059267 0.042333,-0.1185336 0.019756,-0.059267 0.0254,-0.090311 0.00847,-0.028222 0.028222,-0.036689 0.019756,-0.011289 0.036689,-0.00564 0.019756,0.00282 0.031045,0.019756 0.014111,0.016933 0.00564,0.042333 -0.00564,0.016933 -0.019756,0.064911 -0.011289,0.045156 -0.031045,0.1016003 -0.019756,0.056445 -0.047978,0.1185336 -0.0254,0.059267 -0.062089,0.1072448 -0.033867,0.045156 -0.0762,0.070556 -0.042333,0.0254 -0.093134,0.011289 -0.0762,-0.022578 -0.1100669,-0.081845 -0.031045,-0.062089 -0.036689,-0.1411115 -0.00564,-0.081845 0.00282,-0.1749783 0.00564,-0.095956 0.00564,-0.1862672 z M 5.2021046,1.9509591 q 0.00564,0.031045 -0.00847,0.059267 -0.011289,0.0254 -0.036689,0.047978 -0.0254,0.019756 -0.059267,0.033867 -0.033867,0.014111 -0.070556,0.019756 -0.070556,0.00847 -0.1382893,-0.014111 -0.067733,-0.022578 -0.0762,-0.081845 -0.011289,-0.062089 0.039511,-0.1044225 0.047978,-0.045156 0.1298225,-0.059267 0.081845,-0.014111 0.146756,0.014111 0.064911,0.0254 0.073378,0.084667 z m 0.053624,0.3160898 q 0,-0.047978 0.033867,-0.070556 0.036689,-0.0254 0.079023,-0.028222 0.042333,-0.00564 0.0762,0.011289 0.033867,0.014111 0.031045,0.045156 -0.00564,0.090311 -0.016933,0.1890894 -0.011289,0.098778 -0.022578,0.183445 -0.011289,0.084667 -0.014111,0.1439337 -0.00282,0.056445 0.014111,0.062089 0.014111,0.00564 0.031044,-0.019756 0.016933,-0.028222 0.033867,-0.073378 0.016933,-0.045156 0.033867,-0.1016003 0.019756,-0.056445 0.036689,-0.1128892 0.016933,-0.056445 0.031045,-0.1072447 0.014111,-0.0508 0.0254,-0.081845 0.00282,-0.042333 0.036689,-0.0508 0.036689,-0.011289 0.0762,0 0.039511,0.011289 0.067734,0.033867 0.031045,0.022578 0.028222,0.047978 -0.011289,0.0508 -0.022578,0.1270004 -0.00847,0.0762 -0.011289,0.146756 -0.00282,0.070556 0.00282,0.1213558 0.00847,0.0508 0.033867,0.0508 0.016933,0 0.039511,-0.042333 0.0254,-0.045156 0.047978,-0.1044225 0.022578,-0.059267 0.042333,-0.1185336 0.019756,-0.059267 0.0254,-0.090311 0.00564,-0.028222 0.0254,-0.036689 0.019756,-0.011289 0.039511,-0.00564 0.019756,0.00282 0.031045,0.019756 0.014111,0.016933 0.00564,0.042333 -0.00564,0.022578 -0.0254,0.084667 -0.016933,0.062089 -0.047978,0.1354671 -0.028222,0.073378 -0.070556,0.1411115 -0.039511,0.067734 -0.090311,0.098778 -0.031045,0.019756 -0.070556,0.016933 -0.036689,-0.00282 -0.073378,-0.019756 -0.033867,-0.019756 -0.062089,-0.053622 -0.0254,-0.036689 -0.033867,-0.084667 -0.00847,-0.042333 -0.00847,-0.095956 -0.0254,0.079022 -0.059267,0.1495782 -0.033867,0.070556 -0.079022,0.1157114 -0.028222,0.031044 -0.067734,0.033867 -0.036689,0.00564 -0.073378,-0.011289 -0.033867,-0.016933 -0.062089,-0.047978 -0.0254,-0.033867 -0.033867,-0.0762 -0.00847,-0.042333 -0.00847,-0.1072447 0,-0.064911 0.00564,-0.1411115 0.00282,-0.0762 0.011289,-0.1580449 0.00564,-0.081845 0.00847,-0.1608671 z m 1.1712238,-0.081845 q 0.036689,-0.019756 0.073378,0 0.036689,0.019756 0.056445,0.056445 0.019756,0.033867 0.011289,0.073378 -0.00564,0.036689 -0.056445,0.0508 -0.045156,0.011289 -0.095956,0.022578 -0.047978,0.011289 -0.093134,0.019756 -0.042333,0.00847 -0.073378,0.016933 -0.031045,0.00564 -0.039511,0.00564 0.00564,0 0.059267,0.016933 0.056445,0.014111 0.1185336,0.0508 0.062089,0.033867 0.1128892,0.093133 0.0508,0.059267 0.0508,0.1495782 0,0.098778 -0.067733,0.1580449 -0.067734,0.056445 -0.1580449,0.0762 -0.056445,0.00847 -0.110067,0 -0.0508,-0.00847 -0.093134,-0.036689 -0.039511,-0.0254 -0.064911,-0.070556 -0.0254,-0.047978 -0.0254,-0.1128892 0,-0.053622 0.033867,-0.084667 0.036689,-0.031045 0.0762,-0.039511 0.042333,-0.00847 0.073378,0.00847 0.033867,0.016933 0.028222,0.059267 -0.014111,0.087489 0.00847,0.1270003 0.022578,0.039511 0.045156,0.039511 0.028222,0 0.045156,-0.019756 0.019756,-0.019756 0.022578,-0.0508 0.00282,-0.033867 -0.011289,-0.073378 -0.014111,-0.042333 -0.045156,-0.084667 -0.0254,-0.036689 -0.064911,-0.064911 -0.036689,-0.031045 -0.0762,-0.0508 -0.036689,-0.022578 -0.073378,-0.033867 -0.036689,-0.014111 -0.059267,-0.019756 -0.0254,-0.00564 -0.039511,-0.033867 -0.011289,-0.031045 -0.00847,-0.062089 0,-0.033867 0.019756,-0.059267 0.022578,-0.028222 0.064911,-0.028222 0.084667,0 0.1806227,-0.0254 0.098778,-0.028222 0.1749783,-0.073378 z m 0.2314239,0.081845 q 0,-0.047978 0.033867,-0.070556 0.036689,-0.0254 0.079022,-0.028222 0.042333,-0.00564 0.0762,0.011289 0.033867,0.014111 0.031045,0.045156 -0.00564,0.090311 -0.016933,0.1890894 -0.011289,0.098778 -0.022578,0.183445 -0.011289,0.084667 -0.014111,0.1439337 -0.00282,0.056445 0.014111,0.062089 0.014111,0.00564 0.031045,-0.019756 0.016933,-0.028222 0.033867,-0.073378 0.016933,-0.045156 0.033867,-0.1016003 0.019756,-0.056445 0.036689,-0.1128892 0.016933,-0.056445 0.031045,-0.1072447 0.014111,-0.0508 0.0254,-0.081845 0.00282,-0.042333 0.036689,-0.0508 0.036689,-0.011289 0.0762,0 0.039511,0.011289 0.067734,0.033867 0.031045,0.022578 0.028222,0.047978 -0.011289,0.0508 -0.022578,0.1270004 -0.00847,0.0762 -0.011289,0.146756 -0.00282,0.070556 0.00282,0.1213558 0.00847,0.0508 0.033867,0.0508 0.016933,0 0.039511,-0.042333 0.0254,-0.045156 0.047978,-0.1044225 0.022578,-0.059267 0.042333,-0.1185336 0.019756,-0.059267 0.0254,-0.090311 0.00564,-0.028222 0.0254,-0.036689 0.019756,-0.011289 0.039511,-0.00564 0.019756,0.00282 0.031045,0.019756 0.014111,0.016933 0.00564,0.042333 -0.00564,0.022578 -0.0254,0.084667 -0.016933,0.062089 -0.047978,0.1354671 -0.028222,0.073378 -0.070556,0.1411115 -0.039511,0.067734 -0.090311,0.098778 -0.031045,0.019756 -0.070556,0.016933 -0.036689,-0.00282 -0.073378,-0.019756 -0.033867,-0.019756 -0.062089,-0.053622 -0.0254,-0.036689 -0.033867,-0.084667 -0.00847,-0.042333 -0.00847,-0.095956 -0.0254,0.079022 -0.059267,0.1495782 -0.033867,0.070556 -0.079022,0.1157114 -0.028222,0.031044 -0.067734,0.033867 -0.036689,0.00564 -0.073378,-0.011289 -0.033867,-0.016933 -0.062089,-0.047978 -0.0254,-0.033867 -0.033867,-0.0762 -0.00847,-0.042333 -0.00847,-0.1072447 0,-0.064911 0.00564,-0.1411115 0.00282,-0.0762 0.011289,-0.1580449 0.00564,-0.081845 0.00847,-0.1608671 z M 7.4852876,2.464605 q -0.00564,0.022578 -0.0254,0.033867 -0.016933,0.00847 -0.036689,0.00564 -0.019756,-0.00564 -0.031045,-0.019756 -0.011289,-0.016933 0,-0.042334 l 0.016933,-0.047978 q -0.0254,-0.0254 -0.028222,-0.059267 -0.00282,-0.033867 0.011289,-0.062089 0.014111,-0.031044 0.039511,-0.0508 0.028222,-0.022578 0.062089,-0.022578 0.059267,0 0.064911,0.045156 0.00564,0.042334 -0.016933,0.095956 0.016933,0.00847 0.053622,0.00282 0.039511,-0.00564 0.073378,-0.00564 0.033867,-0.00282 0.056445,0.011289 0.022578,0.014111 0.011289,0.064911 -0.011289,0.0508 -0.0254,0.1213559 -0.011289,0.070556 -0.016933,0.1354671 -0.00564,0.062089 0,0.1072447 0.00564,0.045156 0.031045,0.045156 0.016933,0 0.042333,-0.047978 0.028222,-0.0508 0.056445,-0.1157114 0.028222,-0.064911 0.0508,-0.1298226 0.022578,-0.067734 0.028222,-0.1016003 0.00564,-0.028222 0.022578,-0.039511 0.019756,-0.011289 0.039511,-0.00847 0.019756,0 0.031044,0.016933 0.014111,0.014111 0.011289,0.042333 -0.00282,0.014111 -0.014111,0.062089 -0.011289,0.045156 -0.031045,0.1044225 -0.019756,0.056445 -0.047978,0.1213559 -0.028222,0.062089 -0.067734,0.1157114 -0.039511,0.053622 -0.087489,0.084667 -0.047978,0.033867 -0.1072447,0.031045 -0.067734,-0.00282 -0.098778,-0.059267 -0.031044,-0.059267 -0.039511,-0.1382892 -0.00847,-0.081845 0.00282,-0.1721561 0.014111,-0.090311 0.036689,-0.1580449 -0.014111,0.00282 -0.028222,0.00282 -0.014111,0 -0.028222,0 -0.00847,0.014111 -0.011289,0.031045 z M 8.2360034,2.1541597 q 0.039511,0.00847 0.067734,0.036689 0.031045,0.028222 0.0508,0.062089 0.022578,-0.0254 0.056445,-0.028222 0.033867,-0.00282 0.064911,0.011289 0.031045,0.011289 0.0508,0.039511 0.019756,0.0254 0.014111,0.062089 -0.011289,0.0508 -0.022578,0.1270004 -0.00847,0.0762 -0.011289,0.146756 -0.00282,0.070556 0.00282,0.1213558 0.00847,0.0508 0.031045,0.0508 0.016933,0 0.039511,-0.042333 0.0254,-0.045156 0.047978,-0.1044225 0.0254,-0.059267 0.045156,-0.1185336 0.019756,-0.059267 0.0254,-0.090311 0.00847,-0.028222 0.028222,-0.036689 0.019756,-0.011289 0.036689,-0.00564 0.019756,0.00282 0.031045,0.019756 0.014111,0.016933 0.00564,0.042333 -0.00564,0.016933 -0.019756,0.064911 -0.011289,0.045156 -0.031045,0.1016003 -0.019756,0.056445 -0.047978,0.1185336 -0.0254,0.059267 -0.062089,0.1072448 -0.033867,0.045156 -0.079023,0.070556 -0.042333,0.0254 -0.093134,0.011289 -0.081845,-0.022578 -0.1185337,-0.098778 -0.022578,0.067734 -0.062089,0.1213559 -0.039511,0.056445 -0.1016003,0.081845 -0.059267,0.019756 -0.1044225,0.00847 -0.081845,-0.022578 -0.1298226,-0.1016003 -0.047978,-0.079022 -0.064911,-0.183445 -0.016933,-0.1044225 -0.00282,-0.2173117 0.014111,-0.1128892 0.056445,-0.2032006 0.045156,-0.090311 0.1185337,-0.1411115 0.073378,-0.053622 0.1778005,-0.033867 z m 0.073378,0.2850452 q -0.00564,-0.047978 -0.022578,-0.093134 -0.014111,-0.045156 -0.045156,-0.0508 -0.045156,-0.00847 -0.081845,0.033867 -0.033867,0.039511 -0.056445,0.1072448 -0.022578,0.067734 -0.033867,0.1495782 -0.00847,0.079022 -0.00564,0.1524004 0.00564,0.070556 0.022578,0.1213559 0.019756,0.0508 0.056445,0.056445 0.036689,0.00564 0.067734,-0.039511 0.033867,-0.045156 0.056445,-0.1157114 0.0254,-0.070556 0.036689,-0.1552227 0.014111,-0.087489 0.00564,-0.1665116 z"
       id="text2"
       style="font-size:2.82223px;font-family:'Remachine Script Personal Use';-inkscape-font-specification:'Remachine Script Personal Use';text-align:center;letter-spacing:0px;text-anchor:middle;fill:#137ea6;stroke-width:1.5875"
       aria-label="Chiusura" /><path
       d="m 6.6517144,5.2572434 q 0.028222,0.011289 0.042333,0.036689 0.014111,0.028222 -0.00282,0.056445 -0.016933,0.028222 -0.070556,0.045156 Q 6.5670475,5.412466 6.462625,5.4011771 6.3948915,5.3955327 6.2763578,5.3419103 6.1578242,5.2882879 6.0054237,5.2120877 5.8558455,5.1358875 5.6808673,5.0455761 5.5087112,4.9552648 5.3280885,4.8705979 5.150288,4.785931 4.9724875,4.7210197 4.7975093,4.6532861 4.6451088,4.6250638 q -0.00847,0.087489 -0.019756,0.183445 -0.011289,0.093134 -0.028222,0.172156 -0.016933,0.079023 -0.039511,0.1298226 -0.022578,0.0508 -0.0508,0.0508 -0.031045,0 -0.047978,-0.073378 Q 4.4419083,5.0173538 4.4306193,4.9270425 4.4193304,4.8339089 4.4165082,4.749242 4.413686,4.6617528 4.413686,4.6363528 v -0.098778 q -0.070556,-0.0254 -0.1213559,-0.059267 -0.0508,-0.036689 -0.0508,-0.0762 0,-0.014111 0.016933,-0.0254 0.016933,-0.011289 0.062089,-0.011289 0.042333,0 0.098778,0.014111 0.00282,-0.039511 0.00564,-0.079022 0.00282,-0.042333 0.00847,-0.098778 0.00847,-0.056445 0.016933,-0.1326448 0.011289,-0.0762 0.028222,-0.1834449 0.016933,-0.1072448 0.0254,-0.1382893 0.011289,-0.031044 0.031045,-0.031044 0.047978,0 0.081845,0.022578 0.033867,0.019756 0.053622,0.0508 0.022578,0.028222 0.031045,0.062089 0.011289,0.033867 0.011289,0.056445 0,0.1382893 -0.0254,0.2765786 -0.022578,0.1382892 -0.028222,0.2850452 0.098778,0.00847 0.2398895,0.00564 0.1411115,-0.00564 0.2963342,-0.028222 0.1552227,-0.0254 0.3076231,-0.070556 0.1552226,-0.045156 0.2765785,-0.1185337 0.1241782,-0.0762 0.2003784,-0.1778005 0.0762,-0.1044225 0.0762,-0.245534 0,-0.1072447 -0.067734,-0.1834449 Q 5.9235791,3.572372 5.8163343,3.5187496 5.7119118,3.4651273 5.5820892,3.4312605 q -0.1298226,-0.033867 -0.2596451,-0.0508 -0.1270004,-0.019756 -0.2398896,-0.0254 -0.1128892,-0.00564 -0.1806227,-0.00564 -0.2483563,0 -0.4882458,0.045156 -0.2398896,0.045156 -0.4600235,0.1524004 -0.064911,0.031045 -0.1241782,0.064911 -0.056445,0.033867 -0.1326448,0.0762 -0.00847,0.00847 -0.0508,0.036689 -0.039511,0.0254 -0.084667,0.045156 -0.042334,0.019756 -0.079023,0.019756 -0.033867,0 -0.033867,-0.045156 0,-0.047978 0.036689,-0.090311 0.039511,-0.045156 0.079022,-0.084667 0.1241781,-0.1241781 0.2765786,-0.2060228 0.1524004,-0.084667 0.318912,-0.1354671 0.1665115,-0.0508 0.3386676,-0.073378 0.1749782,-0.022578 0.344312,-0.022578 0.090311,0 0.2286007,0.011289 0.1382893,0.00847 0.2906897,0.036689 0.1552226,0.0254 0.3104453,0.073378 0.1580449,0.047978 0.282223,0.1241781 0.1241781,0.0762 0.2003783,0.1862672 0.079022,0.1072448 0.079022,0.2540007 0,0.1157115 -0.047978,0.2173118 Q 6.1380686,4.136818 6.0562239,4.2214849 5.9743792,4.3033296 5.86149,4.3710631 5.751423,4.4387967 5.6244227,4.4867746 q -0.1270004,0.047978 -0.2624674,0.081845 -0.1354671,0.031045 -0.2681119,0.042334 0.1608671,0.059267 0.3612455,0.146756 0.2003783,0.084667 0.4092233,0.1749782 0.2088451,0.090311 0.4120456,0.1749783 0.2032006,0.087489 0.3753566,0.1495782 z M 6.2312029,4.3795298 q 0,-0.067734 0.033867,-0.093134 0.036689,-0.0254 0.079022,-0.019756 0.042333,0.00564 0.073378,0.036689 0.031045,0.031045 0.022578,0.0762 -0.011289,0.0508 -0.022578,0.1270004 -0.00847,0.0762 -0.011289,0.1467559 -0.00282,0.070556 0.00282,0.1213559 0.00847,0.0508 0.033867,0.0508 0.016933,0 0.039511,-0.042334 0.0254,-0.045156 0.047978,-0.1044225 0.022578,-0.059267 0.042333,-0.1185336 0.019756,-0.059267 0.0254,-0.090311 0.00847,-0.028222 0.028222,-0.036689 0.019756,-0.011289 0.036689,-0.00564 0.019756,0.00282 0.031045,0.019756 0.014111,0.016933 0.00564,0.042333 -0.00564,0.016933 -0.019756,0.064911 -0.011289,0.045156 -0.031045,0.1016003 -0.019756,0.056445 -0.047978,0.1185336 -0.0254,0.059267 -0.062089,0.1072448 -0.033867,0.045156 -0.0762,0.070556 -0.042333,0.0254 -0.093134,0.011289 -0.0762,-0.022578 -0.110067,-0.081845 -0.031045,-0.062089 -0.036689,-0.1411115 -0.00564,-0.081845 0.00282,-0.1749783 0.00564,-0.095956 0.00564,-0.1862672 z M 6.5529371,3.9928843 q 0.00564,0.031045 -0.00847,0.059267 -0.011289,0.0254 -0.036689,0.047978 -0.0254,0.019756 -0.059267,0.033867 -0.033867,0.014111 -0.070556,0.019756 -0.070556,0.00847 -0.1382892,-0.014111 -0.067734,-0.022578 -0.0762,-0.081845 -0.011289,-0.062089 0.039511,-0.1044225 0.047978,-0.045156 0.1298226,-0.059267 0.081845,-0.014111 0.1467559,0.014111 0.064911,0.0254 0.073378,0.084667 z m 0.053624,0.3048009 q 0.011289,-0.062089 0.053622,-0.095956 0.042333,-0.036689 0.084667,-0.047978 0.045156,-0.014111 0.0762,-0.00282 0.033867,0.00847 0.0254,0.042333 -0.00847,0.039511 -0.019756,0.1072448 -0.011289,0.067734 -0.019756,0.1382893 -0.00847,0.070556 -0.014111,0.135467 -0.00564,0.062089 -0.00564,0.090311 0.011289,-0.039511 0.028222,-0.081845 0.016933,-0.042333 0.033867,-0.081845 0.019756,-0.042333 0.039511,-0.0762 0.019756,-0.033867 0.036689,-0.053622 0.019756,-0.028222 0.059267,-0.042333 0.042333,-0.016933 0.0762,-0.016933 0.036689,0 0.059267,0.019756 0.022578,0.019756 0.00847,0.056445 -0.00564,0.016933 -0.011289,0.064911 -0.00564,0.047978 -0.011289,0.1044225 0.016933,-0.039511 0.045156,-0.087489 0.028222,-0.047978 0.056445,-0.090311 0.028222,-0.045156 0.0508,-0.081845 0.0254,-0.036689 0.039511,-0.053622 0.019756,-0.028222 0.059267,-0.045156 0.039511,-0.019756 0.0762,-0.019756 0.036689,0 0.062089,0.019756 0.0254,0.016933 0.022578,0.059267 -0.00282,0.019756 -0.011289,0.067734 -0.00564,0.047978 -0.016933,0.1100669 -0.011289,0.062089 -0.022578,0.1298226 -0.00847,0.067734 -0.016933,0.1241781 -0.00564,0.053622 -0.00847,0.090311 0,0.036689 0.011289,0.036689 0.016933,0 0.045156,-0.039511 0.028222,-0.039511 0.053622,-0.093134 0.028222,-0.056445 0.0508,-0.1157115 0.0254,-0.059267 0.036689,-0.095956 0.00847,-0.0254 0.0254,-0.033867 0.019756,-0.011289 0.036689,-0.00564 0.016933,0.00282 0.028222,0.019756 0.011289,0.014111 0.00564,0.039511 -0.00847,0.039511 -0.039511,0.1128892 -0.028222,0.070556 -0.070556,0.1439338 -0.042333,0.073378 -0.093134,0.1326448 -0.0508,0.059267 -0.1044226,0.067734 -0.059267,0.011289 -0.095956,-0.014111 -0.033867,-0.0254 -0.0508,-0.073378 -0.014111,-0.047978 -0.016933,-0.1072448 -0.00282,-0.062089 0.00282,-0.1213559 0.00564,-0.059267 0.014111,-0.1044225 0.00847,-0.047978 0.016933,-0.070556 -0.014111,0.00564 -0.042333,0.053622 -0.028222,0.047978 -0.059267,0.1072448 -0.028222,0.056445 -0.053622,0.1128892 -0.0254,0.053622 -0.033867,0.073378 v -0.00282 q -0.00564,0.016933 -0.028222,0.039511 -0.019756,0.019756 -0.047978,0.033867 -0.028222,0.011289 -0.053622,0.011289 -0.022578,0 -0.031045,-0.028222 -0.00847,-0.028222 -0.011289,-0.0762 -0.00282,-0.0508 -0.00282,-0.095956 0,-0.047978 0,-0.084667 0.00282,-0.039511 0,-0.047978 -0.014111,0.00564 -0.031045,0.0508 -0.016933,0.045156 -0.036689,0.1016003 -0.016933,0.056445 -0.031045,0.1157115 -0.014111,0.059267 -0.019756,0.093134 -0.00564,0.036689 -0.039511,0.053622 -0.031045,0.019756 -0.070556,0.019756 -0.036689,0 -0.067734,-0.019756 -0.028222,-0.019756 -0.0254,-0.062089 0.00282,-0.047978 -0.00282,-0.1270004 -0.00282,-0.081845 -0.00847,-0.1693338 -0.00282,-0.087489 -0.00282,-0.172156 0,-0.084667 0.00847,-0.1411115 z M 7.6761846,3.7501725 q 0,-0.067734 0.036689,-0.093134 0.036689,-0.028222 0.079022,-0.0254 0.042333,0.00282 0.073378,0.031045 0.033867,0.028222 0.0254,0.073378 -0.00282,0.014111 -0.00847,0.064911 -0.00564,0.047978 -0.011289,0.1241781 -0.00564,0.073378 -0.014111,0.1665116 -0.00847,0.090311 -0.016933,0.1890894 0.0254,-0.028222 0.059267,-0.045156 0.033867,-0.016933 0.081845,-0.016933 0.081845,0 0.1326448,0.053622 0.0508,0.053622 0.073378,0.135467 0.022578,0.081845 0.014111,0.1749783 -0.00564,0.093134 -0.039511,0.1749783 -0.033867,0.081845 -0.095956,0.135467 -0.062089,0.053622 -0.1467559,0.053622 -0.073378,0 -0.1185337,-0.0508 v 0.081845 q -0.00282,0.039511 -0.036689,0.059267 -0.031045,0.022578 -0.070556,0.022578 -0.036689,0.00282 -0.064911,-0.016933 -0.031045,-0.016933 -0.028222,-0.059267 0.00564,-0.070556 0.014111,-0.1806228 0.00847,-0.1128892 0.016933,-0.2398895 0.00847,-0.1270004 0.016933,-0.256823 0.00847,-0.1326448 0.014111,-0.245534 0.00564,-0.1128892 0.00847,-0.1947339 0.00564,-0.084667 0.00564,-0.1157114 z m 0.1411115,0.8636024 q -0.00282,0.016933 -0.00564,0.036689 0,0.016933 0,0.036689 0.00564,0.056445 0.022578,0.095956 0.019756,0.036689 0.059267,0.042334 0.0254,0.00564 0.047978,-0.028222 0.022578,-0.033867 0.036689,-0.087489 0.016933,-0.053622 0.0254,-0.1185336 0.00847,-0.064911 0.00847,-0.1213559 0.00282,-0.059267 -0.00564,-0.098778 -0.00847,-0.039511 -0.0254,-0.045156 -0.031045,-0.00847 -0.059267,0.016933 -0.0254,0.0254 -0.047978,0.070556 -0.019756,0.042333 -0.036689,0.098778 -0.014111,0.053622 -0.019756,0.1016003 z m 0.7563572,0.2794008 q -0.1044225,0 -0.1665116,-0.053622 -0.062089,-0.053622 -0.087489,-0.1326448 -0.022578,-0.079022 -0.011289,-0.172156 0.00847,-0.093134 0.045156,-0.1693338 0.039511,-0.079022 0.1016002,-0.1298226 0.062089,-0.0508 0.146756,-0.045156 0.098778,0.00564 0.1608671,0.059267 0.062089,0.053622 0.090311,0.1326449 0.028222,0.079022 0.022578,0.1693338 -0.00282,0.087489 -0.039511,0.1636893 -0.036689,0.0762 -0.1044225,0.1270004 -0.064911,0.0508 -0.1580449,0.0508 z m 0.036689,-0.1270003 q 0.031045,0.00282 0.0508,-0.028222 0.019756,-0.033867 0.028222,-0.084667 0.00847,-0.053622 0.00564,-0.1157114 0,-0.062089 -0.014111,-0.1157114 -0.011289,-0.053622 -0.033867,-0.090311 -0.022578,-0.036689 -0.053622,-0.036689 -0.028222,0 -0.047978,0.033867 -0.019756,0.033867 -0.031045,0.084667 -0.00847,0.0508 -0.00847,0.1128892 0,0.059267 0.011289,0.1128892 0.011289,0.0508 0.033867,0.087489 0.022578,0.036689 0.059267,0.039511 z M 9.0336754,4.5065302 q -0.00564,0.022578 -0.0254,0.033867 -0.016933,0.00847 -0.036689,0.00564 -0.019756,-0.00564 -0.031045,-0.019756 -0.011289,-0.016933 0,-0.042333 l 0.016933,-0.047978 q -0.0254,-0.0254 -0.028222,-0.059267 -0.00282,-0.033867 0.011289,-0.062089 0.014111,-0.031045 0.039511,-0.0508 0.028222,-0.022578 0.062089,-0.022578 0.059267,0 0.064911,0.045156 0.00564,0.042333 -0.016933,0.095956 0.016933,0.00847 0.053622,0.00282 0.039511,-0.00564 0.073378,-0.00564 0.033867,-0.00282 0.056445,0.011289 0.022578,0.014111 0.011289,0.064911 -0.011289,0.0508 -0.0254,0.1213559 -0.011289,0.070556 -0.016933,0.1354671 -0.00564,0.062089 0,0.1072447 0.00564,0.045156 0.031045,0.045156 0.016933,0 0.042333,-0.047978 0.028222,-0.0508 0.056445,-0.1157114 0.028222,-0.064911 0.0508,-0.1298226 0.022578,-0.067734 0.028222,-0.1016003 0.00564,-0.028222 0.022578,-0.039511 0.019756,-0.011289 0.039511,-0.00847 0.019756,0 0.031045,0.016933 0.014111,0.014111 0.011289,0.042333 -0.00282,0.014111 -0.014111,0.062089 -0.011289,0.045156 -0.031045,0.1044225 -0.019756,0.056445 -0.047978,0.1213559 -0.028222,0.062089 -0.067733,0.1157114 -0.039511,0.053622 -0.087489,0.084667 -0.047978,0.033867 -0.1072447,0.031045 -0.067733,-0.00282 -0.098778,-0.059267 -0.031044,-0.059267 -0.039511,-0.1382893 -0.00847,-0.081845 0.00282,-0.172156 0.014111,-0.090311 0.036689,-0.1580449 -0.014111,0.00282 -0.028222,0.00282 -0.014111,0 -0.028222,0 -0.00847,0.014111 -0.011289,0.031045 z M 9.8831693,4.2271294 q 0.036689,-0.019756 0.073378,0 0.036689,0.019756 0.056445,0.056445 0.01975,0.033867 0.01129,0.073378 -0.0056,0.036689 -0.056445,0.0508 -0.045156,0.011289 -0.095956,0.022578 -0.047978,0.011289 -0.093134,0.019756 -0.042333,0.00847 -0.073378,0.016933 -0.031045,0.00564 -0.039511,0.00564 0.00564,0 0.059267,0.016933 0.056445,0.014111 0.1185337,0.0508 0.062089,0.033867 0.1128892,0.093134 0.0508,0.059267 0.0508,0.1495782 0,0.098778 -0.067733,0.1580449 -0.067733,0.056445 -0.1580449,0.0762 -0.056445,0.00847 -0.110067,0 -0.0508,-0.00847 -0.093134,-0.036689 -0.039511,-0.0254 -0.064911,-0.070556 -0.0254,-0.047978 -0.0254,-0.1128892 0,-0.053622 0.033867,-0.084667 0.036689,-0.031045 0.0762,-0.039511 0.042333,-0.00847 0.073378,0.00847 0.033867,0.016933 0.028222,0.059267 -0.014111,0.087489 0.00847,0.1270003 0.022578,0.039511 0.045156,0.039511 0.028222,0 0.045156,-0.019756 0.019756,-0.019756 0.022578,-0.0508 0.00282,-0.033867 -0.011289,-0.073378 -0.014111,-0.042333 -0.045156,-0.084667 -0.0254,-0.036689 -0.064911,-0.064911 -0.036689,-0.031045 -0.0762,-0.0508 -0.036689,-0.022578 -0.073378,-0.033867 -0.036689,-0.014111 -0.059267,-0.019756 -0.0254,-0.00564 -0.039511,-0.033867 -0.011289,-0.031045 -0.00847,-0.062089 0,-0.033867 0.019756,-0.059267 0.022578,-0.028222 0.064911,-0.028222 0.084667,0 0.1806227,-0.0254 0.098778,-0.028222 0.1749783,-0.073378 z m 0.2257797,0.1524004 q 0,-0.067734 0.03387,-0.093134 0.03669,-0.0254 0.07902,-0.019756 0.04233,0.00564 0.07338,0.036689 0.03104,0.031045 0.02258,0.0762 -0.01129,0.0508 -0.02258,0.1270004 -0.0085,0.0762 -0.01129,0.1467559 -0.0028,0.070556 0.0028,0.1213559 0.0085,0.0508 0.03387,0.0508 0.01693,0 0.03951,-0.042334 0.0254,-0.045156 0.04798,-0.1044225 0.02258,-0.059267 0.04233,-0.1185336 0.01975,-0.059267 0.0254,-0.090311 0.0085,-0.028222 0.02822,-0.036689 0.01976,-0.011289 0.03669,-0.00564 0.01976,0.00282 0.03104,0.019756 0.01411,0.016933 0.0056,0.042333 -0.0056,0.016933 -0.01976,0.064911 -0.01129,0.045156 -0.03104,0.1016003 -0.01976,0.056445 -0.04798,0.1185336 -0.0254,0.059267 -0.06209,0.1072448 -0.03387,0.045156 -0.0762,0.070556 -0.04233,0.0254 -0.09313,0.011289 -0.0762,-0.022578 -0.110067,-0.081845 -0.03104,-0.062089 -0.03669,-0.1411115 -0.0056,-0.081845 0.0028,-0.1749783 0.0056,-0.095956 0.0056,-0.1862672 z m 0.321734,-0.3866455 q 0.0056,0.031045 -0.0085,0.059267 -0.01129,0.0254 -0.03669,0.047978 -0.0254,0.019756 -0.05927,0.033867 -0.03387,0.014111 -0.07055,0.019756 -0.07056,0.00847 -0.13829,-0.014111 -0.06773,-0.022578 -0.0762,-0.081845 -0.01129,-0.062089 0.03951,-0.1044225 0.04798,-0.045156 0.129823,-0.059267 0.08184,-0.014111 0.146756,0.014111 0.06491,0.0254 0.07338,0.084667 z"
       id="text3"
       style="font-size:2.82223px;font-family:'Remachine Script Personal Use';-inkscape-font-specification:'Remachine Script Personal Use';text-align:center;letter-spacing:0px;text-anchor:middle;fill:#137da5;stroke-width:1.5875"
       aria-label="Rimborsi" /></g></svg>
