<?xml version="1.0" encoding="UTF-8" standalone="no"?>
<!-- Created with Inkscape (http://www.inkscape.org/) -->

<svg
   width="64"
   height="64"
   viewBox="0 0 16.933333 16.933333"
   version="1.1"
   id="svg1"
   inkscape:version="1.4.2 (ebf0e940d0, 2025-05-08)"
   sodipodi:docname="delete-road-logo.svg"
   xml:space="preserve"
   xmlns:inkscape="http://www.inkscape.org/namespaces/inkscape"
   xmlns:sodipodi="http://sodipodi.sourceforge.net/DTD/sodipodi-0.dtd"
   xmlns="http://www.w3.org/2000/svg"
   xmlns:svg="http://www.w3.org/2000/svg"><sodipodi:namedview
     id="namedview1"
     pagecolor="#ffffff"
     bordercolor="#000000"
     borderopacity="0.25"
     inkscape:showpageshadow="false"
     inkscape:pageopacity="0.0"
     inkscape:pagecheckerboard="0"
     inkscape:deskcolor="#d1d1d1"
     inkscape:document-units="px"
     inkscape:zoom="18.78125"
     inkscape:cx="31.973378"
     inkscape:cy="32"
     inkscape:window-width="2520"
     inkscape:window-height="1404"
     inkscape:window-x="2600"
     inkscape:window-y="0"
     inkscape:window-maximized="1"
     inkscape:current-layer="layer1" /><defs
     id="defs1">
	
	

		
		
		
	
	
	
	
	
	

		
		
	</defs><g
     inkscape:label="Livello 1"
     inkscape:groupmode="layer"
     id="layer1"><path
       id="polygon1-6"
       style="fill:#333333;fill-opacity:1;stroke-width:0.0228375"
       d="M 7.6811483,16.404166 V 10.888202 L 1.6940384,4.9010693 5.400455,1.1946523 7.6811483,3.4755506 V 0.52916664 H 12.922749 V 16.404166 Z"
       sodipodi:nodetypes="ccccccccc" /><path
       style="fill:#ffffff;stroke-width:0.0228375"
       d="m 10.302051,3.0780405 c -0.111492,0 -0.201609,-0.090117 -0.201609,-0.2016097 V 2.0988586 c 0,-0.1114928 0.09012,-0.2016097 0.201609,-0.2016097 0.111493,0 0.20161,0.090117 0.20161,0.2016097 v 0.7775722 c 0,0.1114929 -0.09012,0.2016097 -0.20161,0.2016097 m 0,1.944022 c -0.111492,0 -0.201609,-0.090322 -0.201609,-0.2016098 V 4.042675 c 0,-0.1114928 0.09012,-0.2016097 0.201609,-0.2016097 0.111493,0 0.20161,0.090117 0.20161,0.2016097 v 0.7777777 c 0,0.1113102 -0.09012,0.2016098 -0.20161,0.2016098 m 0,1.9438392 c -0.111492,0 -0.201609,-0.090117 -0.201609,-0.2016097 V 5.9869253 c 0,-0.1114928 0.09012,-0.2016097 0.201609,-0.2016097 0.111493,0 0.20161,0.090117 0.20161,0.2016097 V 6.764292 c 0,0.1114928 -0.09012,0.2016097 -0.20161,0.2016097 m 0,1.9442276 c -0.111492,0 -0.201609,-0.090323 -0.201609,-0.2016099 V 7.930742 c 0,-0.1112878 0.09012,-0.2016099 0.201609,-0.2016099 0.111493,0 0.20161,0.090322 0.20161,0.2016099 v 0.7777774 c 0,0.1112871 -0.09012,0.2016099 -0.20161,0.2016099 m 0,1.9438387 c -0.111492,0 -0.201609,-0.09012 -0.201609,-0.201609 V 9.8747865 c 0,-0.1114928 0.09012,-0.2016099 0.201609,-0.2016099 0.111493,0 0.20161,0.090117 0.20161,0.2016099 v 0.7775725 c 0,0.111493 -0.09012,0.201609 -0.20161,0.201609"
       id="path1-5" /><path
       style="fill:#ffffff;stroke-width:0.0228375"
       d="m 5.2029792,4.9052485 c -0.051616,0 -0.1032259,-0.019754 -0.1425289,-0.059058 L 4.5120982,4.2978384 c -0.078629,-0.07863 -0.078629,-0.2062457 0,-0.285058 0.078835,-0.07863 0.2064284,-0.07863 0.285058,0 l 0.548352,0.5483519 c 0.078835,0.078835 0.078835,0.2062458 0,0.2850581 -0.039304,0.039304 -0.090916,0.059058 -0.142529,0.059058 m 1.370686,1.3706858 c -0.051616,0 -0.1032259,-0.019755 -0.1425296,-0.059058 L 5.8827843,5.6685242 c -0.078835,-0.07863 -0.078835,-0.2062458 0,-0.2850581 0.078835,-0.078835 0.2064283,-0.078835 0.2850579,0 l 0.548352,0.5483519 c 0.07863,0.07863 0.07863,0.2062458 0,0.2850581 -0.039304,0.03928 -0.090917,0.059058 -0.142529,0.059058"
       id="path2-3" /><path
       style="fill:#ffffff;stroke-width:0.0228375"
       d="m 7.6812622,7.3835088 c -0.051616,0 -0.1032259,-0.019754 -0.1425289,-0.059058 L 7.2536754,7.0393926 c -0.078835,-0.078835 -0.078835,-0.2062457 0,-0.2850581 0.078835,-0.078835 0.2062453,-0.078835 0.2850579,0 l 0.2850579,0.2850581 c 0.078835,0.078835 0.078835,0.2062457 0,0.2850581 -0.039325,0.039304 -0.090939,0.059058 -0.142529,0.059058"
       id="path3-5" /><path
       style="fill:#ffffff;stroke-width:0.0228375"
       d="m 10.302051,12.741197 c -0.111492,0 -0.201609,-0.09012 -0.201609,-0.201609 v -0.777572 c 0,-0.111493 0.09012,-0.20161 0.201609,-0.20161 0.111493,0 0.20161,0.09012 0.20161,0.20161 v 0.777572 c 0,0.111493 -0.09012,0.201609 -0.20161,0.201609 m 0,1.944023 c -0.111492,0 -0.201609,-0.09032 -0.201609,-0.20161 v -0.777778 c 0,-0.111493 0.09012,-0.201609 0.201609,-0.201609 0.111493,0 0.20161,0.09012 0.20161,0.201609 v 0.777778 c 0,0.11131 -0.09012,0.20161 -0.20161,0.20161"
       id="path4"
       sodipodi:nodetypes="csssssccsssssc" /><path
       style="fill:#999999;fill-opacity:1;stroke-width:0.0232313"
       d="m 14.634493,14.988996 c 0.111486,0 0.2016,-0.09011 0.2016,-0.201601 v -2.620814 c 0,-0.111486 -0.09011,-0.201601 -0.2016,-0.201601 -0.111488,0 -0.201601,0.09011 -0.201601,0.201601 v 2.620814 c 0,0.111487 0.09014,0.201601 0.201601,0.201601"
       id="path2" /><path
       style="fill:#999999;fill-opacity:1;stroke-width:0.0232313"
       d="m 14.634493,12.368182 c 0.111486,0 0.2016,-0.09011 0.2016,-0.201601 0,-0.667086 -0.542497,-1.209606 -1.209606,-1.209606 -0.111486,0 -0.201601,0.09011 -0.201601,0.201601 0,0.111487 0.09011,0.201601 0.201601,0.201601 0.44474,0 0.806405,0.361665 0.806405,0.806404 0,0.111487 0.09014,0.201601 0.201601,0.201601"
       id="path3" /><polygon
       style="fill:#555555;fill-opacity:1"
       points="86.78,286.37 138.847,286.37 138.847,251.658 86.78,251.658 "
       id="polygon4"
       transform="matrix(-0.02323128,0,0,0.02323128,17.255306,8.940988)" /><path
       id="rect4"
       style="fill:#ff4136;fill-opacity:1;stroke-width:0.725426;stroke-linecap:round;stroke-linejoin:round"
       d="m 8.3167545,10.168091 h 5.1674145 c 0.133962,0 0.241808,0.107846 0.241808,0.241808 v 1.491717 c 0,0.133961 -0.107846,0.241807 -0.241808,0.241807 H 8.3167545 c -0.1339617,0 -0.2418079,-0.107846 -0.2418079,-0.241807 v -1.491717 c 0,-0.133962 0.1078462,-0.241808 0.2418079,-0.241808 z" /><path
       style="font-size:2.4072px;font-family:'Futura XBlk BT';-inkscape-font-specification:'Futura XBlk BT';letter-spacing:0px;fill:#ffffff;stroke-width:0.0467498;stroke-linecap:round;stroke-linejoin:round"
       d="m 9.7933774,11.031056 q -0.058439,-0.056 -0.1193095,-0.0836 -0.060869,-0.02759 -0.128238,-0.02759 -0.1047001,0 -0.1688191,0.06493 -0.063307,0.06412 -0.063307,0.171254 0,0.1047 0.060869,0.167196 0.060876,0.0625 0.1631382,0.0625 0.061684,0 0.1249911,-0.02597 0.064122,-0.02679 0.1396005,-0.08441 l -0.013797,0.447209 q -0.069801,0.02841 -0.1396005,0.0422 -0.069801,0.01461 -0.1396011,0.01461 -0.086844,0 -0.1671958,-0.01948 -0.080352,-0.01948 -0.145282,-0.05519 -0.1574567,-0.0909 -0.2386198,-0.229691 -0.080352,-0.138789 -0.080352,-0.318971 0,-0.133108 0.04545,-0.246737 0.046265,-0.113627 0.1339195,-0.200472 0.088467,-0.08766 0.2045308,-0.132296 0.1168748,-0.04545 0.2524177,-0.04545 0.072235,0 0.1420353,0.01542 0.070612,0.01461 0.1371657,0.04464 z m 0.9447396,0.291376 h -0.185864 v -0.279201 h 0.656609 q 0.0017,0.03652 0.0024,0.05438 8.29e-4,0.01786 8.29e-4,0.03165 0,0.102265 -0.01948,0.186675 -0.01948,0.08441 -0.05682,0.14934 -0.0909,0.152587 -0.234561,0.23375 -0.143659,0.08035 -0.326276,0.08035 -0.134731,0 -0.250794,-0.04464 -0.115252,-0.04545 -0.204531,-0.133107 -0.08847,-0.08766 -0.1339191,-0.200473 -0.04545,-0.112817 -0.04545,-0.245113 0,-0.133108 0.04545,-0.245924 0.046265,-0.113629 0.1339191,-0.199661 0.08847,-0.08685 0.204531,-0.132297 0.116063,-0.04545 0.250794,-0.04545 0.182617,0 0.324653,0.08035 0.142035,0.07954 0.232126,0.23375 l -0.380655,0.141224 q -0.03003,-0.04951 -0.07223,-0.07386 -0.04221,-0.02435 -0.09658,-0.02435 -0.09496,0 -0.151775,0.07223 -0.056,0.07224 -0.056,0.19398 0,0.125803 0.05682,0.195603 0.05682,0.06899 0.160702,0.06899 0.06169,0 0.09983,-0.02597 0.03896,-0.02597 0.04626,-0.07224 z m 0.637942,0.425295 v -1.188229 h 0.434223 v 1.188229 z m 0.664726,0 v -1.188229 h 0.42773 v 0.802704 h 0.415555 v 0.385525 z"
       id="text7"
       aria-label="CGIL" /><path
       id="path1"
       style="fill:none;stroke:#ffffff;stroke-width:0.0548101;stroke-linecap:round;stroke-linejoin:round;stroke-dasharray:none"
       d="m 8.3167545,10.168091 h 5.1674145 c 0.133962,0 0.241808,0.107846 0.241808,0.241808 v 1.491717 c 0,0.133961 -0.107846,0.241807 -0.241808,0.241807 H 8.3167545 c -0.1339617,0 -0.2418079,-0.107846 -0.2418079,-0.241807 v -1.491717 c 0,-0.133962 0.1078462,-0.241808 0.2418079,-0.241808 z" /></g></svg>
