<?xml version="1.0" encoding="UTF-8" standalone="no"?>
<!-- Created with Inkscape (http://www.inkscape.org/) -->

<svg
   width="64"
   height="64"
   viewBox="0 0 16.933333 16.933333"
   version="1.1"
   id="svg1"
   inkscape:version="1.4.2 (ebf0e940d0, 2025-05-08)"
   sodipodi:docname="edit-transport-logo.svg"
   xml:space="preserve"
   xmlns:inkscape="http://www.inkscape.org/namespaces/inkscape"
   xmlns:sodipodi="http://sodipodi.sourceforge.net/DTD/sodipodi-0.dtd"
   xmlns="http://www.w3.org/2000/svg"
   xmlns:svg="http://www.w3.org/2000/svg"><sodipodi:namedview
     id="namedview1"
     pagecolor="#ffffff"
     bordercolor="#000000"
     borderopacity="0.25"
     inkscape:showpageshadow="false"
     inkscape:pageopacity="0.0"
     inkscape:pagecheckerboard="0"
     inkscape:deskcolor="#d1d1d1"
     inkscape:document-units="px"
     inkscape:zoom="18.78125"
     inkscape:cx="26.808652"
     inkscape:cy="30.828619"
     inkscape:window-width="2520"
     inkscape:window-height="1404"
     inkscape:window-x="2600"
     inkscape:window-y="0"
     inkscape:window-maximized="1"
     inkscape:current-layer="layer1" /><defs
     id="defs1" /><g
     inkscape:label="Livello 1"
     inkscape:groupmode="layer"
     id="layer1"><path
       d="m 3.8759268,13.991166 c 0,0 -0.048948,0.146844 -0.050271,0.261938 -0.00132,0.115094 0.015875,0.34925 0.22225,0.34925 0.2672292,0 3.2887708,-0.0093 4.745302,0 1.4565312,0.0093 4.1380832,-0.01853 4.3259372,-0.02911 0.187855,-0.0093 0.136261,-0.425979 0.124355,-0.568854 z"
       fill="#543529"
       id="path1-1"
       style="stroke-width:0.132292" /><path
       d="m 13.523958,15.348479 0.382323,0.263261 c 0,0 0.247385,0.215635 0.280458,0.345281 0.03308,0.129645 -0.04366,0.375708 -0.153458,0.427301 L 8.2997601,16.404162 2.952531,16.388292 C 2.869187,16.367122 2.7686456,16.286427 2.7435102,16.13826 c -0.025135,-0.148167 0.056886,-0.313531 0.1084791,-0.416718 0.051594,-0.103188 1.1152187,-0.37174 1.1152187,-0.37174 z"
       fill="#874d36"
       id="path2-2"
       style="stroke-width:0.132292" /><path
       d="m 3.4248122,15.073312 c -0.1031875,0.0013 -0.1785937,0.124355 -0.2407709,0.205053 -0.1613957,0.207697 -0.2632604,0.338666 -0.330729,0.443177 -0.092604,0.144197 0.092604,0.268551 0.2579686,0.268551 0.1653646,0 11.0318021,0.01587 11.0582601,-0.05423 0.03572,-0.09261 -0.175947,-0.408782 -0.350573,-0.699823 -0.06085,-0.101865 -0.193145,-0.240771 -0.312208,-0.239448 z"
       fill="#b88956"
       id="path3-70"
       style="stroke-width:0.132292" /><path
       d="m 4.2622185,13.337646 -0.3677709,0.599281 c -0.0635,0.103188 0.010584,0.235479 0.1322917,0.235479 l 9.0646247,-0.0053 c 0.120386,0 0.194469,-0.130968 0.133615,-0.234155 L 12.869114,13.336322 H 4.2622185 Z"
       fill="#a06841"
       id="path4-9"
       style="stroke-width:0.132292" /><path
       d="M 6.2505622,13.434219 5.1723851,16.396228 H 4.5188642 L 4.1444789,15.683177 5.3403955,13.110104 c 0,-0.0013 0.9696979,0.132292 0.9101667,0.324115 z"
       fill="#88857c"
       id="path5-36"
       style="fill:#999999;fill-opacity:1;stroke-width:0.132292" /><path
       d="m 3.8111039,16.400198 c 0.015875,-0.05557 1.1178645,-2.373313 1.1178645,-2.373313 0.068792,-0.144198 0.6495521,-0.07938 0.5556251,0.193146 -0.093927,0.272521 -0.7593542,2.174875 -0.7593542,2.174875 z"
       fill="#c8c9c6"
       id="path6-0"
       style="fill:#ced4da;fill-opacity:1;stroke-width:0.132292" /><path
       d="m 10.581791,13.434219 1.083469,2.958041 0.646906,-0.0013 0.375709,-0.70776 -1.195918,-2.573074 c 0.0013,-0.0013 -0.969697,0.132292 -0.910166,0.324115 z"
       fill="#88857c"
       id="path7-62"
       style="fill:#999999;fill-opacity:1;stroke-width:0.132292" /><path
       d="m 13.019927,16.388292 c -0.01587,-0.05557 -1.12051,-2.369344 -1.12051,-2.369344 -0.06879,-0.144198 -0.649553,-0.07938 -0.555626,0.193146 l 0.762,2.178843 z"
       fill="#c8c9c6"
       id="path8-6"
       style="fill:#ced4da;fill-opacity:1;stroke-width:0.132292" /><path
       d="m 13.255406,12.975166 c 0.01852,0.226219 -0.119062,0.428625 -0.312209,0.460376 -0.641615,0.101864 -2.174874,0.296333 -4.5693536,0.296333 -2.3772813,0 -3.8761458,-0.191823 -4.5098228,-0.295011 -0.1957917,-0.03175 -0.3320521,-0.238125 -0.3108855,-0.466989 l -0.00264,-2.26748 h 9.7075609 z"
       fill="#82aec0"
       id="path9-1"
       style="stroke-width:0.132292" /><path
       d="m 3.5504893,10.702395 v 0.801689 c 0,0 2.2992291,0.119062 4.8524582,0.119062 2.5532285,0 4.8537815,-0.137584 4.8537815,-0.137584 v -0.783167 z"
       fill="#546e7a"
       id="path10"
       style="stroke-width:0.132292" /><path
       d="M 8.3844267,11.21701 8.4029475,8.0353957 3.4155518,7.0881874 3.3282393,10.186458 v 0.739511 c 0,0.117739 0.091282,0.214312 0.2076979,0.220927 0.4193646,0.02513 1.6205729,0.07012 4.8484895,0.07012 z"
       fill="#e0e0e0"
       id="path11-8"
       style="stroke-width:0.132292" /><path
       d="M 12.774482,1.0581956 C 12.135953,0.79829861 10.861535,0.5291667 8.3905343,0.5291667 5.919534,0.5291667 4.643796,0.79829861 4.0052673,1.0581956 3.7427317,1.1650568 3.5712261,1.5793088 3.5712261,1.8669107 L 3.4155518,7.0688082 4.8047475,9.128195 8.3549139,10.844571 c 4.4301221,0 5.1227421,-0.03826 5.1227421,-0.03826 L 13.207205,1.8669107 c 0.0013,-0.2876019 -0.170188,-0.7018539 -0.432723,-0.8087151 z"
       fill="#2167a1"
       id="path12-7"
       style="fill:#ff851b;fill-opacity:1;stroke-width:0.131927" /><path
       d="M 12.50002,1.2461875 C 11.900739,1.0027709 10.722021,0.75935419 8.4042704,0.75935419 6.0865205,0.75935419 4.9064789,1.0027709 4.3085205,1.2461875 4.062458,1.3467292 3.9010622,1.6470313 3.9010622,1.9169062 l 0.021167,3.2265937 c 0.00397,0.7170208 0.4722813,1.349375 1.1562292,1.5650104 L 8.4995204,7.8660624 11.783,6.7190936 c 0.68527,-0.220927 1.148291,-0.8612187 1.144322,-1.5808853 l -0.02117,-3.2080728 c 0,-0.2698751 -0.160073,-0.5834063 -0.406136,-0.683948 z"
       fill="#2686c6"
       id="path13-9"
       style="fill:#ffc28c;fill-opacity:1;stroke-width:0.132292" /><path
       fill="#bae2fd"
       d="M 12.370374,4.1645416 H 8.7641038 l 0.047625,-2.205302 h 3.2900942 z"
       id="path14-2"
       style="stroke-width:0.132292" /><path
       d="M 12.122989,1.7131771 H 8.8712601 c -0.1217084,0 -0.2182813,0.1309687 -0.2103438,0.28575 l 0.060854,2.141802 c 0.00662,0.1415521 0.099219,0.2513542 0.2103438,0.2513542 h 3.3535939 c 0.161396,0 0.280459,-0.1905 0.246063,-0.3915834 L 12.326719,1.9235208 C 12.306875,1.8004896 12.220885,1.7131771 12.122989,1.7131771 Z M 9.158333,2.079625 h 2.705365 c 0.09657,0 0.179916,0.083344 0.203729,0.2024062 l 0.125676,1.4075833 c 0.0344,0.1706563 -0.06615,0.3360208 -0.203729,0.3360208 H 9.1940517 c -0.109802,0 -0.2010833,-0.1084791 -0.2090209,-0.2487082 L 8.950635,2.3693437 C 8.9400517,2.2132396 9.0366247,2.079625 9.158333,2.079625 Z"
       fill="#37474f"
       id="path15-0"
       style="stroke-width:0.132292;fill:#555555;fill-opacity:1" /><path
       fill="#bae2fd"
       d="M 4.5625205,4.1645416 H 8.1687913 L 8.1211663,1.9592396 H 4.8310726 Z"
       id="path16-3"
       style="stroke-width:0.132292" /><path
       d="M 4.6048539,1.9235208 4.3998017,4.0004999 C 4.365406,4.2015833 4.4844685,4.3920833 4.6458643,4.3920833 H 7.999458 c 0.111125,0 0.2024063,-0.1098021 0.2103437,-0.2513542 l 0.060854,-2.141802 c 0.00794,-0.1547813 -0.088635,-0.28575 -0.2103437,-0.28575 H 4.8099059 c -0.097896,0 -0.1838855,0.087312 -0.205052,0.2103437 z m 3.378729,0.4458229 -0.034396,1.4075834 C 7.9412497,3.9171562 7.8499684,4.0256353 7.7401663,4.0256353 H 4.9421976 c -0.1375834,0 -0.238125,-0.1653645 -0.2037291,-0.3360208 L 4.8641455,2.2820312 C 4.887958,2.1629687 4.9713017,2.079625 5.0678747,2.079625 h 2.7053646 c 0.1230312,0 0.2196041,0.1336146 0.2103436,0.2897187 z"
       fill="#37474f"
       id="path17-7"
       style="stroke-width:0.132292;fill:#555555;fill-opacity:1" /><path
       d="M 11.113604,5.8062812 C 10.961468,5.4662916 10.700854,5.3379686 10.42701,5.4054374 c -0.273844,0.067469 -0.415396,0.3373437 -0.374385,0.6164792 0.05423,0.3796771 0.404812,0.7540625 0.849312,0.5450417 0.288396,-0.1349376 0.362479,-0.4246563 0.211667,-0.7606771 z"
       fill="#01579b"
       id="path18"
       style="fill:#ff851b;fill-opacity:1;stroke-width:0.132292" /><circle
       cx="10.547396"
       cy="5.900208"
       r="0.4140729"
       fill="#f44336"
       id="circle18"
       style="fill:#ff4136;fill-opacity:1;stroke-width:0.132292" /><path
       d="M 5.8192914,5.8062812 C 5.9714267,5.4662916 6.2320413,5.3379686 6.5058851,5.4054374 6.7797288,5.4729062 6.9212809,5.7427811 6.8802705,6.0219166 6.8260309,6.4015937 6.475458,6.7759791 6.030958,6.5669583 5.7425622,6.4320207 5.6684788,6.142302 5.8192914,5.8062812 Z"
       fill="#01579b"
       id="path19"
       style="fill:#ff851b;fill-opacity:1;stroke-width:0.132292" /><circle
       cx="6.3854995"
       cy="5.900208"
       r="0.4140729"
       fill="#f44336"
       id="circle19"
       style="fill:#ff4136;fill-opacity:1;stroke-width:0.132292" /><path
       d="M 8.4042704,8.0340728 3.4168747,7.0868645 3.3282393,10.186458 v 0.739511 c 0,0.117739 0.091282,0.214312 0.2076979,0.220927 0.4193646,0.02513 1.6205729,0.07012 4.8484895,0.07012 h 0.018521 c 0,0 0.2844271,-0.576792 0.2844271,-1.5478123 0,-0.9710209 -0.2831042,-1.635125 -0.2831042,-1.635125 z"
       fill="#e0e0e0"
       id="path20"
       style="fill:#dee2e6;fill-opacity:1;stroke-width:0.132292" /><path
       d="m 8.4042704,8.0340728 4.9873956,-0.9472083 0.08731,3.0995935 v 0.739511 c 0,0.117739 -0.09128,0.214312 -0.207698,0.220927 -0.419364,0.02513 -1.620573,0.07012 -4.8484895,0.07012 h -0.018521 z"
       fill="#bdbdbd"
       id="path21"
       style="fill:#adb5bd;fill-opacity:1;stroke-width:0.132292" /><path
       d="m 3.3282393,10.925969 c 0,0.117739 0.091282,0.214312 0.2076979,0.220927 0.4193646,0.02513 1.6205729,0.07012 4.8484895,0.07012 h 0.037042 c 3.2279163,0 4.4291253,-0.04498 4.8484893,-0.07012 0.116417,-0.0067 0.207698,-0.103188 0.207698,-0.220927 V 10.193072 H 3.3282393 Z"
       opacity="0.2"
       fill="#424242"
       id="path22"
       style="opacity:0.307889;fill:#adb5bd;fill-opacity:1;stroke-width:0.132292" /><path
       d="M 4.1934268,11.873177 A 0.3095625,0.3095625 0 0 0 3.8534372,12.18274 c 0,0.412749 0.00662,0.862541 0.2923646,0.951176 0.3148542,0.0979 2.0809479,0.195792 2.919677,0.22225 0.1825625,0.0053 0.3294063,-0.146843 0.3188229,-0.328082 L 7.3446143,12.353396 A 0.31088541,0.31088541 0 0 0 7.0416663,12.061031 C 6.0005309,12.043833 4.7781559,11.932709 4.1934268,11.873177 Z"
       fill="#94d1e0"
       id="path23"
       style="stroke-width:0.132292" /><circle
       cx="11.345114"
       cy="8.7616768"
       r="0.77787501"
       fill="#757575"
       id="circle23"
       style="fill:#999999;fill-opacity:1;stroke-width:0.132292" /><circle
       cx="11.345114"
       cy="8.8397293"
       r="0.5715"
       fill="#fffde7"
       id="circle24"
       style="stroke-width:0.132292" /><circle
       cx="5.5877814"
       cy="8.7616768"
       r="0.77787501"
       fill="#9e9e9e"
       id="circle25"
       style="fill:#999999;fill-opacity:1;stroke-width:0.132292" /><circle
       cx="5.5877814"
       cy="8.8397293"
       r="0.5715"
       fill="#fffde7"
       id="circle26"
       style="stroke-width:0.132292" /><path
       fill="#ffffff"
       d="M 7.6131663,4.0243124 H 6.6434684 L 5.3866976,2.079625 h 0.9710208 z"
       id="path27"
       style="stroke-width:0.132292" /><path
       fill="#ffffff"
       d="M 11.546197,4.0243124 H 10.575176 L 9.3197287,2.079625 h 0.9696973 z"
       id="path28"
       style="stroke-width:0.132292" /></g></svg>
