<?xml version="1.0" encoding="UTF-8" standalone="no"?>
<!-- Created with Inkscape (http://www.inkscape.org/) -->

<svg
   width="64"
   height="64"
   viewBox="0 0 16.933333 16.933333"
   version="1.1"
   id="svg1"
   inkscape:version="1.4.2 (ebf0e940d0, 2025-05-08)"
   sodipodi:docname="show-road-logo.svg"
   xml:space="preserve"
   xmlns:inkscape="http://www.inkscape.org/namespaces/inkscape"
   xmlns:sodipodi="http://sodipodi.sourceforge.net/DTD/sodipodi-0.dtd"
   xmlns="http://www.w3.org/2000/svg"
   xmlns:svg="http://www.w3.org/2000/svg"><sodipodi:namedview
     id="namedview1"
     pagecolor="#ffffff"
     bordercolor="#000000"
     borderopacity="0.25"
     inkscape:showpageshadow="false"
     inkscape:pageopacity="0.0"
     inkscape:pagecheckerboard="0"
     inkscape:deskcolor="#d1d1d1"
     inkscape:document-units="px"
     inkscape:zoom="4.6953125"
     inkscape:cx="-45.68386"
     inkscape:cy="74.329451"
     inkscape:window-width="2520"
     inkscape:window-height="1404"
     inkscape:window-x="2600"
     inkscape:window-y="0"
     inkscape:window-maximized="1"
     inkscape:current-layer="layer1" /><defs
     id="defs1">
	
	

		
		
		
	
	
	
	
	
	

		
		
	</defs><g
     inkscape:label="Livello 1"
     inkscape:groupmode="layer"
     id="layer1"><g
       id="g1"
       transform="matrix(0.69052053,0,0,0.69052053,31.65431,0.52916912)"><path
         id="polygon1-6"
         style="fill:#333333;fill-opacity:1;stroke-width:0.0330729"
         d="m -34.717522,22.989899 v -7.988125 l -8.67043,-8.6704631 5.367569,-5.3675696 3.302861,3.3031579 V -3.59e-6 h 7.590797 V 22.989899 Z"
         sodipodi:nodetypes="ccccccccc" /><path
         style="fill:#ffffff;stroke-width:0.0330729"
         d="m -30.921975,3.6912319 c -0.161462,0 -0.291967,-0.1305057 -0.291967,-0.2919677 V 2.2731974 c 0,-0.161462 0.130505,-0.2919677 0.291967,-0.2919677 0.161462,0 0.291968,0.1305057 0.291968,0.2919677 v 1.1260668 c 0,0.161462 -0.130506,0.2919677 -0.291968,0.2919677 m 0,2.8152993 c -0.161462,0 -0.291967,-0.1308034 -0.291967,-0.2919678 V 5.088199 c 0,-0.161462 0.130505,-0.2919677 0.291967,-0.2919677 0.161462,0 0.291968,0.1305057 0.291968,0.2919677 v 1.1263644 c 0,0.1611975 -0.130506,0.2919678 -0.291968,0.2919678 m 0,2.8150346 c -0.161462,0 -0.291967,-0.1305057 -0.291967,-0.2919677 V 7.903829 c 0,-0.161462 0.130505,-0.2919678 0.291967,-0.2919678 0.161462,0 0.291968,0.1305058 0.291968,0.2919678 v 1.1257691 c 0,0.161462 -0.130506,0.2919677 -0.291968,0.2919677 m 0,2.8155972 c -0.161462,0 -0.291967,-0.130804 -0.291967,-0.291968 v -1.126364 c 0,-0.161165 0.130505,-0.291968 0.291967,-0.291968 0.161462,0 0.291968,0.130803 0.291968,0.291968 v 1.126364 c 0,0.161164 -0.130506,0.291968 -0.291968,0.291968 m 0,2.815034 c -0.161462,0 -0.291967,-0.130505 -0.291967,-0.291967 v -1.126067 c 0,-0.161462 0.130505,-0.291968 0.291967,-0.291968 0.161462,0 0.291968,0.130506 0.291968,0.291968 v 1.126067 c 0,0.161462 -0.130506,0.291967 -0.291968,0.291967"
         id="path1-5" /><path
         style="fill:#ffffff;stroke-width:0.0330729"
         d="m -38.306364,6.3373632 c -0.07475,0 -0.14949,-0.028608 -0.206408,-0.085527 l -0.794114,-0.7941139 c -0.11387,-0.11387 -0.11387,-0.2986815 0,-0.4128161 0.114168,-0.1138701 0.298946,-0.1138701 0.412816,0 l 0.794114,0.7941138 c 0.114168,0.1141678 0.114168,0.2986816 0,0.4128162 -0.05692,0.056919 -0.131663,0.085527 -0.206408,0.085527 m 1.985004,1.9850036 c -0.07475,0 -0.14949,-0.028608 -0.206409,-0.085527 l -0.794113,-0.7941139 c -0.114168,-0.11387 -0.114168,-0.2986815 0,-0.4128162 0.114167,-0.1141677 0.298946,-0.1141677 0.412816,0 l 0.794114,0.7941139 c 0.11387,0.1138701 0.11387,0.2986816 0,0.4128162 -0.05692,0.056885 -0.131664,0.085527 -0.206408,0.085527"
         id="path2-3" /><path
         style="fill:#ffffff;stroke-width:0.0330729"
         d="m -34.717357,9.9263373 c -0.07475,0 -0.14949,-0.028608 -0.206408,-0.085527 l -0.412816,-0.4128162 c -0.114168,-0.1141677 -0.114168,-0.2986815 0,-0.4128162 0.114168,-0.1141677 0.298681,-0.1141677 0.412816,0 l 0.412816,0.4128162 c 0.114168,0.1141677 0.114168,0.2986815 0,0.4128162 -0.05695,0.056919 -0.131696,0.085527 -0.206408,0.085527"
         id="path3-5" /><path
         style="fill:#ffffff;stroke-width:0.0330729"
         d="m -30.921975,17.68525 c -0.161462,0 -0.291967,-0.130505 -0.291967,-0.291967 v -1.126067 c 0,-0.161462 0.130505,-0.291968 0.291967,-0.291968 0.161462,0 0.291968,0.130506 0.291968,0.291968 v 1.126067 c 0,0.161462 -0.130506,0.291967 -0.291968,0.291967 m 0,2.8153 c -0.161462,0 -0.291967,-0.130804 -0.291967,-0.291968 v -1.126365 c 0,-0.161462 0.130505,-0.291967 0.291967,-0.291967 0.161462,0 0.291968,0.130505 0.291968,0.291967 v 1.126365 c 0,0.161197 -0.130506,0.291968 -0.291968,0.291968"
         id="path4"
         sodipodi:nodetypes="csssssccsssssc" /><path
         style="fill:#999999;fill-opacity:1;stroke-width:0.0336431"
         d="m -24.647808,20.940473 c 0.161453,0 0.291955,-0.130501 0.291955,-0.291955 v -3.795417 c 0,-0.161453 -0.130502,-0.291955 -0.291955,-0.291955 -0.161454,0 -0.291955,0.130502 -0.291955,0.291955 v 3.795417 c 0,0.161454 0.130535,0.291955 0.291955,0.291955"
         id="path2" /><path
         style="fill:#999999;fill-opacity:1;stroke-width:0.0336431"
         d="m -24.647808,17.145056 c 0.161453,0 0.291955,-0.130502 0.291955,-0.291955 0,-0.966063 -0.785635,-1.751731 -1.751731,-1.751731 -0.161453,0 -0.291955,0.130502 -0.291955,0.291955 0,0.161454 0.130502,0.291955 0.291955,0.291955 0.644064,0 1.167821,0.523757 1.167821,1.167821 0,0.161453 0.130535,0.291955 0.291955,0.291955"
         id="path3" /><polygon
         style="fill:#555555;fill-opacity:1"
         points="138.847,251.658 86.78,251.658 86.78,286.37 138.847,286.37 "
         id="polygon4"
         transform="matrix(-0.03364314,0,0,0.03364314,-20.852391,12.181852)" /><path
         id="rect4"
         style="fill:#0f688a;fill-opacity:1;stroke-width:1.05055;stroke-linecap:round;stroke-linejoin:round"
         d="m -33.797048,13.958921 h 7.483361 c 0.194001,0 0.350182,0.156181 0.350182,0.350182 v 2.160279 c 0,0.194001 -0.156181,0.350182 -0.350182,0.350182 h -7.483361 c -0.194001,0 -0.350182,-0.156181 -0.350182,-0.350182 v -2.160279 c 0,-0.194001 0.156181,-0.350182 0.350182,-0.350182 z" /><path
         style="font-size:2.4072px;font-family:'Futura XBlk BT';-inkscape-font-specification:'Futura XBlk BT';letter-spacing:0px;fill:#ffffff;stroke-width:0.0677023;stroke-linecap:round;stroke-linejoin:round"
         d="m -31.658628,15.208653 q -0.08463,-0.0811 -0.172782,-0.121065 -0.08815,-0.03996 -0.185712,-0.03996 -0.151625,0 -0.244481,0.09403 -0.09168,0.09286 -0.09168,0.248007 0,0.151625 0.08815,0.242131 0.08816,0.09051 0.236254,0.09051 0.08933,0 0.18101,-0.03761 0.09286,-0.03879 0.202167,-0.12224 l -0.01998,0.64764 q -0.101084,0.04114 -0.202167,0.06112 -0.101084,0.02116 -0.202168,0.02116 -0.125766,0 -0.24213,-0.02821 -0.116364,-0.02821 -0.210395,-0.07993 -0.228026,-0.131644 -0.345565,-0.332635 -0.116364,-0.200992 -0.116364,-0.461929 0,-0.192764 0.06582,-0.357319 0.067,-0.164554 0.19394,-0.290321 0.128117,-0.126942 0.296198,-0.191589 0.169256,-0.06582 0.365547,-0.06582 0.104609,0 0.205693,0.02233 0.102259,0.02116 0.198641,0.06465 z m 1.368155,0.421965 h -0.269165 v -0.404334 h 0.950891 q 0.0024,0.05289 0.0035,0.07875 0.0012,0.02586 0.0012,0.04584 0,0.148099 -0.02821,0.27034 -0.02821,0.122241 -0.08228,0.216272 -0.131644,0.220973 -0.339688,0.338512 -0.208044,0.116364 -0.472507,0.116364 -0.195115,0 -0.363195,-0.06465 -0.166906,-0.06582 -0.296199,-0.192764 -0.128117,-0.126943 -0.193939,-0.290322 -0.06582,-0.163379 -0.06582,-0.354968 0,-0.192764 0.06582,-0.356143 0.067,-0.164555 0.193939,-0.289146 0.128118,-0.125767 0.296199,-0.191589 0.16808,-0.06582 0.363195,-0.06582 0.264463,0 0.470157,0.116364 0.205693,0.115188 0.336161,0.338512 l -0.551258,0.204518 q -0.04349,-0.0717 -0.10461,-0.10696 -0.06112,-0.03526 -0.139871,-0.03526 -0.137521,0 -0.219798,0.10461 -0.0811,0.10461 -0.0811,0.280918 0,0.182186 0.08228,0.283269 0.08228,0.09991 0.232727,0.09991 0.08933,0 0.144574,-0.03761 0.05642,-0.03761 0.067,-0.10461 z m 0.923857,0.615905 v -1.720772 h 0.628834 v 1.720772 z m 0.962645,0 v -1.720772 h 0.619431 v 1.162461 h 0.6018 v 0.558311 z"
         id="text7"
         aria-label="CGIL" /><path
         id="path1"
         style="fill:none;stroke:#ffffff;stroke-width:0.079375;stroke-linecap:round;stroke-linejoin:round;stroke-dasharray:none"
         d="m -33.797048,13.958921 h 7.483361 c 0.194001,0 0.350182,0.156181 0.350182,0.350182 v 2.160279 c 0,0.194001 -0.156181,0.350182 -0.350182,0.350182 h -7.483361 c -0.194001,0 -0.350182,-0.156181 -0.350182,-0.350182 v -2.160279 c 0,-0.194001 0.156181,-0.350182 0.350182,-0.350182 z" /></g></g></svg>
