<?xml version="1.0" encoding="UTF-8" standalone="no"?>
<!-- Created with Inkscape (http://www.inkscape.org/) -->

<svg
   width="64"
   height="64"
   viewBox="0 0 16.933333 16.933333"
   version="1.1"
   id="svg1"
   inkscape:version="1.4.2 (ebf0e940d0, 2025-05-08)"
   sodipodi:docname="edit-vehicle-logo.svg"
   xml:space="preserve"
   xmlns:inkscape="http://www.inkscape.org/namespaces/inkscape"
   xmlns:sodipodi="http://sodipodi.sourceforge.net/DTD/sodipodi-0.dtd"
   xmlns:xlink="http://www.w3.org/1999/xlink"
   xmlns="http://www.w3.org/2000/svg"
   xmlns:svg="http://www.w3.org/2000/svg"><sodipodi:namedview
     id="namedview1"
     pagecolor="#ffffff"
     bordercolor="#000000"
     borderopacity="0.25"
     inkscape:showpageshadow="false"
     inkscape:pageopacity="0.0"
     inkscape:pagecheckerboard="0"
     inkscape:deskcolor="#d1d1d1"
     inkscape:document-units="px"
     inkscape:zoom="18.78125"
     inkscape:cx="31.973378"
     inkscape:cy="32"
     inkscape:window-width="2520"
     inkscape:window-height="1404"
     inkscape:window-x="2600"
     inkscape:window-y="0"
     inkscape:window-maximized="1"
     inkscape:current-layer="layer1"
     showgrid="false" /><defs
     id="defs1"><linearGradient
       id="linearGradient1"
       inkscape:collect="always"><stop
         style="stop-color:#222222;stop-opacity:1;"
         offset="0"
         id="stop1" /><stop
         style="stop-color:#707070;stop-opacity:1;"
         offset="1"
         id="stop2" /></linearGradient><linearGradient
       inkscape:collect="always"
       xlink:href="#linearGradient1"
       id="linearGradient2"
       x1="8.3120184"
       y1="5.9743619"
       x2="8.3120184"
       y2="3.789573"
       gradientUnits="userSpaceOnUse" /></defs><g
     inkscape:label="Livello 1"
     inkscape:groupmode="layer"
     id="layer1"><path
       style="fill:#fdc79a;stroke-width:0.0332678;fill-opacity:1"
       d="m 13.310464,6.7600263 c -3.22698,0 -6.4572877,0 -9.6842682,0 C 3.8956653,5.9150232 4.1651348,5.040079 4.4346043,4.1485009 4.5443882,3.7792278 4.8970273,3.4931244 5.2929146,3.4598566 c 2.1125078,-0.1729928 4.2383228,-0.1729928 6.3541574,0 0.399214,0.033268 0.748526,0.3193712 0.85831,0.6886443 0.266143,0.8915781 0.535613,1.7665223 0.805082,2.6115254 z"
       id="path1" /><path
       style="fill:url(#linearGradient2);stroke-width:0.0332678;fill-opacity:1"
       d="m 13.024361,7.0161887 c -3.0373542,0 -6.0780348,0 -9.1153886,0 C 4.161808,6.2210873 4.4146436,5.3993717 4.6674792,4.5576953 4.7706095,4.2117098 5.0999611,3.9422403 5.4758877,3.9089724 c 1.9894168,-0.1630124 3.988814,-0.1630124 5.9782313,0 0.375926,0.029941 0.705278,0.2994106 0.808408,0.6487229 0.256162,0.8416764 0.508998,1.663392 0.761834,2.4584934 z"
       id="path2" /><g
       id="g4"
       transform="matrix(0.03326784,0,0,0.03326784,1.22e-6,1.22e-6)"
       style="fill:#222222;fill-opacity:1">
	<path
   style="fill:#222222;fill-opacity:1"
   d="m 44.4,311.1 v 86.6 c 0,6.2 5,11.2 11.2,11.2 h 33.5 c 6.2,0 11.2,-5 11.2,-11.2 v -86.6 z"
   id="path3" />
	<path
   style="fill:#222222;fill-opacity:1"
   d="m 408.7,311.1 v 86.6 c 0,6.2 5,11.2 11.2,11.2 h 33.6 c 6.2,0 11.2,-5 11.2,-11.2 v -86.6 z"
   id="path4" />
</g><path
       style="fill:#fd7e14;stroke-width:0.0332678;fill-opacity:1"
       d="m 5.4891948,11.523981 c 0,0.565553 0.4590962,1.024649 1.0246495,1.024649 h 3.9089707 c 0.565554,0 1.02465,-0.459096 1.02465,-1.024649 z"
       id="path5" /><path
       style="fill:#222222;stroke-width:0.0332678;fill-opacity:1"
       d="m 6.5138443,12.405579 c -0.4391355,0 -0.801755,-0.319372 -0.8716174,-0.738546 h 5.6488791 c -0.06986,0.419174 -0.432482,0.738546 -0.871617,0.738546 z"
       id="path6" /><path
       style="fill:#fd7e14;stroke-width:0.0332678;fill-opacity:1"
       d="m 0.92152039,9.814014 c 0,1.144414 0.92817271,2.072586 2.07258641,2.072586 H 13.935899 c 1.144414,0 2.072587,-0.928172 2.072587,-2.072586 z"
       id="path7" /><path
       id="SVGCleanerId_0"
       style="fill:#7ca4a4;stroke-width:0.0332678"
       d="m 4.1850955,6.1911462 c 2.8477271,-0.2894302 5.7187417,-0.2894302 8.5664685,0 0.282777,0.2761231 0.565554,0.5522462 0.851657,0.8217157 0.05988,0.6487229 0.119764,1.2907922 0.179646,1.9295347 -0.246182,0.2827767 -0.492364,0.5722069 -0.738546,0.8682906 -3.0506606,0 -6.0979948,0 -9.1486557,0 C 3.6461565,9.2118661 3.3933209,8.6263521 3.1438121,8.0574721 3.3201317,7.5451473 3.499778,7.026169 3.6760975,6.5005372 3.8424367,6.4007336 4.0121027,6.2976033 4.1850955,6.1911462 Z" /><g
       id="g7"
       transform="matrix(0.03326784,0,0,0.03326784,1.22e-6,1.22e-6)"
       style="fill:#fda153;fill-opacity:1">
	<path
   id="SVGCleanerId_0_1_"
   style="fill:#fda153;fill-opacity:1"
   d="m 125.8,186.1 c 85.6,-8.7 171.9,-8.7 257.5,0 8.5,8.3 17,16.6 25.6,24.7 1.8,19.5 3.6,38.8 5.4,58 -7.4,8.5 -14.8,17.2 -22.2,26.1 -91.7,0 -183.3,0 -275,0 -7.5,-18 -15.1,-35.6 -22.6,-52.7 5.3,-15.4 10.7,-31 16,-46.8 5,-3 10.1,-6.1 15.3,-9.3 z" />
</g><path
       style="fill:#fdc79a;stroke-width:0.0332678;fill-opacity:1"
       d="m 4.1850955,6.3109105 c 0,0 -2.465147,0.1896267 -3.27355546,1.7266009 C 0.70527943,8.4333987 0.60880269,9.105409 1.0379578,9.814014 h 2.4318791 0.4191748 c 0.00333,0 -0.9980352,-1.6866795 0.2960838,-3.5031035 z"
       id="path8" /><circle
       style="fill:#fd7e14;stroke-width:0.0332678;fill-opacity:1"
       cx="2.1923518"
       cy="8.5198956"
       r="1.0512638"
       id="circle8" /><circle
       style="fill:#ffffff;stroke-width:0.0332678"
       cx="2.1923518"
       cy="8.5198956"
       r="0.8084085"
       id="circle9" /><path
       style="fill:#fdc79a;stroke-width:0.0332678;fill-opacity:1"
       d="m 12.748238,6.3109105 c 0,0 2.465146,0.1896267 3.273555,1.7266009 0.206261,0.3958873 0.302737,1.0678976 -0.126418,1.7765026 h -2.431879 -0.419175 c -0.0033,0 0.998035,-1.6866795 -0.296083,-3.5031035 z"
       id="path9" /><circle
       style="fill:#fd7e14;stroke-width:0.0332678;fill-opacity:1"
       cx="14.740981"
       cy="8.5198956"
       r="1.0512638"
       id="circle10" /><circle
       style="fill:#ffffff;stroke-width:0.0332678"
       cx="14.740981"
       cy="8.5198956"
       r="0.8084085"
       id="circle11" /><path
       style="fill:#dededf;stroke-width:0.0332678"
       d="m 11.710281,9.3582446 c -2.1557561,-0.2428552 -4.3347997,-0.2428552 -6.4872289,0 -0.5189783,0.069862 -0.9414799,0.5256319 -0.9414799,0.9913814 0,0.46575 0.4191748,0.921519 0.9414799,0.991382 2.155756,0.242855 4.3347996,0.242855 6.4872289,0 0.518978,-0.06986 0.94148,-0.525632 0.94148,-0.991382 0,-0.4657495 -0.422502,-0.9215189 -0.94148,-0.9913814 z"
       id="path11" /><g
       id="g13"
       transform="matrix(0.03326784,0,0,0.03326784,1.22e-6,1.22e-6)"
       style="fill:#ffcc00;fill-opacity:1">
	<path
   style="fill:#ffcc00;fill-opacity:1"
   d="m 70.5,315.5 c -6.6,0 -12,5.4 -12,12 0,6.6 5.4,12 12,12 H 110 v -24 z"
   id="path12" />
	<path
   style="fill:#ffcc00;fill-opacity:1"
   d="m 438.5,315.5 c 6.6,0 12,5.4 12,12 0,6.6 -5.4,12 -12,12 H 399 v -24 z"
   id="path13" />
</g><g
       id="g14"
       transform="matrix(0.03326784,0,0,0.03326784,1.22e-6,1.22e-6)">
	<rect
   x="110"
   y="287.70001"
   style="fill:#f1f3f7"
   width="12.7"
   height="58.799999"
   id="rect13" />
	<rect
   x="386.29999"
   y="287.70001"
   style="fill:#f1f3f7"
   width="12.7"
   height="58.799999"
   id="rect14" />
</g><g
       id="g17"
       transform="matrix(0.03326784,0,0,0.03326784,1.22e-6,1.22e-6)"
       style="fill:#222222;fill-opacity:1">
	<path
   style="fill:#222222;fill-opacity:1"
   d="m 138.6,296.4 c -2.8,3.5 -4.7,7.6 -5.4,11.8 h 242.5 c -0.6,-4.2 -2.5,-8.3 -5.3,-11.8 z"
   id="path14" />
	<path
   style="fill:#222222;fill-opacity:1"
   d="m 133.3,314 c 0.6,4.2 2.5,8.3 5.3,11.8 h 231.8 c 2.8,-3.5 4.7,-7.6 5.4,-11.8 z"
   id="path15" />
	<path
   style="fill:#222222;fill-opacity:1"
   d="m 144.8,331.6 c 3.7,2.6 8.1,4.5 12.7,5.1 32.1,3.6 64.7,5.4 97,5.4 v 0 c 32.3,0 65,-1.8 96.9,-5.4 4.6,-0.6 9,-2.5 12.7,-5.1 z"
   id="path16" />
	<path
   style="fill:#222222;fill-opacity:1"
   d="m 364.2,290.7 c -3.7,-2.6 -8.1,-4.5 -12.7,-5.1 -32.1,-3.6 -64.7,-5.4 -97,-5.4 -32.3,0 -65,1.8 -96.9,5.4 -4.6,0.6 -9,2.5 -12.7,5.1 z"
   id="path17" />
</g></g></svg>
