<?xml version="1.0" encoding="UTF-8" standalone="no"?>
<!-- Created with Inkscape (http://www.inkscape.org/) -->

<svg
   width="218"
   height="32"
   viewBox="0 0 57.679167 8.4666667"
   version="1.1"
   id="svg1"
   xml:space="preserve"
   inkscape:version="1.4.2 (ebf0e940d0, 2025-05-08)"
   sodipodi:docname="sidebar-logo.svg"
   xmlns:inkscape="http://www.inkscape.org/namespaces/inkscape"
   xmlns:sodipodi="http://sodipodi.sourceforge.net/DTD/sodipodi-0.dtd"
   xmlns="http://www.w3.org/2000/svg"
   xmlns:svg="http://www.w3.org/2000/svg"><sodipodi:namedview
     id="namedview1"
     pagecolor="#ffffff"
     bordercolor="#000000"
     borderopacity="0.25"
     inkscape:showpageshadow="false"
     inkscape:pageopacity="0.0"
     inkscape:pagecheckerboard="0"
     inkscape:deskcolor="#d1d1d1"
     inkscape:document-units="px"
     inkscape:zoom="17.707132"
     inkscape:cx="21.036721"
     inkscape:cy="22.420345"
     inkscape:window-width="2520"
     inkscape:window-height="1404"
     inkscape:window-x="2600"
     inkscape:window-y="0"
     inkscape:window-maximized="1"
     inkscape:current-layer="layer1" /><defs
     id="defs1" /><g
     inkscape:label="Livello 1"
     inkscape:groupmode="layer"
     id="layer1"><path
       style="fill:#adb5bd;fill-opacity:1;stroke:none;stroke-width:0.367477;stroke-dasharray:none"
       d="M 9.3734861,4.4657946 H 26.836281"
       id="path31" /><path
       style="fill:#adb5bd;fill-opacity:1;stroke:none;stroke-width:0.367477;stroke-dasharray:none"
       d="M 10.136567,4.5831916 H 26.278644"
       id="path32" /><g
       id="path33"
       transform="matrix(0.69444445,0,0,0.69444445,-0.25306191,-0.17611762)"
       style="fill:#158cba;fill-opacity:1"><path
         style="baseline-shift:baseline;display:inline;overflow:visible;vector-effect:none;fill:#158cba;stroke-linecap:round;stroke-linejoin:round;enable-background:accumulate;stop-color:#000000;stop-opacity:1;fill-opacity:1"
         d="M 14.496173,6.35 H 38.416972"
         id="path34" /><path
         style="baseline-shift:baseline;display:inline;overflow:visible;vector-effect:none;fill:#158cba;stroke-linecap:round;stroke-linejoin:round;enable-background:accumulate;stop-color:#000000;stop-opacity:1;fill-opacity:1"
         d="m 14.496094,5.953125 c -0.218883,2.15e-4 -0.39627,0.1776011 -0.396485,0.3964844 2.15e-4,0.2188832 0.177602,0.3962693 0.396485,0.3964843 H 80.713315 C 80.93296,6.7469583 81.111538,6.5692561 81.111752,6.3496094 81.111538,6.1299626 80.932961,5.9522604 80.713315,5.953125 Z"
         id="path35"
         sodipodi:nodetypes="ccccccc" /></g><g
       id="g58"
       transform="matrix(1.4018662,0,0,1.4018662,-1.7012337,-0.59476193)"><path
         d="m 6.3526926,2.1697229 v 0.1535342 c 0,0.044854 -0.023585,0.089589 -0.071759,0.1137341 -0.043578,0.021851 -0.09913,0.036218 -0.1493294,0.036373 -0.504287,0.0013 -1.0085925,0.00163 -1.5128515,0.00163 -0.3362033,0 -0.6723426,-1.554e-4 -1.0085735,-2.651e-4 -0.118002,-7.12e-5 -0.1855201,-0.036709 -0.213906,-0.1118496 -0.00423,-0.011341 -0.00631,-0.023744 -0.00631,-0.036519 v -0.153541 c 0,0.012757 0.00201,0.025187 0.00631,0.036519 0.028386,0.075159 0.095904,0.1117692 0.213906,0.1118423 0.3362309,1.279e-4 0.6723702,2.65e-4 1.0085735,2.65e-4 0.504259,0 1.0085645,-3.473e-4 1.512851,-0.00163 0.0502,-1.645e-4 0.1057554,-0.014512 0.1493299,-0.036373 0.048181,-0.024127 0.071759,-0.068871 0.071759,-0.1137245 z"
         fill="#eac54c"
         id="path14"
         style="stroke-width:0.00913894" /><path
         d="m 6.3526926,2.1697229 v 0.1535342 c 0,0.00258 -9.16e-5,0.00512 -2.47e-4,0.0077 v -0.15353 c 1.643e-4,-0.00256 2.47e-4,-0.00512 2.47e-4,-0.0077"
         fill="#eac54c"
         id="path15"
         style="stroke-width:0.00913894" /><path
         d="m 6.3524546,2.1774271 v 0.153534 a 0.12429871,0.12429871 0 0 1 -0.028822,0.0727 V 2.2501274 a 0.12428044,0.12428044 0 0 0 0.028822,-0.0727 m -0.028823,0.0727 v 0.1535341 a 0.1304675,0.1304675 0 0 1 -0.029711,0.025954 v -0.153534 a 0.13001969,0.13001969 0 0 0 0.029711,-0.025954 m -0.029711,0.025954 v 0.1535343 a 0.13872911,0.13872911 0 0 1 -0.012978,0.00738 0.32819759,0.32819759 0 0 1 -0.033903,0.014595 V 2.298052 a 0.32734767,0.32734767 0 0 0 0.033903,-0.014595 c 0.00458,-0.00229 0.00888,-0.00474 0.012978,-0.00738 m -0.046884,0.02197 v 0.1535391 a 0.36403138,0.36403138 0 0 1 -0.075506,0.018908 V 2.3169512 a 0.36430553,0.36430553 0 0 0 0.075506,-0.0189 m -0.075515,0.0189 v 0.1535433 c -0.013491,0.00184 -0.026889,0.00283 -0.039907,0.00287 -0.5042866,0.00131 -1.0085915,0.00163 -1.5128511,0.00163 -0.3362032,0 -0.6723426,-1.463e-4 -1.0085735,-2.559e-4 C 3.492186,2.4746683 3.4246678,2.4380307 3.3962819,2.36289 3.3920519,2.351549 3.3899719,2.339147 3.3899719,2.3263709 V 2.1728393 c 0,0.012768 0.00201,0.025187 0.00631,0.036519 0.028386,0.075159 0.095904,0.1117693 0.213906,0.1118424 0.3362309,1.28e-4 0.6723703,2.65e-4 1.0085734,2.65e-4 0.5042598,0 1.0085646,-3.473e-4 1.5128512,-0.00163 a 0.30284618,0.30284618 0 0 0 0.039907,-0.00289"
         fill="#eac54c"
         id="path16"
         style="fill:#adb5bd;fill-opacity:1;stroke-width:0.00913894" /><path
         d="m 4.2887636,2.0187569 c 0.1957102,0 0.3914205,2.467e-4 0.5871585,2.467e-4 0.1919266,0 0.3839724,-2.103e-4 0.5759448,-2.103e-4 0.2240047,0 0.4479456,2.833e-4 0.6719315,0.00148 0.049297,2.468e-4 0.1025205,0.010537 0.1467441,0.029044 0.1043665,0.043794 0.1109195,0.1838116 0.010407,0.234158 -0.043578,0.021851 -0.099121,0.036218 -0.1493213,0.036373 -0.5042868,0.0013 -1.0085917,0.00163 -1.5128507,0.00163 -0.3362129,0 -0.6723523,-1.554e-4 -1.0085825,-2.65e-4 -0.1180015,-7.23e-5 -0.1855203,-0.036701 -0.2139055,-0.1118414 -0.020454,-0.054257 0.010317,-0.1334012 0.07057,-0.1565318 0.046892,-0.017949 0.1003187,-0.03206 0.1508843,-0.032389 0.2236843,-0.00139 0.4473512,-0.00169 0.6710175,-0.00169 z"
         fill="#fbeec5"
         id="path17"
         style="fill:#158cba;fill-opacity:1;stroke-width:0.00913894" /><path
         d="m 2.5221517,2.172556 v 0.1535343 c 9.023e-4,0.086811 -0.1022559,0.1762262 -0.2040541,0.1767835 -0.1025208,0 -0.204484,-0.088227 -0.2041367,-0.1759794 V 2.1733603 c -3.473e-4,0.087761 0.101625,0.1759883 0.2041367,0.1759883 0.1017892,-5.482e-4 0.2049768,-0.089982 0.2040541,-0.1767926 z"
         fill="#d88e40"
         id="path18"
         style="fill:#adb5bd;fill-opacity:1;stroke-width:0.00913894" /><path
         d="m 2.5221517,2.172556 v 0.1535343 c 3.67e-5,0.00279 -5.49e-5,0.00557 -2.289e-4,0.00833 V 2.1808818 c 1.74e-4,-0.00276 2.656e-4,-0.00556 2.289e-4,-0.00833 m -2.289e-4,0.00834 v 0.1535343 c -0.00201,0.030715 -0.016578,0.061414 -0.039126,0.088008 V 2.2689078 c 0.022548,-0.026612 0.037143,-0.057292 0.039126,-0.088008"
         fill="#d88e40"
         id="path19"
         style="fill:#adb5bd;fill-opacity:1;stroke-width:0.00913894" /><path
         d="M 2.4828177,2.2689078 V 2.422442 C 2.4683607,2.439523 2.4506327,2.454931 2.4308507,2.467571 V 2.314036 c 0.019774,-0.012639 0.037504,-0.028047 0.051967,-0.045128 m -0.051967,0.045128 v 0.1535341 a 0.23534597,0.23534597 0 0 1 -0.045421,0.022628 V 2.3366548 a 0.23530027,0.23530027 0 0 0 0.045421,-0.022618"
         fill="#d88e40"
         id="path20"
         style="fill:#adb5bd;fill-opacity:1;stroke-width:0.00913894" /><path
         d="m 2.3854333,2.3366548 v 0.1535433 c -0.014186,0.00521 -0.028851,0.00898 -0.043654,0.010985 V 2.347658 a 0.20716147,0.20716147 0 0 0 0.043654,-0.011004 m -0.043654,0.011004 v 0.1535251 c -0.00786,0.00108 -0.015774,0.00166 -0.023692,0.00171 -0.10252,0 -0.2044833,-0.088227 -0.2041269,-0.1759794 V 2.1733682 c -3.652e-4,0.087761 0.1016071,0.1759886 0.2041271,0.1759886 a 0.18202025,0.18202025 0 0 0 0.023692,-0.00171"
         fill="#d88e40"
         id="path21"
         style="fill:#adb5bd;fill-opacity:1;stroke-width:0.00913894" /><path
         d="m 2.3170006,1.9962566 c 0.1032703,-9.1e-6 0.2042373,0.086875 0.2051511,0.1762994 9.023e-4,0.086811 -0.1022559,0.176226 -0.2040541,0.1767927 -0.1025208,0 -0.204484,-0.088227 -0.2041367,-0.1759883 3.655e-4,-0.091188 0.098573,-0.1768753 0.2030397,-0.1771038 z"
         fill="#f7b772"
         id="path22"
         style="fill:#158cba;fill-opacity:1;stroke-width:0.00913894" /><path
         d="m 6.3515041,2.9657664 v 0.1535341 c 0,0.049067 -0.028818,0.099158 -0.079499,0.1190439 -0.046607,0.018268 -0.1005837,0.031036 -0.1513683,0.031356 -0.2238404,0.00129 -0.4477354,0.00158 -0.6716118,0.00158 -0.1940109,0 -0.388021,-2.195e-4 -0.5820409,-2.195e-4 -0.1776151,0 -0.355276,9.14e-5 -0.5328731,9.14e-5 -0.2368358,0 -0.4736349,-1.644e-4 -0.7104887,-8.881e-4 C 3.5817993,3.270087 3.5388863,3.2626842 3.4985378,3.2524672 3.4247498,3.2337962 3.3972053,3.1805072 3.3886238,3.1210035 A 0.07636498,0.07636498 0 0 1 3.3878634,3.1105624 V 2.9570205 c 0,0.00354 2.469e-4,0.00703 7.603e-4,0.010455 0.00858,0.059522 0.036124,0.1128111 0.109914,0.1314819 0.040346,0.010216 0.083274,0.017629 0.1250845,0.017793 0.2368628,7.46e-4 0.473662,8.881e-4 0.7104887,8.881e-4 0.1776152,0 0.3552851,-9.14e-5 0.5328731,-9.14e-5 0.1940109,0 0.388021,2.193e-4 0.5820409,2.193e-4 0.2238764,0 0.4477714,-3.014e-4 0.6716118,-0.00158 0.050788,-3.107e-4 0.1047688,-0.013087 0.1513683,-0.031347 0.050683,-0.019914 0.079499,-0.070004 0.079499,-0.1190714 z"
         fill="#eac54c"
         id="path4"
         style="stroke-width:0.00913894" /><path
         d="m 6.3515041,2.9657664 v 0.1535341 a 0.12794514,0.12794514 0 0 1 -2.371e-4,0.00769 V 2.9734614 c 1.644e-4,-0.00256 2.371e-4,-0.00514 2.371e-4,-0.0077 m -2.371e-4,0.0077 V 3.1269955 A 0.13144536,0.13144536 0 0 1 6.320708,3.2033695 V 3.0498446 a 0.13150934,0.13150934 0 0 0 0.030564,-0.076383 m -0.030564,0.076365 v 0.1535342 a 0.12213279,0.12213279 0 0 1 -0.027581,0.02421 v -0.153535 a 0.12127372,0.12127372 0 0 0 0.027581,-0.02421"
         fill="#eac54c"
         id="path5"
         style="fill:#adb5bd;fill-opacity:1;stroke-width:0.00913894" /><path
         d="m 6.293134,3.0740446 v 0.1535342 a 0.12145651,0.12145651 0 0 1 -0.021126,0.010775 c -0.00317,0.00126 -0.00644,0.00247 -0.00968,0.00368 V 3.0884941 c 0.00326,-0.0012 0.00652,-0.00242 0.00968,-0.00368 A 0.12112752,0.12112752 0 0 0 6.293134,3.074039"
         fill="#eac54c"
         id="path6"
         style="fill:#adb5bd;fill-opacity:1;stroke-width:0.00913894" /><path
         d="m 6.2623355,3.0884842 v 0.1535342 c -0.030243,0.011122 -0.063171,0.019813 -0.09606,0.02431 V 3.1127938 c 0.032885,-0.00449 0.06582,-0.013188 0.09606,-0.02431 m -0.09606,0.024319 v 0.1535341 a 0.35376835,0.35376835 0 0 1 -0.045629,0.00337 c -0.2238403,0.00129 -0.4477356,0.00158 -0.671612,0.00158 -0.1940101,0 -0.3880209,-2.193e-4 -0.5820408,-2.193e-4 -0.177615,0 -0.3552759,9.13e-5 -0.532873,9.13e-5 -0.2368359,0 -0.473635,-1.645e-4 -0.7104888,-8.881e-4 -0.041816,-1.793e-4 -0.084736,-0.00758 -0.1250846,-0.017799 -0.073787,-0.018671 -0.1013323,-0.07196 -0.109914,-0.1314636 a 0.07636498,0.07636498 0 0 1 -7.602e-4,-0.010446 v -0.153541 c 0,0.00354 2.461e-4,0.00703 7.602e-4,0.010455 0.00858,0.059522 0.036124,0.1128111 0.109914,0.131482 0.040346,0.010216 0.083274,0.017629 0.1250846,0.017793 0.2368635,7.46e-4 0.4736618,8.881e-4 0.7104888,8.881e-4 0.1776151,0 0.3552856,-9.13e-5 0.532873,-9.13e-5 0.1940108,0 0.388021,2.193e-4 0.5820408,2.193e-4 0.2238764,0 0.4477717,-3.015e-4 0.671612,-0.00158 a 0.35865768,0.35865768 0 0 0 0.045629,-0.00338"
         fill="#eac54c"
         id="path7"
         style="fill:#adb5bd;fill-opacity:1;stroke-width:0.00913894" /><path
         d="m 5.1473029,2.8091981 c 0.3269913,0 0.6538453,1.005e-4 0.9808086,2.375e-4 0.1116601,0 0.1802748,0.035641 0.2131574,0.1079401 0.027264,0.059988 -0.00139,0.1408127 -0.069266,0.1674527 -0.046607,0.018279 -0.1006016,0.031036 -0.1513683,0.031347 -0.2238404,0.00129 -0.4477352,0.00158 -0.6716116,0.00158 -0.1940109,0 -0.38803,-2.194e-4 -0.5820409,-2.194e-4 -0.1776151,0 -0.355276,9.15e-5 -0.5328731,9.15e-5 -0.2368358,0 -0.473635,-1.646e-4 -0.7104888,-8.882e-4 -0.041823,-1.68e-4 -0.084736,-0.00758 -0.1250844,-0.017797 C 3.4247498,3.0802733 3.3971959,3.0269833 3.388624,2.9674617 3.381274,2.9162467 3.430281,2.852896 3.4921957,2.8325618 c 0.03896,-0.012831 0.082168,-0.022345 0.1235218,-0.022345 0.5104826,-7.745e-4 1.0210934,-0.00103 1.5315857,-0.00103 z"
         fill="#fbeec5"
         id="path8"
         style="fill:#158cba;fill-opacity:1;stroke-width:0.00913894" /><path
         d="M 2.5221517,2.9597349 V 3.113269 c -8.313e-4,0.0865 -0.1045585,0.1753762 -0.204109,0.1753762 -6.384e-4,0 -0.00125,-2.74e-5 -0.00187,-2.74e-5 C 2.2135405,3.2874183 2.11229,3.1983799 2.1141454,3.1108744 v -0.153534 c -0.00187,0.087514 0.099395,0.176546 0.2020254,0.1777524 6.116e-4,0 0.00125,2.74e-5 0.00187,2.74e-5 0.09955,-3.66e-5 0.2032767,-0.088904 0.2041087,-0.1753853 z"
         fill="#d88e40"
         id="path23"
         style="fill:#adb5bd;fill-opacity:1;stroke-width:0.00913894" /><path
         d="M 2.5221517,2.9597349 V 3.113269 c -9e-6,0.00206 -1.006e-4,0.00411 -2.379e-4,0.00618 V 2.9659128 c 1.373e-4,-0.00207 2.198e-4,-0.00413 2.379e-4,-0.00618 m -2.469e-4,0.00617 v 0.1535341 c -0.00201,0.030835 -0.016758,0.061688 -0.039403,0.088447 V 3.0543503 c 0.022659,-0.026749 0.037407,-0.057612 0.039403,-0.088447 m -0.039403,0.088447 v 0.1535341 c -0.014671,0.017329 -0.032637,0.032946 -0.052612,0.045713 V 3.1000723 c 0.019989,-0.012776 0.037948,-0.028386 0.052612,-0.045722 m -0.052612,0.045722 v 0.1535251 a 0.23509921,0.23509921 0 0 1 -0.045311,0.022601 V 3.1226638 a 0.23505352,0.23505352 0 0 0 0.045311,-0.022591"
         fill="#d88e40"
         id="path24"
         style="fill:#adb5bd;fill-opacity:1;stroke-width:0.00913894" /><path
         d="M 2.3845743,3.1226638 V 3.276198 A 0.2031769,0.2031769 0 0 1 2.3418153,3.286982 V 3.1334475 a 0.2031769,0.2031769 0 0 0 0.042759,-0.010783 m -0.042759,0.010775 v 0.1535341 c -0.00793,0.00107 -0.015864,0.00166 -0.023781,0.00166 l -0.00187,-9.2e-6 C 2.2135384,3.2874141 2.1122886,3.1983708 2.1141433,3.1108655 V 2.9573312 c -0.00187,0.087515 0.099395,0.176546 0.2020253,0.1777616 l 0.00187,9.1e-6 a 0.17941567,0.17941567 0 0 0 0.023781,-0.00166"
         fill="#d88e40"
         id="path25"
         style="fill:#adb5bd;fill-opacity:1;stroke-width:0.00913894" /><path
         d="m 2.3170735,2.7821286 h 0.00166 c 0.104824,8.881e-4 0.2042371,0.087688 0.2033877,0.177597 -8.313e-4,0.086491 -0.1045591,0.1753762 -0.2041094,0.1753762 -6.385e-4,0 -0.00125,-2.74e-5 -0.00187,-2.74e-5 -0.1026322,-0.0012 -0.203882,-0.090238 -0.2020273,-0.1777523 0.00194,-0.092285 0.098207,-0.1751935 0.2029391,-0.1751935 z"
         fill="#f7b772"
         id="path26"
         style="fill:#158cba;fill-opacity:1;stroke-width:0.00913894" /><path
         d="m 6.3514586,3.750889 v 0.1535341 c 0,0.047376 -0.026577,0.09711 -0.073368,0.1158178 -0.049457,0.019795 -0.1064684,0.034619 -0.1602785,0.034947 -0.222122,0.00153 -0.444317,0.00186 -0.6664482,0.00186 -0.090009,0 -0.1799635,-6.41e-5 -0.2699644,-1.005e-4 C 5.0773985,4.0568521 4.9732971,4.0567789 4.869287,4.0567789 H 4.5155368 c -0.294785,0 -0.5895804,-3.65e-5 -0.8844299,-3.199e-4 -0.030494,0 -0.061625,-0.00144 -0.091389,-0.00677 C 3.4493428,4.033426 3.3882673,3.9735752 3.3878013,3.9041651 V 3.7506308 c 4.644e-4,0.06941 0.061549,0.1292612 0.1519167,0.1455193 0.029745,0.00532 0.060884,0.00676 0.091389,0.00676 0.2948495,2.742e-4 0.5896449,3.29e-4 0.8844299,3.29e-4 h 0.3537506 c 0.1040101,0 0.2081115,7.31e-5 0.3121125,1.646e-4 0.089991,3.66e-5 0.1799462,1.005e-4 0.2699644,1.005e-4 0.2221312,0 0.4443262,-3.198e-4 0.6664482,-0.00186 0.053812,-3.265e-4 0.110819,-0.015168 0.1602785,-0.034944 0.046781,-0.018707 0.073368,-0.068442 0.073368,-0.1158178 z"
         fill="#eac54c"
         id="path9"
         style="stroke-width:0.00913894" /><path
         d="m 6.3514586,3.750889 v 0.1535341 c 0,0.0026 -7.29e-5,0.00517 -2.282e-4,0.0078 V 3.7586937 c 1.553e-4,-0.00262 2.282e-4,-0.00521 2.282e-4,-0.00781 m -2.376e-4,0.00781 v 0.1535341 c -0.00166,0.027545 -0.012175,0.055272 -0.030229,0.076685 V 3.8353784 c 0.018054,-0.021422 0.02856,-0.04914 0.030229,-0.076685"
         fill="#eac54c"
         id="path10"
         style="fill:#adb5bd;fill-opacity:1;stroke-width:0.00913894" /><path
         d="m 6.3209984,3.8353784 v 0.1535343 a 0.11176924,0.11176924 0 0 1 -0.025305,0.022281 V 3.8576594 c 0.00959,-0.00612 0.018068,-0.013709 0.025305,-0.022281 m -0.025305,0.022281 v 0.1535341 c -0.00555,0.00352 -0.011379,0.00656 -0.017617,0.00905 -0.00499,0.00199 -0.010005,0.00394 -0.015121,0.00581 V 3.872519 a 0.57751701,0.57751701 0 0 0 0.015121,-0.00581 0.10564614,0.10564614 0 0 0 0.017617,-0.00905"
         fill="#eac54c"
         id="path11"
         style="fill:#adb5bd;fill-opacity:1;stroke-width:0.00913894" /><path
         d="m 6.2629574,3.8725191 v 0.1535342 c -0.031957,0.011743 -0.066493,0.021166 -0.100903,0.025854 V 3.898364 c 0.034403,-0.00469 0.068926,-0.014101 0.100903,-0.025844 m -0.100903,0.025863 v 0.1535336 c -0.014853,0.00204 -0.029671,0.0032 -0.044265,0.00328 -0.2221215,0.00152 -0.4443253,0.00186 -0.6664566,0.00186 -0.09,0 -0.1799551,-6.42e-5 -0.2699552,-1.006e-4 C 5.0773684,4.0568691 4.9732662,4.0567867 4.8692651,4.0567867 H 4.5155152 c -0.2947857,0 -0.5895894,-4.57e-5 -0.8844298,-3.199e-4 -0.030494,0 -0.061625,-0.00144 -0.09139,-0.00677 C 3.4493247,4.0334466 3.3882485,3.973605 3.3877826,3.9041855 V 3.7506514 c 4.643e-4,0.069419 0.061549,0.1292611 0.1519167,0.1455102 0.029745,0.00534 0.060884,0.00677 0.09139,0.00677 0.2948494,2.741e-4 0.5896531,3.198e-4 0.8844298,3.198e-4 H 4.869269 c 0.1040011,0 0.2081033,8.22e-5 0.3121133,1.646e-4 0.089991,4.57e-5 0.1799455,1.095e-4 0.2699553,1.095e-4 0.2221312,0 0.444335,-3.29e-4 0.6664565,-0.00186 a 0.34351445,0.34351445 0 0 0 0.044265,-0.00328"
         fill="#eac54c"
         id="path12"
         style="fill:#adb5bd;fill-opacity:1;stroke-width:0.00913894" /><path
         d="m 5.2883442,3.5950152 c 0.2774762,0 0.5548247,2.74e-5 0.8322925,3.65e-5 0.1205971,0 0.1879238,0.033915 0.2216554,0.1103436 0.024684,0.056104 -0.00174,0.1363439 -0.064219,0.1613023 -0.049471,0.019785 -0.1064773,0.034618 -0.160279,0.034947 -0.2221215,0.00152 -0.4443255,0.00186 -0.6664567,0.00186 -0.09,0 -0.1799551,-6.4e-5 -0.2699553,-1.006e-4 -0.1040098,-9.03e-5 -0.208112,-1.634e-4 -0.3121129,-1.634e-4 H 4.5155194 c -0.2947857,0 -0.5895894,-3.65e-5 -0.8844299,-3.289e-4 -0.030494,0 -0.061625,-0.00144 -0.09139,-0.00676 C 3.4493253,3.8798902 3.3882492,3.8200395 3.3877833,3.7506293 3.3872348,3.681868 3.4538322,3.616753 3.5424602,3.6016004 c 0.026618,-0.00448 0.054165,-0.00629 0.081254,-0.00629 0.5548524,-2.103e-4 1.1097783,-2.925e-4 1.6646306,-2.925e-4 z"
         fill="#fbeec5"
         id="path13"
         style="fill:#158cba;fill-opacity:1;stroke-width:0.00913894" /><path
         d="m 2.5221974,3.7506148 v 0.1535433 c 0,0.084032 -0.1035171,0.1753121 -0.202336,0.1772771 a 0.18159073,0.18159073 0 0 1 -0.00319,2.74e-5 c -0.097047,0 -0.2016321,-0.090393 -0.202537,-0.1760891 V 3.7518394 c 9.024e-4,0.085687 0.1054904,0.1760982 0.202537,0.1760982 0.00104,0 0.00215,-2.75e-5 0.00319,-3.67e-5 0.098819,-0.00198 0.202336,-0.093244 0.202336,-0.1772861 z"
         fill="#d88e40"
         id="path27"
         style="fill:#adb5bd;fill-opacity:1;stroke-width:0.00913894" /><path
         d="m 2.5221974,3.7506148 v 0.1535433 c 0,0.00223 -9.16e-5,0.00448 -2.288e-4,0.00672 V 3.7573425 c 1.372e-4,-0.00225 2.288e-4,-0.00449 2.288e-4,-0.00673 m -2.288e-4,0.00673 v 0.1535341 c -0.00194,0.030295 -0.01689,0.061222 -0.039798,0.088246 V 3.8455881 c 0.022908,-0.027024 0.037857,-0.05795 0.039798,-0.088246 m -0.039798,0.088255 v 0.1535341 c -0.015094,0.01782 -0.033648,0.033942 -0.054241,0.047102 V 3.8926979 c 0.020593,-0.01316 0.03914,-0.0293 0.054241,-0.047103 m -0.054241,0.047103 v 0.1535342 a 0.23839837,0.23839837 0 0 1 -0.046025,0.022985 V 3.9156732 a 0.23836182,0.23836182 0 0 0 0.046025,-0.022975 m -0.046025,0.022966 v 0.1535433 c -0.01379,0.00506 -0.027963,0.00873 -0.042177,0.010665 V 3.9263384 a 0.20081906,0.20081906 0 0 0 0.042177,-0.010674 m -0.042177,0.010674 v 0.1535342 a 0.17362158,0.17362158 0 0 1 -0.02304,0.00158 c -0.097047,0 -0.2016233,-0.090393 -0.2025371,-0.1760891 V 3.7518394 c 9.023e-4,0.085687 0.1054903,0.1760982 0.2025371,0.1760982 0.00104,0 0.00215,-2.75e-5 0.00319,-3.67e-5 a 0.17362158,0.17362158 0 0 0 0.019879,-0.00156"
         fill="#d88e40"
         id="path28"
         style="fill:#adb5bd;fill-opacity:1;stroke-width:0.00913894" /><path
         d="m 2.3176219,3.5730269 c 0.1008206,-9.1e-6 0.2019706,0.086107 0.2045117,0.1747274 0.00242,0.0848 -0.1023473,0.1781453 -0.2022999,0.1801467 -0.00104,9.2e-6 -0.00208,3.67e-5 -0.00319,3.67e-5 -0.097046,0 -0.2016412,-0.090402 -0.202537,-0.1760983 -0.00111,-0.091115 0.095696,-0.1772222 0.201004,-0.1788125 z"
         fill="#f7b772"
         id="path29"
         style="fill:#158cba;fill-opacity:1;stroke-width:0.00913894" /><path
         d="m 6.3526926,4.5586703 v 0.1535342 c 0,0.044854 -0.023585,0.089589 -0.071759,0.1137341 -0.043578,0.021851 -0.09913,0.036218 -0.1493294,0.036373 -0.504287,0.0013 -1.0085925,0.00163 -1.5128515,0.00163 -0.3362033,0 -0.6723426,-1.555e-4 -1.0085735,-2.651e-4 -0.118002,-7.13e-5 -0.1855201,-0.036709 -0.213906,-0.1118496 -0.00423,-0.011341 -0.00631,-0.023744 -0.00631,-0.036519 v -0.153541 c 0,0.012757 0.00201,0.025187 0.00631,0.036519 0.028386,0.075159 0.095904,0.1117693 0.213906,0.1118424 0.3362309,1.278e-4 0.6723702,2.649e-4 1.0085735,2.649e-4 0.504259,0 1.0085645,-3.472e-4 1.512851,-0.00163 0.0502,-1.646e-4 0.1057554,-0.014512 0.1493299,-0.036373 0.048181,-0.024127 0.071759,-0.068871 0.071759,-0.1137245 z"
         fill="#eac54c"
         id="path1"
         style="stroke-width:0.00913894" /><path
         d="m 6.3526926,4.5586703 v 0.1535342 c 0,0.00258 -9.16e-5,0.00512 -2.47e-4,0.0077 v -0.15353 c 1.643e-4,-0.00256 2.47e-4,-0.00512 2.47e-4,-0.0077"
         fill="#eac54c"
         id="path2"
         style="stroke-width:0.00913894" /><path
         d="m 6.3524546,4.5663744 v 0.1535341 a 0.12429871,0.12429871 0 0 1 -0.028822,0.0727 V 4.6390747 a 0.12428044,0.12428044 0 0 0 0.028823,-0.0727 m -0.028823,0.0727 v 0.1535342 a 0.1304675,0.1304675 0 0 1 -0.029711,0.025954 V 4.6650291 a 0.13001969,0.13001969 0 0 0 0.029711,-0.025954 m -0.029711,0.025954 v 0.1535342 a 0.13872911,0.13872911 0 0 1 -0.012978,0.00738 0.32819759,0.32819759 0 0 1 -0.033903,0.014595 v -0.153539 a 0.32734767,0.32734767 0 0 0 0.033903,-0.014595 c 0.00458,-0.00229 0.00888,-0.00474 0.012978,-0.00738 m -0.046884,0.02197 v 0.1535392 a 0.36403138,0.36403138 0 0 1 -0.075507,0.018908 v -0.153543 a 0.36430553,0.36430553 0 0 0 0.075506,-0.0189 m -0.075515,0.0189 v 0.1535434 c -0.013491,0.00184 -0.026889,0.00283 -0.039907,0.00287 -0.5042866,0.00131 -1.0085915,0.00163 -1.5128511,0.00163 -0.3362032,0 -0.6723426,-1.462e-4 -1.0085735,-2.559e-4 -0.1180035,-7.04e-5 -0.1855217,-0.036708 -0.2139076,-0.1118487 -0.00423,-0.011341 -0.00631,-0.023743 -0.00631,-0.036519 V 4.5617866 c 0,0.012768 0.00201,0.025187 0.00631,0.036519 0.028386,0.075159 0.095904,0.1117692 0.213906,0.1118423 0.3362309,1.28e-4 0.6723703,2.65e-4 1.0085734,2.65e-4 0.5042598,0 1.0085646,-3.473e-4 1.5128512,-0.00163 A 0.30284618,0.30284618 0 0 0 6.17152,4.705893"
         fill="#eac54c"
         id="path3"
         style="fill:#adb5bd;fill-opacity:1;stroke-width:0.00913894" /><path
         d="m 4.2887636,4.4077041 c 0.1957102,0 0.3914205,2.468e-4 0.5871585,2.468e-4 0.1919266,0 0.3839724,-2.103e-4 0.5759448,-2.103e-4 0.2240047,0 0.4479456,2.834e-4 0.6719315,0.00149 0.049297,2.468e-4 0.1025205,0.010537 0.1467441,0.029044 0.1043665,0.043794 0.1109195,0.1838116 0.010407,0.2341579 -0.043578,0.021851 -0.099121,0.036218 -0.1493213,0.036373 -0.5042868,0.0013 -1.0085917,0.00163 -1.5128507,0.00163 -0.3362129,0 -0.6723523,-1.553e-4 -1.0085825,-2.649e-4 -0.1180015,-7.23e-5 -0.1855203,-0.036701 -0.2139055,-0.1118414 -0.020454,-0.054257 0.010317,-0.1334011 0.07057,-0.1565317 0.046892,-0.017949 0.1003187,-0.03206 0.1508843,-0.032389 0.2236843,-0.00139 0.4473512,-0.00169 0.6710175,-0.00169 z"
         fill="#fbeec5"
         id="path36"
         style="fill:#158cba;fill-opacity:1;stroke-width:0.00913894" /><path
         d="m 2.5221517,4.5615033 v 0.1535342 c 9.023e-4,0.086811 -0.1022559,0.1762263 -0.2040541,0.1767836 -0.1025208,0 -0.204484,-0.088227 -0.2041367,-0.1759794 V 4.5623076 C 2.1136136,4.6500687 2.2155859,4.738296 2.3180976,4.738296 2.4198868,4.7377478 2.5230744,4.648314 2.5221517,4.5615033 Z"
         fill="#d88e40"
         id="path37"
         style="fill:#adb5bd;fill-opacity:1;stroke-width:0.00913894" /><path
         d="m 2.5221517,4.5615033 v 0.1535342 c 3.67e-5,0.00279 -5.49e-5,0.00557 -2.289e-4,0.00833 V 4.569829 c 1.74e-4,-0.00276 2.656e-4,-0.00556 2.289e-4,-0.00833 m -2.289e-4,0.00834 v 0.1535342 c -0.00201,0.030715 -0.016578,0.061414 -0.039126,0.088008 V 4.6578551 c 0.022548,-0.026612 0.037143,-0.057292 0.039126,-0.088008"
         fill="#d88e40"
         id="path38"
         style="fill:#adb5bd;fill-opacity:1;stroke-width:0.00913894" /><path
         d="m 2.4828177,4.6578551 v 0.1535342 c -0.014457,0.017081 -0.032185,0.03249 -0.051967,0.045129 v -0.153535 c 0.019774,-0.012639 0.037504,-0.028047 0.051967,-0.045128 m -0.051967,0.045128 v 0.1535341 a 0.23534597,0.23534597 0 0 1 -0.045421,0.022628 V 4.7256021 a 0.23530027,0.23530027 0 0 0 0.045421,-0.022618"
         fill="#d88e40"
         id="path39"
         style="fill:#adb5bd;fill-opacity:1;stroke-width:0.00913894" /><path
         d="m 2.3854333,4.7256021 v 0.1535433 c -0.014186,0.00521 -0.028851,0.00898 -0.043654,0.010985 v -0.153525 a 0.20716147,0.20716147 0 0 0 0.043654,-0.011004 m -0.043654,0.011004 v 0.153525 c -0.00786,0.00108 -0.015774,0.00166 -0.023692,0.00171 -0.10252,0 -0.2044833,-0.088227 -0.2041269,-0.1759794 V 4.5623155 c -3.652e-4,0.087761 0.1016071,0.1759886 0.2041271,0.1759886 a 0.18202025,0.18202025 0 0 0 0.023692,-0.00171"
         fill="#d88e40"
         id="path40"
         style="fill:#adb5bd;fill-opacity:1;stroke-width:0.00913894" /><path
         d="m 2.3170006,4.3852041 c 0.1032703,-9.1e-6 0.2042373,0.086875 0.2051511,0.1762993 9.023e-4,0.086811 -0.1022559,0.1762261 -0.2040541,0.1767927 -0.1025208,0 -0.204484,-0.088227 -0.2041367,-0.1759884 3.655e-4,-0.091188 0.098573,-0.1768752 0.2030397,-0.1771036 z"
         fill="#f7b772"
         id="path41"
         style="fill:#158cba;fill-opacity:1;stroke-width:0.00913894" /></g></g></svg>
