<?xml version="1.0" encoding="UTF-8" standalone="no"?>
<!-- Created with Inkscape (http://www.inkscape.org/) -->

<svg
   width="64"
   height="64"
   viewBox="0 0 16.933333 16.933333"
   version="1.1"
   id="svg1"
   inkscape:version="1.4.2 (ebf0e940d0, 2025-05-08)"
   sodipodi:docname="delete-reimbursement-logo.svg"
   xml:space="preserve"
   xmlns:inkscape="http://www.inkscape.org/namespaces/inkscape"
   xmlns:sodipodi="http://sodipodi.sourceforge.net/DTD/sodipodi-0.dtd"
   xmlns="http://www.w3.org/2000/svg"
   xmlns:svg="http://www.w3.org/2000/svg"><sodipodi:namedview
     id="namedview1"
     pagecolor="#ffffff"
     bordercolor="#000000"
     borderopacity="0.25"
     inkscape:showpageshadow="false"
     inkscape:pageopacity="0.0"
     inkscape:pagecheckerboard="0"
     inkscape:deskcolor="#d1d1d1"
     inkscape:document-units="px"
     inkscape:zoom="13.280349"
     inkscape:cx="28.877253"
     inkscape:cy="41.640471"
     inkscape:window-width="2520"
     inkscape:window-height="1404"
     inkscape:window-x="2600"
     inkscape:window-y="0"
     inkscape:window-maximized="1"
     inkscape:current-layer="layer1" /><defs
     id="defs1">
	
	

	
		
	

	
	

		
		
		
		
		
		
		
	
			
			
			
			
			
			
			
		
			
			
			
			
			
			
			
			
			
			
			
			
			
			
			
			
			
			
			
			
			
			
		
			
			
			
			
			
			
			
			
		
			
			
			
			
			
			
			
			
			
			
			
			
			
		<filter
   inkscape:collect="always"
   style="color-interpolation-filters:sRGB"
   id="filter65"
   x="-0.027494039"
   y="-0.025858488"
   width="1.0549881"
   height="1.051717"><feGaussianBlur
     inkscape:collect="always"
     stdDeviation="5.3093512"
     id="feGaussianBlur65" /></filter></defs><g
     inkscape:label="Livello 1"
     inkscape:groupmode="layer"
     id="layer1"><polygon
       style="fill:#999999;fill-opacity:1;filter:url(#filter65)"
       points="191.369,512 161.011,512 156.662,500.779 118.649,500.779 114.3,512 83.942,512 79.592,500.779 41.58,500.779 37.23,512 21.572,512 21.572,19.224 485.034,19.224 485.034,512 469.377,512 465.028,500.779 427.015,500.779 422.666,512 392.307,512 387.958,500.779 349.945,500.779 345.596,512 315.237,512 310.801,500.779 272.875,500.779 268.439,512 238.168,512 233.732,500.779 195.806,500.779 "
       id="polygon4"
       transform="matrix(0.03203939,0,0,0.03203939,0.47043393,0.09069492)" /><polygon
       style="fill:#ffffff"
       points="268.439,512 238.168,512 233.732,500.779 195.806,500.779 191.369,512 161.011,512 156.662,500.779 118.649,500.779 114.3,512 83.942,512 79.592,500.779 41.58,500.779 37.23,512 21.572,512 21.572,19.224 485.034,19.224 485.034,512 469.377,512 465.028,500.779 427.015,500.779 422.666,512 392.307,512 387.958,500.779 349.945,500.779 345.596,512 315.237,512 310.801,500.779 272.875,500.779 "
       id="polygon1-3"
       transform="matrix(0.03203939,0,0,0.03203939,0.350993,-0.02803293)" /><path
       style="opacity:0.1;fill:#050101;stroke-width:0.0320394"
       d="m 15.30871,1.3320071 -1.56349,0.3177346 c -0.03066,-0.050174 -0.05575,-0.089166 -0.0669,-0.1170719 L 13.630936,1.410055 c 0.03899,-0.041811 0.130977,-0.130977 0.281466,-0.2675289 0.08362,-0.078048 0.189513,-0.17282035 0.31216,-0.28428545 0.103135,-0.09756 0.20345,-0.1867255 0.292616,-0.2703483 0.01115,-0.011118 0.0223,-0.01948 0.03345,-0.030662 h -1.006101 c -0.0084,0.00836 -0.01394,0.019544 -0.02509,0.030662 -0.05017,0.06693 -0.10871,0.1421267 -0.175576,0.2285049 -0.05854,-0.080803 -0.114253,-0.1560639 -0.175576,-0.2285049 -0.0084,-0.011118 -0.01672,-0.01948 -0.02509,-0.030662 h -0.660524 c 0.01948,0.00836 0.04181,0.019544 0.06129,0.030662 0.256411,0.1254342 0.462649,0.3121277 0.615925,0.55463385 0.03899,0.058504 0.07247,0.1198273 0.103103,0.183906 0.05296,0.1059223 0.09753,0.2424742 0.139339,0.4096877 l -1.585789,0.3233096 c -0.264774,0.055748 -0.468224,0.091953 -0.607563,0.1114971 0.33164,0.3929311 0.576901,0.7496897 0.735753,1.0701796 l 0.259198,-0.050174 c -0.06132,-0.1142525 -0.08641,-0.2006627 -0.07526,-0.2535918 0.0084,-0.055716 0.04178,-0.094772 0.100316,-0.1226147 0.06132,-0.030694 0.281498,-0.08641 0.663311,-0.1672456 L 14.283001,2.3576198 15.89109,2.0231926 v -0.811013 z m 0.445925,1.6749874 c -0.03345,-0.072473 -0.0892,-0.1198594 -0.161639,-0.1449142 -0.07247,-0.027874 -0.144914,-0.022299 -0.211813,0.00836 -0.05296,0.027874 -0.09753,0.066898 -0.130977,0.1170399 -0.03345,0.052961 -0.07526,0.1672456 -0.119827,0.3427894 -0.09477,0.3483666 -0.28986,0.5936602 -0.588051,0.7386063 -0.392963,0.1894809 -0.82495,0.2508043 -1.301504,0.1866936 C 13.017862,4.2249077 12.797687,4.1607969 12.574725,4.0660565 12.321101,3.9573148 12.070265,3.8068577 11.816673,3.6145254 11.342875,3.2549793 10.986148,2.8230243 10.743674,2.3213835 10.554161,1.9311757 10.5012,1.5744493 10.582035,1.2539591 c 0.0084,-0.039024 0.01951,-0.07526 0.03345,-0.1114649 0.08641,-0.24250615 0.245262,-0.42919975 0.476554,-0.55463395 0.01672,-0.011118 0.03624,-0.022299 0.05575,-0.030662 h -1.117598 c -0.0028,0.01115 -0.0056,0.019544 -0.0056,0.030662 -0.01394,0.061323 -0.0223,0.1226468 -0.027874,0.189513 -0.00836,0.1170399 -0.00836,0.23968675 0.00279,0.36512095 0.030662,0.3678762 0.1477338,0.7664141 0.3539388,1.1927944 0.295404,0.6103504 0.713453,1.1231728 1.259693,1.5384353 0.236899,0.1811507 0.473799,0.3288844 0.710698,0.4431048 0.312128,0.1505211 0.624287,0.2424741 0.939202,0.2814981 0.554602,0.066898 1.078574,-0.019512 1.571853,-0.2563791 0.381813,-0.1867576 0.663279,-0.4291997 0.841643,-0.7274223 0.133828,-0.2312924 0.161702,-0.4347425 0.07808,-0.6075309 z"
       id="path9" /><rect
       x="2.066606"
       y="6.3397961"
       style="fill:#999999;fill-opacity:1;stroke-width:0.0320394"
       width="8.9800644"
       height="0.39337963"
       id="rect9-7" /><rect
       x="2.066606"
       y="7.3130889"
       style="fill:#999999;fill-opacity:1;stroke-width:0.0320394"
       width="6.7280159"
       height="0.39337963"
       id="rect10" /><rect
       x="2.066606"
       y="8.2864122"
       style="fill:#999999;fill-opacity:1;stroke-width:0.0320394"
       width="6.7280159"
       height="0.39337963"
       id="rect11" /><rect
       x="2.066606"
       y="9.259737"
       style="fill:#999999;fill-opacity:1;stroke-width:0.0320394"
       width="7.8333426"
       height="0.39337963"
       id="rect12" /><rect
       x="11.632575"
       y="7.3130889"
       style="fill:#999999;fill-opacity:1;stroke-width:0.0320394"
       width="3.2341843"
       height="0.39337963"
       id="rect13" /><rect
       x="12.443652"
       y="6.3397961"
       style="fill:#999999;fill-opacity:1;stroke-width:0.0320394"
       width="2.4231069"
       height="0.39337963"
       id="rect14" /><rect
       x="12.443652"
       y="8.2864122"
       style="fill:#999999;fill-opacity:1;stroke-width:0.0320394"
       width="2.4231069"
       height="0.39337963"
       id="rect15" /><rect
       x="12.045563"
       y="9.259737"
       style="fill:#999999;fill-opacity:1;stroke-width:0.0320394"
       width="2.8211644"
       height="0.39337963"
       id="rect16" /><rect
       x="1.8456302"
       y="11.488334"
       style="fill:#3b3b42;stroke-width:0.0320394"
       width="0.34906918"
       height="0.14933559"
       id="rect17" /><rect
       x="2.4596019"
       y="11.488334"
       style="fill:#3b3b42;stroke-width:0.0320394"
       width="0.34906918"
       height="0.14933559"
       id="rect18" /><rect
       x="3.0735402"
       y="11.488334"
       style="fill:#3b3b42;stroke-width:0.0320394"
       width="0.34906918"
       height="0.14933559"
       id="rect19" /><rect
       x="3.6874785"
       y="11.488334"
       style="fill:#3b3b42;stroke-width:0.0320394"
       width="0.34906918"
       height="0.14933559"
       id="rect20" /><rect
       x="4.3014503"
       y="11.488334"
       style="fill:#3b3b42;stroke-width:0.0320394"
       width="0.34906918"
       height="0.14933559"
       id="rect21" /><rect
       x="4.9153886"
       y="11.488334"
       style="fill:#3b3b42;stroke-width:0.0320394"
       width="0.34906918"
       height="0.14933559"
       id="rect22" /><rect
       x="5.5293593"
       y="11.488334"
       style="fill:#3b3b42;stroke-width:0.0320394"
       width="0.34906918"
       height="0.14933559"
       id="rect23" /><rect
       x="6.1432986"
       y="11.488334"
       style="fill:#3b3b42;stroke-width:0.0320394"
       width="0.34906918"
       height="0.14933559"
       id="rect24" /><rect
       x="6.7572694"
       y="11.488334"
       style="fill:#3b3b42;stroke-width:0.0320394"
       width="0.34906918"
       height="0.14933559"
       id="rect25" /><rect
       x="7.3712077"
       y="11.488334"
       style="fill:#3b3b42;stroke-width:0.0320394"
       width="0.34906918"
       height="0.14933559"
       id="rect26" /><rect
       x="7.9851785"
       y="11.488334"
       style="fill:#3b3b42;stroke-width:0.0320394"
       width="0.34906918"
       height="0.14933559"
       id="rect27" /><rect
       x="8.5991182"
       y="11.488334"
       style="fill:#3b3b42;stroke-width:0.0320394"
       width="0.34906918"
       height="0.14933559"
       id="rect28" /><rect
       x="9.213089"
       y="11.488334"
       style="fill:#3b3b42;stroke-width:0.0320394"
       width="0.34906918"
       height="0.14933559"
       id="rect29" /><rect
       x="9.8270273"
       y="11.488334"
       style="fill:#3b3b42;stroke-width:0.0320394"
       width="0.34906918"
       height="0.14933559"
       id="rect30" /><rect
       x="10.440967"
       y="11.488334"
       style="fill:#3b3b42;stroke-width:0.0320394"
       width="0.34906918"
       height="0.14933559"
       id="rect31" /><rect
       x="11.054937"
       y="11.488334"
       style="fill:#3b3b42;stroke-width:0.0320394"
       width="0.34906918"
       height="0.14933559"
       id="rect32" /><rect
       x="11.668908"
       y="11.488334"
       style="fill:#3b3b42;stroke-width:0.0320394"
       width="0.34906918"
       height="0.14933559"
       id="rect33" /><rect
       x="12.282846"
       y="11.488334"
       style="fill:#3b3b42;stroke-width:0.0320394"
       width="0.34906918"
       height="0.14933559"
       id="rect34" /><rect
       x="12.896786"
       y="11.488334"
       style="fill:#3b3b42;stroke-width:0.0320394"
       width="0.34906918"
       height="0.14933559"
       id="rect35" /><rect
       x="13.510756"
       y="11.488334"
       style="fill:#3b3b42;stroke-width:0.0320394"
       width="0.34906918"
       height="0.14933559"
       id="rect36" /><rect
       x="14.124695"
       y="11.488334"
       style="fill:#3b3b42;stroke-width:0.0320394"
       width="0.34906918"
       height="0.14933559"
       id="rect37" /><rect
       x="14.738666"
       y="11.488334"
       style="fill:#3b3b42;stroke-width:0.0320394"
       width="0.34906918"
       height="0.14933559"
       id="rect38" /><path
       style="opacity:0.1;fill:#3b3b42;stroke-width:0.0320394"
       d="m 15.891187,16.376135 h -0.501641 l -0.13934,-0.359514 h -1.217913 l -0.139339,0.359514 h -0.972652 l -0.139339,-0.359514 h -1.217914 l -0.139371,0.359514 H 10.451026 L 10.308899,16.016621 H 9.0937736 L 8.9516148,16.376135 H 7.98175 L 7.839624,16.016621 H 6.624498 L 6.482339,16.376135 H 5.509687 L 5.370348,16.016621 H 4.152435 l -0.13934,0.359514 H 3.040443 L 2.901104,16.016621 H 1.683191 L 1.543819,16.376135 H 1.042147 V 15.598539 L 6.986799,9.6539508 7.379762,9.2609873 7.962238,8.6785112 8.3552016,8.285548 15.891187,0.58789235 Z"
       id="path52"
       sodipodi:nodetypes="ccccccccccccccccccccccccccccccccc" /><path
       style="font-size:2.44185px;font-family:'Lily Script One';-inkscape-font-specification:'Lily Script One';text-align:center;letter-spacing:0px;text-anchor:middle;fill:#ff4136;stroke-width:0.0274707;fill-opacity:1"
       d="m 4.047761,2.5214666 0.07814,0.1196506 Q 4.00625,3.0611153 3.630205,3.0611153 q -0.08546,0 -0.148952,-0.031744 -0.06105,-0.031744 -0.09279,-0.075697 -0.03174,-0.043953 -0.05128,-0.1123251 -0.02686,-0.1025577 -0.0293,-0.2710453 0,-0.1684877 -0.04151,-0.2319758 -0.03907,-0.063488 -0.151395,-0.070814 l 0.02686,-0.2075573 q 0.0049,0 0.0073,0 0.141627,0 0.234418,-0.080581 0.100115,-0.090349 0.100115,-0.2319758 0,-0.1416273 -0.134301,-0.2393013 -0.13186,-0.097674 -0.341859,-0.097674 -0.271046,0 -0.417557,0.1343018 -0.07814,0.073256 -0.07814,0.1758132 0,0.129418 0.19779,0.1562784 L 2.675414,2.0599568 Q 2.526461,2.0526268 2.411694,1.959841 2.296927,1.867051 2.296927,1.7205397 q 0,-0.2563943 0.214883,-0.3931379 0.214883,-0.1391854 0.544533,-0.1391854 0.212441,0 0.373603,0.051279 0.275929,0.09279 0.366277,0.3223242 0.0293,0.080581 0.0293,0.1318599 0,0.048837 0,0.06593 -0.0098,0.1343017 -0.100115,0.2637198 -0.08791,0.129418 -0.266162,0.178255 0.107441,0.021977 0.146511,0.09279 0.03907,0.070814 0.04151,0.2148828 0.0024,0.2466268 0.02198,0.3003475 0.02198,0.051279 0.08791,0.051279 0.178255,0 0.29058,-0.3394171 z M 2.550907,3.0611154 q -0.129418,0 -0.207557,-0.078139 -0.07814,-0.078139 -0.07814,-0.1929062 0,-0.2979056 0.437091,-0.4981373 0.08791,-0.683718 0.09035,-0.700811 0.102558,-0.06593 0.231976,-0.06593 0.05372,0 0.122092,0.014651 L 2.992883,2.5825128 Q 2.919623,3.0611154 2.550908,3.0611154 Z m -0.105,-0.3003476 q 0,0.078139 0.08302,0.078139 0.09767,0 0.124534,-0.1758132 L 2.675441,2.4970479 Q 2.445907,2.6313498 2.445907,2.7607678 Z M 4.12346,1.2492627 q 0.05616,-0.058604 0.136743,-0.058604 0.08058,0 0.136744,0.058604 0.0586,0.056163 0.0586,0.1367436 0,0.080581 -0.0586,0.1367436 -0.05616,0.056163 -0.136744,0.056163 -0.08058,0 -0.136743,-0.056163 Q 4.0673,1.4665869 4.0673,1.3860063 q 0,-0.080581 0.05616,-0.1367436 z M 4.023344,1.9647248 q 0.02442,-0.043953 0.09279,-0.06593 0.06837,-0.024418 0.134302,-0.024418 0.06837,0 0.119651,0.017093 -0.09523,0.7349968 -0.09523,0.7423223 -0.01221,0.048837 -0.01221,0.083023 0,0.031744 0.0049,0.056163 0.0098,0.063488 0.08791,0.063488 0.08058,0 0.146511,-0.1025577 0.06837,-0.1049996 0.102558,-0.2368594 0.01709,0.00977 0.05372,0.058604 0.03663,0.048837 0.04395,0.073255 -0.04884,0.195348 -0.166046,0.3149987 -0.117208,0.1196506 -0.280812,0.1196506 -0.163604,0 -0.244185,-0.080581 -0.07814,-0.080581 -0.07814,-0.2075573 0,-0.02686 0.0024,-0.056163 z M 5.19055,3.0464643 5.28334,2.2357701 q 0,-0.068372 -0.03419,-0.1123251 Q 5.21741,2.07705 5.134383,2.07705 q -0.08302,0 -0.136744,0.080581 -0.05372,0.078139 -0.06837,0.1660458 -0.08547,0.6080206 -0.09523,0.7227876 H 4.506831 L 4.641133,1.8987949 q 0.102558,-0.02686 0.156278,-0.02686 0.153837,0 0.168488,0.1025577 0.119651,-0.1025577 0.261278,-0.1025577 0.283254,0 0.361394,0.1684876 0.11965,-0.1709295 0.341859,-0.1709295 0.163604,0 0.258836,0.085465 0.09523,0.083023 0.09523,0.2099991 0,0.036628 -0.01465,0.129418 -0.05616,0.3662775 -0.05616,0.4297656 0,0.1147669 0.0757,0.1147669 0.06349,0 0.134301,-0.083023 0.07326,-0.085465 0.117209,-0.2612779 0.08302,0.087907 0.100116,0.1391854 -0.126976,0.4248819 -0.4493,0.4248819 -0.151395,0 -0.224651,-0.09279 -0.07326,-0.09279 -0.07326,-0.195348 l 0.0586,-0.5396488 q 0,-0.06593 -0.03419,-0.1098832 -0.03419,-0.043953 -0.109883,-0.043953 -0.07325,0 -0.129418,0.056162 Q 5.62275,2.189376 5.60077,2.2772822 5.52751,2.897512 5.50554,3.0464649 Z M 7.18066,1.8694926 q 0.175813,0 0.30279,0.1440692 0.126976,0.1440691 0.126976,0.3369753 0,0.02686 -0.0024,0.056162 -0.02686,0.3198823 -0.214883,0.48837 Q 7.205121,3.0611149 6.902331,3.0611149 6.780239,3.0562349 6.68989,3.0171619 6.59954,2.9780919 6.555589,2.9194879 6.472569,2.8120465 6.472569,2.7290236 q 0,-0.085465 0.02442,-0.2734872 0.05128,-0.3858123 0.146511,-1.2477853 0.05128,-0.019535 0.136744,-0.019535 0.195348,0 0.195348,0.1123251 L 6.892572,1.9500733 Q 7.007339,1.8694923 7.18071,1.8694923 Z M 6.802173,2.7119308 q 0,0.056163 0.04151,0.095232 0.04395,0.036628 0.119651,0.036628 0.124534,0 0.205115,-0.1147669 0.09767,-0.1391854 0.09767,-0.3613938 0,-0.1074414 -0.04884,-0.1904643 -0.04884,-0.083023 -0.151395,-0.083023 -0.139185,0 -0.212441,0.1660458 l -0.01953,0.146511 Q 6.802173,2.6533264 6.802173,2.7119308 Z M 8.3551879,1.8719345 q 0.2246502,0 0.373603,0.1440691 0.1513947,0.1440692 0.1513947,0.3516264 0,0.3149986 -0.1855806,0.5054629 -0.1831387,0.1880225 -0.4444166,0.1880225 -0.2612784,0 -0.4151144,-0.1489529 -0.151395,-0.1489528 -0.151395,-0.3687193 0,-0.3076731 0.188023,-0.48837 0.190464,-0.1831387 0.4834859,-0.1831387 z m -0.048837,0.1977898 q -0.1147669,0 -0.1929059,0.1318599 -0.07814,0.1318598 -0.08546,0.3320916 0,0.1416273 0.05616,0.2344176 0.0586,0.09279 0.1758128,0.09279 0.1172088,0 0.195348,-0.1294182 0.080581,-0.1294179 0.080581,-0.2954637 0,-0.1660458 -0.056162,-0.2637198 Q 8.4235618,2.0697239 8.3063534,2.0697239 Z m 1.399181,0.1220925 q 0,-0.1074414 -0.1001158,-0.1074414 -0.097674,0 -0.1562784,0.1269762 0.2637198,0.2075573 0.2637198,0.4663933 0,0.1880225 -0.1049995,0.2856965 -0.1049996,0.097674 -0.2637198,0.097674 -0.1587203,0 -0.2319758,-0.097674 -0.073256,-0.1001159 -0.073256,-0.2515106 0,-0.046395 0.00244,-0.068372 l 0.085465,-0.7447643 q 0.087907,-0.02686 0.1782551,-0.02686 0.1489528,0 0.1489528,0.1098832 v 0.00488 q 0.097674,-0.1147669 0.2490687,-0.1147669 0.1098832,0 0.1709295,0.051279 0.061046,0.048837 0.061046,0.13186 0,0.083023 -0.063488,0.1367436 -0.061046,0.051279 -0.1611621,0.051279 -0.00488,0 -0.00977,0 0.00488,-0.02686 0.00488,-0.051279 z M 9.5541373,2.6655357 q 0,-0.1416273 -0.146511,-0.2832546 -0.043953,0.3516264 -0.043953,0.3540682 0,0.1025577 0.083023,0.1025577 0.1074414,0 0.107441,-0.1733713 z M 11.011923,2.2992582 q 0.192906,0.1416273 0.192906,0.3345334 0,0.1929062 -0.151394,0.310115 -0.151395,0.1172088 -0.380929,0.1172088 -0.148953,0 -0.249068,-0.073256 -0.09767,-0.075697 -0.09767,-0.1855806 0,-0.1098833 0.07325,-0.1733714 0.07326,-0.06593 0.183138,-0.080581 -0.05128,0.073256 -0.05128,0.1416273 0,0.06593 0.0464,0.1074414 0.0464,0.041511 0.117209,0.041511 0.07081,0 0.117209,-0.051279 0.0464,-0.053721 0.0464,-0.1220925 0,-0.1123251 -0.105,-0.2002317 -0.06349,-0.051279 -0.136743,-0.095232 -0.07326,-0.046395 -0.07814,-0.048837 -0.0098,-0.00733 -0.01954,-0.012209 -0.04395,0.051279 -0.126977,0.1416273 -0.08302,0.087907 -0.131859,0.1416274 -0.136744,0.1489528 -0.153837,0.2490687 -0.0049,0.019535 -0.0049,0.075697 0,0.053721 0.03174,0.1123251 0.03419,0.058604 0.08058,0.087907 0.0464,0.029302 0.09035,0.046395 0.0464,0.019535 0.07814,0.02686 0.03419,0.00733 0.03419,0.00977 0,0.017093 -0.05372,0.03907 -0.100116,0.036628 -0.209999,0.036628 -0.107441,0 -0.2099991,-0.078139 -0.1391854,-0.1074414 -0.1391854,-0.2856966 0,-0.1098832 0.056162,-0.2173246 0.1001159,-0.1904643 0.4688355,-0.5225559 -0.09035,-0.090348 -0.09035,-0.1929061 0,-0.1025577 0.0757,-0.1733714 0.07814,-0.070814 0.183139,-0.070814 0.09523,0 0.166045,0.075697 0.0464,0.051279 0.0464,0.1294181 0,0.078139 -0.05128,0.1758132 0.261278,0.1172088 0.354069,0.1831387 z m -0.529881,-0.275929 q 0.0586,-0.061046 0.0586,-0.087907 0,-0.061046 -0.05372,-0.06593 -0.06105,0 -0.06105,0.068372 0,0.041512 0.05616,0.085465 z m 1.406503,-0.1513948 q 0.224651,0 0.373604,0.1440691 0.151394,0.1440693 0.151394,0.3516264 0,0.3149986 -0.18558,0.5054629 -0.183139,0.1880225 -0.444417,0.1880225 -0.261278,0 -0.415114,-0.1489529 -0.151395,-0.1489528 -0.151395,-0.3687192 0,-0.3076732 0.188022,-0.4883701 0.190465,-0.1831387 0.483486,-0.1831387 z m -0.04884,0.1977898 q -0.114767,0 -0.192907,0.1318599 -0.07814,0.1318599 -0.08546,0.3320916 0,0.1416273 0.05616,0.2344176 0.0586,0.09279 0.175814,0.09279 0.117208,0 0.195348,-0.1294181 0.08058,-0.129418 0.08058,-0.2954638 0,-0.1660458 -0.05616,-0.2637198 -0.05616,-0.1025577 -0.173372,-0.1025574 z"
       id="text2"
       aria-label="Rimborso" /><path
       style="font-size:2.44185px;font-family:'Lily Script One';-inkscape-font-specification:'Lily Script One';text-align:center;letter-spacing:0px;text-anchor:middle;fill:#ff4136;stroke-width:0.0274707;fill-opacity:1"
       d="m 7.136705,3.9108741 q 0.07325,-0.1098831 0.07325,-0.2051154 0,-0.095232 -0.05372,-0.1513947 -0.05372,-0.056163 -0.141628,-0.056163 -0.08791,0 -0.141627,0.043953 -0.05372,0.041511 -0.05372,0.1343017 0,0.090349 0.126976,0.3272079 0.126977,0.2368596 0.161163,0.3052313 0.09279,0.1855806 0.09279,0.3589519 0,0.2173247 -0.15872,0.3540683 -0.156279,0.1343017 -0.371162,0.1343017 -0.212441,0 -0.334533,-0.1318599 -0.122093,-0.1343017 -0.122093,-0.3125568 0,-0.3296497 0.407789,-0.5445325 -0.166045,-0.3272079 -0.166045,-0.456626 0,-0.1806969 0.144069,-0.3052312 0.146511,-0.1269762 0.35651,-0.1269762 0.212441,0 0.324766,0.1074414 0.112325,0.1074414 0.112325,0.2734872 0,0.1098832 -0.07326,0.2515105 z M 6.49694,4.8631956 q 0.06593,0.070814 0.15872,0.070814 0.09523,0 0.146511,-0.053721 0.05372,-0.056163 0.05372,-0.163604 0,-0.097674 -0.0757,-0.2393013 -0.0098,-0.019535 -0.03663,-0.070814 -0.02686,-0.053721 -0.03907,-0.075697 -0.273487,0.1416273 -0.273487,0.3565101 0,0.1098833 0.06593,0.1758132 z M 7.656821,3.9645949 q 0.15872,0 0.185581,0.080581 0.114766,-0.080581 0.29058,-0.080581 0.1758128,0 0.302789,0.1440691 0.1269762,0.1440691 0.1269762,0.3369753 0,0.02686 -0.00244,0.056163 -0.02686,0.3198824 -0.2148828,0.48837 -0.1880224,0.1660458 -0.4908114,0.1660458 -0.06837,0 -0.148953,-0.017093 L 7.62752,5.8106338 H 7.307637 Q 7.463916,4.4651745 7.517636,3.98413 7.568916,3.964595 7.656821,3.9645949 Z m 0.5616254,0.4981373 q 0,-0.1074414 -0.048837,-0.1904643 -0.04884,-0.083023 -0.151394,-0.083023 -0.139186,0 -0.212441,0.1806969 -0.04884,0.3613938 -0.05616,0.4199982 -0.0024,0.073255 0.0464,0.1098833 0.04884,0.036628 0.119651,0.036628 0.124534,0 0.205115,-0.1123251 0.097674,-0.1391854 0.097674,-0.3613938 z m 0.9156919,0.13186 q 0.1513947,-0.031744 0.2246502,-0.1220925 0.075697,-0.090348 0.075697,-0.1733714 0,-0.085465 -0.046395,-0.1147669 -0.043953,-0.031744 -0.097674,-0.031744 -0.1147669,0 -0.2026735,0.129418 -0.085465,0.1269762 -0.085465,0.3052313 0,0.1758132 0.083023,0.2637198 0.085465,0.085465 0.2099991,0.085465 0.1831388,0 0.3516264,-0.1269762 0.1684877,-0.1269762 0.2734872,-0.3320916 0.053721,0.051279 0.097674,0.1269762 -0.080581,0.1831388 -0.2856967,0.358952 -0.1025577,0.085465 -0.244185,0.1391854 -0.1391855,0.053721 -0.2881383,0.053721 -0.244185,0 -0.3858123,-0.1489528 Q 8.662861,4.8461033 8.662861,4.5945928 q 0,-0.2515106 0.1880224,-0.439533 0.1904643,-0.1880224 0.4541841,-0.1880224 0.1880225,0 0.3052313,0.083023 0.1172088,0.080581 0.1196506,0.2197665 0,0.1880225 -0.1513947,0.3052312 Q 9.4296019,4.6922668 9.1683239,4.738662 Z M 10.838549,4.3943605 q 0.192906,0.1416273 0.192906,0.3345335 0,0.1929061 -0.151395,0.3101149 -0.151394,0.1172088 -0.380928,0.1172088 -0.148953,0 -0.249069,-0.073256 -0.09767,-0.075697 -0.09767,-0.1855806 0,-0.1098832 0.07326,-0.1733713 0.07326,-0.06593 0.183139,-0.080581 -0.05128,0.073256 -0.05128,0.1416273 0,0.06593 0.04639,0.1074414 0.0464,0.041512 0.117209,0.041512 0.07081,0 0.117208,-0.051279 0.0464,-0.053721 0.0464,-0.1220925 0,-0.1123251 -0.104999,-0.2002317 -0.06349,-0.051279 -0.136744,-0.095232 -0.07326,-0.046395 -0.07814,-0.048837 -0.0098,-0.00733 -0.01953,-0.012209 -0.04395,0.051279 -0.126976,0.1416273 -0.08302,0.087907 -0.13186,0.1416273 -0.1367435,0.1489529 -0.1538365,0.2490686 -0.00488,0.019535 -0.00488,0.075697 0,0.053721 0.031744,0.1123251 0.034186,0.058604 0.080582,0.087906 0.04639,0.029302 0.09035,0.046395 0.0464,0.019535 0.07814,0.02686 0.03419,0.00733 0.03419,0.00977 0,0.017093 -0.05372,0.03907 -0.100116,0.036628 -0.2099996,0.036628 -0.1074414,0 -0.2099991,-0.078139 -0.1391855,-0.1074414 -0.1391855,-0.2856964 0,-0.1098833 0.056163,-0.2173247 0.1001158,-0.1904643 0.4688352,-0.5225559 -0.09035,-0.090348 -0.09035,-0.1929061 0,-0.1025577 0.0757,-0.1733713 0.07814,-0.070814 0.183139,-0.070814 0.09523,0 0.166046,0.075697 0.04639,0.051279 0.04639,0.1294181 0,0.078139 -0.05128,0.1758132 0.261277,0.1172088 0.354068,0.1831387 z m -0.529882,-0.275929 q 0.0586,-0.061046 0.0586,-0.087907 0,-0.061046 -0.05372,-0.06593 -0.06105,0 -0.06105,0.068372 0,0.041511 0.05616,0.085465 z m 1.220924,0.4761607 q 0.151395,-0.031744 0.22465,-0.1220925 0.0757,-0.090348 0.0757,-0.1733713 0,-0.085465 -0.0464,-0.114767 -0.04395,-0.031744 -0.09767,-0.031744 -0.114767,0 -0.202673,0.129418 -0.08546,0.1269762 -0.08546,0.3052313 0,0.1758132 0.08302,0.2637198 0.08547,0.085465 0.21,0.085465 0.183138,0 0.351626,-0.1269762 0.168488,-0.1269762 0.273487,-0.3320916 0.05372,0.051279 0.09767,0.1269762 -0.08058,0.1831388 -0.285696,0.358952 -0.102558,0.085465 -0.244185,0.1391854 -0.139186,0.053721 -0.288139,0.053721 -0.244185,0 -0.385812,-0.1489528 -0.151394,-0.1611621 -0.151394,-0.4126727 0,-0.2515105 0.188022,-0.439533 0.190464,-0.1880224 0.454184,-0.1880224 0.188023,0 0.305231,0.083023 0.117209,0.080581 0.119651,0.2197665 0,0.1880224 -0.151395,0.3052312 -0.148953,0.1172088 -0.410231,0.163604 z"
       id="text3"
       aria-label="Spese" /><path
       style="font-size:1.46369px;font-family:'Futura XBlk BT';-inkscape-font-specification:'Futura XBlk BT';text-align:center;letter-spacing:0px;text-anchor:middle;fill:#999999;stroke-width:0.0164665"
       d="m 12.366186,14.050187 q -0.05146,-0.04931 -0.105059,-0.07361 -0.0536,-0.0243 -0.112922,-0.0243 -0.0922,0 -0.148656,0.05718 -0.05575,0.05646 -0.05575,0.1508 0,0.0922 0.0536,0.147227 0.0536,0.05503 0.143653,0.05503 0.05432,0 0.110063,-0.02287 0.05646,-0.02359 0.122927,-0.07433 l -0.01215,0.393795 q -0.06146,0.02501 -0.122927,0.03716 -0.06146,0.01286 -0.122927,0.01286 -0.07647,0 -0.147227,-0.01715 -0.07076,-0.01715 -0.12793,-0.0486 -0.13865,-0.08005 -0.210119,-0.202258 -0.07076,-0.122212 -0.07076,-0.280874 0,-0.11721 0.04002,-0.217267 0.04074,-0.100057 0.117924,-0.176529 0.0779,-0.07719 0.180102,-0.116495 0.102916,-0.04002 0.22227,-0.04002 0.06361,0 0.125071,0.01358 0.06218,0.01286 0.120783,0.03931 z m 0.831902,0.256575 h -0.163664 v -0.245854 h 0.578186 q 0.0014,0.03216 0.0021,0.04788 7.15e-4,0.01572 7.15e-4,0.02787 0,0.09005 -0.01715,0.164379 -0.01715,0.07433 -0.05003,0.131504 -0.08005,0.134362 -0.206547,0.205831 -0.1265,0.07076 -0.287306,0.07076 -0.118639,0 -0.22084,-0.03931 -0.101486,-0.04002 -0.180102,-0.11721 -0.0779,-0.07719 -0.117925,-0.176529 -0.04002,-0.09934 -0.04002,-0.215837 0,-0.11721 0.04002,-0.216552 0.04074,-0.100057 0.117925,-0.175814 0.0779,-0.07647 0.180102,-0.116495 0.102201,-0.04002 0.22084,-0.04002 0.160806,0 0.285877,0.07076 0.125071,0.07004 0.204402,0.205831 l -0.335191,0.124357 q -0.02644,-0.0436 -0.06361,-0.06504 -0.03716,-0.02144 -0.08505,-0.02144 -0.08362,0 -0.133647,0.06361 -0.04931,0.06361 -0.04931,0.170812 0,0.110777 0.05003,0.172241 0.05003,0.06075 0.141509,0.06075 0.05432,0 0.08791,-0.02287 0.0343,-0.02287 0.04074,-0.06361 z m 0.561749,0.374499 v -1.04631 h 0.38236 v 1.04631 z m 0.585333,0 v -1.04631 h 0.376643 v 0.706831 h 0.365922 v 0.339479 z"
       id="text4"
       aria-label="CGIL" /></g></svg>
