<?xml version="1.0" encoding="UTF-8" standalone="no"?>
<!-- Created with Inkscape (http://www.inkscape.org/) -->

<svg
   width="64"
   height="64"
   viewBox="0 0 16.933333 16.933333"
   version="1.1"
   id="svg1"
   inkscape:version="1.4.2 (ebf0e940d0, 2025-05-08)"
   sodipodi:docname="reimbursements-logo.svg"
   xml:space="preserve"
   xmlns:inkscape="http://www.inkscape.org/namespaces/inkscape"
   xmlns:sodipodi="http://sodipodi.sourceforge.net/DTD/sodipodi-0.dtd"
   xmlns="http://www.w3.org/2000/svg"
   xmlns:svg="http://www.w3.org/2000/svg"><sodipodi:namedview
     id="namedview1"
     pagecolor="#ffffff"
     bordercolor="#000000"
     borderopacity="0.25"
     inkscape:showpageshadow="false"
     inkscape:pageopacity="0.0"
     inkscape:pagecheckerboard="0"
     inkscape:deskcolor="#d1d1d1"
     inkscape:document-units="px"
     inkscape:zoom="13.280349"
     inkscape:cx="28.877253"
     inkscape:cy="41.640471"
     inkscape:window-width="2520"
     inkscape:window-height="1404"
     inkscape:window-x="2600"
     inkscape:window-y="0"
     inkscape:window-maximized="1"
     inkscape:current-layer="layer1" /><defs
     id="defs1">
	
	

	
		
	

	
	

		
		
		
		
		
		
		
	
			
			
			
			
			
			
			
		
			
			
			
			
			
			
			
			
			
			
			
			
			
			
			
			
			
			
			
			
			
			
		
			
			
			
			
			
			
			
			
		
			
			
			
			
			
			
			
			
			
			
			
			
			
		<filter
   inkscape:collect="always"
   style="color-interpolation-filters:sRGB"
   id="filter65"
   x="-0.027494039"
   y="-0.025858488"
   width="1.0549881"
   height="1.051717"><feGaussianBlur
     inkscape:collect="always"
     stdDeviation="5.3093512"
     id="feGaussianBlur65" /></filter></defs><g
     inkscape:label="Livello 1"
     inkscape:groupmode="layer"
     id="layer1"><polygon
       style="fill:#999999;fill-opacity:1;filter:url(#filter65)"
       points="191.369,512 161.011,512 156.662,500.779 118.649,500.779 114.3,512 83.942,512 79.592,500.779 41.58,500.779 37.23,512 21.572,512 21.572,19.224 485.034,19.224 485.034,512 469.377,512 465.028,500.779 427.015,500.779 422.666,512 392.307,512 387.958,500.779 349.945,500.779 345.596,512 315.237,512 310.801,500.779 272.875,500.779 268.439,512 238.168,512 233.732,500.779 195.806,500.779 "
       id="polygon4"
       transform="matrix(0.03203939,0,0,0.03203939,0.47043393,0.09069492)" /><g
       id="g4"
       transform="translate(18.216537,-0.55719825)"><polygon
         style="fill:#ffffff"
         points="310.801,500.779 272.875,500.779 268.439,512 238.168,512 233.732,500.779 195.806,500.779 191.369,512 161.011,512 156.662,500.779 118.649,500.779 114.3,512 83.942,512 79.592,500.779 41.58,500.779 37.23,512 21.572,512 21.572,19.224 485.034,19.224 485.034,512 469.377,512 465.028,500.779 427.015,500.779 422.666,512 392.307,512 387.958,500.779 349.945,500.779 345.596,512 315.237,512 "
         id="polygon1-3"
         transform="matrix(0.03203939,0,0,0.03203939,-17.865544,0.52916532)" /><path
         style="opacity:0.1;fill:#050101;stroke-width:0.0320394"
         d="M -2.9078266,1.8892054 -4.4713168,2.20694 c -0.030662,-0.050174 -0.055749,-0.089166 -0.066898,-0.1170719 l -0.047386,-0.1226148 c 0.038992,-0.041811 0.130977,-0.130977 0.281466,-0.2675289 0.083623,-0.078048 0.189513,-0.1728204 0.3121598,-0.2842855 0.1031348,-0.09756 0.2034501,-0.1867255 0.2926157,-0.2703483 0.01115,-0.011118 0.022299,-0.01948 0.033449,-0.030662 h -1.006101 c -0.00836,0.00836 -0.013937,0.019544 -0.025087,0.030662 -0.050174,0.06693 -0.1087096,0.1421267 -0.1755759,0.2285049 -0.058536,-0.080803 -0.1142524,-0.1560639 -0.1755758,-0.2285049 -0.00836,-0.011118 -0.016725,-0.01948 -0.025087,-0.030662 h -0.660524 c 0.01948,0.00836 0.041811,0.019544 0.061291,0.030662 0.2564113,0.1254342 0.4626488,0.3121277 0.6159253,0.5546338 0.038992,0.058504 0.072473,0.1198274 0.1031027,0.1839061 0.052961,0.1059223 0.097528,0.2424741 0.1393393,0.4096877 L -6.399992,2.6166277 c -0.2647735,0.055748 -0.4682236,0.091953 -0.6075629,0.1114971 0.3316397,0.3929311 0.5769012,0.7496897 0.7357525,1.0701797 l 0.2591987,-0.050174 c -0.061323,-0.1142525 -0.08641,-0.2006627 -0.075261,-0.2535918 0.00836,-0.055716 0.041779,-0.094772 0.1003153,-0.1226147 0.061323,-0.030694 0.2814981,-0.08641 0.6633115,-0.1672456 L -3.9335362,2.914818 -2.3254471,2.5803908 v -0.811013 z m 0.4459242,1.6749873 c -0.033449,-0.072473 -0.089198,-0.1198594 -0.1616387,-0.1449142 -0.072473,-0.027874 -0.1449142,-0.022299 -0.2118124,0.00836 -0.052961,0.027874 -0.097528,0.066898 -0.130977,0.1170399 -0.033449,0.052961 -0.075261,0.1672456 -0.1198274,0.3427894 C -3.1809304,4.2358344 -3.3760182,4.481128 -3.6742088,4.6260742 -4.0671719,4.8155551 -4.499159,4.8768785 -4.9757129,4.8127677 -5.198675,4.782106 -5.4188497,4.7179952 -5.6418118,4.6232547 -5.8954357,4.514513 -6.146272,4.364056 -6.3998638,4.1717236 -6.8736623,3.8121775 -7.2303889,3.3802225 -7.472863,2.8785817 -7.662376,2.488374 -7.7153371,2.1316475 -7.6345017,1.8111574 c 0.00836,-0.039024 0.019512,-0.07526 0.033449,-0.111465 0.08641,-0.2425061 0.2452615,-0.4291997 0.4765539,-0.5546339 0.016725,-0.011118 0.036237,-0.022299 0.055748,-0.030662 h -1.117598 c -0.00276,0.01115 -0.00557,0.019544 -0.00557,0.030662 -0.013937,0.061323 -0.022299,0.1226468 -0.027874,0.189513 -0.00836,0.1170399 -0.00836,0.2396867 0.00279,0.3651209 0.030662,0.3678763 0.1477337,0.7664142 0.3539392,1.1927944 0.2954032,0.6103504 0.7134531,1.1231729 1.2596927,1.5384354 0.2368992,0.1811507 0.4737985,0.3288844 0.7106977,0.4431048 0.3121278,0.1505211 0.6242875,0.2424741 0.9392027,0.2814981 0.5546018,0.066898 1.078574,-0.019512 1.5718525,-0.2563792 0.3818134,-0.1867576 0.6632794,-0.4291997 0.8416427,-0.7274223 0.1338285,-0.2312924 0.1617028,-0.4347425 0.07808,-0.6075309 z"
         id="path9" /><rect
         x="-16.149931"
         y="6.8969941"
         style="fill:#999999;fill-opacity:1;stroke-width:0.0320394"
         width="8.9800644"
         height="0.39337963"
         id="rect9-7" /><rect
         x="-16.149931"
         y="7.8702869"
         style="fill:#999999;fill-opacity:1;stroke-width:0.0320394"
         width="6.7280159"
         height="0.39337963"
         id="rect10" /><rect
         x="-16.149931"
         y="8.8436108"
         style="fill:#999999;fill-opacity:1;stroke-width:0.0320394"
         width="6.7280159"
         height="0.39337963"
         id="rect11" /><rect
         x="-16.149931"
         y="9.8169355"
         style="fill:#999999;fill-opacity:1;stroke-width:0.0320394"
         width="7.8333426"
         height="0.39337963"
         id="rect12" /><rect
         x="-6.5839624"
         y="7.8702869"
         style="fill:#999999;fill-opacity:1;stroke-width:0.0320394"
         width="3.2341843"
         height="0.39337963"
         id="rect13" /><rect
         x="-5.7728848"
         y="6.8969941"
         style="fill:#999999;fill-opacity:1;stroke-width:0.0320394"
         width="2.4231069"
         height="0.39337963"
         id="rect14" /><rect
         x="-5.7728848"
         y="8.8436108"
         style="fill:#999999;fill-opacity:1;stroke-width:0.0320394"
         width="2.4231069"
         height="0.39337963"
         id="rect15" /><rect
         x="-6.1709743"
         y="9.8169355"
         style="fill:#999999;fill-opacity:1;stroke-width:0.0320394"
         width="2.8211644"
         height="0.39337963"
         id="rect16" /><rect
         x="-16.370907"
         y="12.045532"
         style="fill:#3b3b42;stroke-width:0.0320394"
         width="0.34906918"
         height="0.14933559"
         id="rect17" /><rect
         x="-15.756935"
         y="12.045532"
         style="fill:#3b3b42;stroke-width:0.0320394"
         width="0.34906918"
         height="0.14933559"
         id="rect18" /><rect
         x="-15.142997"
         y="12.045532"
         style="fill:#3b3b42;stroke-width:0.0320394"
         width="0.34906918"
         height="0.14933559"
         id="rect19" /><rect
         x="-14.529058"
         y="12.045532"
         style="fill:#3b3b42;stroke-width:0.0320394"
         width="0.34906918"
         height="0.14933559"
         id="rect20" /><rect
         x="-13.915087"
         y="12.045532"
         style="fill:#3b3b42;stroke-width:0.0320394"
         width="0.34906918"
         height="0.14933559"
         id="rect21" /><rect
         x="-13.301148"
         y="12.045532"
         style="fill:#3b3b42;stroke-width:0.0320394"
         width="0.34906918"
         height="0.14933559"
         id="rect22" /><rect
         x="-12.687178"
         y="12.045532"
         style="fill:#3b3b42;stroke-width:0.0320394"
         width="0.34906918"
         height="0.14933559"
         id="rect23" /><rect
         x="-12.073238"
         y="12.045532"
         style="fill:#3b3b42;stroke-width:0.0320394"
         width="0.34906918"
         height="0.14933559"
         id="rect24" /><rect
         x="-11.459268"
         y="12.045532"
         style="fill:#3b3b42;stroke-width:0.0320394"
         width="0.34906918"
         height="0.14933559"
         id="rect25" /><rect
         x="-10.845329"
         y="12.045532"
         style="fill:#3b3b42;stroke-width:0.0320394"
         width="0.34906918"
         height="0.14933559"
         id="rect26" /><rect
         x="-10.231359"
         y="12.045532"
         style="fill:#3b3b42;stroke-width:0.0320394"
         width="0.34906918"
         height="0.14933559"
         id="rect27" /><rect
         x="-9.6174192"
         y="12.045532"
         style="fill:#3b3b42;stroke-width:0.0320394"
         width="0.34906918"
         height="0.14933559"
         id="rect28" /><rect
         x="-9.0034485"
         y="12.045532"
         style="fill:#3b3b42;stroke-width:0.0320394"
         width="0.34906918"
         height="0.14933559"
         id="rect29" /><rect
         x="-8.3895102"
         y="12.045532"
         style="fill:#3b3b42;stroke-width:0.0320394"
         width="0.34906918"
         height="0.14933559"
         id="rect30" /><rect
         x="-7.7755709"
         y="12.045532"
         style="fill:#3b3b42;stroke-width:0.0320394"
         width="0.34906918"
         height="0.14933559"
         id="rect31" /><rect
         x="-7.1616001"
         y="12.045532"
         style="fill:#3b3b42;stroke-width:0.0320394"
         width="0.34906918"
         height="0.14933559"
         id="rect32" /><rect
         x="-6.5476294"
         y="12.045532"
         style="fill:#3b3b42;stroke-width:0.0320394"
         width="0.34906918"
         height="0.14933559"
         id="rect33" /><rect
         x="-5.933691"
         y="12.045532"
         style="fill:#3b3b42;stroke-width:0.0320394"
         width="0.34906918"
         height="0.14933559"
         id="rect34" /><rect
         x="-5.3197517"
         y="12.045532"
         style="fill:#3b3b42;stroke-width:0.0320394"
         width="0.34906918"
         height="0.14933559"
         id="rect35" /><rect
         x="-4.705781"
         y="12.045532"
         style="fill:#3b3b42;stroke-width:0.0320394"
         width="0.34906918"
         height="0.14933559"
         id="rect36" /><rect
         x="-4.0918427"
         y="12.045532"
         style="fill:#3b3b42;stroke-width:0.0320394"
         width="0.34906918"
         height="0.14933559"
         id="rect37" /><rect
         x="-3.4778712"
         y="12.045532"
         style="fill:#3b3b42;stroke-width:0.0320394"
         width="0.34906918"
         height="0.14933559"
         id="rect38" /><path
         style="opacity:0.1;fill:#3b3b42;stroke-width:0.0320394"
         d="m -2.3253505,16.933333 h -0.5016407 l -0.1393393,-0.359514 h -1.2179134 l -0.1393393,0.359514 H -5.296235 l -0.1393393,-0.359514 h -1.2179133 l -0.1393714,0.359514 h -0.9726518 l -0.1421267,-0.359514 h -1.2151259 l -0.1421588,0.359514 h -0.9698648 l -0.142126,-0.359514 h -1.215126 l -0.142159,0.359514 h -0.972652 l -0.139339,-0.359514 h -1.217913 l -0.13934,0.359514 h -0.972652 l -0.139339,-0.359514 h -1.217913 l -0.139372,0.359514 h -0.501672 v -0.777596 l 5.944652,-5.944588 0.392963,-0.3929635 0.582476,-0.5824761 0.3929636,-0.3929632 7.5359849,-7.6976556 z"
         id="path52"
         sodipodi:nodetypes="ccccccccccccccccccccccccccccccccc" /><path
         style="font-size:2.44185px;font-family:'Lily Script One';-inkscape-font-specification:'Lily Script One';text-align:center;letter-spacing:0px;text-anchor:middle;fill:#137da5;stroke-width:0.0274707"
         d="m -14.168776,3.0786648 0.07814,0.1196506 q -0.119651,0.4199982 -0.495696,0.4199982 -0.08546,0 -0.148952,-0.031744 -0.06105,-0.031744 -0.09279,-0.075697 -0.03174,-0.043953 -0.05128,-0.1123251 -0.02686,-0.1025577 -0.0293,-0.2710453 0,-0.1684877 -0.04151,-0.2319758 -0.03907,-0.063488 -0.151395,-0.070814 l 0.02686,-0.2075573 q 0.0049,0 0.0073,0 0.141627,0 0.234418,-0.080581 0.100115,-0.090349 0.100115,-0.2319758 0,-0.1416273 -0.134301,-0.2393013 -0.13186,-0.097674 -0.341859,-0.097674 -0.271046,0 -0.417557,0.1343018 -0.07814,0.073256 -0.07814,0.1758132 0,0.129418 0.19779,0.1562784 l -0.03419,0.1831387 q -0.148953,-0.00733 -0.26372,-0.1001158 -0.114767,-0.09279 -0.114767,-0.2393013 0,-0.2563943 0.214883,-0.3931379 0.214883,-0.1391854 0.544533,-0.1391854 0.212441,0 0.373603,0.051279 0.275929,0.09279 0.366277,0.3223242 0.0293,0.080581 0.0293,0.1318599 0,0.048837 0,0.06593 -0.0098,0.1343017 -0.100115,0.2637198 -0.08791,0.129418 -0.266162,0.178255 0.107441,0.021977 0.146511,0.09279 0.03907,0.070814 0.04151,0.2148828 0.0024,0.2466268 0.02198,0.3003475 0.02198,0.051279 0.08791,0.051279 0.178255,0 0.29058,-0.3394171 z m -1.496854,0.5396488 q -0.129418,0 -0.207557,-0.078139 -0.07814,-0.078139 -0.07814,-0.1929062 0,-0.2979056 0.437091,-0.4981373 0.08791,-0.683718 0.09035,-0.700811 0.102558,-0.06593 0.231976,-0.06593 0.05372,0 0.122092,0.014651 l -0.153836,1.0426699 q -0.07326,0.4786026 -0.441975,0.4786026 z m -0.105,-0.3003476 q 0,0.078139 0.08302,0.078139 0.09767,0 0.124534,-0.1758132 l 0.02198,-0.1660457 Q -15.77063,3.188548 -15.77063,3.317966 Z m 1.677553,-1.5115051 q 0.05616,-0.058604 0.136743,-0.058604 0.08058,0 0.136744,0.058604 0.0586,0.056163 0.0586,0.1367436 0,0.080581 -0.0586,0.1367436 -0.05616,0.056163 -0.136744,0.056163 -0.08058,0 -0.136743,-0.056163 -0.05616,-0.056163 -0.05616,-0.1367436 0,-0.080581 0.05616,-0.1367436 z m -0.100116,0.7154621 q 0.02442,-0.043953 0.09279,-0.06593 0.06837,-0.024418 0.134302,-0.024418 0.06837,0 0.119651,0.017093 -0.09523,0.7349968 -0.09523,0.7423223 -0.01221,0.048837 -0.01221,0.083023 0,0.031744 0.0049,0.056163 0.0098,0.063488 0.08791,0.063488 0.08058,0 0.146511,-0.1025577 0.06837,-0.1049996 0.102558,-0.2368594 0.01709,0.00977 0.05372,0.058604 0.03663,0.048837 0.04395,0.073255 -0.04884,0.195348 -0.166046,0.3149987 -0.117208,0.1196506 -0.280812,0.1196506 -0.163604,0 -0.244185,-0.080581 -0.07814,-0.080581 -0.07814,-0.2075573 0,-0.02686 0.0024,-0.056163 z m 1.167206,1.0817395 0.09279,-0.8106942 q 0,-0.068372 -0.03419,-0.1123251 -0.03174,-0.046395 -0.114767,-0.046395 -0.08302,0 -0.136744,0.080581 -0.05372,0.078139 -0.06837,0.1660458 -0.08547,0.6080206 -0.09523,0.7227876 h -0.327208 l 0.134302,-1.1476695 q 0.102558,-0.02686 0.156278,-0.02686 0.153837,0 0.168488,0.1025577 0.119651,-0.1025577 0.261278,-0.1025577 0.283254,0 0.361394,0.1684876 0.11965,-0.1709295 0.341859,-0.1709295 0.163604,0 0.258836,0.085465 0.09523,0.083023 0.09523,0.2099991 0,0.036628 -0.01465,0.129418 -0.05616,0.3662775 -0.05616,0.4297656 0,0.1147669 0.0757,0.1147669 0.06349,0 0.134301,-0.083023 0.07326,-0.085465 0.117209,-0.2612779 0.08302,0.087907 0.100116,0.1391854 -0.126976,0.4248819 -0.4493,0.4248819 -0.151395,0 -0.224651,-0.09279 -0.07326,-0.09279 -0.07326,-0.195348 l 0.0586,-0.5396488 q 0,-0.06593 -0.03419,-0.1098832 -0.03419,-0.043953 -0.109883,-0.043953 -0.07325,0 -0.129418,0.056162 -0.05616,0.056163 -0.07814,0.1440692 -0.07326,0.6202298 -0.09523,0.7691827 z m 1.99011,-1.1769717 q 0.175813,0 0.30279,0.1440692 0.126976,0.1440691 0.126976,0.3369753 0,0.02686 -0.0024,0.056162 -0.02686,0.3198823 -0.214883,0.48837 -0.188022,0.1660458 -0.490812,0.1660458 -0.122092,-0.00488 -0.212441,-0.043953 -0.09035,-0.03907 -0.134301,-0.097674 -0.08302,-0.1074414 -0.08302,-0.1904643 0,-0.085465 0.02442,-0.2734872 0.05128,-0.3858123 0.146511,-1.2477853 0.05128,-0.019535 0.136744,-0.019535 0.195348,0 0.195348,0.1123251 l -0.08302,0.6495321 q 0.114767,-0.080581 0.288138,-0.080581 z m -0.378487,0.8424382 q 0,0.056163 0.04151,0.095232 0.04395,0.036628 0.119651,0.036628 0.124534,0 0.205115,-0.1147669 0.09767,-0.1391854 0.09767,-0.3613938 0,-0.1074414 -0.04884,-0.1904643 -0.04884,-0.083023 -0.151395,-0.083023 -0.139185,0 -0.212441,0.1660458 l -0.01953,0.146511 q -0.03174,0.2466268 -0.03174,0.3052312 z m 1.5530149,-0.8399963 q 0.2246502,0 0.373603,0.1440691 0.1513947,0.1440692 0.1513947,0.3516264 0,0.3149986 -0.1855806,0.5054629 -0.1831387,0.1880225 -0.4444166,0.1880225 -0.2612784,0 -0.4151144,-0.1489529 -0.151395,-0.1489528 -0.151395,-0.3687193 0,-0.3076731 0.188023,-0.48837 0.190464,-0.1831387 0.4834859,-0.1831387 z m -0.048837,0.1977898 q -0.1147669,0 -0.1929059,0.1318599 -0.07814,0.1318599 -0.08546,0.3320916 0,0.1416273 0.05616,0.2344176 0.0586,0.09279 0.1758128,0.09279 0.1172088,0 0.195348,-0.1294181 0.080581,-0.129418 0.080581,-0.2954638 0,-0.1660458 -0.056162,-0.2637198 -0.056163,-0.1025577 -0.1733714,-0.1025577 z m 1.399181,0.1220925 q 0,-0.1074414 -0.1001158,-0.1074414 -0.097674,0 -0.1562784,0.1269762 0.2637198,0.2075573 0.2637198,0.4663933 0,0.1880225 -0.1049995,0.2856965 -0.1049996,0.097674 -0.2637198,0.097674 -0.1587203,0 -0.2319758,-0.097674 -0.073256,-0.1001159 -0.073256,-0.2515106 0,-0.046395 0.00244,-0.068372 l 0.085465,-0.7447642 q 0.087907,-0.02686 0.1782551,-0.02686 0.1489528,0 0.1489528,0.1098832 v 0.00488 q 0.097674,-0.1147669 0.2490687,-0.1147669 0.1098832,0 0.1709295,0.051279 0.061046,0.048837 0.061046,0.1318599 0,0.083023 -0.063488,0.1367436 -0.061046,0.051279 -0.1611621,0.051279 -0.00488,0 -0.00977,0 0.00488,-0.02686 0.00488,-0.051279 z m -0.1513946,0.4737189 q 0,-0.1416273 -0.146511,-0.2832546 -0.043953,0.3516264 -0.043953,0.3540682 0,0.1025577 0.083023,0.1025577 0.1074414,0 0.107441,-0.1733713 z m 1.4577861,-0.3662775 q 0.1929061,0.1416273 0.1929061,0.3345334 0,0.1929062 -0.1513946,0.310115 -0.1513947,0.1172088 -0.3809286,0.1172088 -0.1489529,0 -0.2490687,-0.073256 -0.097674,-0.075697 -0.097674,-0.1855806 0,-0.1098833 0.073255,-0.1733714 0.073256,-0.06593 0.1831387,-0.080581 -0.051279,0.073256 -0.051279,0.1416273 0,0.06593 0.046395,0.1074414 0.046395,0.041511 0.1172088,0.041511 0.070814,0 0.1172088,-0.051279 0.046395,-0.053721 0.046395,-0.1220925 0,-0.1123251 -0.1049996,-0.2002317 -0.063488,-0.051279 -0.1367436,-0.095232 -0.073256,-0.046395 -0.078139,-0.048837 -0.00977,-0.00733 -0.019535,-0.012209 -0.043953,0.051279 -0.1269762,0.1416273 -0.083023,0.087907 -0.1318599,0.1416273 -0.1367436,0.1489528 -0.1538365,0.2490687 -0.00488,0.019535 -0.00488,0.075697 0,0.053721 0.031744,0.1123251 0.034186,0.058604 0.080581,0.087907 0.046395,0.029302 0.090348,0.046395 0.046395,0.019535 0.078139,0.02686 0.034186,0.00733 0.034186,0.00977 0,0.017093 -0.053721,0.03907 -0.1001158,0.036628 -0.2099991,0.036628 -0.1074414,0 -0.2099991,-0.078139 -0.1391854,-0.1074414 -0.1391854,-0.2856965 0,-0.1098832 0.056162,-0.2173246 0.1001159,-0.1904643 0.4688352,-0.5225559 -0.090348,-0.090348 -0.090348,-0.1929061 0,-0.1025577 0.075697,-0.1733714 0.078139,-0.070814 0.1831388,-0.070814 0.095232,0 0.1660458,0.075697 0.046395,0.051279 0.046395,0.1294181 0,0.078139 -0.051279,0.1758132 0.2612779,0.1172088 0.3540682,0.1831387 z M -7.734495,2.5805274 q 0.058604,-0.061046 0.058604,-0.087907 0,-0.061046 -0.053721,-0.06593 -0.061046,0 -0.061046,0.068372 0,0.041512 0.056163,0.085465 z m 1.4065035,-0.1513947 q 0.2246502,0 0.3736031,0.1440691 0.1513947,0.1440692 0.1513947,0.3516264 0,0.3149986 -0.1855806,0.5054629 -0.1831388,0.1880225 -0.4444167,0.1880225 -0.261278,0 -0.4151145,-0.1489529 -0.1513947,-0.1489528 -0.1513947,-0.3687193 0,-0.3076731 0.1880224,-0.48837 0.1904643,-0.1831387 0.4834863,-0.1831387 z m -0.048837,0.1977898 q -0.1147669,0 -0.1929061,0.1318599 -0.078139,0.1318599 -0.085465,0.3320916 0,0.1416273 0.056163,0.2344176 0.058604,0.09279 0.1758132,0.09279 0.1172088,0 0.195348,-0.1294181 0.080581,-0.129418 0.080581,-0.2954638 0,-0.1660458 -0.056162,-0.2637198 -0.056163,-0.1025577 -0.1733721,-0.1025574 z"
         id="text2"
         aria-label="Rimborso" /><path
         style="font-size:2.44185px;font-family:'Lily Script One';-inkscape-font-specification:'Lily Script One';text-align:center;letter-spacing:0px;text-anchor:middle;fill:#137da5;stroke-width:0.0274707"
         d="m -11.079832,4.4680724 q 0.07325,-0.1098832 0.07325,-0.2051154 0,-0.095232 -0.05372,-0.1513947 -0.05372,-0.056163 -0.141628,-0.056163 -0.08791,0 -0.141627,0.043953 -0.05372,0.041511 -0.05372,0.1343017 0,0.090349 0.126976,0.3272079 0.126977,0.2368595 0.161163,0.3052313 0.09279,0.1855806 0.09279,0.3589519 0,0.2173247 -0.15872,0.3540683 -0.156279,0.1343017 -0.371162,0.1343017 -0.212441,0 -0.334533,-0.1318599 -0.122093,-0.1343017 -0.122093,-0.3125568 0,-0.3296497 0.407789,-0.5445325 -0.166045,-0.3272079 -0.166045,-0.456626 0,-0.1806969 0.144069,-0.3052312 0.146511,-0.1269762 0.35651,-0.1269762 0.212441,0 0.324766,0.1074414 0.112325,0.1074414 0.112325,0.2734872 0,0.1098832 -0.07326,0.2515105 z m -0.639765,0.9523215 q 0.06593,0.070814 0.15872,0.070814 0.09523,0 0.146511,-0.053721 0.05372,-0.056163 0.05372,-0.163604 0,-0.097674 -0.0757,-0.2393013 -0.0098,-0.019535 -0.03663,-0.070814 -0.02686,-0.053721 -0.03907,-0.075697 -0.273487,0.1416273 -0.273487,0.3565101 0,0.1098833 0.06593,0.1758132 z m 1.159881,-0.8986008 q 0.15872,0 0.185581,0.080581 0.114766,-0.080581 0.29058,-0.080581 0.1758128,0 0.302789,0.1440692 0.1269762,0.1440691 0.1269762,0.3369753 0,0.02686 -0.00244,0.056163 -0.02686,0.3198824 -0.2148828,0.48837 -0.1880224,0.1660458 -0.4908114,0.1660458 -0.06837,0 -0.148953,-0.017093 l -0.07814,0.6715087 H -10.9089 q 0.156279,-1.3454593 0.209999,-1.8265038 0.05128,-0.019535 0.139185,-0.019535 z m 0.5616254,0.4981374 q 0,-0.1074414 -0.048837,-0.1904643 -0.04884,-0.083023 -0.151394,-0.083023 -0.139186,0 -0.212441,0.1806969 -0.04884,0.3613938 -0.05616,0.4199982 -0.0024,0.073255 0.0464,0.1098833 0.04884,0.036628 0.119651,0.036628 0.124534,0 0.205115,-0.1123251 0.097674,-0.1391854 0.097674,-0.3613938 z m 0.9156919,0.1318599 q 0.1513947,-0.031744 0.2246502,-0.1220925 0.075697,-0.090348 0.075697,-0.1733713 0,-0.085465 -0.046395,-0.114767 -0.043953,-0.031744 -0.097674,-0.031744 -0.1147669,0 -0.2026735,0.129418 -0.085465,0.1269762 -0.085465,0.3052313 0,0.1758132 0.083023,0.2637198 0.085465,0.085465 0.2099991,0.085465 0.1831388,0 0.3516264,-0.1269762 0.1684877,-0.1269762 0.2734872,-0.3320916 0.053721,0.051279 0.097674,0.1269762 -0.080581,0.1831388 -0.2856964,0.358952 -0.1025577,0.085465 -0.244185,0.1391854 -0.1391855,0.053721 -0.2881383,0.053721 -0.244185,0 -0.3858123,-0.1489528 Q -9.553676,5.4033016 -9.553676,5.151791 q 0,-0.2515105 0.1880224,-0.439533 0.1904643,-0.1880224 0.4541841,-0.1880224 0.1880225,0 0.3052313,0.083023 0.1172088,0.080581 0.1196506,0.2197665 0,0.1880224 -0.1513947,0.3052312 -0.1489528,0.1172088 -0.4102308,0.163604 z m 1.7044105,-0.2002317 q 0.1929062,0.1416273 0.1929062,0.3345335 0,0.1929061 -0.1513947,0.3101149 -0.1513947,0.1172088 -0.3809286,0.1172088 -0.1489529,0 -0.2490687,-0.073256 -0.097674,-0.075697 -0.097674,-0.1855806 0,-0.1098832 0.073255,-0.1733713 0.073256,-0.06593 0.1831387,-0.080581 -0.051279,0.073256 -0.051279,0.1416273 0,0.06593 0.046395,0.1074414 0.046395,0.041512 0.1172088,0.041512 0.070814,0 0.1172088,-0.051279 0.046395,-0.053721 0.046395,-0.1220925 0,-0.1123251 -0.1049996,-0.2002317 -0.063488,-0.051279 -0.1367436,-0.095232 -0.073256,-0.046395 -0.078139,-0.048837 -0.00977,-0.00733 -0.019535,-0.012209 -0.043953,0.051279 -0.1269762,0.1416273 -0.083023,0.087907 -0.1318598,0.1416273 -0.1367436,0.1489529 -0.1538366,0.2490687 -0.00488,0.019535 -0.00488,0.075697 0,0.053721 0.031744,0.1123251 0.034186,0.058604 0.080581,0.087906 0.046395,0.029302 0.090349,0.046395 0.046395,0.019535 0.078139,0.02686 0.034186,0.00733 0.034186,0.00977 0,0.017093 -0.053721,0.03907 -0.1001159,0.036628 -0.2099991,0.036628 -0.1074414,0 -0.2099991,-0.078139 -0.1391855,-0.1074414 -0.1391855,-0.2856964 0,-0.1098833 0.056163,-0.2173247 0.1001158,-0.1904643 0.4688352,-0.5225559 -0.090348,-0.090348 -0.090348,-0.1929061 0,-0.1025577 0.075697,-0.1733714 0.078139,-0.070814 0.1831387,-0.070814 0.095232,0 0.1660458,0.075697 0.046395,0.051279 0.046395,0.1294181 0,0.078139 -0.051279,0.1758132 0.2612779,0.1172088 0.3540682,0.1831387 z m -0.5298814,-0.275929 q 0.058604,-0.061046 0.058604,-0.087907 0,-0.061046 -0.053721,-0.06593 -0.061046,0 -0.061046,0.068372 0,0.041511 0.056163,0.085465 z m 1.2209234,0.4761607 q 0.1513947,-0.031744 0.2246502,-0.1220925 0.075697,-0.090348 0.075697,-0.1733713 0,-0.085465 -0.046395,-0.114767 -0.043953,-0.031744 -0.097674,-0.031744 -0.1147669,0 -0.2026735,0.129418 -0.085465,0.1269762 -0.085465,0.3052313 0,0.1758132 0.083023,0.2637198 0.085465,0.085465 0.2099991,0.085465 0.1831388,0 0.3516264,-0.1269762 0.1684877,-0.1269762 0.2734872,-0.3320916 0.053721,0.051279 0.097674,0.1269762 -0.080581,0.1831388 -0.2856964,0.358952 -0.1025577,0.085465 -0.244185,0.1391854 -0.1391855,0.053721 -0.2881383,0.053721 -0.244185,0 -0.3858123,-0.1489528 -0.1513947,-0.1611621 -0.1513947,-0.4126727 0,-0.2515105 0.1880224,-0.439533 0.1904643,-0.1880224 0.4541841,-0.1880224 0.1880225,0 0.3052313,0.083023 0.1172088,0.080581 0.1196506,0.2197665 0,0.1880224 -0.1513947,0.3052312 -0.1489528,0.1172088 -0.4102308,0.163604 z"
         id="text3"
         aria-label="Spese" /><path
         style="font-size:1.46369px;font-family:'Futura XBlk BT';-inkscape-font-specification:'Futura XBlk BT';text-align:center;letter-spacing:0px;text-anchor:middle;fill:#999999;stroke-width:0.0164665"
         d="m -5.8503506,14.607385 q -0.051458,-0.04931 -0.1050598,-0.07361 -0.053602,-0.0243 -0.1129214,-0.0243 -0.092195,0 -0.148656,0.05718 -0.055746,0.05646 -0.055746,0.1508 0,0.0922 0.053602,0.147227 0.053602,0.05503 0.1436531,0.05503 0.054317,0 0.1100627,-0.02287 0.056461,-0.02359 0.1229271,-0.07433 l -0.01215,0.393795 q -0.061464,0.02501 -0.1229271,0.03716 -0.061464,0.01286 -0.1229271,0.01286 -0.076472,0 -0.1472266,-0.01715 -0.070755,-0.01715 -0.12793,-0.0486 -0.1386503,-0.08005 -0.2101195,-0.202258 -0.070755,-0.122212 -0.070755,-0.280874 0,-0.11721 0.040023,-0.217267 0.040738,-0.100057 0.1179242,-0.176529 0.077902,-0.07719 0.1801025,-0.116495 0.1029157,-0.04002 0.2222694,-0.04002 0.063608,0 0.1250711,0.01358 0.062178,0.01286 0.1207831,0.03931 z m 0.8319019,0.256575 h -0.1636646 v -0.245854 h 0.5781862 q 0.00143,0.03216 0.00214,0.04788 7.147e-4,0.01572 7.147e-4,0.02787 0,0.09005 -0.017153,0.164379 -0.017153,0.07433 -0.050028,0.131504 -0.080046,0.134362 -0.2065461,0.205831 -0.1265006,0.07076 -0.2873064,0.07076 -0.1186389,0 -0.2208399,-0.03931 -0.1014864,-0.04002 -0.1801025,-0.11721 -0.077902,-0.07719 -0.1179243,-0.176529 -0.040023,-0.09934 -0.040023,-0.215837 0,-0.11721 0.040023,-0.216552 0.040737,-0.100057 0.1179243,-0.175814 0.077901,-0.07647 0.1801025,-0.116495 0.102201,-0.04002 0.2208399,-0.04002 0.1608058,0 0.285877,0.07076 0.1250711,0.07004 0.204402,0.205831 l -0.3351907,0.124357 q -0.026444,-0.0436 -0.063608,-0.06504 -0.037164,-0.02144 -0.085048,-0.02144 -0.083619,0 -0.1336474,0.06361 -0.049314,0.06361 -0.049314,0.170812 0,0.110777 0.050028,0.172241 0.050028,0.06075 0.1415091,0.06075 0.054317,0 0.087907,-0.02287 0.034305,-0.02287 0.040737,-0.06361 z m 0.5617484,0.374499 v -1.04631 h 0.3823604 v 1.04631 z m 0.585333,0 v -1.04631 h 0.3766429 v 0.706831 h 0.3659225 v 0.339479 z"
         id="text4"
         aria-label="CGIL" /></g></g></svg>
