<?xml version="1.0" encoding="UTF-8" standalone="no"?>
<!-- Created with Inkscape (http://www.inkscape.org/) -->

<svg
   width="120"
   height="32"
   viewBox="0 0 31.749999 8.4666666"
   version="1.1"
   id="svg4981"
   inkscape:version="1.4.2 (ebf0e940d0, 2025-05-08)"
   sodipodi:docname="navbar-logo.svg"
   xml:space="preserve"
   xmlns:inkscape="http://www.inkscape.org/namespaces/inkscape"
   xmlns:sodipodi="http://sodipodi.sourceforge.net/DTD/sodipodi-0.dtd"
   xmlns="http://www.w3.org/2000/svg"
   xmlns:svg="http://www.w3.org/2000/svg"><sodipodi:namedview
     id="namedview4983"
     pagecolor="#ffffff"
     bordercolor="#000000"
     borderopacity="0.25"
     inkscape:showpageshadow="false"
     inkscape:pageopacity="0.0"
     inkscape:pagecheckerboard="0"
     inkscape:deskcolor="#d1d1d1"
     inkscape:document-units="px"
     showgrid="false"
     inkscape:zoom="7.319248"
     inkscape:cx="63.189552"
     inkscape:cy="19.127648"
     inkscape:window-width="2520"
     inkscape:window-height="1404"
     inkscape:window-x="2600"
     inkscape:window-y="0"
     inkscape:window-maximized="1"
     inkscape:current-layer="layer1" /><defs
     id="defs4978" /><g
     inkscape:label="Livello 1"
     inkscape:groupmode="layer"
     id="layer1"><path
       id="path455"
       style="fill:#137da5;fill-opacity:1;stroke:none;stroke-width:0.871096;stroke-linecap:round;stroke-linejoin:round;stroke-dasharray:none;paint-order:stroke markers fill"
       d="M 4.2431872,-2.6119026e-8 C 1.9136412,9.063948e-6 0.02517254,1.8953316 0.02516345,4.2333314 0.02517254,6.571333 1.9136412,8.4666574 4.2431872,8.4666665 6.5727314,8.4666574 8.4612038,6.5713348 8.4612092,4.2333314 8.4612038,1.8953316 6.5727314,9.063948e-6 4.2431872,-2.6119026e-8 Z"
       sodipodi:nodetypes="ccccc" /><path
       d="M 8.4612094,1.4475565 V 0.74032385 H 11.373854 V 1.4475565 H 10.331768 V 4.9433071 H 9.4830886 V 1.4475565 Z"
       style="font-weight:bold;font-size:32.5184px;font-family:'Roboto Condensed';-inkscape-font-specification:'Roboto Condensed,  Bold';text-align:justify;letter-spacing:0px;fill:#137da5;fill-opacity:1;stroke-width:0.184747;stroke-linecap:round;stroke-linejoin:round"
       id="path354" /><path
       d="M 13.769785,4.9433071 13.137605,3.4076016 H 12.716153 V 4.9433071 H 11.864587 V 0.74032385 h 1.353845 q 0.629293,0 0.981466,0.32619305 0.352173,0.3233064 0.352173,0.9439392 0,0.456093 -0.161653,0.7360994 -0.161653,0.2800064 -0.447433,0.4329997 l 0.738986,1.7233386 v 0.040413 z M 12.716153,1.4475565 v 1.2528124 h 0.479186 q 0.254026,0 0.381039,-0.1674265 0.127014,-0.1703131 0.127014,-0.4532064 0,-0.6206327 -0.46764,-0.6321795 z"
       style="font-weight:bold;font-size:32.5184px;font-family:'Roboto Condensed';-inkscape-font-specification:'Roboto Condensed,  Bold';text-align:justify;letter-spacing:0px;fill:#137da5;fill-opacity:1;stroke-width:0.184747;stroke-linecap:round;stroke-linejoin:round"
       id="path351" /><path
       d="m 14.860944,4.9433071 1.313433,-4.20298325 h 0.776512 l 1.322093,4.20298325 h -0.903526 l -0.22516,-0.8602259 h -1.157552 l -0.22516,0.8602259 z M 16.17149,3.3758483 h 0.788059 L 16.564076,1.874783 Z"
       style="font-weight:bold;font-size:32.5184px;font-family:'Roboto Condensed';-inkscape-font-specification:'Roboto Condensed,  Bold';text-align:justify;letter-spacing:0px;fill:#137da5;fill-opacity:1;stroke-width:0.184747;stroke-linecap:round;stroke-linejoin:round"
       id="path348" /><path
       d="M 21.609966,0.74032385 V 4.9433071 h -0.84868 L 19.520019,2.1865427 V 4.9433071 H 18.668455 V 0.74032385 h 0.851564 L 20.761286,3.4999748 V 0.74032385 Z"
       style="font-weight:bold;font-size:32.5184px;font-family:'Roboto Condensed';-inkscape-font-specification:'Roboto Condensed,  Bold';text-align:justify;letter-spacing:0px;fill:#137da5;fill-opacity:1;stroke-width:0.184747;stroke-linecap:round;stroke-linejoin:round"
       id="path345" /><path
       d="M 22.016986,1.4475565 V 0.74032385 h 2.912643 V 1.4475565 h -1.042085 v 3.4957506 h -0.84868 V 1.4475565 Z"
       style="font-weight:bold;font-size:32.5184px;font-family:'Roboto Condensed';-inkscape-font-specification:'Roboto Condensed,  Bold';text-align:justify;letter-spacing:0px;fill:#137da5;fill-opacity:1;stroke-width:0.184747;stroke-linecap:round;stroke-linejoin:round"
       id="path342" /><path
       d="m 28.295479,3.2170817 q 0,0.8890928 -0.41568,1.3365257 -0.415679,0.4474329 -1.094046,0.4474329 -0.675479,0 -1.096931,-0.4474329 Q 25.267369,4.1061745 25.267369,3.2170817 V 2.518509 q 0,-0.9092992 0.418566,-1.3711656 0.418567,-0.46475284 1.094046,-0.46475284 0.678367,0 1.096931,0.46475284 0.418567,0.4618664 0.418567,1.3711656 z M 27.4468,2.5127357 q 0,-0.6004262 -0.170314,-0.8602259 Q 27.106173,1.39271 26.779981,1.39271 q -0.323306,0 -0.493619,0.2569131 -0.167427,0.2540265 -0.170314,0.8400193 v 0.7274393 q 0,0.5715596 0.170314,0.8255861 0.1732,0.2511398 0.499391,0.2511398 0.323307,0 0.490733,-0.2482531 0.167428,-0.2482532 0.170314,-0.8082661 z"
       style="font-weight:bold;font-size:32.5184px;font-family:'Roboto Condensed';-inkscape-font-specification:'Roboto Condensed,  Bold';text-align:justify;letter-spacing:0px;fill:#137da5;fill-opacity:1;stroke-width:0.184747;stroke-linecap:round;stroke-linejoin:round"
       id="path339" /><path
       d="M 30.81265,4.9433071 30.18047,3.4076016 H 29.759018 V 4.9433071 H 28.907451 V 0.74032385 h 1.353846 q 0.629293,0 0.981465,0.32619305 0.352175,0.3233064 0.352175,0.9439392 0,0.456093 -0.161654,0.7360994 -0.161652,0.2800064 -0.447433,0.4329997 l 0.738986,1.7233386 v 0.040413 z M 29.759018,1.4475565 v 1.2528124 h 0.479187 q 0.254025,0 0.381039,-0.1674265 0.127013,-0.1703131 0.127013,-0.4532064 0,-0.6206327 -0.46764,-0.6321795 z"
       style="font-weight:bold;font-size:32.5184px;font-family:'Roboto Condensed';-inkscape-font-specification:'Roboto Condensed,  Bold';text-align:justify;letter-spacing:0px;fill:#137da5;fill-opacity:1;stroke-width:0.184747;stroke-linecap:round;stroke-linejoin:round"
       id="path336" /><path
       d="m 26.771346,5.604472 c -0.02258,0 -0.03382,0.00924 -0.03382,0.027715 0,0.00616 0.0011,0.011303 0.0031,0.015408 l 0.430942,1.2528963 0.0031,0.018508 v 0.8003468 c 0,0.010263 0.0031,0.019506 0.0092,0.027715 0.0082,0.00616 0.01745,0.0093 0.02772,0.0093 h 0.360198 c 0.01025,0 0.01846,-0.00314 0.02462,-0.0093 0.0082,-0.00821 0.01231,-0.017453 0.01231,-0.027715 V 6.9189986 l 0.0031,-0.018508 0.434042,-1.2528963 c 0.0041,-0.014366 0.0031,-0.024658 -0.003,-0.030815 -0.0062,-0.00821 -0.0154,-0.012308 -0.02772,-0.012308 h -0.378696 c -0.02258,0 -0.03697,0.010292 -0.04312,0.030815 l -0.190809,0.7357104 c -0.0021,0.00616 -0.0052,0.00921 -0.0093,0.00921 -0.0041,0 -0.0072,-0.00305 -0.0092,-0.00921 L 27.193174,5.635287 c -0.0062,-0.020523 -0.02055,-0.030815 -0.04312,-0.030815 z"
       style="font-weight:bold;font-stretch:condensed;font-size:16.9333px;font-family:'Barlow Condensed';-inkscape-font-specification:'Barlow Condensed,  Bold Condensed';letter-spacing:8.46402px;fill:#137da5;stroke-width:0.0962033;fill-opacity:1"
       id="path8" /><path
       d="m 23.770351,5.604472 c -0.02052,0 -0.03082,0.0082 -0.03082,0.024614 0,0.00821 0.0011,0.014402 0.0031,0.018508 l 0.418636,1.0250714 c 0.0021,0.00616 0.0021,0.012352 0,0.018508 l -0.418636,1.0251654 c -0.0041,0.012313 -0.0041,0.022512 0,0.030721 0.0041,0.00821 0.01335,0.012308 0.02772,0.012308 h 0.366304 c 0.02053,0 0.03387,-0.010197 0.04002,-0.030721 l 0.209317,-0.5880234 c 0.0021,-0.00616 0.0051,-0.00921 0.0092,-0.00921 0.0041,0 0.0073,0.00305 0.0093,0.00921 l 0.206218,0.5880234 c 0.0062,0.020523 0.0195,0.030721 0.04002,0.030721 h 0.366399 c 0.02052,0 0.03072,-0.0082 0.03072,-0.024614 0,-0.00821 -9.09e-4,-0.01431 -0.003,-0.018414 L 24.626144,6.6911745 c -0.0021,-0.00616 -0.0021,-0.012352 0,-0.018508 l 0.418727,-1.0250714 c 0.0041,-0.012315 0.0041,-0.022606 0,-0.030815 -0.0041,-0.00821 -0.01334,-0.012308 -0.02771,-0.012308 h -0.366398 c -0.02053,0 -0.03387,0.010292 -0.04002,0.030815 L 24.40452,6.2263168 c -0.0021,0.00616 -0.0051,0.00921 -0.0092,0.00921 -0.0041,0 -0.0073,-0.00305 -0.0093,-0.00921 L 24.179795,5.635287 c -0.0062,-0.020523 -0.0195,-0.030815 -0.04002,-0.030815 z"
       style="font-weight:bold;font-stretch:condensed;font-size:16.9333px;font-family:'Barlow Condensed';-inkscape-font-specification:'Barlow Condensed,  Bold Condensed';letter-spacing:8.46402px;fill:#137da5;stroke-width:0.0962033;fill-opacity:1"
       id="path7" /><path
       d="m 21.166381,5.604472 c -0.02257,0 -0.03591,0.011246 -0.04002,0.033821 l -0.452549,2.0810519 c -0.0062,0.02668 0.0041,0.040022 0.03082,0.040022 h 0.360197 c 0.02463,0 0.03797,-0.011246 0.04002,-0.033821 l 0.04923,-0.2955619 c 0,-0.010263 0.0061,-0.015408 0.01841,-0.015408 h 0.391015 c 0.01231,0 0.01851,0.00514 0.01851,0.015408 l 0.04923,0.2955619 c 0.0021,0.022576 0.0154,0.033821 0.04002,0.033821 h 0.369406 c 0.02258,0 0.03382,-0.00915 0.03382,-0.027621 l -0.003,-0.012401 -0.449449,-2.0810519 c -0.0041,-0.022576 -0.01745,-0.033821 -0.04002,-0.033821 z m 0.196259,0.6095376 c 1.81e-4,-2.42e-5 5.45e-4,0 7.27e-4,0 0.0041,0 0.0072,0.00305 0.0092,0.00921 l 0.144681,0.8404627 c 0.0021,0.010263 -0.002,0.015408 -0.01231,0.015408 h -0.277054 c -0.0082,0 -0.01231,-0.00514 -0.01231,-0.015408 L 21.354149,6.223216 c 0.0019,-0.00577 0.0047,-0.00885 0.0085,-0.00921 z"
       style="font-weight:bold;font-stretch:condensed;font-size:16.9333px;font-family:'Barlow Condensed';-inkscape-font-specification:'Barlow Condensed,  Bold Condensed';letter-spacing:8.46402px;fill:#137da5;stroke-width:0.0962033;fill-opacity:1"
       id="path6" /><path
       d="m 17.900546,5.604472 c -0.01026,0 -0.01951,0.0041 -0.02771,0.012308 -0.0062,0.00616 -0.0092,0.014353 -0.0092,0.024614 v 2.081052 c 0,0.010263 0.0031,0.019506 0.0092,0.027715 0.0082,0.00616 0.01745,0.00921 0.02771,0.00921 h 1.058987 c 0.01025,0 0.01855,-0.00305 0.02471,-0.00921 0.0082,-0.00821 0.01231,-0.017453 0.01231,-0.027715 V 7.4238782 c 0,-0.010261 -0.0041,-0.018457 -0.01231,-0.024614 -0.0061,-0.00821 -0.01443,-0.012308 -0.02471,-0.012308 h -0.64646 c -0.01027,0 -0.0154,-0.00514 -0.0154,-0.015408 V 5.6413937 c 0,-0.010261 -0.0041,-0.018457 -0.01231,-0.024614 -0.0061,-0.00821 -0.01434,-0.012308 -0.02461,-0.012308 z"
       style="font-weight:bold;font-stretch:condensed;font-size:16.9333px;font-family:'Barlow Condensed';-inkscape-font-specification:'Barlow Condensed,  Bold Condensed';letter-spacing:8.46402px;fill:#137da5;stroke-width:0.0962033;fill-opacity:1"
       id="path5" /><path
       d="m 15.241241,5.604472 c -0.02257,0 -0.03592,0.011246 -0.04002,0.033821 L 14.74867,7.7193454 c -0.0062,0.02668 0.0041,0.040022 0.03081,0.040022 h 0.360104 c 0.02463,0 0.03797,-0.011246 0.04002,-0.033821 l 0.04932,-0.2955619 c 0,-0.010263 0.0061,-0.015408 0.01841,-0.015408 h 0.391013 c 0.01231,0 0.01851,0.00514 0.01851,0.015408 l 0.04923,0.2955619 c 0.0021,0.022576 0.01539,0.033821 0.04002,0.033821 h 0.369406 c 0.02257,0 0.03382,-0.00915 0.03382,-0.027621 l -0.003,-0.012401 -0.449543,-2.0810519 c -0.0041,-0.022576 -0.01735,-0.033821 -0.03993,-0.033821 z M 15.4375,6.2140096 c 2.54e-4,-2.42e-5 4.91e-4,0 7.45e-4,0 0.0041,0 0.0072,0.00305 0.0092,0.00921 l 0.144681,0.8404627 c 0.0021,0.010263 -0.002,0.015408 -0.01231,0.015408 H 15.30277 c -0.0082,0 -0.01231,-0.00514 -0.01231,-0.015408 L 15.429036,6.223216 c 0.0019,-0.00577 0.0047,-0.00885 0.0085,-0.00921 z"
       style="font-weight:bold;font-stretch:condensed;font-size:16.9333px;font-family:'Barlow Condensed';-inkscape-font-specification:'Barlow Condensed,  Bold Condensed';letter-spacing:8.46402px;fill:#137da5;stroke-width:0.0962033;fill-opacity:1"
       id="path4" /><path
       d="m 12.477184,5.5798576 c -0.18471,0 -0.333471,0.053367 -0.446349,0.1600881 -0.110826,0.1046688 -0.166289,0.245234 -0.166289,0.4217345 v 1.0404791 c 0,0.1765004 0.05546,0.3181136 0.166289,0.4248348 0.112878,0.1046689 0.261639,0.1570818 0.446349,0.1570818 0.18471,0 0.333565,-0.052413 0.446443,-0.1570818 0.112879,-0.1067212 0.169295,-0.2483344 0.169295,-0.4248348 V 6.6326437 c 0,-0.010261 -0.0041,-0.018457 -0.01231,-0.024614 -0.0062,-0.00821 -0.01435,-0.012308 -0.02461,-0.012308 h -0.548001 c -0.01026,0 -0.01951,0.0041 -0.02772,0.012308 -0.0062,0.00616 -0.0092,0.014353 -0.0092,0.024614 v 0.2740477 c 0,0.010263 0.0031,0.019506 0.0092,0.027715 0.0082,0.00616 0.01745,0.00921 0.02772,0.00921 h 0.135473 c 0.01026,0 0.01541,0.00514 0.01541,0.015408 V 7.205259 c 0,0.06157 -0.01649,0.1118869 -0.04932,0.1508811 -0.03284,0.036942 -0.07696,0.05543 -0.132373,0.05543 -0.05336,0 -0.09644,-0.018487 -0.129274,-0.05543 -0.03284,-0.038994 -0.04923,-0.089311 -0.04923,-0.1508811 V 6.1585794 c 0,-0.06157 0.01639,-0.110839 0.04923,-0.147781 0.03284,-0.038994 0.07591,-0.058436 0.129274,-0.058436 0.05541,0 0.09954,0.019442 0.132373,0.058436 0.03284,0.036942 0.04932,0.086211 0.04932,0.147781 v 0.1231664 c 0,0.010263 0.003,0.019506 0.0092,0.027715 0.0082,0.00616 0.01745,0.00921 0.02771,0.00921 h 0.360198 c 0.01026,0 0.01846,-0.00305 0.02462,-0.00921 0.0082,-0.00821 0.01231,-0.017453 0.01231,-0.027715 V 6.16478 c 0,-0.1765004 -0.05642,-0.3181137 -0.169295,-0.4248349 C 12.810748,5.6332239 12.661894,5.579857 12.477184,5.5798576 Z"
       style="font-weight:bold;font-stretch:condensed;font-size:16.9333px;font-family:'Barlow Condensed';-inkscape-font-specification:'Barlow Condensed,  Bold Condensed';letter-spacing:8.46402px;fill:#137da5;stroke-width:0.0962033;fill-opacity:1"
       id="path3" /><g
       id="g17"
       style="fill:#ffffff"
       transform="matrix(0.01682622,0,0,0.01682622,1.1996098,1.1897315)">
	<path
   d="m 356.927,174.836 c -0.066,0 -0.131,-0.001 -0.197,-0.004 -2.646,-0.107 -4.705,-2.339 -4.598,-4.985 0.029,-0.731 0.044,-1.465 0.044,-2.202 0,-2.648 2.147,-4.795 4.795,-4.795 2.648,0 4.795,2.147 4.795,4.795 0,0.866 -0.018,1.729 -0.053,2.589 -0.102,2.581 -2.227,4.602 -4.786,4.602 z"
   id="path1"
   style="fill:#ffffff" />
	<path
   d="m 227.493,258.429 c -0.026,0 -0.051,0 -0.076,-10e-4 -1.669,-0.026 -3.328,-0.078 -4.977,-0.156 -2.645,-0.125 -4.688,-2.371 -4.564,-5.017 0.125,-2.645 2.362,-4.692 5.017,-4.564 1.548,0.073 3.105,0.122 4.672,0.146 2.648,0.041 4.761,2.221 4.72,4.869 -0.04,2.625 -2.179,4.723 -4.792,4.723 z m 16.875,-0.538 c -2.483,0 -4.584,-1.914 -4.776,-4.431 -0.201,-2.641 1.776,-4.945 4.417,-5.146 1.569,-0.12 3.129,-0.26 4.68,-0.421 2.624,-0.268 4.99,1.643 5.263,4.277 0.272,2.635 -1.643,4.991 -4.277,5.263 -1.636,0.169 -3.281,0.317 -4.936,0.443 -0.125,0.011 -0.249,0.015 -0.371,0.015 z m -38.49,-1.369 c -0.258,0 -0.518,-0.02 -0.78,-0.064 -1.646,-0.269 -3.299,-0.568 -4.911,-0.89 -2.597,-0.517 -4.284,-3.042 -3.767,-5.639 0.516,-2.598 3.047,-4.284 5.639,-3.767 1.506,0.3 3.05,0.579 4.588,0.831 2.614,0.427 4.386,2.893 3.958,5.507 -0.386,2.352 -2.42,4.022 -4.727,4.022 z m 59.999,-1.577 c -2.24,0 -4.243,-1.579 -4.698,-3.86 -0.517,-2.597 1.169,-5.122 3.766,-5.64 1.542,-0.307 3.071,-0.635 4.587,-0.982 2.581,-0.594 5.154,1.023 5.744,3.604 0.591,2.582 -1.023,5.154 -3.604,5.744 -1.604,0.368 -3.222,0.714 -4.854,1.039 -0.316,0.065 -0.631,0.095 -0.941,0.095 z m -81.078,-3.603 c -0.505,0 -1.019,-0.08 -1.524,-0.249 -1.585,-0.532 -3.174,-1.098 -4.722,-1.684 -2.477,-0.938 -3.724,-3.707 -2.786,-6.183 0.938,-2.477 3.71,-3.725 6.183,-2.786 1.432,0.543 2.903,1.067 4.371,1.559 2.511,0.841 3.865,3.559 3.024,6.07 -0.671,2.005 -2.541,3.273 -4.546,3.273 z m 102.055,-2.003 c -1.997,0 -3.861,-1.257 -4.54,-3.252 -0.852,-2.508 0.489,-5.232 2.996,-6.084 1.487,-0.505 2.956,-1.03 4.406,-1.574 2.48,-0.93 5.244,0.327 6.174,2.806 0.93,2.48 -0.326,5.244 -2.806,6.174 -1.543,0.579 -3.105,1.137 -4.686,1.675 -0.511,0.172 -1.032,0.255 -1.544,0.255 z m -121.915,-6.732 c -0.796,0 -1.602,-0.198 -2.344,-0.615 -1.478,-0.83 -2.942,-1.698 -4.349,-2.58 -2.244,-1.407 -2.923,-4.366 -1.517,-6.61 1.406,-2.244 4.366,-2.923 6.61,-1.517 1.278,0.801 2.608,1.59 3.952,2.345 2.309,1.297 3.13,4.22 1.833,6.529 -0.879,1.567 -2.508,2.448 -4.185,2.448 z m 141.909,-1.721 c -1.738,0 -3.415,-0.948 -4.266,-2.598 -1.215,-2.354 -0.29,-5.246 2.063,-6.46 1.386,-0.715 2.764,-1.458 4.096,-2.207 2.307,-1.299 5.232,-0.482 6.531,1.827 1.299,2.308 0.481,5.232 -1.827,6.531 -1.433,0.807 -2.915,1.605 -4.403,2.373 -0.703,0.362 -1.454,0.534 -2.194,0.534 z M 147.386,229.905 c -1.174,0 -2.351,-0.429 -3.276,-1.295 -1.261,-1.181 -2.484,-2.401 -3.635,-3.625 -1.813,-1.93 -1.719,-4.965 0.212,-6.779 1.931,-1.813 4.966,-1.717 6.779,0.212 1.01,1.076 2.087,2.15 3.199,3.191 1.934,1.811 2.033,4.845 0.223,6.778 -0.945,1.008 -2.222,1.518 -3.502,1.518 z m 177.818,-0.58 c -1.44,0 -2.864,-0.646 -3.808,-1.876 -1.612,-2.102 -1.216,-5.112 0.885,-6.724 1.232,-0.945 2.442,-1.917 3.595,-2.888 2.027,-1.703 5.052,-1.444 6.757,0.582 1.705,2.027 1.444,5.052 -0.582,6.757 -1.264,1.063 -2.586,2.125 -3.931,3.157 -0.871,0.669 -1.898,0.992 -2.916,0.992 z m 15.672,-14.966 c -1.075,0 -2.157,-0.36 -3.052,-1.099 -2.042,-1.686 -2.329,-4.709 -0.642,-6.751 0.973,-1.178 1.912,-2.384 2.79,-3.584 1.565,-2.137 4.564,-2.601 6.702,-1.038 2.137,1.564 2.602,4.565 1.038,6.702 -0.989,1.35 -2.044,2.706 -3.137,4.029 -0.948,1.148 -2.318,1.741 -3.699,1.741 z m -206.772,-1.502 c -1.719,0 -3.381,-0.927 -4.242,-2.551 -0.823,-1.554 -1.581,-3.15 -2.25,-4.744 -1.026,-2.442 0.122,-5.253 2.564,-6.279 2.442,-1.026 5.253,0.122 6.279,2.564 0.559,1.331 1.192,2.666 1.883,3.968 1.24,2.34 0.348,5.243 -1.992,6.483 -0.716,0.379 -1.485,0.559 -2.242,0.559 z m 218.075,-16.943 c -0.617,0 -1.245,-0.12 -1.849,-0.373 -2.443,-1.022 -3.595,-3.831 -2.573,-6.275 0.575,-1.373 1.102,-2.779 1.567,-4.177 0.835,-2.512 3.549,-3.873 6.063,-3.037 2.513,0.835 3.873,3.55 3.037,6.063 -0.54,1.626 -1.153,3.258 -1.82,4.853 -0.768,1.838 -2.55,2.946 -4.425,2.946 z"
   id="path2"
   style="fill:#ffffff" />
	<path
   d="m 163.718,66.552 c -0.02,0 -0.04,0 -0.061,-0.001 -0.777,-0.009 -1.557,-0.014 -2.339,-0.014 -2.648,0 -4.795,-2.147 -4.795,-4.795 0,-2.648 2.147,-4.795 4.795,-4.795 0.822,0 1.641,0.005 2.459,0.015 2.648,0.033 4.768,2.206 4.735,4.855 -0.033,2.627 -2.174,4.735 -4.794,4.735 z"
   id="path3-3"
   style="fill:#ffffff" />
	<path
   d="m 206.086,220.104 c -2.373,0 -4.435,-1.761 -4.749,-4.177 -0.342,-2.626 1.51,-5.032 4.136,-5.374 1.541,-0.201 3.094,-0.43 4.615,-0.68 2.617,-0.428 5.081,1.339 5.511,3.952 0.431,2.613 -1.339,5.081 -3.952,5.511 -1.628,0.268 -3.289,0.513 -4.936,0.728 -0.21,0.027 -0.419,0.04 -0.625,0.04 z m 21.243,-4.455 c -2.071,0 -3.982,-1.352 -4.598,-3.44 -0.749,-2.54 0.702,-5.207 3.242,-5.956 1.488,-0.439 2.98,-0.91 4.434,-1.398 2.51,-0.844 5.229,0.508 6.073,3.018 0.844,2.51 -0.508,5.229 -3.018,6.073 -1.566,0.526 -3.172,1.033 -4.774,1.506 -0.453,0.134 -0.91,0.197 -1.359,0.197 z m 20.195,-7.938 c -1.753,0 -3.441,-0.964 -4.285,-2.636 -1.193,-2.364 -0.244,-5.248 2.121,-6.442 1.374,-0.693 2.741,-1.422 4.064,-2.168 2.309,-1.302 5.232,-0.484 6.532,1.823 1.301,2.307 0.485,5.232 -1.823,6.532 -1.451,0.818 -2.949,1.617 -4.452,2.377 -0.693,0.348 -1.431,0.514 -2.157,0.514 z m 18.178,-11.805 c -1.374,0 -2.74,-0.588 -3.688,-1.727 -1.695,-2.035 -1.418,-5.059 0.618,-6.753 1.173,-0.976 2.316,-1.987 3.399,-3.005 1.931,-1.814 4.965,-1.719 6.779,0.21 1.814,1.93 1.72,4.965 -0.21,6.779 -1.223,1.15 -2.513,2.29 -3.832,3.388 -0.897,0.744 -1.984,1.108 -3.066,1.108 z M 280.136,179.8 c -0.883,0 -1.777,-0.244 -2.576,-0.755 -2.232,-1.425 -2.886,-4.39 -1.461,-6.622 0.799,-1.251 1.547,-2.537 2.223,-3.821 1.233,-2.343 4.132,-3.243 6.477,-2.01 2.343,1.233 3.243,4.133 2.01,6.477 -0.8,1.52 -1.684,3.039 -2.627,4.516 -0.915,1.433 -2.464,2.215 -4.046,2.215 z m 7.759,-20.103 c -0.241,0 -0.484,-0.018 -0.729,-0.056 -2.618,-0.399 -4.417,-2.846 -4.017,-5.464 0.218,-1.428 0.364,-2.879 0.436,-4.315 0.132,-2.646 2.388,-4.677 5.027,-4.552 2.645,0.131 4.683,2.382 4.552,5.027 -0.087,1.76 -0.267,3.538 -0.534,5.287 -0.362,2.373 -2.405,4.073 -4.735,4.073 z m -1.236,-21.535 c -2.151,0 -4.106,-1.457 -4.65,-3.638 -0.356,-1.429 -0.774,-2.867 -1.243,-4.274 -0.838,-2.512 0.52,-5.228 3.032,-6.066 2.509,-0.839 5.228,0.519 6.066,3.032 0.547,1.641 1.036,3.32 1.452,4.99 0.64,2.57 -0.924,5.172 -3.494,5.812 -0.39,0.098 -0.779,0.144 -1.163,0.144 z m -8.658,-19.801 c -1.581,0 -3.128,-0.78 -4.043,-2.21 -0.8,-1.25 -1.661,-2.504 -2.559,-3.729 -1.566,-2.135 -1.103,-5.137 1.033,-6.703 2.135,-1.566 5.137,-1.104 6.703,1.033 1.016,1.386 1.992,2.808 2.901,4.226 1.428,2.23 0.778,5.196 -1.452,6.625 -0.802,0.513 -1.698,0.758 -2.583,0.758 z m -14.003,-16.527 c -1.165,0 -2.333,-0.422 -3.256,-1.276 -1.11,-1.027 -2.27,-2.05 -3.448,-3.039 -2.028,-1.704 -2.29,-4.729 -0.587,-6.756 1.703,-2.027 4.728,-2.29 6.756,-0.587 1.294,1.088 2.57,2.213 3.792,3.344 1.944,1.799 2.061,4.833 0.262,6.776 -0.943,1.021 -2.229,1.538 -3.519,1.538 z m -17.339,-13.03 c -0.855,0 -1.721,-0.228 -2.503,-0.709 -1.296,-0.795 -2.644,-1.586 -4.005,-2.352 -2.309,-1.298 -3.128,-4.222 -1.829,-6.53 1.297,-2.308 4.222,-3.127 6.53,-1.83 1.467,0.825 2.92,1.679 4.32,2.538 2.258,1.385 2.965,4.338 1.579,6.595 -0.905,1.475 -2.48,2.288 -4.092,2.288 z m -19.363,-9.789 c -0.607,0 -1.225,-0.116 -1.821,-0.361 -1.432,-0.588 -2.884,-1.159 -4.353,-1.71 -2.48,-0.93 -3.737,-3.693 -2.807,-6.173 0.93,-2.48 3.693,-3.738 6.173,-2.807 1.564,0.586 3.108,1.194 4.633,1.82 2.449,1.006 3.619,3.808 2.613,6.258 -0.762,1.853 -2.551,2.973 -4.438,2.973 z m -20.597,-6.836 c -0.397,0 -0.801,-0.05 -1.204,-0.154 -1.506,-0.389 -3.026,-0.759 -4.559,-1.109 -2.582,-0.59 -4.197,-3.162 -3.607,-5.743 0.59,-2.581 3.16,-4.194 5.743,-3.607 1.622,0.371 3.229,0.762 4.822,1.174 2.564,0.662 4.105,3.278 3.443,5.843 -0.557,2.162 -2.504,3.596 -4.638,3.596 z m -21.317,-4.103 c -0.205,0 -0.413,-0.013 -0.623,-0.04 -1.546,-0.201 -3.102,-0.382 -4.669,-0.543 -2.635,-0.272 -4.55,-2.627 -4.279,-5.261 0.271,-2.635 2.628,-4.55 5.261,-4.279 1.651,0.17 3.292,0.361 4.921,0.572 2.627,0.341 4.479,2.747 4.139,5.373 -0.314,2.416 -2.376,4.178 -4.75,4.178 z"
   id="path4-6"
   style="fill:#ffffff" />
	<path
   d="M 4.795,198.918 C 2.147,198.918 0,196.771 0,194.123 c 0,-0.868 0.018,-1.732 0.053,-2.593 0.109,-2.646 2.342,-4.691 4.989,-4.594 2.646,0.109 4.703,2.343 4.594,4.989 -0.03,0.731 -0.045,1.463 -0.045,2.199 0,2.646 -2.147,4.794 -4.796,4.794 z"
   id="path5-7"
   style="fill:#ffffff" />
	<path
   d="m 7.894,179.962 c -0.502,0 -1.012,-0.079 -1.514,-0.246 -2.513,-0.835 -3.873,-3.55 -3.037,-6.063 0.54,-1.626 1.153,-3.258 1.82,-4.853 1.023,-2.443 3.832,-3.596 6.275,-2.573 2.443,1.022 3.595,3.831 2.573,6.275 -0.575,1.373 -1.102,2.779 -1.567,4.177 -0.669,2.01 -2.541,3.283 -4.55,3.283 z M 229.737,162.86 c -1.873,0 -3.653,-1.104 -4.424,-2.939 -0.559,-1.331 -1.192,-2.666 -1.883,-3.968 -1.24,-2.34 -0.348,-5.243 1.992,-6.483 2.342,-1.237 5.243,-0.348 6.483,1.992 0.823,1.554 1.581,3.151 2.25,4.744 1.026,2.442 -0.122,5.253 -2.564,6.279 -0.606,0.254 -1.236,0.375 -1.854,0.375 z M 17.921,160.807 c -0.983,0 -1.974,-0.301 -2.828,-0.926 -2.137,-1.564 -2.602,-4.565 -1.038,-6.702 0.993,-1.356 2.048,-2.712 3.138,-4.03 1.687,-2.041 4.71,-2.329 6.751,-0.641 2.042,1.687 2.329,4.71 0.641,6.751 -0.97,1.173 -1.908,2.379 -2.79,3.584 -0.94,1.283 -2.397,1.964 -3.874,1.964 z m 14.884,-15.751 c -1.366,0 -2.723,-0.581 -3.672,-1.708 -1.705,-2.027 -1.444,-5.052 0.582,-6.757 1.264,-1.063 2.586,-2.125 3.931,-3.157 2.101,-1.613 5.112,-1.216 6.724,0.885 1.612,2.102 1.216,5.112 -0.885,6.724 -1.232,0.945 -2.442,1.917 -3.595,2.888 -0.899,0.755 -1.995,1.125 -3.085,1.125 z m 184.993,-0.195 c -1.278,0 -2.552,-0.508 -3.496,-1.512 -1.011,-1.076 -2.087,-2.15 -3.199,-3.191 -1.934,-1.811 -2.033,-4.845 -0.223,-6.778 1.811,-1.933 4.845,-2.033 6.778,-0.223 1.261,1.181 2.484,2.401 3.635,3.625 1.813,1.93 1.718,4.965 -0.212,6.779 -0.926,0.869 -2.106,1.3 -3.283,1.3 z M 50.679,132.764 c -1.676,0 -3.303,-0.879 -4.184,-2.444 -1.299,-2.308 -0.481,-5.232 1.827,-6.531 1.433,-0.807 2.915,-1.605 4.403,-2.373 2.357,-1.215 5.247,-0.29 6.46,2.063 1.215,2.354 0.29,5.246 -2.063,6.46 -1.386,0.715 -2.764,1.458 -4.096,2.207 -0.743,0.42 -1.551,0.618 -2.347,0.618 z m 150.291,-1.549 c -0.87,0 -1.75,-0.236 -2.542,-0.732 -1.278,-0.801 -2.608,-1.59 -3.952,-2.345 -2.309,-1.297 -3.13,-4.22 -1.833,-6.529 1.297,-2.31 4.221,-3.129 6.529,-1.833 1.478,0.83 2.942,1.698 4.349,2.58 2.244,1.407 2.923,4.366 1.517,6.61 -0.909,1.451 -2.471,2.249 -4.068,2.249 z M 70.369,123.646 c -1.941,0 -3.769,-1.188 -4.49,-3.112 -0.93,-2.48 0.326,-5.244 2.806,-6.174 1.543,-0.579 3.105,-1.137 4.686,-1.675 2.506,-0.852 5.231,0.488 6.084,2.996 0.852,2.508 -0.489,5.232 -2.996,6.084 -1.487,0.505 -2.956,1.03 -4.406,1.574 -0.556,0.209 -1.125,0.307 -1.684,0.307 z m 111.146,-2.006 c -0.565,0 -1.139,-0.1 -1.698,-0.312 -1.432,-0.543 -2.903,-1.067 -4.371,-1.559 -2.511,-0.841 -3.865,-3.559 -3.024,-6.07 0.841,-2.512 3.56,-3.865 6.07,-3.024 1.585,0.532 3.174,1.098 4.722,1.684 2.477,0.938 3.724,3.707 2.786,6.183 -0.726,1.918 -2.55,3.098 -4.485,3.098 z m -90.354,-4.215 c -2.186,0 -4.162,-1.505 -4.67,-3.727 -0.591,-2.582 1.023,-5.154 3.604,-5.744 1.604,-0.368 3.222,-0.714 4.854,-1.039 2.594,-0.518 5.122,1.168 5.64,3.766 0.517,2.597 -1.169,5.122 -3.766,5.64 -1.542,0.307 -3.071,0.635 -4.587,0.982 -0.361,0.083 -0.721,0.122 -1.075,0.122 z m 69.489,-1.727 c -0.311,0 -0.625,-0.03 -0.941,-0.094 -1.506,-0.3 -3.05,-0.579 -4.588,-0.831 -2.614,-0.427 -4.386,-2.893 -3.958,-5.507 0.428,-2.614 2.894,-4.392 5.507,-3.958 1.646,0.269 3.299,0.568 4.911,0.89 2.597,0.517 4.284,3.042 3.767,5.639 -0.454,2.282 -2.457,3.861 -4.698,3.861 z m -48.07,-1.799 c -2.427,0 -4.509,-1.836 -4.764,-4.303 -0.272,-2.635 1.643,-4.991 4.278,-5.263 1.635,-0.169 3.28,-0.317 4.935,-0.443 2.641,-0.191 4.945,1.776 5.146,4.417 0.201,2.641 -1.776,4.945 -4.417,5.146 -1.569,0.12 -3.129,0.26 -4.68,0.421 -0.166,0.016 -0.333,0.025 -0.498,0.025 z m 26.524,-0.819 c -0.076,0 -0.153,-0.002 -0.23,-0.005 -1.548,-0.073 -3.105,-0.122 -4.672,-0.146 -2.648,-0.041 -4.761,-2.222 -4.72,-4.869 0.042,-2.649 2.281,-4.751 4.869,-4.72 1.669,0.026 3.328,0.078 4.977,0.156 2.645,0.125 4.688,2.371 4.564,5.017 -0.123,2.566 -2.244,4.567 -4.788,4.567 z"
   id="path6-5"
   style="fill:#ffffff" />
	<path
   d="m 200.45,304.822 c -0.823,0 -1.644,-0.005 -2.462,-0.016 -2.648,-0.035 -4.767,-2.21 -4.732,-4.858 0.035,-2.627 2.175,-4.732 4.794,-4.732 0.022,0 0.043,0 0.064,10e-4 0.776,0.01 1.555,0.015 2.336,0.015 2.648,0 4.795,2.147 4.795,4.795 0,2.648 -2.147,4.795 -4.795,4.795 z"
   id="path7-3"
   style="fill:#ffffff" />
	<path
   d="m 181.192,303.841 c -0.164,0 -0.33,-0.009 -0.497,-0.026 -1.651,-0.17 -3.292,-0.361 -4.921,-0.572 -2.627,-0.341 -4.479,-2.747 -4.139,-5.373 0.341,-2.626 2.744,-4.476 5.373,-4.139 1.546,0.201 3.103,0.382 4.669,0.543 2.635,0.272 4.55,2.627 4.279,5.261 -0.254,2.469 -2.337,4.306 -4.764,4.306 z m -21.425,-3.518 c -0.354,0 -0.713,-0.04 -1.072,-0.122 -1.622,-0.371 -3.229,-0.762 -4.822,-1.174 -2.564,-0.662 -4.105,-3.278 -3.443,-5.843 0.663,-2.565 3.277,-4.108 5.843,-3.443 1.506,0.389 3.026,0.759 4.559,1.109 2.582,0.59 4.197,3.162 3.607,5.743 -0.509,2.224 -2.485,3.73 -4.672,3.73 z m -20.804,-6.213 c -0.559,0 -1.128,-0.098 -1.682,-0.306 -1.564,-0.586 -3.108,-1.193 -4.633,-1.82 -2.449,-1.006 -3.619,-3.808 -2.613,-6.258 1.006,-2.45 3.807,-3.619 6.258,-2.613 1.432,0.589 2.884,1.159 4.353,1.71 2.48,0.93 3.737,3.693 2.807,6.173 -0.721,1.926 -2.549,3.114 -4.49,3.114 z m -19.702,-9.111 c -0.796,0 -1.603,-0.198 -2.346,-0.616 -1.467,-0.825 -2.92,-1.679 -4.32,-2.538 -2.258,-1.385 -2.965,-4.338 -1.579,-6.595 1.386,-2.258 4.339,-2.964 6.595,-1.579 1.296,0.795 2.644,1.586 4.005,2.352 2.309,1.298 3.128,4.222 1.829,6.53 -0.879,1.566 -2.507,2.446 -4.184,2.446 z m -17.875,-12.284 c -1.089,0 -2.183,-0.369 -3.083,-1.124 -1.294,-1.088 -2.57,-2.213 -3.792,-3.344 -1.944,-1.799 -2.061,-4.833 -0.262,-6.776 1.799,-1.945 4.833,-2.061 6.776,-0.262 1.11,1.027 2.27,2.05 3.448,3.039 2.028,1.704 2.29,4.729 0.587,6.756 -0.948,1.13 -2.306,1.711 -3.674,1.711 z M 86.505,256.976 c -1.476,0 -2.932,-0.679 -3.872,-1.961 -1.016,-1.386 -1.992,-2.808 -2.901,-4.226 -1.428,-2.23 -0.778,-5.196 1.452,-6.625 2.231,-1.429 5.196,-0.778 6.625,1.452 0.8,1.25 1.661,2.504 2.559,3.729 1.566,2.135 1.103,5.137 -1.033,6.703 -0.854,0.626 -1.846,0.928 -2.83,0.928 z M 76.451,237.83 c -2.008,0 -3.879,-1.27 -4.548,-3.28 -0.547,-1.641 -1.036,-3.32 -1.452,-4.99 -0.64,-2.57 0.924,-5.172 3.494,-5.812 2.57,-0.642 5.172,0.925 5.812,3.494 0.356,1.429 0.774,2.867 1.243,4.274 0.838,2.512 -0.52,5.228 -3.032,6.066 -0.502,0.168 -1.014,0.248 -1.517,0.248 z m -3.053,-21.368 c -0.08,0 -0.161,-0.002 -0.242,-0.006 -2.645,-0.131 -4.683,-2.382 -4.552,-5.027 0.087,-1.76 0.267,-3.538 0.534,-5.287 0.399,-2.618 2.847,-4.418 5.464,-4.017 2.618,0.399 4.417,2.846 4.017,5.464 -0.218,1.428 -0.364,2.879 -0.436,4.315 -0.128,2.565 -2.247,4.558 -4.785,4.558 z m 5.801,-20.734 c -0.753,0 -1.517,-0.178 -2.23,-0.553 -2.343,-1.233 -3.243,-4.133 -2.01,-6.477 0.8,-1.52 1.684,-3.039 2.627,-4.516 1.425,-2.231 4.392,-2.886 6.622,-1.461 2.232,1.425 2.886,4.39 1.461,6.622 -0.799,1.251 -1.547,2.537 -2.223,3.821 -0.858,1.632 -2.524,2.564 -4.247,2.564 z m 13.254,-17.079 c -1.277,0 -2.552,-0.507 -3.495,-1.511 -1.814,-1.93 -1.72,-4.965 0.21,-6.779 1.223,-1.15 2.513,-2.29 3.832,-3.388 2.034,-1.694 5.059,-1.418 6.753,0.618 1.695,2.035 1.418,5.059 -0.618,6.753 -1.173,0.976 -2.316,1.987 -3.399,3.005 -0.925,0.871 -2.106,1.302 -3.283,1.302 z m 17.541,-12.728 c -1.675,0 -3.301,-0.879 -4.182,-2.441 -1.301,-2.308 -0.485,-5.232 1.823,-6.532 1.451,-0.818 2.949,-1.617 4.452,-2.377 2.366,-1.195 5.248,-0.244 6.442,2.121 1.193,2.364 0.244,5.248 -2.121,6.442 -1.374,0.693 -2.741,1.422 -4.064,2.168 -0.745,0.42 -1.553,0.619 -2.35,0.619 z m 19.839,-8.757 c -2.003,0 -3.872,-1.265 -4.545,-3.269 -0.844,-2.51 0.508,-5.229 3.018,-6.073 1.566,-0.526 3.172,-1.033 4.774,-1.506 2.538,-0.75 5.206,0.702 5.956,3.242 0.749,2.54 -0.702,5.207 -3.242,5.956 -1.488,0.439 -2.98,0.91 -4.434,1.398 -0.506,0.171 -1.021,0.252 -1.527,0.252 z m 21.061,-5.205 c -2.306,0 -4.339,-1.667 -4.726,-4.016 -0.431,-2.613 1.339,-5.081 3.952,-5.511 1.628,-0.268 3.289,-0.513 4.936,-0.728 2.622,-0.334 5.032,1.511 5.374,4.137 0.342,2.626 -1.51,5.032 -4.136,5.374 -1.541,0.201 -3.094,0.43 -4.615,0.68 -0.263,0.043 -0.526,0.064 -0.785,0.064 z"
   id="path8-5"
   style="fill:#ffffff" />
	<path
   d="m 293.533,93.438 c -0.957,0 -1.922,-0.286 -2.762,-0.879 -0.623,-0.44 -1.253,-0.876 -1.893,-1.308 -2.195,-1.483 -2.772,-4.464 -1.29,-6.658 1.483,-2.196 4.465,-2.771 6.658,-1.29 0.695,0.47 1.381,0.944 2.058,1.422 2.164,1.528 2.678,4.52 1.15,6.683 -0.934,1.323 -2.416,2.03 -3.921,2.03 z"
   id="path9"
   style="fill:#ffffff" />
	<path
   d="m 227.29,233.663 c -2.536,0 -4.655,-1.99 -4.785,-4.552 -0.135,-2.645 1.9,-4.898 4.545,-5.032 1.536,-0.078 3.07,-0.18 4.6,-0.307 2.634,-0.221 4.956,1.745 5.174,4.384 0.218,2.639 -1.745,4.956 -4.384,5.174 -1.63,0.135 -3.265,0.244 -4.903,0.327 -0.082,0.004 -0.165,0.006 -0.247,0.006 z m -16.648,-0.077 c -0.097,0 -0.194,-0.003 -0.291,-0.009 -1.637,-0.098 -3.272,-0.222 -4.903,-0.372 -2.637,-0.243 -4.578,-2.579 -4.334,-5.216 0.243,-2.638 2.59,-4.578 5.216,-4.334 1.528,0.141 3.06,0.257 4.594,0.349 2.644,0.158 4.658,2.429 4.5,5.073 -0.152,2.546 -2.265,4.509 -4.782,4.509 z m 37.894,-2.55 c -2.24,0 -4.242,-1.578 -4.697,-3.858 -0.519,-2.597 1.167,-5.123 3.763,-5.641 1.497,-0.299 3.008,-0.628 4.49,-0.978 2.573,-0.605 5.16,0.988 5.768,3.566 0.608,2.577 -0.988,5.16 -3.566,5.768 -1.589,0.375 -3.209,0.728 -4.814,1.048 -0.316,0.065 -0.632,0.095 -0.944,0.095 z m -59.115,-0.277 c -0.327,0 -0.658,-0.034 -0.99,-0.104 -1.614,-0.339 -3.231,-0.708 -4.807,-1.097 -2.571,-0.634 -4.141,-3.233 -3.506,-5.805 0.634,-2.571 3.23,-4.142 5.805,-3.506 1.468,0.362 2.975,0.706 4.48,1.022 2.592,0.544 4.252,3.087 3.707,5.679 -0.475,2.259 -2.469,3.811 -4.689,3.811 z m 79.706,-5.573 c -1.938,0 -3.763,-1.184 -4.488,-3.105 -0.934,-2.478 0.318,-5.244 2.796,-6.179 1.424,-0.536 2.851,-1.107 4.242,-1.696 2.438,-1.033 5.253,0.107 6.286,2.546 1.033,2.439 -0.108,5.253 -2.546,6.286 -1.509,0.639 -3.056,1.257 -4.599,1.839 -0.558,0.209 -1.13,0.309 -1.691,0.309 z m -100.239,-0.497 c -0.58,0 -1.17,-0.106 -1.743,-0.33 -1.537,-0.6 -3.077,-1.237 -4.579,-1.894 -2.426,-1.061 -3.533,-3.889 -2.471,-6.315 1.061,-2.427 3.888,-3.535 6.315,-2.471 1.385,0.605 2.806,1.194 4.223,1.747 2.467,0.963 3.686,3.743 2.723,6.211 -0.739,1.894 -2.551,3.052 -4.468,3.052 z m 119.458,-8.897 c -1.603,0 -3.17,-0.804 -4.078,-2.266 -1.397,-2.25 -0.706,-5.206 1.544,-6.604 1.037,-0.645 2.059,-1.307 3.064,-1.986 l 0.732,-0.501 c 2.182,-1.499 5.169,-0.945 6.668,1.238 1.499,2.183 0.945,5.169 -1.238,6.668 l -0.777,0.531 c -1.119,0.757 -2.246,1.487 -3.389,2.197 -0.788,0.49 -1.663,0.723 -2.526,0.723 z m 16.929,-13.061 c -1.266,0 -2.53,-0.498 -3.472,-1.487 -1.827,-1.918 -1.753,-4.953 0.164,-6.78 1.1,-1.048 2.173,-2.123 3.189,-3.196 1.822,-1.923 4.857,-2.004 6.779,-0.183 1.923,1.822 2.004,4.857 0.183,6.779 -1.129,1.191 -2.318,2.383 -3.536,3.543 -0.928,0.885 -2.119,1.324 -3.307,1.324 z m 13.543,-16.518 c -0.861,0 -1.731,-0.231 -2.517,-0.717 -2.253,-1.393 -2.95,-4.348 -1.557,-6.601 0.78,-1.262 1.524,-2.559 2.21,-3.852 1.239,-2.34 4.143,-3.232 6.482,-1.991 2.34,1.24 3.232,4.142 1.991,6.482 -0.784,1.48 -1.634,2.963 -2.526,4.405 -0.906,1.467 -2.476,2.274 -4.083,2.274 z m 8.29,-19.657 c -0.369,0 -0.745,-0.043 -1.12,-0.133 -2.576,-0.616 -4.164,-3.204 -3.548,-5.779 0.341,-1.424 0.629,-2.872 0.857,-4.305 0.416,-2.615 2.877,-4.398 5.489,-3.982 2.615,0.416 4.399,2.874 3.982,5.489 -0.266,1.676 -0.604,3.368 -1.001,5.03 -0.526,2.2 -2.492,3.68 -4.659,3.68 z m 1.234,-21.268 c -2.383,0 -4.448,-1.774 -4.752,-4.199 -0.179,-1.429 -0.422,-2.878 -0.722,-4.307 -0.544,-2.592 1.115,-5.134 3.707,-5.679 2.594,-0.544 5.134,1.116 5.679,3.707 0.354,1.685 0.641,3.396 0.852,5.085 0.33,2.628 -1.534,5.025 -4.161,5.354 -0.204,0.026 -0.405,0.039 -0.603,0.039 z m -6.359,-20.345 c -1.747,0 -3.431,-0.958 -4.278,-2.622 -0.659,-1.294 -1.38,-2.6 -2.146,-3.882 -1.357,-2.274 -0.615,-5.218 1.659,-6.576 2.274,-1.356 5.219,-0.613 6.576,1.659 0.876,1.467 1.703,2.964 2.459,4.449 1.201,2.361 0.261,5.248 -2.099,6.449 -0.697,0.355 -1.44,0.523 -2.171,0.523 z m -12.307,-17.457 c -1.293,0 -2.582,-0.52 -3.527,-1.545 -1.008,-1.093 -2.066,-2.183 -3.145,-3.24 -1.893,-1.853 -1.925,-4.888 -0.071,-6.781 1.852,-1.893 4.888,-1.925 6.781,-0.071 1.196,1.171 2.369,2.379 3.487,3.592 1.795,1.947 1.672,4.981 -0.276,6.776 -0.922,0.849 -2.087,1.269 -3.249,1.269 z"
   id="path10"
   style="fill:#ffffff" />
	<path
   d="m 42.54,110.794 c -1.539,0 -3.05,-0.739 -3.976,-2.11 -1.484,-2.194 -0.907,-5.175 1.287,-6.658 0.686,-0.464 1.377,-0.922 2.075,-1.373 2.222,-1.441 5.192,-0.804 6.631,1.419 1.439,2.223 0.804,5.192 -1.419,6.631 -0.644,0.417 -1.282,0.84 -1.915,1.268 -0.824,0.556 -1.759,0.823 -2.683,0.823 z"
   id="path11"
   style="fill:#ffffff" />
	<path
   d="m 237.136,195.387 c -1.15,0 -2.302,-0.41 -3.221,-1.243 -1.962,-1.78 -2.109,-4.812 -0.33,-6.774 1.026,-1.13 2.012,-2.299 2.931,-3.473 1.633,-2.085 4.647,-2.451 6.732,-0.819 2.085,1.633 2.452,4.647 0.819,6.732 -1.061,1.355 -2.198,2.702 -3.378,4.003 -0.946,1.043 -2.247,1.574 -3.553,1.574 z m 11.656,-18.529 c -0.572,0 -1.155,-0.103 -1.722,-0.321 -2.472,-0.952 -3.704,-3.727 -2.752,-6.198 0.533,-1.383 1.001,-2.798 1.391,-4.204 0.71,-2.552 3.355,-4.043 5.905,-3.336 2.552,0.709 4.045,3.353 3.336,5.905 -0.473,1.702 -1.039,3.412 -1.682,5.081 -0.733,1.904 -2.55,3.073 -4.476,3.073 z m 3.102,-21.598 c -2.455,0 -4.547,-1.876 -4.771,-4.368 -0.131,-1.452 -0.338,-2.917 -0.618,-4.355 -0.506,-2.6 1.191,-5.117 3.791,-5.623 2.597,-0.506 5.117,1.191 5.623,3.791 0.342,1.759 0.597,3.553 0.756,5.33 0.237,2.638 -1.71,4.968 -4.348,5.205 -0.145,0.013 -0.289,0.02 -0.433,0.02 z m -6.709,-20.785 c -1.662,0 -3.278,-0.865 -4.164,-2.409 -0.731,-1.274 -1.538,-2.553 -2.399,-3.8 -1.504,-2.18 -0.956,-5.167 1.224,-6.67 2.18,-1.504 5.167,-0.955 6.67,1.224 1.01,1.465 1.96,2.97 2.823,4.472 1.318,2.298 0.525,5.228 -1.772,6.546 -0.753,0.432 -1.573,0.637 -2.382,0.637 z M 231.16,117.626 c -1.127,0 -2.259,-0.395 -3.17,-1.199 -1.129,-0.996 -2.322,-1.986 -3.547,-2.945 -2.086,-1.633 -2.453,-4.646 -0.821,-6.732 1.633,-2.085 4.646,-2.453 6.732,-0.821 1.372,1.074 2.711,2.186 3.98,3.306 1.986,1.752 2.176,4.783 0.424,6.768 -0.948,1.074 -2.27,1.623 -3.598,1.623 z m -18.082,-12.495 c -0.79,0 -1.59,-0.195 -2.328,-0.606 -1.361,-0.757 -2.762,-1.504 -4.166,-2.219 -2.36,-1.203 -3.297,-4.091 -2.095,-6.45 1.203,-2.358 4.089,-3.296 6.45,-2.095 1.506,0.768 3.012,1.57 4.475,2.384 2.315,1.288 3.146,4.208 1.858,6.522 -0.876,1.576 -2.51,2.464 -4.194,2.464 z m -153.587,-3.98 c -1.794,0 -3.513,-1.01 -4.335,-2.738 -1.137,-2.392 -0.119,-5.253 2.272,-6.39 1.514,-0.719 3.064,-1.423 4.608,-2.092 2.428,-1.051 5.253,0.064 6.306,2.494 1.053,2.43 -0.064,5.254 -2.494,6.306 -1.441,0.624 -2.888,1.281 -4.302,1.953 -0.665,0.318 -1.366,0.467 -2.055,0.467 z m 133.576,-5.153 c -0.55,0 -1.109,-0.095 -1.655,-0.296 -1.48,-0.544 -2.973,-1.066 -4.478,-1.565 -2.514,-0.835 -3.874,-3.549 -3.04,-6.063 0.835,-2.514 3.549,-3.872 6.063,-3.04 1.601,0.532 3.204,1.093 4.766,1.667 2.486,0.914 3.759,3.67 2.845,6.156 -0.713,1.94 -2.548,3.141 -4.501,3.141 z M 80.006,93.229 c -2.053,0 -3.952,-1.328 -4.584,-3.393 -0.775,-2.532 0.65,-5.214 3.182,-5.988 1.601,-0.49 3.214,-0.957 4.837,-1.401 2.553,-0.7 5.192,0.805 5.891,3.36 0.698,2.555 -0.805,5.192 -3.36,5.891 -1.531,0.419 -3.052,0.859 -4.562,1.321 -0.467,0.143 -0.939,0.21 -1.404,0.21 z m 91.935,-3.383 c -0.343,0 -0.69,-0.037 -1.038,-0.114 -1.547,-0.341 -3.101,-0.661 -4.663,-0.96 -2.601,-0.498 -4.306,-3.01 -3.808,-5.611 0.498,-2.601 3.014,-4.302 5.611,-3.808 1.65,0.316 3.293,0.654 4.928,1.015 2.586,0.571 4.219,3.131 3.648,5.716 -0.494,2.237 -2.478,3.762 -4.678,3.762 z m -70.522,-1.66 c -2.296,0 -4.325,-1.654 -4.722,-3.995 -0.443,-2.611 1.315,-5.087 3.927,-5.529 1.648,-0.279 3.304,-0.537 4.964,-0.772 2.622,-0.37 5.049,1.453 5.42,4.076 0.371,2.622 -1.453,5.049 -4.076,5.42 -1.573,0.223 -3.142,0.467 -4.705,0.732 -0.272,0.046 -0.542,0.068 -0.808,0.068 z m 48.777,-1.743 c -0.152,0 -0.305,-0.008 -0.459,-0.022 -1.581,-0.15 -3.166,-0.279 -4.753,-0.388 -2.642,-0.181 -4.637,-2.47 -4.456,-5.113 0.181,-2.642 2.46,-4.64 5.113,-4.456 1.671,0.115 3.338,0.251 5.003,0.409 2.637,0.25 4.571,2.59 4.321,5.227 -0.236,2.482 -2.325,4.343 -4.769,4.343 z M 123.3,85.822 c -2.542,0 -4.661,-1.997 -4.785,-4.563 -0.129,-2.645 1.912,-4.894 4.557,-5.022 1.669,-0.081 3.341,-0.14 5.014,-0.178 2.646,-0.054 4.843,2.038 4.903,4.686 0.06,2.648 -2.038,4.843 -4.686,4.903 -1.589,0.036 -3.178,0.092 -4.766,0.169 -0.08,0.003 -0.159,0.005 -0.237,0.005 z"
   id="path12"
   style="fill:#ffffff" />
	<path
   d="m 70.201,279.287 c -0.925,0 -1.859,-0.267 -2.682,-0.824 -0.694,-0.469 -1.379,-0.943 -2.054,-1.42 -2.164,-1.527 -2.679,-4.52 -1.151,-6.683 1.528,-2.163 4.519,-2.679 6.683,-1.151 0.623,0.44 1.254,0.877 1.895,1.31 2.194,1.484 2.769,4.465 1.286,6.659 -0.927,1.37 -2.438,2.109 -3.977,2.109 z"
   id="path13"
   style="fill:#ffffff" />
	<path
   d="m 55.409,267.289 c -1.21,0 -2.421,-0.455 -3.354,-1.369 -1.198,-1.173 -2.371,-2.383 -3.488,-3.597 -1.793,-1.949 -1.667,-4.983 0.283,-6.776 1.95,-1.793 4.984,-1.665 6.776,0.283 1.005,1.092 2.061,2.181 3.139,3.238 1.893,1.853 1.925,4.888 0.071,6.781 -0.939,0.959 -2.183,1.44 -3.427,1.44 z M 42.127,250.561 c -1.638,0 -3.233,-0.839 -4.129,-2.35 -0.867,-1.462 -1.69,-2.961 -2.445,-4.456 -1.195,-2.364 -0.247,-5.248 2.117,-6.443 2.361,-1.195 5.248,-0.248 6.443,2.117 0.659,1.303 1.377,2.611 2.135,3.889 1.351,2.278 0.599,5.22 -1.678,6.571 -0.769,0.455 -1.611,0.672 -2.443,0.672 z m -7.86,-19.831 c -2.217,0 -4.208,-1.547 -4.687,-3.802 -0.355,-1.678 -0.647,-3.383 -0.866,-5.069 -0.341,-2.627 1.511,-5.032 4.137,-5.374 2.642,-0.334 5.032,1.512 5.374,4.137 0.186,1.435 0.434,2.887 0.738,4.317 0.549,2.591 -1.106,5.137 -3.697,5.686 -0.335,0.071 -0.67,0.105 -0.999,0.105 z m -0.593,-21.296 c -0.244,0 -0.491,-0.019 -0.74,-0.057 -2.617,-0.405 -4.41,-2.855 -4.005,-5.473 0.26,-1.678 0.592,-3.375 0.988,-5.042 0.611,-2.577 3.198,-4.17 5.772,-3.56 2.577,0.611 4.171,3.195 3.56,5.772 -0.337,1.422 -0.62,2.868 -0.842,4.298 -0.367,2.368 -2.409,4.062 -4.733,4.062 z m 6.824,-20.195 c -0.761,0 -1.533,-0.182 -2.251,-0.565 -2.337,-1.246 -3.222,-4.15 -1.976,-6.487 0.787,-1.477 1.641,-2.957 2.536,-4.399 1.398,-2.248 4.354,-2.938 6.605,-1.541 2.249,1.398 2.939,4.355 1.541,6.605 -0.784,1.261 -1.531,2.556 -2.219,3.847 -0.864,1.617 -2.522,2.54 -4.236,2.54 z M 53.1,171.991 c -1.187,0 -2.376,-0.438 -3.304,-1.321 -1.919,-1.825 -1.996,-4.86 -0.17,-6.779 1.139,-1.197 2.331,-2.388 3.544,-3.538 1.921,-1.822 4.956,-1.743 6.779,0.18 1.822,1.922 1.742,4.957 -0.18,6.779 -1.094,1.037 -2.168,2.11 -3.194,3.188 -0.943,0.991 -2.208,1.491 -3.475,1.491 z m 16.332,-13.805 c -1.524,0 -3.023,-0.725 -3.954,-2.076 -1.502,-2.181 -0.951,-5.167 1.23,-6.669 l 0.814,-0.556 c 1.099,-0.743 2.219,-1.469 3.357,-2.176 2.25,-1.397 5.206,-0.706 6.604,1.544 1.398,2.25 0.707,5.206 -1.543,6.604 -1.032,0.641 -3.793,2.484 -3.793,2.484 -0.83,0.571 -1.777,0.845 -2.715,0.845 z m 127.827,-9.702 c -0.642,0 -1.295,-0.13 -1.921,-0.404 -1.377,-0.603 -2.798,-1.19 -4.221,-1.744 -2.468,-0.962 -3.688,-3.742 -2.727,-6.21 0.963,-2.469 3.745,-3.687 6.21,-2.727 1.545,0.602 3.087,1.24 4.584,1.895 2.426,1.062 3.532,3.89 2.47,6.316 -0.788,1.801 -2.548,2.874 -4.395,2.874 z M 88.205,147.95 c -1.868,0 -3.643,-1.098 -4.418,-2.925 -1.033,-2.439 0.106,-5.253 2.544,-6.287 1.499,-0.635 3.046,-1.254 4.598,-1.84 2.477,-0.937 5.244,0.314 6.18,2.793 0.935,2.478 -0.315,5.244 -2.793,6.18 -1.434,0.541 -2.861,1.112 -4.242,1.698 -0.611,0.259 -1.245,0.381 -1.869,0.381 z m 88.773,-6.293 c -0.379,0 -0.766,-0.046 -1.151,-0.14 -1.473,-0.363 -2.981,-0.707 -4.482,-1.022 -2.592,-0.544 -4.252,-3.087 -3.707,-5.679 0.544,-2.592 3.087,-4.25 5.679,-3.707 1.608,0.338 3.225,0.707 4.805,1.096 2.572,0.633 4.142,3.232 3.509,5.803 -0.539,2.185 -2.497,3.649 -4.653,3.649 z m -68.428,-0.315 c -2.174,0 -4.142,-1.488 -4.663,-3.695 -0.608,-2.577 0.988,-5.16 3.566,-5.768 1.583,-0.373 3.203,-0.726 4.812,-1.048 2.598,-0.518 5.123,1.164 5.643,3.762 0.519,2.597 -1.165,5.124 -3.762,5.643 -1.503,0.3 -3.014,0.63 -4.492,0.978 -0.369,0.085 -0.739,0.128 -1.104,0.128 z m 47.314,-3.211 c -0.148,0 -0.296,-0.007 -0.445,-0.02 -1.528,-0.141 -3.061,-0.257 -4.596,-0.349 -2.644,-0.158 -4.658,-2.429 -4.5,-5.073 0.158,-2.644 2.443,-4.65 5.073,-4.5 1.637,0.098 3.271,0.221 4.901,0.371 2.637,0.243 4.579,2.577 4.336,5.215 -0.228,2.487 -2.319,4.356 -4.769,4.356 z m -26.168,-0.117 c -2.47,0 -4.567,-1.895 -4.774,-4.401 -0.218,-2.639 1.745,-4.956 4.384,-5.174 1.631,-0.135 3.266,-0.244 4.904,-0.327 2.63,-0.143 4.897,1.902 5.031,4.548 0.133,2.645 -1.902,4.897 -4.548,5.031 -1.535,0.077 -3.069,0.18 -4.599,0.306 -0.133,0.012 -0.266,0.017 -0.398,0.017 z"
   id="path14"
   style="fill:#ffffff" />
	<path
   d="m 317.242,261.886 c -1.571,0 -3.111,-0.772 -4.029,-2.188 -1.44,-2.223 -0.806,-5.192 1.417,-6.632 0.643,-0.417 1.282,-0.839 1.915,-1.267 2.193,-1.485 5.175,-0.91 6.659,1.284 1.485,2.193 0.91,5.175 -1.284,6.659 -0.685,0.464 -1.377,0.922 -2.074,1.374 -0.806,0.521 -1.711,0.77 -2.604,0.77 z"
   id="path15"
   style="fill:#ffffff" />
	<path
   d="m 233.564,285.698 c -2.594,0 -4.728,-2.07 -4.792,-4.678 -0.064,-2.648 2.03,-4.846 4.677,-4.911 1.59,-0.039 3.181,-0.097 4.769,-0.176 2.635,-0.136 4.897,1.907 5.027,4.552 0.131,2.645 -1.907,4.896 -4.552,5.027 -1.669,0.083 -3.339,0.145 -5.01,0.186 -0.039,-10e-4 -0.079,0 -0.119,0 z m -17.111,-0.36 c -0.108,0 -0.217,-0.004 -0.326,-0.011 -1.672,-0.112 -3.342,-0.247 -5.008,-0.404 -2.637,-0.249 -4.572,-2.589 -4.323,-5.226 0.249,-2.637 2.603,-4.56 5.226,-4.323 1.579,0.149 3.163,0.277 4.749,0.383 2.642,0.178 4.641,2.464 4.464,5.106 -0.172,2.534 -2.28,4.475 -4.782,4.475 z m 39.042,-1.44 c -2.351,0 -4.403,-1.729 -4.742,-4.124 -0.371,-2.622 1.453,-5.049 4.076,-5.42 1.574,-0.223 3.143,-0.466 4.707,-0.731 2.608,-0.44 5.086,1.317 5.528,3.928 0.442,2.611 -1.317,5.086 -3.928,5.528 -1.648,0.279 -3.303,0.536 -4.962,0.77 -0.229,0.033 -0.456,0.049 -0.679,0.049 z m -60.872,-1.362 c -0.3,0 -0.604,-0.028 -0.909,-0.087 -1.65,-0.316 -3.293,-0.655 -4.927,-1.017 -2.586,-0.572 -4.218,-3.132 -3.646,-5.718 0.572,-2.586 3.135,-4.214 5.719,-3.646 1.546,0.342 3.1,0.663 4.661,0.962 2.601,0.499 4.305,3.011 3.806,5.613 -0.44,2.296 -2.449,3.893 -4.704,3.893 z m 82.43,-3.058 c -2.109,0 -4.042,-1.402 -4.623,-3.535 -0.697,-2.555 0.81,-5.191 3.365,-5.888 1.531,-0.418 3.052,-0.857 4.562,-1.318 2.535,-0.772 5.213,0.654 5.986,3.187 0.773,2.534 -0.654,5.213 -3.187,5.986 -1.602,0.489 -3.215,0.955 -4.839,1.397 -0.422,0.116 -0.847,0.171 -1.264,0.171 z m -103.735,-2.477 c -0.502,0 -1.013,-0.08 -1.517,-0.247 -1.601,-0.533 -3.189,-1.09 -4.763,-1.671 -2.485,-0.916 -3.756,-3.673 -2.84,-6.158 0.916,-2.484 3.673,-3.756 6.158,-2.84 1.48,0.546 2.973,1.068 4.478,1.57 2.512,0.837 3.871,3.553 3.033,6.066 -0.67,2.009 -2.541,3.28 -4.549,3.28 z m 124.51,-4.77 c -1.854,0 -3.62,-1.082 -4.403,-2.892 -1.052,-2.431 0.066,-5.254 2.497,-6.306 1.443,-0.625 2.891,-1.281 4.302,-1.952 2.391,-1.137 5.253,-0.119 6.389,2.274 1.137,2.392 0.119,5.253 -2.274,6.389 -1.512,0.719 -3.063,1.422 -4.609,2.091 -0.62,0.269 -1.267,0.396 -1.902,0.396 z m -144.824,-3.693 c -0.733,0 -1.477,-0.169 -2.175,-0.525 -1.513,-0.772 -3.019,-1.575 -4.476,-2.388 -2.313,-1.29 -3.142,-4.211 -1.852,-6.524 1.29,-2.313 4.213,-3.141 6.524,-1.852 1.355,0.756 2.755,1.503 4.162,2.221 2.359,1.204 3.296,4.092 2.092,6.451 -0.848,1.661 -2.53,2.617 -4.275,2.617 z M 134.37,256.861 c -1.033,0 -2.074,-0.332 -2.951,-1.019 -1.371,-1.072 -2.71,-2.184 -3.981,-3.306 -1.986,-1.752 -2.176,-4.783 -0.424,-6.768 1.752,-1.987 4.783,-2.176 6.768,-0.424 1.13,0.997 2.323,1.987 3.546,2.944 2.086,1.631 2.454,4.646 0.822,6.731 -0.945,1.21 -2.355,1.842 -3.78,1.842 z m -15.164,-15.837 c -1.523,0 -3.021,-0.724 -3.951,-2.073 -1.008,-1.462 -1.958,-2.966 -2.822,-4.47 -1.319,-2.296 -0.527,-5.227 1.769,-6.547 2.296,-1.319 5.227,-0.528 6.547,1.769 0.733,1.277 1.541,2.556 2.401,3.801 1.504,2.18 0.956,5.167 -1.224,6.67 -0.833,0.575 -1.781,0.85 -2.72,0.85 z m -8.655,-20.076 c -2.249,0 -4.256,-1.59 -4.702,-3.88 -0.342,-1.759 -0.597,-3.553 -0.756,-5.33 -0.237,-2.638 1.71,-4.968 4.348,-5.205 2.634,-0.242 4.968,1.71 5.205,4.348 0.131,1.452 0.338,2.917 0.618,4.355 0.506,2.6 -1.191,5.117 -3.791,5.623 -0.309,0.06 -0.618,0.089 -0.922,0.089 z m 0.888,-21.797 c -0.425,0 -0.856,-0.057 -1.285,-0.176 -2.552,-0.708 -4.047,-3.351 -3.339,-5.903 0.472,-1.701 1.038,-3.412 1.682,-5.084 0.951,-2.471 3.724,-3.705 6.198,-2.752 2.472,0.952 3.704,3.727 2.752,6.198 -0.533,1.385 -1.001,2.799 -1.39,4.202 -0.588,2.123 -2.517,3.515 -4.618,3.515 z m 10.03,-19.437 c -1.034,0 -2.076,-0.333 -2.953,-1.02 -2.085,-1.633 -2.452,-4.647 -0.819,-6.732 1.059,-1.352 2.195,-2.698 3.376,-4.002 1.778,-1.962 4.811,-2.112 6.773,-0.333 1.962,1.778 2.111,4.811 0.333,6.773 -1.028,1.134 -2.014,2.303 -2.932,3.475 -0.945,1.208 -2.354,1.839 -3.778,1.839 z"
   id="path16"
   style="fill:#ffffff" />
	<path
   d="m 183.322,210.879 c -2.551,0 -4.673,-2.01 -4.787,-4.584 -0.117,-2.646 1.933,-4.886 4.579,-5.003 1.462,-0.064 2.928,-0.194 4.358,-0.383 2.626,-0.341 5.036,1.497 5.384,4.123 0.348,2.625 -1.498,5.036 -4.123,5.384 -1.707,0.227 -3.455,0.38 -5.195,0.457 -0.073,0.004 -0.145,0.006 -0.216,0.006 z m -16.61,-1.831 c -0.424,0 -0.854,-0.057 -1.283,-0.175 -1.717,-0.475 -3.406,-1.038 -5.021,-1.672 -2.465,-0.969 -3.678,-3.752 -2.71,-6.217 0.969,-2.465 3.752,-3.677 6.217,-2.71 1.306,0.513 2.676,0.969 4.073,1.356 2.552,0.707 4.048,3.348 3.342,5.901 -0.587,2.125 -2.516,3.517 -4.618,3.517 z m 37.332,-3.56 c -1.71,0 -3.365,-0.917 -4.23,-2.53 -1.252,-2.334 -0.375,-5.241 1.959,-6.492 0.982,-0.527 1.929,-1.098 2.813,-1.697 0.244,-0.165 0.484,-0.332 0.718,-0.501 2.149,-1.547 5.147,-1.061 6.694,1.088 1.548,2.148 1.061,5.145 -1.088,6.694 -0.31,0.223 -0.626,0.444 -0.947,0.661 -1.157,0.783 -2.387,1.525 -3.657,2.206 -0.72,0.388 -1.497,0.571 -2.262,0.571 z m -55.605,-7.317 c -1.366,0 -2.722,-0.58 -3.67,-1.706 -1.28,-1.52 -2.377,-3.136 -3.259,-4.804 -1.239,-2.34 -0.346,-5.243 1.995,-6.481 2.339,-1.24 5.242,-0.347 6.481,1.995 0.564,1.065 1.277,2.113 2.119,3.112 1.706,2.026 1.446,5.051 -0.579,6.757 -0.9,0.757 -1.997,1.127 -3.087,1.127 z m 69.309,-8.515 c -0.362,0 -0.73,-0.042 -1.098,-0.128 -2.579,-0.604 -4.179,-3.184 -3.575,-5.763 0.223,-0.953 0.337,-1.923 0.337,-2.884 0,-0.186 -0.004,-0.375 -0.013,-0.564 -0.119,-2.646 1.929,-4.887 4.575,-5.006 2.639,-0.122 4.887,1.929 5.006,4.575 0.015,0.332 0.022,0.664 0.022,0.997 -0.001,1.697 -0.199,3.402 -0.59,5.07 -0.517,2.211 -2.488,3.703 -4.664,3.703 z m -72.457,-11.601 c -0.68,0 -1.37,-0.145 -2.027,-0.452 -2.399,-1.12 -3.436,-3.974 -2.315,-6.374 0.805,-1.723 1.833,-3.399 3.055,-4.98 1.619,-2.095 4.63,-2.48 6.727,-0.862 2.095,1.62 2.481,4.632 0.862,6.727 -0.79,1.022 -1.448,2.09 -1.954,3.174 -0.814,1.743 -2.543,2.767 -4.348,2.767 z m 65.337,-7.634 c -1.134,0 -2.274,-0.4 -3.187,-1.214 -0.865,-0.77 -1.824,-1.513 -2.851,-2.207 -1.123,-0.76 -2.336,-1.47 -3.607,-2.11 -2.366,-1.191 -3.317,-4.074 -2.126,-6.44 1.191,-2.366 4.075,-3.317 6.44,-2.126 1.636,0.824 3.206,1.743 4.667,2.731 1.377,0.931 2.675,1.937 3.855,2.988 1.978,1.761 2.154,4.792 0.392,6.77 -0.948,1.065 -2.262,1.608 -3.583,1.608 z m -49.405,-6.212 c -1.873,0 -3.653,-1.105 -4.423,-2.94 -1.026,-2.442 0.123,-5.253 2.565,-6.278 1.599,-0.671 3.278,-1.273 4.99,-1.787 2.538,-0.763 5.21,0.677 5.973,3.213 0.762,2.536 -0.677,5.21 -3.213,5.973 -1.391,0.417 -2.749,0.904 -4.037,1.444 -0.607,0.255 -1.236,0.375 -1.855,0.375 z m 25.879,-3.432 c -0.18,0 -0.363,-0.011 -0.546,-0.031 -1.438,-0.163 -2.908,-0.265 -4.367,-0.303 -2.647,-0.068 -4.738,-2.271 -4.669,-4.918 0.068,-2.647 2.231,-4.764 4.918,-4.669 1.736,0.045 3.485,0.166 5.198,0.361 2.632,0.299 4.523,2.674 4.225,5.305 -0.278,2.447 -2.353,4.255 -4.759,4.255 z"
   id="path17"
   style="fill:#ffffff" />
</g></g></svg>
