<?xml version="1.0" encoding="UTF-8" standalone="no"?>
<!-- Created with Inkscape (http://www.inkscape.org/) -->

<svg
   width="64"
   height="64"
   viewBox="0 0 16.933333 16.933333"
   version="1.1"
   id="svg1"
   inkscape:version="1.4.2 (ebf0e940d0, 2025-05-08)"
   sodipodi:docname="structures-logo.svg"
   xml:space="preserve"
   xmlns:inkscape="http://www.inkscape.org/namespaces/inkscape"
   xmlns:sodipodi="http://sodipodi.sourceforge.net/DTD/sodipodi-0.dtd"
   xmlns="http://www.w3.org/2000/svg"
   xmlns:svg="http://www.w3.org/2000/svg"><sodipodi:namedview
     id="namedview1"
     pagecolor="#ffffff"
     bordercolor="#000000"
     borderopacity="0.25"
     inkscape:showpageshadow="false"
     inkscape:pageopacity="0.0"
     inkscape:pagecheckerboard="0"
     inkscape:deskcolor="#d1d1d1"
     inkscape:document-units="px"
     inkscape:zoom="9.390625"
     inkscape:cx="21.670549"
     inkscape:cy="50.262895"
     inkscape:window-width="2520"
     inkscape:window-height="1404"
     inkscape:window-x="2600"
     inkscape:window-y="0"
     inkscape:window-maximized="1"
     inkscape:current-layer="layer1" /><defs
     id="defs1" /><g
     inkscape:label="Livello 1"
     inkscape:groupmode="layer"
     id="layer1"><path
       d="m 12.168913,4.2754269 h -0.02564 v 0.5256219 h 0.02564 c 0.443207,0 0.804,0.3607927 0.804,0.8040001 v 1.1226698 h -0.838797 v 0.525622 h 0.838797 v 2.148274 h -0.838797 v 0.5256217 h 0.838797 v 2.1501046 h -0.838797 v 0.525622 h 0.838797 v 3.357021 h 0.525622 V 5.6050489 c 0,-0.7344056 -0.597048,-1.329622 -1.329622,-1.329622 z"
       fill="#333e48"
       id="path1"
       style="fill:#555555;fill-opacity:1;stroke-width:0.0183143" /><path
       d="M 7.99324,1.8670895 V 0.88544016 c 0,-0.19230075 -0.1575026,-0.35163562 -0.3516353,-0.35163562 H 5.3486482 c -0.192301,0 -0.3516363,0.15750344 -0.3516363,0.35163562 V 1.8670895 Z"
       fill="#a4a9ad"
       id="path2"
       style="stroke-width:0.0183143" /><path
       d="M 4.9970119,1.2938502 H 7.99324 V 1.8670895 H 4.9970119 Z"
       fill=""
       id="path3"
       style="stroke-width:0.0183143" /><path
       d="M 4.2387983,2.7315269 H 12.168913 V 15.958153 H 4.2387983 Z"
       fill="#ff5959"
       id="path4"
       style="fill:#0f688a;fill-opacity:1;stroke-width:0.0183143" /><path
       d="M 4.2387983,2.7315269 H 12.168913 V 3.6344245 H 4.2387983 Z"
       fill=""
       id="path5"
       style="stroke-width:0.0183143" /><path
       d="m 12.711018,1.881741 c 0,-0.1355263 -0.109886,-0.2454124 -0.245413,-0.2454124 H 3.9421058 c -0.1355264,0 -0.2454122,0.1098861 -0.2454122,0.2454124 v 0.946852 c 0,0.1355262 0.1098858,0.2454123 0.2454122,0.2454123 h 8.5234992 c 0.135527,0 0.245413,-0.1098861 0.245413,-0.2454123 z"
       fill="#333e48"
       id="path6"
       style="fill:#555555;fill-opacity:1;stroke-width:0.0183143" /><path
       d="m 10.652484,8.079318 h 1.516429 V 8.8082293 H 10.652484 Z M 4.2387983,5.6856321 H 5.7552265 V 6.4145433 H 4.2387983 Z m 5.558406,6.6536039 h 1.5164287 v 0.728912 H 9.7972043 Z M 4.9970119,10.310006 H 6.513441 v 0.728911 H 4.9970119 Z m -0.7582136,3.860666 h 1.5164282 v 0.728911 H 4.2387983 Z M 8.2038555,6.522598 H 9.720284 V 7.2515092 H 8.2038555 Z M 10.027965,3.8432082 h 1.516429 v 0.7289112 h -1.516429 z"
       fill=""
       id="path7"
       style="fill:#222222;fill-opacity:1;stroke-width:0.0183143" /><path
       d="m 7.4346525,14.525971 c 0,0.09707 -0.078751,0.175817 -0.1758172,0.175817 H 5.4988257 c -0.097066,0 -0.1758181,-0.07875 -0.1758181,-0.175817 v -0.362625 c 0,-0.09707 0.078751,-0.175818 0.1758181,-0.175818 h 1.7618404 c 0.097066,0 0.1758182,0.07875 0.1758182,0.175818 z"
       fill=""
       id="path8"
       style="stroke-width:0.0183143" /><path
       d="M 7.1159829,13.776913 V 12.04987 c 0,-0.09707 -0.078751,-0.175818 -0.1758182,-0.175818 H 5.8174954 c -0.097066,0 -0.1758182,0.07875 -0.1758182,0.175818 v 1.727043 z"
       fill="#ffffff"
       id="path9"
       style="stroke-width:0.0183143" /><path
       d="M 6.9401647,11.874052 H 5.8174954 c -0.097066,0 -0.1758182,0.07875 -0.1758182,0.175818 v 0.278378 c 0,-0.09707 0.078751,-0.175818 0.1758182,-0.175818 h 1.1226693 c 0.097066,0 0.1758182,0.07875 0.1758182,0.175818 V 12.04987 c 0,-0.09707 -0.078751,-0.175818 -0.1758182,-0.175818 z"
       fill=""
       id="path10-3"
       style="stroke-width:0.0183143" /><path
       d="m 7.4346525,14.315355 c 0,0.09707 -0.078751,0.175818 -0.1758172,0.175818 H 5.4988257 c -0.097066,0 -0.1758181,-0.07875 -0.1758181,-0.175818 v -0.362624 c 0,-0.09707 0.078751,-0.175818 0.1758181,-0.175818 h 1.7618404 c 0.097066,0 0.1758182,0.07875 0.1758182,0.175818 z"
       fill="#333e48"
       id="path11"
       style="fill:#555555;fill-opacity:1;stroke-width:0.0183143" /><path
       d="m 8.9730583,14.525971 c 0,0.09707 0.078752,0.175817 0.1758178,0.175817 h 1.7618409 c 0.09707,0 0.175818,-0.07875 0.175818,-0.175817 v -0.362625 c 0,-0.09707 -0.07875,-0.175818 -0.175818,-0.175818 H 9.1488761 c -0.097066,0 -0.1758178,0.07875 -0.1758178,0.175818 z"
       fill=""
       id="path12"
       style="stroke-width:0.0183143" /><path
       d="M 9.2917281,13.776913 V 12.04987 c 0,-0.09707 0.078752,-0.175818 0.1758178,-0.175818 h 1.1226701 c 0.09707,0 0.175818,0.07875 0.175818,0.175818 v 1.727043 z"
       fill="#ffffff"
       id="path13"
       style="stroke-width:0.0183143" /><path
       d="m 9.4675459,11.874052 h 1.1226701 c 0.09707,0 0.175818,0.07875 0.175818,0.175818 v 0.278378 c 0,-0.09707 -0.07875,-0.175818 -0.175818,-0.175818 H 9.4675459 c -0.097066,0 -0.1758178,0.07875 -0.1758178,0.175818 V 12.04987 c 0,-0.09707 0.078752,-0.175818 0.1758178,-0.175818 z"
       fill=""
       id="path14"
       style="stroke-width:0.0183143" /><path
       d="m 8.9730583,14.315355 c 0,0.09707 0.078752,0.175818 0.1758178,0.175818 h 1.7618409 c 0.09707,0 0.175818,-0.07875 0.175818,-0.175818 v -0.362624 c 0,-0.09707 -0.07875,-0.175818 -0.175818,-0.175818 H 9.1488761 c -0.097066,0 -0.1758178,0.07875 -0.1758178,0.175818 z"
       fill="#333e48"
       id="path15"
       style="fill:#555555;fill-opacity:1;stroke-width:0.0183143" /><path
       d="m 7.4346525,10.648822 c 0,0.09707 -0.078751,0.175818 -0.1758172,0.175818 H 5.4988257 c -0.097066,0 -0.1758181,-0.07875 -0.1758181,-0.175818 v -0.362624 c 0,-0.09707 0.078751,-0.175818 0.1758181,-0.175818 h 1.7618404 c 0.097066,0 0.1758182,0.07875 0.1758182,0.175818 z"
       fill=""
       id="path16"
       style="stroke-width:0.0183143" /><path
       d="M 7.1159829,9.899765 V 8.1727212 c 0,-0.097066 -0.078751,-0.1758178 -0.1758182,-0.1758178 H 5.8174954 c -0.097066,0 -0.1758182,0.078752 -0.1758182,0.1758178 V 9.899765 Z"
       fill="#ffffff"
       id="path17"
       style="stroke-width:0.0183143" /><path
       d="M 6.9401647,7.9969034 H 5.8174954 c -0.097066,0 -0.1758182,0.078752 -0.1758182,0.1758178 v 0.2783781 c 0,-0.097066 0.078751,-0.1758177 0.1758182,-0.1758177 h 1.1226693 c 0.097066,0 0.1758182,0.078752 0.1758182,0.1758177 V 8.1727212 c 0,-0.097066 -0.078751,-0.1758178 -0.1758182,-0.1758178 z"
       fill=""
       id="path18-6"
       style="stroke-width:0.0183143" /><path
       d="m 7.4346525,10.438207 c 0,0.09707 -0.078751,0.175817 -0.1758172,0.175817 H 5.4988257 c -0.097066,0 -0.1758181,-0.07875 -0.1758181,-0.175817 v -0.362625 c 0,-0.097065 0.078751,-0.175817 0.1758181,-0.175817 h 1.7618404 c 0.097066,0 0.1758182,0.078751 0.1758182,0.175817 z"
       fill="#333e48"
       id="path19-7"
       style="fill:#555555;fill-opacity:1;stroke-width:0.0183143" /><path
       d="m 8.9730583,10.648822 c 0,0.09707 0.078752,0.175818 0.1758178,0.175818 h 1.7618409 c 0.09707,0 0.175818,-0.07875 0.175818,-0.175818 v -0.362624 c 0,-0.09707 -0.07875,-0.175818 -0.175818,-0.175818 H 9.1488761 c -0.097066,0 -0.1758178,0.07875 -0.1758178,0.175818 z"
       fill=""
       id="path20-5"
       style="stroke-width:0.0183143" /><path
       d="M 9.2917281,9.899765 V 8.1727212 c 0,-0.097066 0.078752,-0.1758178 0.1758178,-0.1758178 h 1.1226701 c 0.09707,0 0.175818,0.078752 0.175818,0.1758178 V 9.899765 Z"
       fill="#ffffff"
       id="path21-3"
       style="stroke-width:0.0183143" /><path
       d="m 9.4675459,7.9969034 h 1.1226701 c 0.09707,0 0.175818,0.078752 0.175818,0.1758178 v 0.2783781 c 0,-0.097066 -0.07875,-0.1758177 -0.175818,-0.1758177 H 9.4675459 c -0.097066,0 -0.1758178,0.078752 -0.1758178,0.1758177 V 8.1727212 c 0,-0.097066 0.078752,-0.1758178 0.1758178,-0.1758178 z"
       fill=""
       id="path22-5"
       style="stroke-width:0.0183143" /><path
       d="m 8.9730583,10.438207 c 0,0.09707 0.078752,0.175817 0.1758178,0.175817 h 1.7618409 c 0.09707,0 0.175818,-0.07875 0.175818,-0.175817 v -0.362625 c 0,-0.097065 -0.07875,-0.175817 -0.175818,-0.175817 H 9.1488761 c -0.097066,0 -0.1758178,0.078751 -0.1758178,0.175817 z"
       fill="#333e48"
       id="path23-6"
       style="fill:#555555;fill-opacity:1;stroke-width:0.0183143" /><path
       d="m 7.4346525,6.7716732 c 0,0.097066 -0.078751,0.1758178 -0.1758172,0.1758178 H 5.4988257 c -0.097066,0 -0.1758181,-0.078752 -0.1758181,-0.1758178 V 6.409049 c 0,-0.097066 0.078751,-0.1758178 0.1758181,-0.1758178 h 1.7618404 c 0.097066,0 0.1758182,0.078752 0.1758182,0.1758178 z"
       fill=""
       id="path24"
       style="stroke-width:0.0183143" /><path
       d="M 7.1159829,6.0226161 V 4.2955727 c 0,-0.097066 -0.078751,-0.1758178 -0.1758182,-0.1758178 H 5.8174954 c -0.097066,0 -0.1758182,0.078752 -0.1758182,0.1758178 v 1.7270434 z"
       fill="#ffffff"
       id="path25"
       style="stroke-width:0.0183143" /><path
       d="M 6.9401647,4.1197549 H 5.8174954 c -0.097066,0 -0.1758182,0.078752 -0.1758182,0.1758178 v 0.2783781 c 0,-0.097066 0.078751,-0.1758177 0.1758182,-0.1758177 h 1.1226693 c 0.097066,0 0.1758182,0.078752 0.1758182,0.1758177 V 4.2955727 c 0,-0.097066 -0.078751,-0.1758178 -0.1758182,-0.1758178 z"
       fill=""
       id="path26"
       style="stroke-width:0.0183143" /><path
       d="m 7.4346525,6.5610581 c 0,0.097066 -0.078751,0.1758178 -0.1758172,0.1758178 H 5.4988257 c -0.097066,0 -0.1758181,-0.078752 -0.1758181,-0.1758178 V 6.1984339 c 0,-0.097066 0.078751,-0.1758178 0.1758181,-0.1758178 h 1.7618404 c 0.097066,0 0.1758182,0.078752 0.1758182,0.1758178 z"
       fill="#333e48"
       id="path27-2"
       style="fill:#555555;fill-opacity:1;stroke-width:0.0183143" /><path
       d="m 8.9730583,6.7716732 c 0,0.097066 0.078752,0.1758178 0.1758178,0.1758178 h 1.7618409 c 0.09707,0 0.175818,-0.078752 0.175818,-0.1758178 V 6.409049 c 0,-0.097066 -0.07875,-0.1758178 -0.175818,-0.1758178 H 9.1488761 c -0.097066,0 -0.1758178,0.078752 -0.1758178,0.1758178 z"
       fill=""
       id="path28-9"
       style="stroke-width:0.0183143" /><path
       d="M 9.2917281,6.0226161 V 4.2955727 c 0,-0.097066 0.078752,-0.1758178 0.1758178,-0.1758178 h 1.1226701 c 0.09707,0 0.175818,0.078752 0.175818,0.1758178 v 1.7270434 z"
       fill="#ffffff"
       id="path29"
       style="stroke-width:0.0183143" /><path
       d="m 9.4675459,4.1197549 h 1.1226701 c 0.09707,0 0.175818,0.078752 0.175818,0.1758178 v 0.2783781 c 0,-0.097066 -0.07875,-0.1758177 -0.175818,-0.1758177 H 9.4675459 c -0.097066,0 -0.1758178,0.078752 -0.1758178,0.1758177 V 4.2955727 c 0,-0.097066 0.078752,-0.1758178 0.1758178,-0.1758178 z"
       fill=""
       id="path30"
       style="stroke-width:0.0183143" /><path
       d="m 8.9730583,6.5610581 c 0,0.097066 0.078752,0.1758178 0.1758178,0.1758178 h 1.7618409 c 0.09707,0 0.175818,-0.078752 0.175818,-0.1758178 V 6.1984339 c 0,-0.097066 -0.07875,-0.1758178 -0.175818,-0.1758178 H 9.1488761 c -0.097066,0 -0.1758178,0.078752 -0.1758178,0.1758178 z"
       fill="#333e48"
       id="path31"
       style="fill:#555555;fill-opacity:1;stroke-width:0.0183143" /><path
       d="m 16.668749,16.256677 c 0,0.07692 -0.0641,0.14102 -0.14102,0.14102 H 0.4056038 c -0.0769238,0 -0.14102069,-0.0641 -0.14102069,-0.14102 v -0.505476 c 0,-0.07692 0.0640969,-0.141021 0.14102069,-0.141021 H 16.527729 c 0.07692,0 0.14102,0.0641 0.14102,0.141021 z"
       fill="#a4a9ad"
       id="path32"
       style="fill:#adb5bd;fill-opacity:1;stroke-width:0.0183143" /><path
       d="M 2.7992901,15.61018 H 14.132212 v 0.789348 H 2.7992901 Z"
       fill="#333e48"
       id="path33"
       style="fill:#555555;fill-opacity:1;stroke-width:0.0183143" /></g></svg>
