<?xml version="1.0" encoding="UTF-8" standalone="no"?>
<!-- Created with Inkscape (http://www.inkscape.org/) -->

<svg
   width="64"
   height="64"
   viewBox="0 0 16.933333 16.933333"
   version="1.1"
   id="svg1"
   inkscape:version="1.4.2 (ebf0e940d0, 2025-05-08)"
   sodipodi:docname="show-transport-logo.svg"
   xml:space="preserve"
   xmlns:inkscape="http://www.inkscape.org/namespaces/inkscape"
   xmlns:sodipodi="http://sodipodi.sourceforge.net/DTD/sodipodi-0.dtd"
   xmlns="http://www.w3.org/2000/svg"
   xmlns:svg="http://www.w3.org/2000/svg"><sodipodi:namedview
     id="namedview1"
     pagecolor="#ffffff"
     bordercolor="#000000"
     borderopacity="0.25"
     inkscape:showpageshadow="false"
     inkscape:pageopacity="0.0"
     inkscape:pagecheckerboard="0"
     inkscape:deskcolor="#d1d1d1"
     inkscape:document-units="px"
     inkscape:zoom="4.6953125"
     inkscape:cx="36.738769"
     inkscape:cy="22.362729"
     inkscape:window-width="2520"
     inkscape:window-height="1404"
     inkscape:window-x="2600"
     inkscape:window-y="0"
     inkscape:window-maximized="1"
     inkscape:current-layer="layer1"
     showgrid="false" /><defs
     id="defs1" /><g
     inkscape:label="Livello 1"
     inkscape:groupmode="layer"
     id="layer1"><g
       id="g6"
       transform="matrix(0.93749999,0,0,0.93749999,0.52916634,0.52916679)"><path
         d="m 3.5698779,14.359466 c 0,0 -0.052211,0.156634 -0.053622,0.2794 -0.00141,0.122767 0.016933,0.372534 0.2370667,0.372534 0.2850444,0 3.5080222,-0.0099 5.0616555,0 1.5536329,0.0099 4.4139549,-0.01976 4.6143329,-0.03105 0.200378,-0.0099 0.145345,-0.454377 0.132645,-0.606777 z"
         fill="#543529"
         id="path1-1"
         style="stroke-width:0.141111" /><path
         d="m 13.861111,15.807266 0.407811,0.280812 c 0,0 0.263878,0.230011 0.299156,0.3683 0.03528,0.138288 -0.04657,0.400755 -0.163689,0.455788 L 8.2886334,16.933333 2.5849223,16.9164 c -0.0889,-0.02258 -0.1961444,-0.108656 -0.2229555,-0.2667 -0.026811,-0.158045 0.060678,-0.334434 0.1157111,-0.4445 0.055033,-0.110067 1.1895666,-0.396522 1.1895666,-0.396522 z"
         fill="#874d36"
         id="path2-2"
         style="stroke-width:0.141111" /><path
         d="m 3.088689,15.513755 c -0.1100667,0.0014 -0.1905,0.132645 -0.2568223,0.218723 -0.1721555,0.221544 -0.2808111,0.361244 -0.3527777,0.472722 -0.098778,0.153811 0.098778,0.286455 0.2751666,0.286455 0.1763889,0 11.7672554,0.01693 11.7954774,-0.05785 0.0381,-0.09878 -0.187677,-0.436034 -0.373944,-0.746478 -0.06491,-0.108656 -0.206022,-0.256822 -0.333022,-0.255411 z"
         fill="#b88956"
         id="path3-70"
         style="stroke-width:0.141111" /><path
         d="m 3.9819223,13.662378 -0.3922889,0.639233 c -0.067733,0.110067 0.011289,0.251178 0.1411111,0.251178 l 9.6689335,-0.0056 c 0.128411,0 0.207433,-0.1397 0.142522,-0.249766 L 13.162611,13.660966 H 3.9819223 Z"
         fill="#a06841"
         id="path4-9"
         style="stroke-width:0.141111" /><path
         d="M 6.1028223,13.765389 4.9527667,16.924866 H 4.2556778 L 3.8563334,16.164278 5.1319778,13.419666 c 0,-0.0014 1.0343445,0.141112 0.9708445,0.345723 z"
         fill="#88857c"
         id="path5-36"
         style="fill:#999999;fill-opacity:1;stroke-width:0.141111" /><path
         d="m 3.5007334,16.9291 c 0.016933,-0.05927 1.1923889,-2.531534 1.1923889,-2.531534 0.073378,-0.153811 0.6928555,-0.08467 0.5926667,0.206023 -0.1001889,0.290689 -0.8099778,2.319866 -0.8099778,2.319866 z"
         fill="#c8c9c6"
         id="path6-0"
         style="fill:#ced4da;fill-opacity:1;stroke-width:0.141111" /><path
         d="m 10.7228,13.765389 1.1557,3.155244 0.690033,-0.0014 0.400756,-0.754944 -1.275645,-2.744612 c 0.0014,-0.0014 -1.034344,0.141112 -0.970844,0.345723 z"
         fill="#88857c"
         id="path7-62"
         style="fill:#999999;fill-opacity:1;stroke-width:0.141111" /><path
         d="m 13.323478,16.9164 c -0.01693,-0.05927 -1.195211,-2.5273 -1.195211,-2.5273 -0.07338,-0.153811 -0.692856,-0.08467 -0.592667,0.206022 l 0.8128,2.3241 z"
         fill="#c8c9c6"
         id="path8-6"
         style="fill:#ced4da;fill-opacity:1;stroke-width:0.141111" /><path
         d="m 13.574656,13.275733 c 0.01975,0.2413 -0.127,0.4572 -0.333023,0.491067 -0.684389,0.108655 -2.319866,0.316089 -4.8739774,0.316089 -2.5357667,0 -4.1345555,-0.204611 -4.8104777,-0.314678 -0.2088445,-0.03387 -0.3541889,-0.254 -0.3316112,-0.498122 l -0.00282,-2.418645 H 13.577478 Z"
         fill="#82aec0"
         id="path9-1"
         style="stroke-width:0.141111" /><path
         d="m 3.2227445,10.851444 v 0.855134 c 0,0 2.4525111,0.127 5.1759555,0.127 2.723444,0 5.177367,-0.146756 5.177367,-0.146756 v -0.835378 z"
         fill="#546e7a"
         id="path10"
         style="stroke-width:0.141111" /><path
         d="M 8.3789445,11.400366 8.3987,8.0066443 3.0788112,6.9962887 2.9856779,10.301111 v 0.788811 c 0,0.125589 0.097367,0.2286 0.2215444,0.235656 0.4473222,0.02681 1.7286111,0.07479 5.1717222,0.07479 z"
         fill="#e0e0e0"
         id="path11-8"
         style="stroke-width:0.141111" /><path
         d="M 13.06167,0.5642974 C 12.380573,0.28707394 11.021193,-1e-7 8.3854592,-1e-7 5.7497256,-1e-7 4.3889383,0.28707394 3.7078411,0.5642974 3.4278031,0.67828268 3.2448638,1.1201515 3.2448638,1.4269268 L 3.0788112,6.9756176 4.5606199,9.1722969 8.3474641,11.003098 c 4.7254639,0 5.4642579,-0.04081 5.4642579,-0.04081 L 13.523241,1.4269268 C 13.524637,1.1201515 13.341708,0.67828268 13.06167,0.5642974 Z"
         fill="#2167a1"
         id="path12-7"
         style="fill:#0f688a;fill-opacity:1;stroke-width:0.140722" /><path
         d="M 12.768911,0.76482212 C 12.129678,0.50517767 10.872378,0.24553323 8.4001111,0.24553323 c -2.4722666,0 -3.7309777,0.25964444 -4.3687999,0.51928889 C 3.7688445,0.87206656 3.596689,1.1923888 3.596689,1.4802554 l 0.022578,3.4417 c 0.00423,0.7648222 0.5037667,1.4393333 1.2333111,1.6693444 L 8.5017111,7.8260221 12.004089,6.6025887 C 12.735044,6.3669332 13.228933,5.6839554 13.2247,4.916311 L 13.20212,1.4943666 c 0,-0.2878667 -0.170744,-0.62230004 -0.433211,-0.72954448 z"
         fill="#2686c6"
         id="path13-9"
         style="fill:#158cba;fill-opacity:1;stroke-width:0.141111" /><path
         fill="#bae2fd"
         d="M 12.630622,3.8777332 H 8.7839334 l 0.0508,-2.3523222 h 3.5094336 z"
         id="path14-2"
         style="stroke-width:0.141111" /><path
         d="M 12.366744,1.2629443 H 8.8982334 c -0.1298223,0 -0.2328334,0.1397 -0.2243667,0.3048 l 0.064911,2.2845889 c 0.00706,0.1509889 0.1058333,0.2681111 0.2243667,0.2681111 h 3.5771666 c 0.172156,0 0.299156,-0.2032 0.262467,-0.4176889 L 12.584056,1.487311 C 12.562889,1.3560777 12.471167,1.2629443 12.366744,1.2629443 Z M 9.2044445,1.6538221 h 2.8857225 c 0.103011,0 0.191911,0.0889 0.217311,0.2159 l 0.134055,1.5014222 c 0.03669,0.1820333 -0.07056,0.3584222 -0.217311,0.3584222 H 9.2425445 c -0.1171222,0 -0.2144889,-0.1157111 -0.2229556,-0.2652888 L 8.9829,1.9628554 C 8.9716111,1.7963443 9.0746223,1.6538221 9.2044445,1.6538221 Z"
         fill="#37474f"
         id="path15-0"
         style="stroke-width:0.141111" /><path
         fill="#bae2fd"
         d="M 4.3022445,3.8777332 H 8.1489334 L 8.0981334,1.525411 H 4.5887001 Z"
         id="path16-3"
         style="stroke-width:0.141111" /><path
         d="M 4.3474001,1.487311 4.1286778,3.7027554 C 4.091989,3.9172443 4.218989,4.1204443 4.3911445,4.1204443 h 3.5771667 c 0.1185333,0 0.2159,-0.1171222 0.2243666,-0.2681111 l 0.064911,-2.2845889 c 0.00847,-0.1651 -0.094544,-0.3048 -0.2243666,-0.3048 h -3.4671 c -0.1044222,0 -0.1961445,0.093133 -0.2187221,0.2243667 z M 7.9513778,1.9628554 7.9146889,3.4642777 C 7.9062223,3.6138554 7.8088556,3.7295665 7.6917334,3.7295665 h -2.9845 c -0.1467556,0 -0.254,-0.1763889 -0.2173111,-0.3584222 L 4.6239778,1.8697221 c 0.0254,-0.127 0.1143,-0.2159 0.2173112,-0.2159 h 2.8857222 c 0.1312333,0 0.2342444,0.1425222 0.2243666,0.3090333 z"
         fill="#37474f"
         id="path17-7"
         style="stroke-width:0.141111" /><path
         d="M 11.290067,5.6289221 C 11.127789,5.2662665 10.8498,5.1293887 10.5577,5.2013554 c -0.2921,0.071967 -0.443089,0.3598333 -0.399344,0.6575778 0.05785,0.4049889 0.4318,0.8043333 0.905933,0.5813778 0.307622,-0.1439334 0.386644,-0.4529667 0.225778,-0.8113889 z"
         fill="#01579b"
         id="path18"
         style="fill:#0f688a;fill-opacity:1;stroke-width:0.141111" /><circle
         cx="10.686111"
         cy="5.7291107"
         r="0.44167778"
         fill="#f44336"
         id="circle18"
         style="fill:#ff4136;fill-opacity:1;stroke-width:0.141111" /><path
         d="M 5.6428001,5.6289221 C 5.8050778,5.2662665 6.0830667,5.1293887 6.3751667,5.2013554 6.6672667,5.2733221 6.8182556,5.5611887 6.7745112,5.8589332 6.7166556,6.2639221 6.3427112,6.6632665 5.8685778,6.440311 5.5609556,6.2963776 5.4819334,5.9873443 5.6428001,5.6289221 Z"
         fill="#01579b"
         id="path19"
         style="fill:#0f688a;fill-opacity:1;stroke-width:0.141111" /><circle
         cx="6.2467556"
         cy="5.7291107"
         r="0.44167778"
         fill="#f44336"
         id="circle19"
         style="fill:#ff4136;fill-opacity:1;stroke-width:0.141111" /><path
         d="M 8.4001111,8.0052332 3.0802223,6.9948776 2.9856779,10.301111 v 0.788811 c 0,0.125589 0.097367,0.2286 0.2215444,0.235656 0.4473222,0.02681 1.7286111,0.07479 5.1717222,0.07479 H 8.3987 c 0,0 0.3033889,-0.615244 0.3033889,-1.6509995 0,-1.0357556 -0.3019778,-1.7441333 -0.3019778,-1.7441333 z"
         fill="#e0e0e0"
         id="path20"
         style="fill:#dee2e6;fill-opacity:1;stroke-width:0.141111" /><path
         d="M 8.4001111,8.0052332 13.72,6.9948776 13.81313,10.301111 v 0.788811 c 0,0.125589 -0.09737,0.2286 -0.221544,0.235656 -0.447322,0.02681 -1.728611,0.07479 -5.1717223,0.07479 h -0.019756 z"
         fill="#bdbdbd"
         id="path21"
         style="fill:#adb5bd;fill-opacity:1;stroke-width:0.141111" /><path
         d="m 2.9856779,11.089922 c 0,0.125589 0.097367,0.2286 0.2215444,0.235656 0.4473222,0.02681 1.7286111,0.07479 5.1717222,0.07479 h 0.039511 c 3.4431115,0 4.7244005,-0.04798 5.1717225,-0.07479 0.124178,-0.0071 0.221544,-0.110067 0.221544,-0.235656 V 10.308166 H 2.9856779 Z"
         opacity="0.2"
         fill="#424242"
         id="path22"
         style="opacity:0.307889;fill:#adb5bd;fill-opacity:1;stroke-width:0.141111" /><path
         d="m 3.9085445,12.100278 a 0.3302,0.3302 0 0 0 -0.3626555,0.3302 c 0,0.440266 0.00706,0.920044 0.3118555,1.014588 0.3358445,0.104423 2.2196778,0.208845 3.1143222,0.237067 C 7.1668,13.687778 7.3234334,13.5255 7.3121445,13.332178 L 7.2698112,12.612511 A 0.33161111,0.33161111 0 0 0 6.9466667,12.300655 C 5.8361223,12.282311 4.5322556,12.163778 3.9085445,12.100278 Z"
         fill="#94d1e0"
         id="path23"
         style="stroke-width:0.141111" /><circle
         cx="11.537011"
         cy="8.7813444"
         r="0.82973337"
         fill="#757575"
         id="circle23"
         style="fill:#999999;fill-opacity:1;stroke-width:0.141111" /><circle
         cx="11.537011"
         cy="8.8646002"
         r="0.60960001"
         fill="#fffde7"
         id="circle24"
         style="stroke-width:0.141111" /><circle
         cx="5.3958559"
         cy="8.7813444"
         r="0.82973337"
         fill="#9e9e9e"
         id="circle25"
         style="fill:#999999;fill-opacity:1;stroke-width:0.141111" /><circle
         cx="5.3958559"
         cy="8.8646002"
         r="0.60960001"
         fill="#fffde7"
         id="circle26"
         style="stroke-width:0.141111" /><path
         fill="#ffffff"
         d="M 7.5562667,3.7281554 H 6.5219223 L 5.1813667,1.6538221 h 1.0357556 z"
         id="path27"
         style="stroke-width:0.141111" /><path
         fill="#ffffff"
         d="M 11.7515,3.7281554 H 10.715744 L 9.3766,1.6538221 h 1.034344 z"
         id="path28"
         style="stroke-width:0.141111" /></g></g></svg>
