<?xml version="1.0" encoding="UTF-8" standalone="no"?>
<!-- Created with Inkscape (http://www.inkscape.org/) -->

<svg
   width="64"
   height="64"
   viewBox="0 0 16.933333 16.933333"
   version="1.1"
   id="svg1"
   inkscape:version="1.4.2 (ebf0e940d0, 2025-05-08)"
   sodipodi:docname="show-place-logo.svg"
   xml:space="preserve"
   xmlns:inkscape="http://www.inkscape.org/namespaces/inkscape"
   xmlns:sodipodi="http://sodipodi.sourceforge.net/DTD/sodipodi-0.dtd"
   xmlns="http://www.w3.org/2000/svg"
   xmlns:svg="http://www.w3.org/2000/svg"><sodipodi:namedview
     id="namedview1"
     pagecolor="#ffffff"
     bordercolor="#000000"
     borderopacity="0.25"
     inkscape:showpageshadow="false"
     inkscape:pageopacity="0.0"
     inkscape:pagecheckerboard="0"
     inkscape:deskcolor="#d1d1d1"
     inkscape:document-units="px"
     inkscape:zoom="9.390625"
     inkscape:cx="47.334443"
     inkscape:cy="46.535774"
     inkscape:window-width="2520"
     inkscape:window-height="1404"
     inkscape:window-x="2600"
     inkscape:window-y="0"
     inkscape:window-maximized="1"
     inkscape:current-layer="layer1" /><defs
     id="defs1">
	
	
</defs><g
     inkscape:label="Livello 1"
     inkscape:groupmode="layer"
     id="layer1"><path
       style="fill:#0f688a;stroke-width:0.0330729;fill-opacity:1"
       d="m 15.267914,6.791953 c -0.154186,0 -0.279135,0.1249495 -0.279135,0.2791355 v 1.8608148 h 0.558237 V 7.0710885 C 15.54705,6.9168695 15.4221,6.791953 15.267914,6.791953 Z"
       id="path1" /><path
       style="fill:#0f688a;stroke-width:0.0330729;fill-opacity:1"
       d="m 1.6654189,5.6754443 c -0.1541859,0 -0.2791354,0.1249495 -0.2791354,0.2791355 V 7.8153946 H 1.9445213 V 5.9545798 C 1.9445544,5.8003938 1.8196049,5.6754443 1.6654189,5.6754443 Z"
       id="path2" /><path
       style="fill:#b3efff;stroke-width:0.0330729"
       d="M 13.239618,1.8608138 H 12.123142 V -1.02e-6 h 1.116476 c 0.513953,0 0.930407,0.41645421 0.930407,0.93040739 0,0.51395313 -0.416421,0.93040743 -0.930407,0.93040743 z"
       id="path3" /><path
       style="fill:#d9f7ff;stroke-width:0.0330729"
       d="M 12.123142,-1.02e-6 H 5.6103238 c -0.5139532,0 -0.9304074,0.41645421 -0.9304074,0.93040739 H 0.95831991 c -0.51395318,0 -0.93040739,0.41645423 -0.93040739,0.93040743 0,0.5139531 0.41645421,0.9304073 0.93040739,0.9304073 H 7.5641727 c 0.5139531,0 0.9304073,-0.4164542 0.9304073,-0.9304073 h 3.628562 c 0.513954,0 0.930408,-0.4164543 0.930408,-0.93040743 0,-0.51395318 -0.416454,-0.93040739 -0.930408,-0.93040739 z"
       id="path4" /><polygon
       style="fill:#999999;fill-opacity:1"
       points="466.145,421.978 488.651,512 511.156,512 511.156,444.484 "
       id="polygon4"
       transform="matrix(0.03307292,0,0,0.03307292,-1.0197004e-6,-1.02e-6)" /><polygon
       style="fill:#ced4da;fill-opacity:1"
       points="389.626,421.978 412.132,512 488.651,512 488.651,421.978 "
       id="polygon5"
       transform="matrix(0.03307292,0,0,0.03307292,-1.0197004e-6,-1.02e-6)" /><polygon
       style="fill:#7ad0f3;fill-opacity:1"
       points="488.651,444.484 511.156,444.484 511.156,247.56 488.651,247.56 454.892,346.022 "
       id="polygon6"
       transform="matrix(0.03307292,0,0,0.03307292,-1.0197004e-6,-1.02e-6)" /><rect
       x="12.886068"
       y="8.1875305"
       style="fill:#98dbf5;stroke-width:0.0330729;fill-opacity:1"
       width="3.275013"
       height="6.5128188"
       id="rect6" /><path
       style="fill:#875b51;stroke-width:0.0330729"
       d="m 15.267914,15.537723 c -0.154186,0 -0.279135,0.124949 -0.279135,0.279135 v 1.116476 h 0.558237 v -1.116476 c 3.4e-5,-0.154186 -0.124916,-0.279135 -0.279102,-0.279135 z"
       id="path6" /><g
       id="g9"
       transform="matrix(0.03307292,0,0,0.03307292,-1.0197004e-6,-1.02e-6)">
	<path
   style="fill:#ffffff"
   d="m 461.644,402.286 c -4.662,0 -8.44,-3.778 -8.44,-8.44 v -11.253 c 0,-4.662 3.778,-8.44 8.44,-8.44 4.662,0 8.44,3.778 8.44,8.44 v 11.253 c 0,4.662 -3.778,8.44 -8.44,8.44 z"
   id="path7" />
	<path
   style="fill:#ffffff"
   d="m 461.644,357.275 c -4.662,0 -8.44,-3.778 -8.44,-8.44 v -11.253 c 0,-4.662 3.778,-8.44 8.44,-8.44 4.662,0 8.44,3.778 8.44,8.44 v 11.253 c 0,4.662 -3.778,8.44 -8.44,8.44 z"
   id="path8" />
	<path
   style="fill:#ffffff"
   d="m 461.644,312.264 c -4.662,0 -8.44,-3.778 -8.44,-8.44 v -11.253 c 0,-4.662 3.778,-8.44 8.44,-8.44 4.662,0 8.44,3.778 8.44,8.44 v 11.253 c 0,4.662 -3.778,8.44 -8.44,8.44 z"
   id="path9" />
</g><polygon
       style="fill:#705147"
       points="344.615,365.152 389.626,206.128 412.132,213.802 412.132,512 389.626,512 "
       id="polygon9"
       transform="matrix(0.03307292,0,0,0.03307292,-1.0197004e-6,-1.02e-6)" /><polygon
       style="fill:#875b51"
       points="290.602,202.549 313.108,180.044 389.626,206.128 389.626,512 313.108,512 "
       id="polygon10"
       transform="matrix(0.03307292,0,0,0.03307292,-1.0197004e-6,-1.02e-6)" /><g
       id="g13"
       transform="matrix(0.03307292,0,0,0.03307292,-1.0197004e-6,-1.02e-6)">
	<path
   style="fill:#ffffff"
   d="m 362.62,402.286 c -4.662,0 -8.44,-3.778 -8.44,-8.44 v -11.253 c 0,-4.662 3.778,-8.44 8.44,-8.44 4.662,0 8.44,3.778 8.44,8.44 v 11.253 c -10e-4,4.662 -3.778,8.44 -8.44,8.44 z"
   id="path10-3" />
	<path
   style="fill:#ffffff"
   d="m 362.62,357.275 c -4.662,0 -8.44,-3.778 -8.44,-8.44 v -11.253 c 0,-4.662 3.778,-8.44 8.44,-8.44 4.662,0 8.44,3.778 8.44,8.44 v 11.253 c -10e-4,4.662 -3.778,8.44 -8.44,8.44 z"
   id="path11" />
	<path
   style="fill:#ffffff"
   d="m 362.62,312.264 c -4.662,0 -8.44,-3.778 -8.44,-8.44 v -11.253 c 0,-4.662 3.778,-8.44 8.44,-8.44 4.662,0 8.44,3.778 8.44,8.44 v 11.253 c -10e-4,4.662 -3.778,8.44 -8.44,8.44 z"
   id="path12" />
	<path
   style="fill:#ffffff"
   d="m 362.62,267.253 c -4.662,0 -8.44,-3.778 -8.44,-8.44 V 247.56 c 0,-4.662 3.778,-8.44 8.44,-8.44 4.662,0 8.44,3.778 8.44,8.44 v 11.253 c -10e-4,4.662 -3.778,8.44 -8.44,8.44 z"
   id="path13" />
</g><polygon
       style="fill:#875b51"
       points="0.844,399.473 0.844,512 77.363,512 99.868,376.967 "
       id="polygon13"
       transform="matrix(0.03307292,0,0,0.03307292,-1.0197004e-6,-1.02e-6)" /><polygon
       style="fill:#705147"
       points="77.363,376.967 77.363,512 99.868,512 122.374,376.967 "
       id="polygon14"
       transform="matrix(0.03307292,0,0,0.03307292,-1.0197004e-6,-1.02e-6)" /><polygon
       style="fill:#70cef3;fill-opacity:1"
       points="77.363,399.473 122.374,399.473 122.374,213.802 77.363,213.802 43.604,306.637 "
       id="polygon15"
       transform="matrix(0.03307292,0,0,0.03307292,-1.0197004e-6,-1.02e-6)" /><rect
       x="0.027912524"
       y="7.0710554"
       style="fill:#98dbf5;stroke-width:0.0330729;fill-opacity:1"
       width="2.5307066"
       height="6.1406488"
       id="rect15" /><path
       style="fill:#4d392f;stroke-width:0.0330729"
       d="m 1.6654189,15.537723 c -0.1541859,0 -0.2791354,0.124949 -0.2791354,0.279135 v 1.116476 h 0.5582378 v -1.116476 c 3.31e-5,-0.154186 -0.1249164,-0.279135 -0.2791024,-0.279135 z"
       id="path15" /><g
       id="g19"
       transform="matrix(0.03307292,0,0,0.03307292,-1.0197004e-6,-1.02e-6)">
	<path
   style="fill:#ffffff"
   d="m 50.356,452.923 c -4.662,0 -8.44,-3.778 -8.44,-8.44 V 433.23 c 0,-4.662 3.778,-8.44 8.44,-8.44 4.662,0 8.44,3.778 8.44,8.44 v 11.253 c 0,4.663 -3.778,8.44 -8.44,8.44 z"
   id="path16" />
	<path
   style="fill:#ffffff"
   d="m 50.356,357.275 c -4.662,0 -8.44,-3.778 -8.44,-8.44 v -11.253 c 0,-4.662 3.778,-8.44 8.44,-8.44 4.662,0 8.44,3.778 8.44,8.44 v 11.253 c 0,4.662 -3.778,8.44 -8.44,8.44 z"
   id="path17" />
	<path
   style="fill:#ffffff"
   d="m 50.356,312.264 c -4.662,0 -8.44,-3.778 -8.44,-8.44 v -11.253 c 0,-4.662 3.778,-8.44 8.44,-8.44 4.662,0 8.44,3.778 8.44,8.44 v 11.253 c 0,4.662 -3.778,8.44 -8.44,8.44 z"
   id="path18-6" />
	<path
   style="fill:#ffffff"
   d="m 50.356,267.253 c -4.662,0 -8.44,-3.778 -8.44,-8.44 V 247.56 c 0,-4.662 3.778,-8.44 8.44,-8.44 4.662,0 8.44,3.778 8.44,8.44 v 11.253 c 0,4.662 -3.778,8.44 -8.44,8.44 z"
   id="path19-7" />
</g><polygon
       style="fill:#ffc896;fill-opacity:1"
       points="198.892,512 221.398,123.78 176.387,123.78 142.629,317.89 176.387,512 "
       id="polygon19"
       transform="matrix(0.03307292,0,0,0.03307292,-1.0197004e-6,-1.02e-6)" /><rect
       x="3.3029253"
       y="4.0937648"
       style="fill:#ffdfbf;stroke-width:0.0330729;fill-opacity:1"
       width="2.5307066"
       height="12.839569"
       id="rect19" /><g
       id="g24"
       transform="matrix(0.03307292,0,0,0.03307292,-1.0197004e-6,-1.02e-6)">
	<path
   style="fill:#ffffff"
   d="m 149.38,357.275 c -4.662,0 -8.44,-3.778 -8.44,-8.44 v -11.253 c 0,-4.662 3.778,-8.44 8.44,-8.44 4.662,0 8.44,3.778 8.44,8.44 v 11.253 c 0,4.662 -3.778,8.44 -8.44,8.44 z"
   id="path20-5" />
	<path
   style="fill:#ffffff"
   d="m 149.38,312.264 c -4.662,0 -8.44,-3.778 -8.44,-8.44 v -11.253 c 0,-4.662 3.778,-8.44 8.44,-8.44 4.662,0 8.44,3.778 8.44,8.44 v 11.253 c 0,4.662 -3.778,8.44 -8.44,8.44 z"
   id="path21-3" />
	<path
   style="fill:#ffffff"
   d="m 149.38,267.253 c -4.662,0 -8.44,-3.778 -8.44,-8.44 V 247.56 c 0,-4.662 3.778,-8.44 8.44,-8.44 4.662,0 8.44,3.778 8.44,8.44 v 11.253 c 0,4.662 -3.778,8.44 -8.44,8.44 z"
   id="path22-5" />
	<path
   style="fill:#ffffff"
   d="m 149.38,222.242 c -4.662,0 -8.44,-3.778 -8.44,-8.44 v -11.253 c 0,-4.662 3.778,-8.44 8.44,-8.44 4.662,0 8.44,3.778 8.44,8.44 v 11.253 c 0,4.662 -3.778,8.44 -8.44,8.44 z"
   id="path23-6" />
	<path
   style="fill:#ffffff"
   d="m 149.38,177.231 c -4.662,0 -8.44,-3.778 -8.44,-8.44 v -11.253 c 0,-4.662 3.778,-8.44 8.44,-8.44 4.662,0 8.44,3.778 8.44,8.44 v 11.253 c 0,4.662 -3.778,8.44 -8.44,8.44 z"
   id="path24" />
</g><path
       style="fill:#b3efff;stroke-width:0.0330729"
       d="m 15.975013,2.9772894 h -1.116476 v 1.8608148 h 1.116476 c 0.513953,0 0.930407,-0.4164543 0.930407,-0.9304074 0,-0.5139532 -0.416454,-0.9304074 -0.930407,-0.9304074 z"
       id="path25" /><path
       style="fill:#d9f7ff;stroke-width:0.0330729"
       d="m 14.858537,2.9772894 h -1.674713 c -0.513953,0 -0.930407,0.4164542 -0.930407,0.9304074 0,0.5139531 0.416454,0.9304074 0.930407,0.9304074 h 1.674713 c 0.513954,0 0.930408,-0.4164543 0.930408,-0.9304074 0,-0.5139532 -0.416454,-0.9304074 -0.930408,-0.9304074 z"
       id="path26" /><path
       style="fill:#0f688a;stroke-width:0.0330729;fill-opacity:1"
       d="m 9.6110557,2.7912211 c 0,-0.6166446 -0.4998641,-1.1164756 -1.1164757,-1.1164756 L 7.750274,5.9546129 10.411222,5.2103068 V 2.7912211 Z"
       id="path27-2" /><path
       style="fill:#6ecbef;stroke-width:0.0330729;fill-opacity:1"
       d="M 7.3781044,2.7912211 H 6.5779713 V 5.2102737 L 8.4946131,5.9545798 V 1.6747124 c -0.6166776,0 -1.1165087,0.4998641 -1.1165087,1.1165087 z"
       id="path28-9" /><polygon
       style="fill:#0f688a;fill-opacity:1"
       points="198.892,450.11 281.037,512 314.796,512 314.796,416.352 256.844,393.846 198.892,416.352 "
       id="polygon28"
       transform="matrix(0.03307292,0,0,0.03307292,-1.0197004e-6,-1.02e-6)" /><rect
       x="6.5779381"
       y="14.886451"
       style="fill:#1e95d2;stroke-width:0.0330729;fill-opacity:1"
       width="2.7167749"
       height="2.0468831"
       id="rect28" /><polygon
       style="fill:#6ecbef;fill-opacity:1"
       points="314.796,157.538 281.037,157.538 258.532,286.945 281.037,416.352 314.796,416.352 "
       id="polygon29"
       transform="matrix(0.03307292,0,0,0.03307292,-1.0197004e-6,-1.02e-6)" /><rect
       x="6.5779381"
       y="5.2102404"
       style="fill:#26b0e6;stroke-width:0.0330729;fill-opacity:1"
       width="2.7167749"
       height="8.559701"
       id="rect29" /><circle
       style="fill:#326e7d;stroke-width:0.0330729"
       cx="8.4945803"
       cy="2.7912211"
       r="0.27913544"
       id="circle29" /><g
       id="g33"
       transform="matrix(0.03307292,0,0,0.03307292,-1.0197004e-6,-1.02e-6)">
	<path
   style="fill:#ffffff"
   d="m 256.844,391.033 c -4.662,0 -8.44,-3.778 -8.44,-8.44 V 371.34 c 0,-4.662 3.778,-8.44 8.44,-8.44 4.662,0 8.44,3.778 8.44,8.44 v 11.253 c 0,4.662 -3.778,8.44 -8.44,8.44 z"
   id="path29" />
	<path
   style="fill:#ffffff"
   d="m 256.844,346.022 c -4.662,0 -8.44,-3.778 -8.44,-8.44 V 326.33 c 0,-4.662 3.778,-8.44 8.44,-8.44 4.662,0 8.44,3.778 8.44,8.44 v 11.253 c 0,4.661 -3.778,8.439 -8.44,8.439 z"
   id="path30" />
	<path
   style="fill:#ffffff"
   d="m 256.844,301.011 c -4.662,0 -8.44,-3.778 -8.44,-8.44 v -11.253 c 0,-4.662 3.778,-8.44 8.44,-8.44 4.662,0 8.44,3.778 8.44,8.44 v 11.253 c 0,4.662 -3.778,8.44 -8.44,8.44 z"
   id="path31" />
	<path
   style="fill:#ffffff"
   d="m 256.844,256 c -4.662,0 -8.44,-3.778 -8.44,-8.44 v -11.253 c 0,-4.662 3.778,-8.44 8.44,-8.44 4.662,0 8.44,3.778 8.44,8.44 v 11.253 c 0,4.662 -3.778,8.44 -8.44,8.44 z"
   id="path32" />
	<path
   style="fill:#ffffff"
   d="m 256.844,210.989 c -4.662,0 -8.44,-3.778 -8.44,-8.44 v -11.253 c 0,-4.662 3.778,-8.44 8.44,-8.44 4.662,0 8.44,3.778 8.44,8.44 v 11.253 c 0,4.662 -3.778,8.44 -8.44,8.44 z"
   id="path33" />
</g><path
       style="fill:#66defe;stroke-width:0.0330729"
       d="M 9.2947132,4.3729005 H 7.6944138 c -0.1541859,0 -0.2791354,-0.1249495 -0.2791354,-0.2791355 0,-0.1541859 0.1249495,-0.2791354 0.2791354,-0.2791354 h 1.6002994 c 0.154186,0 0.2791354,0.1249495 0.2791354,0.2791354 0,0.154186 -0.1249494,0.2791355 -0.2791354,0.2791355 z"
       id="path34" /><path
       style="fill:#b3efff;stroke-width:0.0330729"
       d="M 10.504256,14.049078 H 6.4849041 c -0.154186,0 -0.2791355,-0.12495 -0.2791355,-0.279136 0,-0.154186 0.1249495,-0.279135 0.2791355,-0.279135 h 4.0193519 c 0.154186,0 0.279135,0.124949 0.279135,0.279135 0,0.154186 -0.124949,0.279136 -0.279135,0.279136 z"
       id="path35" /><path
       style="fill:#326e7d;stroke-width:0.0330729"
       d="m 8.49458,15.537723 c -0.1541859,0 -0.2791354,0.124949 -0.2791354,0.279135 v 1.116476 H 8.7736824 V 15.816858 C 8.7737155,15.662672 8.648766,15.537723 8.49458,15.537723 Z"
       id="path36" /></g></svg>
