<?xml version="1.0" encoding="UTF-8" standalone="no"?>
<!-- Created with Inkscape (http://www.inkscape.org/) -->

<svg
   width="64"
   height="64"
   viewBox="0 0 16.933333 16.933333"
   version="1.1"
   id="svg1"
   inkscape:version="1.4.2 (ebf0e940d0, 2025-05-08)"
   sodipodi:docname="new-reason-logo.svg"
   xml:space="preserve"
   xmlns:inkscape="http://www.inkscape.org/namespaces/inkscape"
   xmlns:sodipodi="http://sodipodi.sourceforge.net/DTD/sodipodi-0.dtd"
   xmlns="http://www.w3.org/2000/svg"
   xmlns:svg="http://www.w3.org/2000/svg"><sodipodi:namedview
     id="namedview1"
     pagecolor="#ffffff"
     bordercolor="#000000"
     borderopacity="0.25"
     inkscape:showpageshadow="false"
     inkscape:pageopacity="0.0"
     inkscape:pagecheckerboard="0"
     inkscape:deskcolor="#d1d1d1"
     inkscape:document-units="px"
     inkscape:zoom="13.280349"
     inkscape:cx="31.738623"
     inkscape:cy="31.399777"
     inkscape:window-width="2520"
     inkscape:window-height="1404"
     inkscape:window-x="2600"
     inkscape:window-y="0"
     inkscape:window-maximized="1"
     inkscape:current-layer="layer1" /><defs
     id="defs1">
	
	

	
		
	
</defs><g
     inkscape:label="Livello 1"
     inkscape:groupmode="layer"
     id="layer1"><polygon
       style="fill:#bbc1c8;fill-opacity:1"
       points="398.975,403.673 290.649,512 15.622,512 15.622,0 398.975,0 "
       id="polygon1"
       transform="matrix(0.03203936,0,0,0.03203936,0.250497,0.26459034)" /><polygon
       style="fill:#a8a8a8;fill-opacity:1"
       points="398.975,403.673 290.649,512 207.299,512 207.299,0 398.975,0 "
       id="polygon2"
       transform="matrix(0.03203936,0,0,0.03203936,0.250497,0.26459034)" /><polygon
       style="fill:#888888;fill-opacity:1"
       points="290.649,403.673 398.975,403.673 290.649,512 "
       id="polygon3"
       transform="matrix(0.03203936,0,0,0.03203936,0.250497,0.26459034)" /><polygon
       style="fill:#eeba7d"
       points="166.194,330.185 260.84,304.686 442.863,122.663 373.716,53.515 191.693,235.539 "
       id="polygon4-3"
       transform="matrix(0.03203936,0,0,0.03203936,0.278672,4.2091271)" /><polygon
       style="fill:#e68d2c"
       points="408.29,88.089 166.194,330.185 260.84,304.686 442.863,122.663 "
       id="polygon5-6"
       transform="matrix(0.03203936,0,0,0.03203936,0.278672,4.2091271)" /><path
       style="fill:#4ad74e;fill-opacity:1;stroke-width:0.0320394"
       d="M 13.360023,7.0314423 12.252294,5.9237455 6.974257,11.201749 c -0.305911,0.305912 -0.305911,0.80185 0,1.107697 0.3059126,0.305912 0.8018498,0.305912 1.1076975,0 -0.3059118,0.305912 -0.3059118,0.801849 0,1.107697 0.3059119,0.305912 0.8018491,0.305912 1.1076968,0 L 14.467687,8.1391071 Z"
       id="path5" /><path
       style="fill:#28b62c;fill-opacity:1;stroke-width:0.0320394"
       d="m 9.1896513,13.417207 c -0.3059118,0.305912 -0.801849,0.305912 -1.1076968,0 -0.3059118,-0.305912 -0.3059118,-0.801849 0,-1.107697 l 5.2780685,-5.2780677 1.107696,1.1076968 z"
       id="path6-7" /><path
       style="fill:#ff7b72;fill-opacity:1;stroke-width:0.0320394"
       d="M 15.948771,5.5305265 14.860939,4.44263 c -0.311359,-0.3113585 -0.816171,-0.3113585 -1.127562,0 l -0.843532,0.8435323 2.215426,2.2154256 0.843532,-0.8435323 c 0.311358,-0.3113585 0.311358,-0.8161706 -3.2e-5,-1.1275291 z"
       id="path7-5" /><path
       style="fill:#ff4136;fill-opacity:1;stroke-width:0.0320394"
       d="M 15.948771,5.5305265 15.404839,4.9865943 c -0.283933,0.2839328 -1.407297,1.4072968 -1.407297,1.4072968 l 1.107697,1.1076968 0.843532,-0.8435323 c 0.31139,-0.3113585 0.31139,-0.8161706 0,-1.1275291 z"
       id="path8-3" /><rect
       x="-16.283705"
       y="4.2844334"
       transform="rotate(-135)"
       style="fill:#9d9d9d;fill-opacity:1;stroke-width:0.0320391"
       width="3.7293775"
       height="1.5073732"
       id="rect8" /><rect
       x="-16.283413"
       y="4.2843738"
       transform="rotate(-135)"
       style="fill:#818181;stroke-width:0.0320391"
       width="1.8646728"
       height="1.5073732"
       id="rect9" /><polygon
       style="fill:#999999;fill-opacity:1"
       points="217.884,316.258 180.121,278.495 166.194,330.185 "
       id="polygon9-6"
       transform="matrix(0.03203936,0,0,0.03203936,0.278672,4.2091271)" /><polygon
       style="fill:#555555;fill-opacity:1"
       points="199.002,297.377 166.194,330.185 217.884,316.258 "
       id="polygon10-2"
       transform="matrix(0.03203936,0,0,0.03203936,0.278672,4.2091271)" /><path
       style="font-weight:bold;font-stretch:condensed;font-size:6.02757px;font-family:'Barlow Condensed';-inkscape-font-specification:'Barlow Condensed,  Bold Condensed';letter-spacing:0px;fill:#28b62c;stroke-width:0.169525;stroke-linecap:round;stroke-linejoin:round;fill-opacity:1"
       d="m 3.473238,9.7929889 q -0.03014,0 -0.05425,-0.018083 -0.01808,-0.02411 -0.01808,-0.054248 v -0.192882 q 0,-0.3013785 0.120551,-0.4822056 0.126579,-0.1868547 0.361654,-0.391792 0.192883,-0.168772 0.283296,-0.2893234 0.09041,-0.126579 0.09041,-0.3074061 0,-0.1928822 -0.09644,-0.307406 -0.09041,-0.1205514 -0.241103,-0.1205514 -0.1748,0 -0.277268,0.126579 -0.102469,0.1205514 -0.102469,0.3254887 v 0.096441 q 0,0.066303 -0.07233,0.066303 L 2.761983,8.2137651 q -0.03014,0 -0.05425,-0.018083 -0.01808,-0.02411 -0.01808,-0.054248 v -0.060275 q 0,-0.3616542 0.156716,-0.6389224 0.156717,-0.2832957 0.440013,-0.433985 0.283296,-0.1567168 0.650977,-0.1567168 0.536454,0 0.855915,0.3254888 0.319462,0.3194612 0.319462,0.8498873 0,0.2652131 -0.07836,0.4580953 Q 4.962046,8.671861 4.853549,8.7924124 4.75108,8.9129638 4.582308,9.0576254 4.407509,9.2083147 4.323123,9.3168109 4.244763,9.4253072 4.244763,9.582024 v 0.1386341 q 0,0.030138 -0.02411,0.054248 -0.01808,0.018083 -0.04822,0.018083 z m 0.349599,1.3501751 q -0.204938,0 -0.337544,-0.132606 -0.132607,-0.132607 -0.132607,-0.343572 0,-0.210964 0.132607,-0.337543 0.132606,-0.132607 0.337544,-0.132607 0.210965,0 0.343571,0.132607 0.132607,0.132606 0.132607,0.337543 0,0.204938 -0.132607,0.343572 -0.132606,0.132606 -0.343571,0.132606 z"
       id="text1"
       aria-label="?" /></g></svg>
