<?xml version="1.0" encoding="UTF-8" standalone="no"?>
<!-- Created with Inkscape (http://www.inkscape.org/) -->

<svg
   width="64"
   height="64"
   viewBox="0 0 16.933333 16.933333"
   version="1.1"
   id="svg4981"
   inkscape:version="1.4.2 (ebf0e940d0, 2025-05-08)"
   sodipodi:docname="user_avatar_male.svg"
   xml:space="preserve"
   xmlns:inkscape="http://www.inkscape.org/namespaces/inkscape"
   xmlns:sodipodi="http://sodipodi.sourceforge.net/DTD/sodipodi-0.dtd"
   xmlns="http://www.w3.org/2000/svg"
   xmlns:svg="http://www.w3.org/2000/svg"><sodipodi:namedview
     id="namedview4983"
     pagecolor="#ffffff"
     bordercolor="#000000"
     borderopacity="0.25"
     inkscape:showpageshadow="false"
     inkscape:pageopacity="0.0"
     inkscape:pagecheckerboard="0"
     inkscape:deskcolor="#d1d1d1"
     inkscape:document-units="px"
     showgrid="false"
     inkscape:zoom="11.266749"
     inkscape:cx="18.683295"
     inkscape:cy="47.573615"
     inkscape:window-width="2520"
     inkscape:window-height="1404"
     inkscape:window-x="2600"
     inkscape:window-y="0"
     inkscape:window-maximized="1"
     inkscape:current-layer="layer1" /><defs
     id="defs4978"><style
       id="style1">.cls-1{fill:#84d0f7;}.cls-2{fill:#aa392d;}.cls-3{fill:#7c211a;}.cls-4{fill:#e59973;}.cls-5{fill:#2d2d2d;}.cls-6{opacity:0.2;}.cls-7{opacity:0.3;}</style></defs><g
     inkscape:label="Livello 1"
     inkscape:groupmode="layer"
     id="layer1"><path
       class="cls-1"
       d="m 16.936236,8.4680526 a 8.4353605,8.4353605 0 0 1 -1.982418,5.4436494 8.7288974,8.7288974 0 0 1 -0.645503,0.686542 H 2.6649165 A 7.1415722,7.1415722 0 0 1 2.0388899,13.98126 C 2.0214999,13.96178 2.0027199,13.93952 1.9811559,13.9117 1.4942468,13.332279 -0.08125346,11.278216 1.299919e-4,8.4680526 0.11351036,4.5748628 3.3869338,-4.5e-7 8.4688786,-4.5e-7 A 8.4673574,8.4673574 0 0 1 16.936236,8.4680526 Z"
       id="Wallpaper"
       style="stroke-width:0.0695585;fill:#dee2e6;fill-opacity:1" /><path
       class="cls-2"
       d="m 14.953818,13.911702 a 8.5911716,8.5911716 0 0 1 -0.645503,0.685846 8.4430119,8.4430119 0 0 1 -5.8429143,2.335775 c -2.7531259,0 -4.8148401,-1.460728 -5.8011798,-2.335775 A 7.478931,7.478931 0 0 1 2.0388899,13.98126 c -0.016694,-0.02017 -0.036866,-0.04174 -0.056342,-0.06956 0.943909,-0.952256 2.2154386,-1.691663 3.6789496,-2.110406 0.4103952,1.019728 1.512202,1.750092 2.8045991,1.750092 1.2019711,0 2.2376974,-0.6302 2.7058254,-1.536547 0.03687,-0.06956 0.06956,-0.139117 0.09877,-0.213545 0.02782,0.0077 0.04452,0.01182 0.07999,0.02295 1.432209,0.422915 2.675916,1.15328 3.60313,2.087451 z"
       id="Sweater"
       style="stroke-width:0.0695585;fill:#158cba;fill-opacity:1" /><path
       class="cls-3"
       d="m 11.271391,11.800601 c -0.02921,0.06956 -0.06191,0.14329 -0.09877,0.213544 -0.468129,0.904261 -1.5038551,1.536548 -2.7058262,1.536548 -1.2923971,0 -2.3942039,-0.730364 -2.8045991,-1.750092 l 0.1850256,-0.05147 0.015303,-0.0042 c 0,0 0.1238142,-0.03269 0.2378901,-0.05843 a 2.6307028,2.6307028 0 0 0 4.7334566,0 1.9476383,1.9476383 0 0 1 0.437523,0.114076 z"
       id="Neckband"
       style="stroke-width:0.0695585;fill:#e83e8c;fill-opacity:1" /><path
       class="cls-4"
       d="m 10.833868,11.685829 a 2.6307028,2.6307028 0 0 1 -4.7299788,0 c 0.093904,-0.02365 0.187808,-0.04313 0.2831032,-0.0633 l 0.069559,-0.01391 a 0.25110622,0.25110622 0 0 1 0.035475,-0.0077 c 0.020172,-0.0049 0.040344,-0.0077 0.05982,-0.01252 l 0.08347,-0.01391 0.063298,-0.01252 h 0.00626 c 0.024345,-0.05982 0.0473,-0.12451 0.069559,-0.195459 0.00765,-0.02295 0.015998,-0.04939 0.02365,-0.07373 0.027128,-0.101556 0.0473,-0.197547 0.061212,-0.282408 a 2.7823404,2.7823404 0 0 0 0.4792581,0.319274 0.37909388,0.37909388 0 0 1 0.036866,0.02017 c 0.013912,0.0063 0.029215,0.01391 0.043126,0.02156 l 0.052865,0.02435 c 0.010434,0.0049 0.021563,0.009 0.030606,0.01391 l 0.026432,0.01252 0.031997,0.01391 0.030606,0.01252 a 0.06955851,0.06955851 0 0 0 0.013912,0.0056 0.33040292,0.33040292 0 0 0 0.037562,0.01391 c 0.013216,0.0063 0.029215,0.01252 0.045909,0.01878 v 0 c 0.01739,0.0063 0.032692,0.01252 0.050778,0.01809 a 0.09877308,0.09877308 0 0 0 0.011129,0.0035 l 0.035475,0.01252 c 0.018781,0.0042 0.035475,0.01043 0.05356,0.0153 0.018085,0.0049 0.015998,0.0042 0.025041,0.0063 l 0.049387,0.01391 a 2.5041064,2.5041064 0 0 0 0.3144044,0.05495 c 0.010434,0 0.021563,0 0.031997,0.0035 h 0.022954 0.043126 0.038953 0.044517 0.038257 a 2.1166655,2.1166655 0 0 0 0.6754132,-0.112685 0.0048691,0.0048691 0 0 0 0.00417,0 0.11824947,0.11824947 0 0 0 0.025041,-0.0077 c 0.055647,-0.01878 0.1043378,-0.03895 0.1474641,-0.05565 l 0.059125,-0.02435 0.015303,-0.0063 a 2.6800894,2.6800894 0 0 0 0.6858468,-0.425698 c 0.02156,0.09599 0.0473,0.197546 0.07999,0.30397 0.02921,0.0953 0.05982,0.185026 0.09043,0.269192 0.02643,0.0049 0.05147,0.0083 0.07721,0.01391 l 0.07582,0.01391 0.07512,0.01391 0.05565,0.01113 c 0.01252,0 0.02504,0.0063 0.03687,0.0077 0.09599,0.02713 0.189895,0.0466 0.282408,0.06956 z"
       id="Neck"
       style="stroke-width:0.0695585" /><path
       class="cls-5"
       d="M 5.0994644,6.1357557 A 4.704242,4.704242 0 0 0 5.0299059,7.196523 c 0,0.069559 0.00765,0.1432905 0.015998,0.2135446 0,0.026432 0.00417,0.054256 0.00765,0.080688 C 4.9067873,7.4135455 4.8448802,7.0734044 4.7314998,6.428597 4.6619413,6.0223753 4.6236842,5.8185689 4.6341179,5.5938949 A 2.5527973,2.5527973 0 0 1 4.9179166,4.6075553 1.2277077,1.2277077 0 0 0 5.3505706,5.2544494 4.7939725,4.7939725 0 0 0 5.0994644,6.1357557 Z"
       id="Hairs"
       style="stroke-width:0.0695585" /><path
       class="cls-5"
       d="m 12.198606,6.428597 c -0.05495,0.3144045 -0.09808,0.5564681 -0.144682,0.7289732 -0.04939,0.187808 -0.102946,0.2977105 -0.181548,0.3345765 0.01182,-0.1112937 0.02156,-0.2205005 0.02574,-0.3310985 A 4.6339879,4.6339879 0 0 0 11.833424,6.1357557 4.5727764,4.5727764 0 0 0 11.654658,5.4519956 c 0,0 0,-0.00487 0,-0.00626 a 5.7657049,5.7657049 0 0 0 0.539774,-0.4069173 2.5270607,2.5270607 0 0 1 0.105034,0.5564681 v 0 c 0.009,0.224674 -0.02852,0.4284804 -0.10086,0.8333106 z"
       data-name="Hairs"
       id="Hairs-2"
       style="stroke-width:0.0695585" /><path
       class="cls-6"
       d="m 11.351383,11.824946 c -0.05704,0.06956 -0.116858,0.129379 -0.178765,0.190591 A 3.7478125,3.7478125 0 0 1 10.736486,12.39463 3.0257952,3.0257952 0 0 1 10.077071,12.769551 2.4915858,2.4915858 0 0 1 9.6179852,12.90519 2.1869196,2.1869196 0 0 1 9.1971562,12.942056 2.2557825,2.2557825 0 0 1 8.3916686,12.773724 0.38465856,0.38465856 0 0 1 8.3464556,12.754248 2.9256309,2.9256309 0 0 1 7.76912,12.425932 4.1408181,4.1408181 0 0 1 6.8892048,11.533496 c -0.040344,-0.05356 -0.078601,-0.107816 -0.1175539,-0.164854 0.00765,-0.02295 0.015999,-0.04939 0.02365,-0.07373 0.027128,-0.101555 0.0473,-0.197546 0.061212,-0.282407 q 0.060516,0.04869 0.1252053,0.09599 a 3.26925,3.26925 0 0 0 0.3540529,0.223282 0.37909388,0.37909388 0 0 1 0.036866,0.02017 c 0.013912,0.0063 0.029215,0.01391 0.043126,0.02156 l 0.052865,0.02435 c 0.010434,0.0049 0.021563,0.009 0.030606,0.01391 l 0.026432,0.01252 0.031997,0.01391 0.030606,0.01252 a 0.06955851,0.06955851 0 0 0 0.013912,0.0056 l 0.037562,0.01391 0.045909,0.01878 v 0 l 0.050778,0.01808 a 0.09877308,0.09877308 0 0 0 0.011129,0.0035 l 0.035475,0.01252 c 0.018781,0.0042 0.035475,0.01043 0.05356,0.0153 0.018085,0.0049 0.015999,0.0042 0.025041,0.0063 l 0.049387,0.01391 a 2.1695299,2.1695299 0 0 0 0.3144045,0.05495 c 0.010434,0 0.021563,0 0.031997,0.0035 h 0.022954 0.043126 0.038953 0.044517 0.038257 a 2.2070915,2.2070915 0 0 0 0.6754131,-0.112684 0.0048691,0.0048691 0 0 0 0.00417,0 0.11824947,0.11824947 0 0 0 0.025041,-0.0077 c 0.045909,-0.0153 0.091122,-0.03269 0.1356391,-0.05078 l 0.013912,-0.0049 0.057038,-0.02434 0.015303,-0.0063 A 3.2073429,3.2073429 0 0 0 9.944909,11.070917 c 0.038257,-0.02713 0.075123,-0.05704 0.112685,-0.08625 0.02156,0.09599 0.0473,0.197547 0.07999,0.303971 0.02922,0.0953 0.05982,0.185026 0.09043,0.269192 0.02643,0.0049 0.05147,0.0083 0.07721,0.01391 l 0.07582,0.01391 0.07512,0.01391 0.05565,0.01113 c 0.01252,0 0.02504,0.0063 0.03687,0.0077 0.09599,0.02017 0.189895,0.03965 0.282408,0.0633 0.147464,0.03339 0.294232,0.06956 0.437523,0.114076 z"
       id="NeckShadow"
       style="stroke-width:0.0695585" /><path
       class="cls-4"
       d="m 12.501881,7.915758 c -0.01113,0.3603131 -0.241368,0.7254952 -0.49943,0.8597432 a 0.48690957,0.48690957 0 0 1 -0.109207,0.041735 0.03686601,0.03686601 0 0 1 -0.0083,0 0.33735877,0.33735877 0 0 1 -0.139117,0.00417 0.34779255,0.34779255 0 0 1 -0.139117,-0.061211 l -0.01948,-0.013912 a 0.54394755,0.54394755 0 0 1 -0.07791,-0.07721 C 11.32356,8.4450982 11.247741,8.0249648 11.370164,7.6896928 a 1.0183366,1.0183366 0 0 1 0.224674,-0.3477925 0.62602659,0.62602659 0 0 1 0.307449,-0.1801566 0.40761287,0.40761287 0 0 1 0.164158,0 c 0.303275,0.059125 0.444479,0.4521304 0.435436,0.7540143 z"
       id="RightEar"
       style="stroke-width:0.0695585" /><path
       class="cls-7"
       d="m 12.501185,7.915758 c -0.01043,0.3603131 -0.240672,0.7254952 -0.498734,0.8597432 a 0.48690957,0.48690957 0 0 1 -0.109207,0.041735 0.03686601,0.03686601 0 0 1 -0.0083,0 0.33735877,0.33735877 0 0 1 -0.139117,0.00417 0.34779255,0.34779255 0 0 1 -0.139117,-0.061211 l -0.01948,-0.013912 a 0.54394755,0.54394755 0 0 1 -0.07791,-0.07721 C 11.32356,8.4450982 11.247741,8.0249648 11.370164,7.6896928 a 1.0183366,1.0183366 0 0 1 0.224674,-0.3477925 0.62602659,0.62602659 0 0 1 0.307449,-0.1801566 0.40761287,0.40761287 0 0 1 0.164158,0 c 0.303275,0.059125 0.444479,0.4521304 0.43474,0.7540143 z"
       id="RightEarShadow"
       style="stroke-width:0.0695585" /><path
       class="cls-4"
       d="M 5.4270849,8.6711634 A 0.52377558,0.52377558 0 0 1 5.329703,8.7629806 0.35544399,0.35544399 0 0 1 5.190586,8.8234965 0.33735877,0.33735877 0 0 1 5.051469,8.819323 H 5.043122 A 0.47647579,0.47647579 0 0 1 4.9339151,8.7775879 C 4.675853,8.64334 4.4470055,8.2781578 4.434485,7.9178447 4.4254424,7.6159608 4.5666462,7.2222596 4.8727036,7.1617437 5.0472955,7.1269645 5.2135403,7.2111303 5.3450059,7.3425959 a 1.0183366,1.0183366 0 0 1 0.224674,0.3477925 c 0.118945,0.3366632 0.043126,0.7567966 -0.142595,0.980775 z"
       id="LeftEar"
       style="stroke-width:0.0695585" /><path
       class="cls-4"
       d="m 11.898113,7.1645261 c -0.0042,0.110598 -0.01391,0.2198049 -0.02574,0.3310985 a 5.5646808,5.5646808 0 0 1 -0.290059,1.2520532 c -0.323447,0.9091297 -0.867394,1.7153132 -1.52194,2.2418712 -0.03756,0.02921 -0.074427,0.05912 -0.1126845,0.08625 a 3.2073429,3.2073429 0 0 1 -0.5731621,0.339446 l -0.015303,0.0063 -0.057038,0.02435 -0.013912,0.0049 c -0.044517,0.01809 -0.08973,0.03547 -0.1356391,0.05078 a 0.11824947,0.11824947 0 0 1 -0.025041,0.0077 0.0048691,0.0048691 0 0 1 -0.00417,0 2.2070915,2.2070915 0 0 1 -0.6754132,0.112684 h -0.038257 -0.044517 -0.038953 -0.043126 -0.022954 c -0.010434,0 -0.021563,0 -0.031997,-0.0035 a 2.1695299,2.1695299 0 0 1 -0.3144044,-0.05495 l -0.049387,-0.01391 c -0.00904,0 -0.016694,-0.0049 -0.025041,-0.0063 -0.00835,-0.0014 -0.034779,-0.01113 -0.05356,-0.0153 l -0.035475,-0.01252 a 0.09877308,0.09877308 0 0 1 -0.011129,-0.0035 l -0.050778,-0.01809 v 0 l -0.045909,-0.01878 -0.037562,-0.01391 a 0.06955851,0.06955851 0 0 1 -0.013912,-0.0056 l -0.030606,-0.01252 -0.031997,-0.01391 -0.026432,-0.01252 c -0.00904,-0.0049 -0.020172,-0.009 -0.030606,-0.01391 l -0.052865,-0.02435 c -0.013912,-0.0077 -0.029215,-0.0153 -0.043126,-0.02156 A 0.37909388,0.37909388 0 0 0 7.3385528,11.336646 3.26925,3.26925 0 0 1 6.9845,11.113363 q -0.064689,-0.0473 -0.1252053,-0.09599 A 3.9863982,3.9863982 0 0 1 6.2631782,10.426125 5.4506048,5.4506048 0 0 1 5.3157913,8.6871619 5.5758102,5.5758102 0 0 1 5.0584248,7.4977113 c -0.00348,-0.026432 -0.00626,-0.054256 -0.00765,-0.080688 -0.00835,-0.069559 -0.01252,-0.139117 -0.015998,-0.2135447 A 4.704242,4.704242 0 0 1 5.1043335,6.1427116 4.7939725,4.7939725 0 0 1 5.3568308,5.2614052 C 5.403435,5.1396779 5.4556039,5.0179505 5.5126419,4.8983098 A 4.5428663,4.5428663 0 0 1 6.6951366,3.338808 C 6.7166996,3.320027 6.7382626,3.303333 6.7598256,3.286639 A 2.7663419,2.7663419 0 0 1 8.4584448,2.6696552 c 0.6774999,0 1.2784854,0.2573665 1.7806982,0.6677617 a 4.0601302,4.0601302 0 0 1 0.710888,0.756101 5.1528944,5.1528944 0 0 1 0.598898,1.0753745 c 0.03687,0.095991 0.07443,0.1885036 0.106425,0.2837987 0,0 0,0.00487 0,0.00626 a 4.5727764,4.5727764 0 0 1 0.178765,0.6837602 4.6339879,4.6339879 0 0 1 0.06399,1.0218145 z"
       id="Head"
       style="stroke-width:0.0695585" /><path
       class="cls-6"
       d="m 12.295988,5.5938949 v 0 a 1.7466142,1.7466142 0 0 1 -0.237195,0.2086756 c -0.0063,0.00626 -0.03895,0.027823 -0.07999,0.057038 -0.06956,0.044518 -0.139117,0.08973 -0.208676,0.1328568 A 5.2308,5.2308 0 0 1 10.839433,6.4376397 5.329573,5.329573 0 0 1 6.5337608,6.1281043 C 6.3786454,6.0432429 6.2277034,5.9507301 6.0823261,5.8498702 6.0329396,5.8157866 5.9856398,5.7803117 5.9376444,5.7469236 A 4.4447888,4.4447888 0 0 1 5.5710711,5.4492132 C 5.5154242,5.3998267 5.4597774,5.349049 5.4076086,5.2968801 A 2.8338137,2.8338137 0 0 0 6.0162455,5.6446726 C 6.4648979,5.8422188 6.9991073,5.9924652 7.5187093,6.1315822 A 5.1042035,5.1042035 0 0 0 8.9008369,6.3402577 4.5720809,4.5720809 0 0 0 10.292007,6.1315822 3.8785825,3.8785825 0 0 0 10.886732,5.8832583 c 0.09112,-0.044517 0.182244,-0.093904 0.278234,-0.1446817 0.181548,-0.098773 0.340142,-0.1940682 0.48691,-0.2942325 a 5.7524888,5.7524888 0 0 0 0.531427,-0.4020482 2.2724765,2.2724765 0 0 1 0.112685,0.551599 z"
       id="HairsShadow"
       style="stroke-width:0.0695585" /><path
       class="cls-5"
       d="M 13.386665,3.5363542 C 13.382492,3.9251863 13.01731,4.2792391 12.910885,4.3794033 12.638216,4.638161 12.412846,4.85101 12.190954,5.038818 l -0.0063,0.00487 a 5.7524888,5.7524888 0 0 1 -0.531427,0.4020482 c -0.148159,0.1001643 -0.306753,0.1954594 -0.486909,0.2942325 -0.0939,0.050778 -0.185026,0.1001642 -0.278234,0.1446817 A 3.8785825,3.8785825 0 0 1 10.293398,6.1329734 4.5720809,4.5720809 0 0 1 8.9022281,6.3416489 5.1042035,5.1042035 0 0 1 7.5201005,6.1329734 C 7.0004984,5.9875961 6.4662891,5.840132 6.0176367,5.6460638 A 2.8338137,2.8338137 0 0 1 5.4089997,5.2982713 v 0 C 5.3902189,5.2822728 5.3721337,5.2690567 5.3533529,5.2530582 A 1.2277077,1.2277077 0 0 1 4.920699,4.6061641 v 0 C 4.7551497,3.9495317 5.2344079,3.2977685 5.3081399,3.199691 a 2.1055361,2.1055361 0 0 1 0.8660034,-0.65385 c 0.6482854,-0.2740605 0.9487781,-0.05982 2.3587291,0 1.2520532,0.054256 1.8780796,0.082079 2.4714136,-0.1495508 0.239282,-0.093904 0.685847,-0.3004927 0.765144,-0.1891991 0.0633,0.089035 -0.120336,0.3540528 -0.163463,0.417351 -0.161375,0.2323255 -0.297014,0.2956237 -0.278234,0.3477926 0.03547,0.089035 0.42709,0.045909 0.753319,-0.049387 0.347793,-0.1015554 0.477867,-0.2218916 0.539078,-0.1634625 0.08347,0.078601 -0.04104,0.4173511 -0.251106,0.6399383 -0.150942,0.1613758 -0.290754,0.2086756 -0.278234,0.2629312 0.02017,0.074428 0.289364,0.1001643 0.539079,0.036866 0.394396,-0.098078 0.594725,-0.3867453 0.706019,-0.3137089 0.0306,0.018781 0.05217,0.059125 0.05078,0.150942 z"
       data-name="Hairs"
       id="Hairs-3"
       style="stroke-width:0.0695585" /></g></svg>
