<?xml version="1.0" encoding="UTF-8" standalone="no"?>
<!-- Created with Inkscape (http://www.inkscape.org/) -->

<svg
   width="64"
   height="64"
   viewBox="0 0 16.933333 16.933333"
   version="1.1"
   id="svg4981"
   inkscape:version="1.4.2 (ebf0e940d0, 2025-05-08)"
   sodipodi:docname="user_avatar_female.svg"
   xml:space="preserve"
   xmlns:inkscape="http://www.inkscape.org/namespaces/inkscape"
   xmlns:sodipodi="http://sodipodi.sourceforge.net/DTD/sodipodi-0.dtd"
   xmlns="http://www.w3.org/2000/svg"
   xmlns:svg="http://www.w3.org/2000/svg"><sodipodi:namedview
     id="namedview4983"
     pagecolor="#ffffff"
     bordercolor="#000000"
     borderopacity="0.25"
     inkscape:showpageshadow="false"
     inkscape:pageopacity="0.0"
     inkscape:pagecheckerboard="0"
     inkscape:deskcolor="#d1d1d1"
     inkscape:document-units="px"
     showgrid="false"
     inkscape:zoom="15.93359"
     inkscape:cx="26.641831"
     inkscape:cy="30.31332"
     inkscape:window-width="2520"
     inkscape:window-height="1404"
     inkscape:window-x="2600"
     inkscape:window-y="0"
     inkscape:window-maximized="1"
     inkscape:current-layer="layer1" /><defs
     id="defs4978"><style
       id="style1">.cls-1{fill:#84d0f7;}.cls-2{fill:#aa392d;}.cls-3{fill:#7c211a;}.cls-4{fill:#e59973;}.cls-5{fill:#2d2d2d;}.cls-6{opacity:0.2;}.cls-7{opacity:0.3;}</style><style
       id="style1-5">.cls-1{fill:#84d0f7;}.cls-2{fill:#2d2d2d;}.cls-3{fill:#050505;}.cls-3,.cls-7{opacity:0.2;}.cls-4{fill:#aa392d;}.cls-5{fill:#7c211a;}.cls-6{fill:#eab198;}.cls-8{opacity:0.3;}</style></defs><g
     inkscape:label="Livello 1"
     inkscape:groupmode="layer"
     id="layer1"><path
       class="cls-1"
       d="M 16.934527,8.4680566 A 8.4583251,8.4583251 0 0 1 14.306462,14.599282 H 2.6654043 A 7.1953802,7.1953802 0 0 1 2.0398399,13.978583 l -0.056996,-0.06951 C 1.496294,13.330082 -0.08012814,11.276145 0.0018903,8.4659714 0.11379681,4.5742661 3.3854984,5.505e-7 8.4671661,5.505e-7 A 8.467361,8.467361 0 0 1 16.934527,8.4680566 Z"
       id="Wallpaper-9"
       style="stroke-width:0.0695072;fill:#ced4da;fill-opacity:1;stroke:none" /><circle
       class="cls-2"
       cx="8.45257"
       cy="2.4306655"
       id="Chignon"
       r="1.5507045"
       style="stroke-width:0.0695072" /><circle
       class="cls-3"
       cx="8.45257"
       cy="2.4306655"
       id="ChignonShadow"
       r="1.5507045"
       style="stroke-width:0.0695072" /><path
       class="cls-4"
       d="m 14.950793,13.910466 a 8.2546691,8.2546691 0 0 1 -0.644331,0.687426 8.4645807,8.4645807 0 0 1 -5.8386008,2.33544 c -1.8030155,0 -3.3085404,-0.625564 -4.4109238,-1.304649 A 9.9193654,9.9193654 0 0 1 2.6667944,14.597892 6.940984,6.940984 0 0 1 2.0412301,13.976498 c -0.016682,-0.01877 -0.036839,-0.04101 -0.057691,-0.06951 A 7.7743747,7.7743747 0 0 1 3.7406799,12.586355 9.1242036,9.1242036 0 0 1 5.6639427,11.793279 Q 7.0610365,13.027726 8.4546548,14.260783 9.86565,13.026336 11.27317,11.793279 c 0.01946,0.0063 0.03962,0.01112 0.05908,0.01668 a 0.06186136,0.06186136 0 0 0 0.02016,0.0063 9.3452363,9.3452363 0 0 1 1.841244,0.764579 7.902963,7.902963 0 0 1 1.757141,1.329671 z"
       id="Sweater-2"
       style="stroke-width:0.0695072;fill:#158cba;fill-opacity:1" /><path
       class="cls-5"
       d="M 11.270389,11.800229 Q 9.8621746,13.034676 8.4546548,14.267733 7.0610365,13.033286 5.6639427,11.800229 a 1.8586212,1.8586212 0 0 1 0.4344197,-0.113991 q 1.176061,1.007853 2.352122,2.015707 1.1906575,-1.009939 2.3820096,-2.015707 a 1.9913798,1.9913798 0 0 1 0.437895,0.113991 z"
       id="Neckband-2"
       style="stroke-width:0.0695072;fill:#e83e8c;fill-opacity:1" /><path
       class="cls-6"
       d="M 10.832494,11.686238 Q 9.6418369,12.694091 8.4504844,13.701945 7.2730333,12.694091 6.0983624,11.686238 c 0.1007854,-0.02433 0.2085215,-0.04726 0.3127822,-0.06951 0.1042607,-0.02224 0.1953151,-0.03823 0.2898448,-0.05352 a 2.6412717,2.6412717 0 0 0 0.1153819,-0.359352 c 0.015292,-0.06951 0.027803,-0.131368 0.038229,-0.192535 a 2.8852418,2.8852418 0 0 0 0.301661,0.215472 3.2619705,3.2619705 0 0 0 0.3113921,0.170293 2.5502173,2.5502173 0 0 0 0.9404317,0.225898 2.5870561,2.5870561 0 0 0 1.0426073,-0.24536 3.8444405,3.8444405 0 0 0 0.3426702,-0.195315 c 0.107041,-0.06951 0.1953151,-0.139014 0.2620414,-0.19184 0.02016,0.08966 0.04448,0.184194 0.07507,0.283589 0.03058,0.0994 0.06256,0.199486 0.09731,0.28915 0.08271,0.0139 0.166122,0.02919 0.253006,0.04726 q 0.182804,0.03406 0.351706,0.07576 z"
       id="Neck-8"
       style="stroke-width:0.0695072;opacity:1" /><path
       class="cls-7"
       d="m 11.349628,11.825252 c -0.05839,0.06534 -0.117467,0.129978 -0.178634,0.19045 a 3.8228933,3.8228933 0 0 1 -0.43581,0.379509 2.965175,2.965175 0 0 1 -0.659622,0.373253 2.4098129,2.4098129 0 0 1 -0.4594427,0.139014 2.0261334,2.0261334 0 0 1 -0.4205183,0.03614 2.2193633,2.2193633 0 0 1 -0.8062829,-0.167512 l -0.045875,-0.01807 A 2.9193003,2.9193003 0 0 1 7.7679242,12.428574 4.1773797,4.1773797 0 0 1 6.8865735,11.536797 c -0.039619,-0.05283 -0.077848,-0.107736 -0.1153819,-0.164732 0.00695,-0.02433 0.014597,-0.04865 0.020852,-0.07437 a 2.4563827,2.4563827 0 0 0 0.062556,-0.282199 c 0.041009,0.03406 0.082713,0.06603 0.1251129,0.09661 a 2.9582243,2.9582243 0 0 0 0.3551815,0.222423 c 0.011816,0.0056 0.024328,0.01321 0.036144,0.01946 l 0.044485,0.02294 0.05213,0.02433 0.029888,0.0139 0.026413,0.01182 0.031973,0.0139 0.030583,0.01251 a 0.05769093,0.05769093 0 0 0 0.015292,0.0056 0.26760253,0.26760253 0 0 0 0.036144,0.01529 l 0.047265,0.01738 0.05074,0.01668 0.010426,0.0042 0.036839,0.01112 c 0.016682,0.0063 0.034754,0.01182 0.052825,0.01668 a 0.14596502,0.14596502 0 0 1 0.025022,0.0063 l 0.048655,0.01321 a 1.9872094,1.9872094 0 0 0 0.3155624,0.05491 0.16403687,0.16403687 0 0 0 0.033363,0.0035 0.11260158,0.11260158 0 0 0 0.021547,0 c 0.015292,0 0.028498,0 0.043789,0 0.015292,0 0.024328,0 0.038229,0.0035 h 0.082018 a 2.1804393,2.1804393 0 0 0 0.6756095,-0.111211 0.01112114,0.01112114 0 0 0 0.00417,0 0.19462002,0.19462002 0 0 0 0.026413,-0.009 c 0.04518,-0.01321 0.089664,-0.03197 0.1355389,-0.04866 l 0.011816,-0.0063 c 0.020157,-0.0076 0.038229,-0.01668 0.058386,-0.02433 l 0.015292,-0.0063 A 3.0485836,3.0485836 0 0 0 9.944193,11.07805 l 0.112602,-0.08688 c 0.02155,0.09453 0.04726,0.196705 0.07924,0.303051 0.02919,0.09592 0.06117,0.18628 0.09314,0.269688 l 0.07646,0.0139 0.07576,0.0139 0.07507,0.01321 c 0.01807,0.0049 0.03684,0.0076 0.0563,0.01251 a 0.34753575,0.34753575 0 0 1 0.03684,0.0076 c 0.09453,0.01946 0.18906,0.03962 0.281504,0.06256 0.14805,0.03475 0.292625,0.07298 0.437895,0.113992 z"
       id="NeckShadow-9"
       style="stroke-width:0.0695072" /><path
       class="cls-6"
       d="m 12.499971,7.9154748 c -0.01112,0.3607421 -0.24119,0.7256546 -0.499061,0.8598034 a 0.50531698,0.50531698 0 0 1 -0.109127,0.042399 h -0.0083 a 0.34058504,0.34058504 0 0 1 -0.14249,0.00417 0.36004704,0.36004704 0 0 1 -0.139014,-0.060471 l -0.01946,-0.014597 a 0.54354591,0.54354591 0 0 1 -0.07785,-0.077153 C 11.319044,8.4458143 11.243282,8.0252961 11.365614,7.6902716 a 1.0175847,1.0175847 0 0 1 0.224508,-0.3475357 0.62069885,0.62069885 0 0 1 0.307222,-0.1800235 0.41078726,0.41078726 0 0 1 0.164732,0 c 0.305831,0.058386 0.446931,0.4511014 0.437895,0.7527624 z"
       id="RightEar-7"
       style="stroke-width:0.0695072" /><path
       class="cls-8"
       d="m 12.499971,7.9154748 c -0.01182,0.3607421 -0.241885,0.7256546 -0.499756,0.8611936 a 0.56926356,0.56926356 0 0 1 -0.108432,0.041009 h -0.009 a 0.37464354,0.37464354 0 0 1 -0.139014,0.00487 0.36560761,0.36560761 0 0 1 -0.139014,-0.061166 l -0.01946,-0.015292 a 0.50462191,0.50462191 0 0 1 -0.07785,-0.076458 C 11.32113,8.4458143 11.245367,8.0252961 11.368395,7.6895766 a 1.0092438,1.0092438 0 0 1 0.223813,-0.3475358 0.6950715,0.6950715 0 0 1 0.218252,-0.1522207 0.44693097,0.44693097 0 0 1 0.08966,-0.027803 0.41009219,0.41009219 0 0 1 0.164732,0 0.15639109,0.15639109 0 0 1 0.02433,0.00626 c 0.285674,0.073678 0.419823,0.4545768 0.410787,0.7472019 z"
       id="RightEarShadow-3"
       style="stroke-width:0.0695072;opacity:1" /><path
       class="cls-6"
       d="m 5.4255332,8.6710175 a 0.52338884,0.52338884 0 0 1 -0.09731,0.09175 0.37186325,0.37186325 0 0 1 -0.1390143,0.061166 0.35309632,0.35309632 0 0 1 -0.1390143,-0.00487 h -0.00834 A 0.50531698,0.50531698 0 0 1 4.9327275,8.7766684 C 4.674856,8.6425196 4.4461775,8.277607 4.4336662,7.9168649 4.4246303,7.6152039 4.5657298,7.2217934 4.8722563,7.1606271 c 0.1744629,-0.034753 0.340585,0.04935 0.4719535,0.1814137 a 1.0175847,1.0175847 0 0 1 0.2245081,0.3475358 c 0.1188573,0.3371096 0.042399,0.7576279 -0.1431847,0.9814409 z"
       id="LeftHear"
       style="stroke-width:0.0695072" /><path
       class="cls-6"
       d="m 11.896649,7.1606271 c 0,0.027803 0,0.056301 -0.0049,0.085494 A 5.4820289,5.4820289 0 0 1 11.579696,8.7474754 C 11.256488,9.657324 10.712247,10.463607 10.058185,10.989776 l -0.1126018,0.08688 a 3.0485836,3.0485836 0 0 1 -0.5727389,0.337805 l -0.015292,0.0063 c -0.020157,0.0076 -0.038229,0.01668 -0.058386,0.02433 l -0.011816,0.0063 c -0.045875,0.01668 -0.090359,0.03545 -0.135539,0.04866 a 0.19462002,0.19462002 0 0 1 -0.026413,0.009 0.01112114,0.01112114 0 0 1 -0.00417,0 2.1804393,2.1804393 0 0 1 -0.6756095,0.111212 h -0.082019 c -0.013901,0 -0.025718,0 -0.038229,-0.0035 -0.012511,-0.0035 -0.028498,0 -0.043789,0 a 0.11260158,0.11260158 0 0 1 -0.021547,0 0.16403687,0.16403687 0 0 1 -0.033363,-0.0035 1.9872094,1.9872094 0 0 1 -0.3155625,-0.05491 l -0.048655,-0.01321 a 0.14596502,0.14596502 0 0 0 -0.025023,-0.0063 c -0.018072,-0.0049 -0.036144,-0.01043 -0.052825,-0.01668 l -0.036839,-0.01112 -0.010426,-0.0042 -0.05074,-0.01668 -0.047265,-0.01738 a 0.26760253,0.26760253 0 0 1 -0.036144,-0.01529 0.05769093,0.05769093 0 0 1 -0.015292,-0.0056 l -0.030583,-0.01251 -0.031973,-0.0139 -0.026413,-0.01182 -0.029888,-0.0139 -0.05213,-0.02433 -0.044485,-0.02294 c -0.011816,-0.0063 -0.024328,-0.0139 -0.036144,-0.01946 A 2.9582243,2.9582243 0 0 1 6.9811032,11.110718 c -0.042399,-0.03058 -0.084104,-0.06256 -0.1251128,-0.09661 A 3.1806472,3.1806472 0 0 1 6.5480737,10.736075 3.64565,3.64565 0 0 1 6.2603141,10.422598 v 0 A 5.4486655,5.4486655 0 0 1 5.3122366,8.6814436 5.6064467,5.6064467 0 0 1 5.0488045,7.4108529 C 5.0425488,7.3413457 5.0383784,7.2676682 5.0355981,7.1960758 A 4.6528086,4.6528086 0 0 1 5.0578404,6.439838 C 5.0689615,6.3376625 5.0842531,6.2375722 5.102325,6.1367868 A 3.7311438,3.7311438 0 0 1 5.1878188,5.7663137 5.0531698,5.0531698 0 0 1 5.5075516,4.8912187 C 5.8015669,4.2739952 6.230426,3.6929154 6.7572902,3.280043 7.2438403,2.9040093 7.8117137,2.6662948 8.4553499,2.6649047 c 1.0342664,-0.00487 1.8912891,0.603322 2.4904411,1.4214212 a 4.977407,4.977407 0 0 1 0.598457,1.0766658 c 0.03962,0.09592 0.07646,0.1918397 0.109821,0.2891497 a 4.8300519,4.8300519 0 0 1 0.178633,0.6846454 c 0.01668,0.09731 0.03197,0.1967053 0.0424,0.2954054 a 4.8981689,4.8981689 0 0 1 0.02155,0.7284349 z"
       id="Head-6"
       style="stroke-width:0.0695072;fill:#e59973;fill-opacity:1;opacity:1" /><path
       class="cls-7"
       d="M 10.817898,7.3837451 C 10.473838,7.3740141 9.9282064,7.0834742 9.6244601,6.877733 8.7326834,6.2737159 8.0417823,5.1247627 7.5434161,5.1018254 A 0.40939711,0.40939711 0 0 0 7.3863299,5.1247627 C 7.1611267,5.2081713 7.0846689,5.5028816 7.0040406,5.7878609 6.9046454,6.1395671 6.8393086,6.3668555 6.7955191,6.5128205 6.7906536,6.1124593 6.7830079,5.6787347 7.0255878,5.0531704 7.0985703,4.8689764 7.1889296,4.679917 7.3731236,4.612495 7.4613976,4.5791316 7.7505474,4.5089294 8.485238,5.1887093 a 4.3532328,4.3532328 0 0 1 0.5303395,0.573434 c 0.5984566,0.7819554 0.6047122,0.8424266 0.9084585,1.1121144 0.436505,0.3899351 0.701327,0.3704731 0.893862,0.5094874 z"
       id="HairsShadow-1"
       style="stroke-width:0.0695072" /><path
       class="cls-2"
       d="m 13.050468,11.46173 c -0.03197,0.08549 -0.640161,0.06256 -1.169111,-0.269688 -0.615833,-0.387155 -1.07597,-1.165635 -1.101688,-1.9781736 -0.02641,-0.854938 0.444846,-1.1962181 0.179328,-1.6626111 A 0.53242477,0.53242477 0 0 0 10.819983,7.3837451 v 0 C 10.629534,7.2447308 10.364711,7.2641928 9.9302916,6.877733 9.6265454,6.6073502 9.6202897,6.546879 9.0218332,5.7656186 A 4.3532328,4.3532328 0 0 0 8.4914936,5.1921847 C 7.7547178,4.5124047 7.4655681,4.582607 7.3793792,4.6159704 7.1965754,4.6854775 7.1062161,4.8724518 7.0318434,5.0566457 6.7892635,5.6773446 6.7969093,6.1131544 6.8017748,6.5162959 c 0,0.3419751 0.00417,0.6575376 -0.1529157,1.0384368 C 6.3152247,8.3624058 5.7195485,8.3853431 5.686185,9.1012668 5.666028,9.5037132 5.8502219,9.5919873 5.8397958,10.116766 c 0,0.176548 -0.016682,0.834086 -0.428164,1.274066 -0.6874257,0.734691 -2.0699229,0.43442 -2.0852145,0.278029 C 3.3111257,11.51247 4.6032636,11.529847 4.8555746,10.859798 5.0599256,10.314167 4.2995174,9.9026842 4.4058633,8.9712884 4.460774,8.4958595 4.6776363,8.4576306 4.8555746,7.8709902 5.1176165,7.0021508 4.7673005,6.6754672 4.8270767,5.8726597 4.9306423,4.4700054 6.1477125,3.2751775 7.2382797,2.8143451 A 3.4371286,3.4371286 0 0 1 8.2940933,2.5446573 c 1.4513093,-0.1237227 2.5425717,0.7645787 2.9429327,1.1461729 0.292625,0.2780286 1.025926,0.9786607 1.146173,1.9997207 a 4.3789505,4.3789505 0 0 1 -0.06951,1.3713761 c -0.193925,1.0551185 -0.535205,1.1725856 -0.606798,2.0226581 -0.0285,0.3384998 -0.08341,0.9967329 0.292625,1.5500099 0.401752,0.595676 1.084312,0.73469 1.050949,0.827135 z"
       id="Hairs-29"
       style="stroke-width:0.0695072" /></g></svg>
