<?xml version="1.0" encoding="UTF-8" standalone="no"?>
<svg
   inkscape:export-ydpi="96"
   inkscape:export-xdpi="96"
   inkscape:export-filename="/run/user/1000/gvfs/dav:host=cloud.cgil-fvg.net,ssl=true,user=davo%40fvg.cgil.it,prefix=%2Fremote.php%2Fwebdav/Loghi/logo_davo_istantmessaging_v2_27042020.svg.png"
   sodipodi:docname="logo-davo.svg"
   inkscape:version="1.4.2 (ebf0e940d0, 2025-05-08)"
   id="svg8"
   version="1.1"
   viewBox="0 0 173.00679 46.570903"
   height="176.01601"
   width="653.88397"
   xml:space="preserve"
   xmlns:inkscape="http://www.inkscape.org/namespaces/inkscape"
   xmlns:sodipodi="http://sodipodi.sourceforge.net/DTD/sodipodi-0.dtd"
   xmlns="http://www.w3.org/2000/svg"
   xmlns:svg="http://www.w3.org/2000/svg"
   xmlns:rdf="http://www.w3.org/1999/02/22-rdf-syntax-ns#"
   xmlns:cc="http://creativecommons.org/ns#"
   xmlns:dc="http://purl.org/dc/elements/1.1/"><defs
     id="defs2"><inkscape:path-effect
       effect="powerstroke"
       id="path-effect26927"
       is_visible="true"
       lpeversion="1"
       offset_points="0,1"
       not_jump="false"
       sort_points="true"
       interpolator_type="CubicBezierJohan"
       interpolator_beta="0.2"
       start_linecap_type="zerowidth"
       linejoin_type="extrp_arc"
       miter_limit="4"
       scale_width="1"
       end_linecap_type="zerowidth"
       message="" /><inkscape:path-effect
       effect="powerstroke"
       id="path-effect26144"
       is_visible="true"
       lpeversion="1"
       offset_points="0,1"
       not_jump="false"
       sort_points="true"
       interpolator_type="CubicBezierJohan"
       interpolator_beta="0.2"
       start_linecap_type="zerowidth"
       linejoin_type="extrp_arc"
       miter_limit="4"
       scale_width="1"
       end_linecap_type="zerowidth"
       message="" /></defs><sodipodi:namedview
     inkscape:document-rotation="0"
     inkscape:measure-end="0,0"
     inkscape:measure-start="550.341,241.548"
     inkscape:window-maximized="1"
     inkscape:window-y="0"
     inkscape:window-x="2600"
     inkscape:window-height="1404"
     inkscape:window-width="2520"
     inkscape:showpageshadow="false"
     units="px"
     showgrid="false"
     inkscape:current-layer="layer1"
     inkscape:document-units="px"
     inkscape:cy="222.22222"
     inkscape:cx="81.666667"
     inkscape:zoom="0.9"
     inkscape:pageshadow="2"
     inkscape:pageopacity="0.0"
     borderopacity="1.0"
     bordercolor="#666666"
     pagecolor="#ffffff"
     id="base"
     inkscape:pagecheckerboard="0"
     inkscape:deskcolor="#d1d1d1" /><metadata
     id="metadata5"><rdf:RDF><cc:Work
         rdf:about=""><dc:format>image/svg+xml</dc:format><dc:type
           rdf:resource="http://purl.org/dc/dcmitype/StillImage" /></cc:Work></rdf:RDF></metadata><g
     transform="translate(0,-161.53331)"
     id="layer1"
     inkscape:groupmode="layer"
     inkscape:label="Livello 1"><g
       aria-label="by Davo Davosky"
       id="text3969"
       style="font-size:1.22231px;font-family:Dunkin;-inkscape-font-specification:Dunkin;fill:#3c629e;stroke-width:0.2151" /><g
       id="g2"
       transform="translate(18.770069,162.32918)"
       style="fill:#158cba;fill-opacity:1"><g
         inkscape:label="Layer 1"
         id="layer1-3"
         style="fill:#158cba;fill-opacity:1"><path
           id="path25952"
           style="color:#000000;fill:#158cba;stroke-width:1.33738;stroke-linecap:round;stroke-linejoin:bevel;-inkscape-stroke:none;fill-opacity:1"
           d="m 113.21707,0.00454677 c -0.27788,-0.01087216 -0.55322,-0.00204414 -0.8253,0.02443671 -1.6325,0.15888382 -3.14956,0.97201862 -4.42639,2.19930792 -1.70244,1.6363862 -3.0903,3.9970312 -4.23199,6.8045242 -1.60217,3.9398214 -2.67434,8.7890944 -3.20345,13.7712194 -0.20795,-0.437269 -0.35424,-0.956085 -0.598691,-1.346241 a 1.074728,1.0747281 0 0 0 -1.481752,-0.339893 1.074728,1.0747281 0 0 0 -0.49762,1.027454 c -0.535703,-0.706874 -1.235124,-1.234782 -2.042691,-1.503971 -0.437964,-0.145989 -0.915631,-0.19966 -1.390674,-0.147732 -0.475049,0.05193 -0.947782,0.209284 -1.375122,0.482071 -0.854686,0.545574 -1.502619,1.480135 -1.928283,2.745801 a 1.0748354,1.0748355 0 0 0 -0.04776,0.207701 c -0.180082,1.426727 -0.137479,2.518852 0.189947,3.420037 0.135416,0.372683 0.369629,0.675465 0.616472,0.956365 -0.0041,0.108032 -0.0561,0.217315 -0.04888,0.324342 0.06151,0.911883 0.614894,1.816504 1.5173,2.161541 a 1.0748354,1.0748355 0 0 0 0.27658,0.06554 c 0.878976,0.08812 1.5995,-0.02329 2.241516,-0.243255 l -0.09664,0.593146 a 1.074728,1.0747281 0 0 0 0.887496,1.234056 1.074728,1.0747281 0 0 0 1.234056,-0.887497 l 0.936373,-5.741526 a 1.0748354,1.0748355 0 0 0 0.149946,-0.582041 c -0.02911,-0.380872 -0.09062,-0.750243 -0.181049,-1.102986 0.579489,1.387449 1.008266,3.111922 1.257386,5.175038 a 1.0748354,1.0748355 0 0 0 2.14154,-0.124411 c 0.007,-1.50322 0.0739,-3.026726 0.19661,-4.545236 0.61384,3.198975 3.34871,4.829579 5.80707,4.367516 2.25938,-0.424668 4.05961,-2.648802 4.04317,-5.852605 1.05846,0.111987 2.12318,0.220859 3.26341,0.292131 5.9845,0.374063 12.90655,0.275379 18.40755,0.532054 a 1.074728,1.0747281 0 0 0 1.12408,-1.02412 1.074728,1.0747281 0 0 0 -1.02412,-1.122981 c -5.6093,-0.26173 -12.51634,-0.163745 -18.3731,-0.529834 -1.42111,-0.08883 -2.77256,-0.208537 -4.03095,-0.362107 -0.67429,-1.009115 -1.57784,-1.85183 -2.79802,-2.328156 -1.50242,-0.586509 -3.33095,-0.781871 -5.50493,-0.665347 0.57627,-2.956372 1.36202,-5.728722 2.32482,-8.0963398 1.06868,-2.6279468 2.36071,-4.747537 3.72994,-6.0636459 1.35929,-1.3065567 2.68399,-1.8269892 4.19091,-1.5672856 2.62353,0.6633303 3.29784,1.6657457 3.60775,3.0879173 0.31169,1.430389 -0.012,3.4072424 -0.11218,5.442731 a 1.074728,1.0747281 0 0 0 1.02078,1.126312 1.074728,1.0747281 0 0 0 1.12632,-1.019677 c 0.0902,-1.8337586 0.51414,-3.9484049 0.0656,-6.007 -0.4486,-2.0585778 -2.04475,-3.9368532 -5.22614,-4.72960646 a 1.0748354,1.0748355 0 0 0 -0.07,-0.01555565 C 113.7754,0.04599168 113.49495,0.01541871 113.21707,0.00454677 Z M 40.41221,1.0842069 C 35.351617,0.96971616 29.968904,1.93931 24.776023,4.0255041 14.39025,8.1979094 4.7387213,17.050466 0.44256971,31.029225 A 2.4649988,2.4649988 0 0 0 2.07539,34.108256 2.4649988,2.4649988 0 0 0 5.1544193,32.476547 C 9.0173977,19.90724 17.468043,12.274505 26.615444,8.5996187 35.762841,4.9247091 45.582412,5.4200014 51.656451,8.9184065 c 3.064232,1.7649715 5.35141,3.9539195 6.990019,6.3513355 -1.996028,0.473323 -4.150693,1.044838 -6.509059,1.723901 a 1.0748347,1.0748348 0 0 0 -0.124412,0.04331 c -1.504448,0.640069 -2.518442,1.473604 -2.912415,2.586964 -0.393981,1.113359 0.0041,2.27999 0.690892,3.131237 1.373947,1.702486 3.888995,2.809689 6.502399,3.054592 a 1.0747273,1.0747274 0 0 0 1.169631,-0.969694 1.0747273,1.0747274 0 0 0 -0.969695,-1.169633 c -2.080283,-0.194933 -4.24672,-1.295953 -5.029528,-2.265952 -0.391407,-0.484999 -0.439967,-0.770765 -0.336559,-1.062997 0.101926,-0.288047 0.532963,-0.803037 1.690578,-1.305145 2.569419,-0.738519 4.877404,-1.346167 6.988911,-1.83609 1.037948,1.979374 1.688448,4.054572 2.016031,6.115851 0.848258,5.337545 -0.67041,10.515908 -3.129015,13.172522 -2.63999,2.851123 -5.738147,3.728195 -8.568414,3.538886 -2.830264,-0.189324 -5.276752,-1.624804 -6.215821,-2.999056 -1.088858,-1.593564 -1.141932,-3.090152 -0.753096,-4.387508 0.155192,-0.517797 0.435327,-0.923211 0.710888,-1.304034 -0.23315,1.088293 0.0095,2.014495 0.556491,2.803561 0.601447,0.867405 1.699991,1.574074 2.94574,1.666142 h 0.0035 c 1.51099,0.111492 2.677325,-0.533069 3.581097,-1.522854 0.90377,-0.989801 1.473638,-2.52519 1.229613,-4.132033 -0.283666,-1.869539 -1.465904,-3.260122 -3.061259,-4.164243 -1.595356,-0.904119 -3.784541,-1.20921 -5.902586,-0.375439 -2.365158,0.931127 -4.01318,3.036968 -4.785161,5.612677 -0.771981,2.575709 -0.518956,5.772939 1.401782,8.583966 2.070698,3.030309 5.798341,4.858889 9.960197,5.137271 4.161856,0.278396 8.873148,-1.173144 12.51495,-5.10617 3.822162,-4.127959 5.437609,-10.640231 4.379731,-17.296776 -0.33707,-2.12097 -0.965494,-4.264683 -1.91162,-6.341337 6.009525,-0.989603 10.487026,-0.827626 15.753929,0.0078 L 75.985622,27.77582 c -0.07454,-0.01505 -0.1021,-0.0172 -0.175504,-0.03222 -0.355257,-0.07241 -0.356955,-0.07523 -0.677566,-0.142186 l 0.153278,-4.850696 a 1.0748347,1.0748348 0 0 0 -2.013829,-0.555415 c -0.28929,0.521381 -1.547663,1.624852 -2.373697,2.837996 -0.413013,0.606572 -0.807083,1.401086 -0.546494,2.314828 0.260589,0.913741 1.081307,1.500699 2.162653,1.889405 a 1.0748347,1.0748348 0 0 0 0.135523,0.03889 c 0,0 0.252115,0.05223 0.27769,0.05775 l -0.219931,6.948923 a 1.0748347,1.0748348 0 0 0 2.073792,0.427643 l 2.560306,-6.510171 c 0.578758,0.106118 1.333719,0.273999 1.69169,0.302127 a 1.0748347,1.0748348 0 0 0 0.02107,0.0011 c 6.404816,0.377223 10.728806,-2.394136 11.77296,-6.130292 0.522077,-1.868078 0.168927,-3.921039 -1.047448,-5.680434 -1.216372,-1.759391 -3.260643,-3.235841 -6.104744,-4.183127 a 1.0748347,1.0748348 0 0 0 -0.139951,-0.03666 c -0.0028,-5.21e-4 -0.0052,-5.41e-4 -0.0078,-0.0011 l 2.831343,-7.19993 A 1.0747273,1.0747274 0 0 0 85.752488,5.8793549 1.0747273,1.0747274 0 0 0 85.340397,5.8049344 1.0747273,1.0747274 0 0 0 84.358483,6.4858322 L 81.339432,14.161194 C 75.506689,13.209804 70.518043,13.039446 63.760416,14.210076 61.66628,10.535719 58.502139,7.1728173 54.117896,4.6475304 50.211822,2.3977802 45.472805,1.1986217 40.41221,1.0842069 Z M 82.720003,16.526012 c 0.114717,0.02122 0.208604,0.0249 0.324344,0.04665 2.468775,0.832944 4.080422,2.06056 4.967326,3.343393 0.893766,1.29277 1.096221,2.627166 0.74643,3.878778 -0.69928,2.502137 -3.828312,4.898949 -9.57032,4.563008 -0.09608,-0.008 -0.737863,-0.138704 -1.046337,-0.191043 z m 20.265847,3.798804 c 0.51703,0.462161 1.14813,0.830105 1.84719,1.147418 -0.37189,-0.113235 -0.81904,-0.07157 -1.1552,0.09664 -0.33774,0.169011 -0.57055,0.422319 -0.74087,0.688672 -0.11443,0.178942 -0.20626,0.367804 -0.2788,0.5676 0.0926,-0.839582 0.202,-1.674783 0.32768,-2.500326 z m 2.23262,1.315141 c 0.71464,0.298565 1.49121,0.553588 2.35593,0.761983 0.80788,0.194697 1.73964,0.325779 2.65805,0.464299 0.18522,2.605111 -1.03289,3.777151 -2.33594,4.022068 -0.6318,0.118757 -1.28795,0.0048 -1.86274,-0.337673 a 1.074728,1.0747281 0 0 0 0.7331,-1.023011 c -0.0821,-1.081136 -0.25963,-1.917407 -0.53649,-2.580298 -0.22485,-0.53835 -0.51241,-1.021309 -1.01191,-1.307368 z m -10.350068,0.968586 c 0.113664,0.003 0.231514,0.02792 0.360997,0.07108 0.644486,0.214838 1.417529,1.168772 1.615049,2.471443 l -0.166604,0.618695 c -0.114717,0.333709 -0.279816,0.638529 -0.344336,0.938593 -0.667974,0.200975 -1.222832,0.320669 -1.700576,0.372106 A 1.074728,1.0747281 0 0 0 94.430776,25.7842 1.074728,1.0747281 0 0 0 93.232263,25.75198 c -0.02264,-0.376369 -0.0028,-0.861067 0.0622,-1.433993 0.311021,-0.868158 0.696008,-1.333236 1.005238,-1.530629 0.201404,-0.12858 0.379284,-0.183843 0.56871,-0.178834 z m -21.830905,3.225649 -0.03889,1.246276 c -0.26362,-0.144185 -0.536359,-0.313685 -0.575375,-0.323233 0.0089,-0.03244 0.03817,-0.201403 0.251033,-0.514283 0.08065,-0.118434 0.251916,-0.279529 0.363219,-0.40876 z m 2.026029,3.948757 c 0.06201,0.0129 0.0592,0.01268 0.122175,0.02555 l -0.134406,0.341005 z M 45.138502,30.17838 c 0.09913,0.0018 0.164111,0.06113 0.275468,0.0411 a 2.4649988,2.4649988 0 0 0 -1.151859,0.613141 c 0.278157,-0.282291 0.568162,-0.555276 0.763094,-0.632024 0.04348,-0.01719 0.08026,-0.02281 0.113297,-0.02223 z" /></g><g
         id="g1"
         inkscape:label="1"
         transform="matrix(0.26458332,0,0,0.26458334,145.46666,0)"
         style="fill:#158cba;fill-opacity:1"><g
           inkscape:groupmode="layer"
           id="layer2"
           inkscape:label="main"
           transform="matrix(3.7795277,0,0,3.7795275,-549.79528,0)"
           style="fill:#158cba;fill-opacity:1" /></g></g></g></svg>
